<?xml version="1.0" standalone="no"?>
<!DOCTYPE svg PUBLIC "-//W3C//DTD SVG 1.1//EN" "http://www.w3.org/Graphics/SVG/1.1/DTD/svg11.dtd" >
<svg xmlns="http://www.w3.org/2000/svg" xmlns:xlink="http://www.w3.org/1999/xlink" version="1.1">
<metadata>
Created by FontForge 20170731 at Fri Dec 22 18:58:35 2017
 By Aleksey,,,
Copyright 2017 IBM Corp. All rights reserved.
</metadata>
<defs>
<font id="IBMPlexMono" horiz-adv-x="600" >
  <font-face 
    font-family="IBM Plex Mono"
    font-weight="400"
    font-stretch="normal"
    units-per-em="1000"
    panose-1="2 11 5 9 5 2 3 0 2 3"
    ascent="780"
    descent="-220"
    x-height="516"
    cap-height="698"
    bbox="-260 -251 648 1119"
    underline-thickness="60"
    underline-position="-410"
    unicode-range="U+0020-FB02"
  />
<missing-glyph 
d="M32 0v780h536v-780h-536zM92 60h416v660h-416v-660z" />
    <glyph glyph-name=".notdef" 
d="M32 0v780h536v-780h-536zM92 60h416v660h-416v-660z" />
    <glyph glyph-name=".null" horiz-adv-x="0" 
 />
    <glyph glyph-name="nonmarkingreturn" horiz-adv-x="333" 
 />
    <glyph glyph-name="space" unicode=" " 
 />
    <glyph glyph-name="exclam" unicode="!" 
d="M316 233h-32l-28 262v203h88v-203zM300 -9q-74 0 -74 60v18q0 60 74 60t74 -60v-18q0 -60 -74 -60z" />
    <glyph glyph-name="quotedbl" unicode="&#x22;" 
d="M427 463h-76v277h76v-277zM249 463h-76v277h76v-277z" />
    <glyph glyph-name="numbersign" unicode="#" 
d="M110 0l38 216h-132v66h144l23 134h-131v66h143l38 216h73l-123 -698h-73zM294 0l123 698h73l-38 -216h132v-66h-144l-23 -134h131v-66h-143l-38 -216h-73z" />
    <glyph glyph-name="dollar" unicode="$" 
d="M279 -113v102q-148 9 -229 122l61 50q72 -90 169 -100v261l-23 4q-182 30 -182 194q0 83 54.5 132.5t149.5 56.5v102h62v-102q132 -10 208 -113l-63 -45q-57 76 -146 85v-245l30 -5q182 -31 182 -195q0 -87 -55 -140.5t-156 -61.5v-102h-62zM156 520q0 -49 29 -77.5
t95 -41.5v236q-124 -13 -124 -117zM471 190q0 53 -30.5 81.5t-100.5 40.5v-250q63 7 97 40t34 88z" />
    <glyph glyph-name="percent" unicode="%" 
d="M169 356q-67 0 -108 46t-41 131t41 131t108 46t108 -46t41 -131t-41 -131t-108 -46zM169 410q37 0 59 26t22 72v50q0 46 -22 72t-59 26t-59 -26t-22 -72v-50q0 -46 22 -72t59 -26zM350 398l160 300h72l-160 -300h-72zM18 0l160 300h72l-160 -300h-72zM431 -12
q-67 0 -108 46t-41 131t41 131t108 46t108 -46t41 -131t-41 -131t-108 -46zM431 42q37 0 59 26t22 72v50q0 46 -22 72t-59 26t-59 -26t-22 -72v-50q0 -46 22 -72t59 -26z" />
    <glyph glyph-name="ampersand" unicode="&#x26;" 
d="M217 -12q-89 0 -140.5 55t-51.5 138q0 137 129 203q-65 84 -65 157q0 74 52.5 121.5t128.5 47.5q62 0 106 -31.5t60 -74.5l-66 -34q-30 72 -104 72q-44 0 -71 -27.5t-27 -70.5v-8q0 -31 15.5 -61t55.5 -80l90 -111l73 -90h5q6 34 13 187h141v-67h-75q-1 -7 -3.5 -25.5
t-3.5 -25.5t-3.5 -22.5t-4.5 -24.5t-5 -22t-7 -25t-9 -25l122 -144h-95l-87 103h-5q-15 -53 -58.5 -84t-109.5 -31zM238 59q88 0 128 68l-174 210q-84 -52 -84 -145v-15q0 -54 36 -86t94 -32z" />
    <glyph glyph-name="quotesingle" unicode="'" 
d="M338 463h-76v277h76v-277z" />
    <glyph glyph-name="parenleft" unicode="(" 
d="M205 311q0 140 59.5 261.5t148.5 187.5h81q-93 -70 -153.5 -177t-60.5 -229v-86q0 -122 60.5 -229t153.5 -177h-81q-89 66 -148.5 187.5t-59.5 261.5z" />
    <glyph glyph-name="parenright" unicode=")" 
d="M395 311q0 -140 -59.5 -261.5t-148.5 -187.5h-81q93 70 153.5 177t60.5 229v86q0 122 -60.5 229t-153.5 177h81q89 -66 148.5 -187.5t59.5 -261.5z" />
    <glyph glyph-name="asterisk" unicode="*" 
d="M300 224l-125 -172l-57 42l124 170l-199 66l21 66l199 -64v216h74v-216l199 64l21 -66l-199 -66l124 -170l-57 -42z" />
    <glyph glyph-name="plus" unicode="+" 
d="M338 62h-76v209h-200v68h200v209h76v-209h200v-68h-200v-209z" />
    <glyph glyph-name="comma" unicode="," 
d="M204 -141l53 277h129l-115 -277h-67z" />
    <glyph glyph-name="hyphen" unicode="-" 
d="M445 262h-290v84h290v-84z" />
    <glyph glyph-name="period" unicode="." 
d="M300 -9q-74 0 -74 60v18q0 60 74 60t74 -60v-18q0 -60 -74 -60z" />
    <glyph glyph-name="slash" unicode="/" 
d="M162 -138h-72l348 898h72z" />
    <glyph glyph-name="zero" unicode="0" 
d="M300 -12q-244 0 -244 361t244 361t244 -361t-244 -361zM300 61q157 0 157 231v114q0 231 -157 231t-157 -231v-114q0 -231 157 -231zM300 290q-62 0 -62 48v22q0 48 62 48t62 -48v-22q0 -48 -62 -48z" />
    <glyph glyph-name="one" unicode="1" 
d="M553 0h-468v73h200v563h-7l-176 -164l-49 53l185 173h131v-625h184v-73z" />
    <glyph glyph-name="two" unicode="2" 
d="M537 73v-73h-466v86l233 210q117 105 117 197v12q0 63 -33.5 97.5t-97.5 34.5q-114 0 -150 -119l-75 28q54 164 227 164q102 0 159.5 -55.5t57.5 -146.5q0 -74 -39.5 -136t-116.5 -129l-195 -170h379z" />
    <glyph glyph-name="three" unicode="3" 
d="M193 402h77q71 0 108.5 32t37.5 84v7q0 54 -34.5 83t-93.5 29q-98 0 -147 -89l-63 48q73 114 212 114q93 0 153.5 -47t60.5 -129q0 -64 -37.5 -106t-98.5 -57v-4q64 -12 107 -57t43 -119q0 -90 -66.5 -146.5t-174.5 -56.5q-144 0 -229 119l63 48q31 -47 68 -70.5
t98 -23.5q73 0 113 34.5t40 96.5v8q0 62 -39 96t-115 34h-83v72z" />
    <glyph glyph-name="four" unicode="4" 
d="M458 0h-80v137h-344v74l302 487h122v-492h104v-69h-104v-137zM374 633l-265 -427h269v427h-4z" />
    <glyph glyph-name="five" unicode="5" 
d="M501 698v-73h-312l-20 -267h7q28 38 61 57t85 19q93 0 152 -58t59 -157q0 -104 -64 -167.5t-174 -63.5q-80 0 -131.5 32.5t-90.5 86.5l63 48q32 -47 67 -70.5t94 -23.5q71 0 110 39t39 108v8q0 69 -39.5 108t-111.5 39q-45 0 -73.5 -15t-54.5 -44l-71 10l25 384h380z" />
    <glyph glyph-name="six" unicode="6" 
d="M301 -12q-110 0 -173.5 71.5t-63.5 196.5q0 142 76.5 260t176.5 182h108q-121 -87 -184 -166.5t-91 -195.5l5 -2q60 100 172 100q93 0 151 -58.5t58 -156.5q0 -103 -64.5 -167t-170.5 -64zM300 59q71 0 111 39.5t40 109.5v8q0 70 -40 109.5t-111 39.5t-111 -39.5
t-40 -109.5v-8q0 -70 40 -109.5t111 -39.5z" />
    <glyph glyph-name="seven" unicode="7" 
d="M263 0h-90l273 626h-306v-130h-75v202h466v-74z" />
    <glyph glyph-name="eight" unicode="8" 
d="M300 -12q-118 0 -181.5 56t-63.5 146q0 135 142 173v8q-56 19 -88.5 62t-32.5 102q0 80 59.5 127.5t164.5 47.5t164.5 -47.5t59.5 -127.5q0 -59 -32.5 -102t-88.5 -62v-8q142 -38 142 -173q0 -90 -63.5 -146t-181.5 -56zM300 59q74 0 116 33.5t42 92.5v22q0 60 -41.5 93
t-116.5 33t-116.5 -33t-41.5 -93v-22q0 -59 42 -92.5t116 -33.5zM300 401q67 0 103 29t36 83v14q0 53 -36.5 82.5t-102.5 29.5t-102.5 -29.5t-36.5 -82.5v-14q0 -54 36 -83t103 -29z" />
    <glyph glyph-name="nine" unicode="9" 
d="M536 442q0 -142 -76.5 -260t-176.5 -182h-108q121 87 184 166.5t91 195.5l-5 2q-60 -100 -172 -100q-93 0 -151 58.5t-58 156.5q0 103 64.5 167t170.5 64q110 0 173.5 -71.5t63.5 -196.5zM300 333q71 0 111 39.5t40 109.5v8q0 70 -40 109.5t-111 39.5t-111 -39.5
t-40 -109.5v-8q0 -70 40 -109.5t111 -39.5z" />
    <glyph glyph-name="colon" unicode=":" 
d="M300 387q-74 0 -74 60v18q0 60 74 60t74 -60v-18q0 -60 -74 -60zM300 -9q-74 0 -74 60v18q0 60 74 60t74 -60v-18q0 -60 -74 -60z" />
    <glyph glyph-name="semicolon" unicode=";" 
d="M300 387q-74 0 -74 60v18q0 60 74 60t74 -60v-18q0 -60 -74 -60zM204 -141l53 277h129l-115 -277h-67z" />
    <glyph glyph-name="less" unicode="&#x3c;" 
d="M515 16l-430 249v80l430 249v-83l-355 -201v-8l355 -201v-85z" />
    <glyph glyph-name="equal" unicode="=" 
d="M538 372h-476v68h476v-68zM538 172h-476v68h476v-68z" />
    <glyph glyph-name="greater" unicode="&#x3e;" 
d="M85 16v83l355 201v8l-355 201v85l430 -249v-80z" />
    <glyph glyph-name="question" unicode="?" 
d="M318 215h-79v157q184 8 184 139v14q0 55 -33 83.5t-92 28.5q-57 0 -94.5 -32t-51.5 -85l-75 28q21 72 77.5 117t146.5 45q95 0 152 -51.5t57 -137.5q0 -87 -56 -139t-136 -66v-101zM282 -9q-74 0 -74 60v18q0 60 74 60t74 -60v-18q0 -60 -74 -60z" />
    <glyph glyph-name="at" unicode="@" 
d="M454 -48v-64h-123q-148 0 -208.5 99t-60.5 313q0 224 58.5 317t180.5 93q114 0 169 -67.5t55 -179.5v-372h-71v57h-5q-26 -69 -100 -69q-63 0 -98 53.5t-35 160.5q0 108 35 161.5t98 53.5q74 0 100 -69h5v24q0 183 -151 183q-89 0 -127.5 -68t-38.5 -220v-129
q0 -63 8.5 -109.5t29 -86.5t59.5 -60.5t97 -20.5h123zM375 139q37 0 58 20t21 58v153q0 38 -21 58t-58 20q-85 0 -85 -124v-61q0 -124 85 -124z" />
    <glyph glyph-name="A" unicode="A" 
d="M570 0h-89l-59 199h-245l-59 -199h-87l214 698h111zM402 272l-98 337h-9l-98 -337h205z" />
    <glyph glyph-name="B" unicode="B" 
d="M88 0v698h237q89 0 140.5 -49t51.5 -131q0 -116 -109 -150v-3q135 -31 135 -164q0 -85 -53.5 -143t-134.5 -58h-267zM172 73h158q59 0 91.5 27t32.5 79v41q0 52 -32.5 79t-91.5 27h-158v-253zM172 395h144q54 0 83.5 24t29.5 71v39q0 47 -29.5 71.5t-83.5 24.5h-144v-230
z" />
    <glyph glyph-name="C" unicode="C" 
d="M323 -12q-126 0 -189.5 92.5t-63.5 268.5t63.5 268.5t189.5 92.5q87 0 135.5 -41.5t79.5 -111.5l-72 -33q-22 55 -53.5 84t-89.5 29q-81 0 -122.5 -61.5t-41.5 -169.5v-114q0 -108 41.5 -169.5t122.5 -61.5q58 0 89.5 29t53.5 84l72 -33q-31 -70 -79.5 -111.5
t-135.5 -41.5z" />
    <glyph glyph-name="D" unicode="D" 
d="M95 0v698h195q254 0 254 -349t-254 -349h-195zM179 73h107q82 0 125.5 58t43.5 164v108q0 106 -43.5 164t-125.5 58h-107v-552z" />
    <glyph glyph-name="E" unicode="E" 
d="M520 0h-430v698h430v-73h-346v-235h334v-73h-334v-244h346v-73z" />
    <glyph glyph-name="F" unicode="F" 
d="M174 0h-84v698h440v-73h-356v-235h326v-73h-326v-317z" />
    <glyph glyph-name="G" unicode="G" 
d="M444 0v93h-5q-20 -48 -56 -76.5t-102 -28.5q-112 0 -168.5 91.5t-56.5 264.5q0 366 249 366q157 0 217 -153l-72 -33q-22 55 -53 84t-89 29q-82 0 -122.5 -61t-40.5 -170v-108q0 -239 155 -239q66 0 105 40.5t39 106.5v72h-147v67h225v-345h-78z" />
    <glyph glyph-name="H" unicode="H" 
d="M436 0v317h-272v-317h-84v698h84v-308h272v308h84v-698h-84z" />
    <glyph glyph-name="I" unicode="I" 
d="M516 0h-432v67h174v564h-174v67h432v-67h-174v-564h174v-67z" />
    <glyph glyph-name="J" unicode="J" 
d="M144 698h336v-517q0 -88 -57 -140.5t-149 -52.5q-79 0 -131.5 41.5t-68.5 116.5l80 17q23 -101 122 -101q120 0 120 134v429h-252v73z" />
    <glyph glyph-name="K" unicode="K" 
d="M480 0l-211 342l-100 -118v-224h-84v698h84v-364h3l92 116l206 248h101l-245 -294l252 -404h-98z" />
    <glyph glyph-name="L" unicode="L" 
d="M535 0h-415v698h84v-625h331v-73z" />
    <glyph glyph-name="M" unicode="M" 
d="M455 0v350v221h-8l-147 -359l-147 359h-8v-221v-350h-77v698h108l123 -308h6l123 308h104v-698h-77z" />
    <glyph glyph-name="N" unicode="N" 
d="M401 0l-238 591h-7v-591h-76v698h119l238 -585h7v585h76v-698h-119z" />
    <glyph glyph-name="O" unicode="O" 
d="M300 -12q-244 0 -244 361t244 361t244 -361t-244 -361zM300 61q155 0 155 231v114q0 231 -155 231t-155 -231v-114q0 -231 155 -231z" />
    <glyph glyph-name="P" unicode="P" 
d="M174 0h-84v698h254q96 0 147.5 -53t51.5 -148t-51.5 -148t-147.5 -53h-170v-296zM174 625v-256h168q53 0 82.5 26.5t29.5 75.5v52q0 49 -29.5 75.5t-82.5 26.5h-168z" />
    <glyph glyph-name="Q" unicode="Q" 
d="M491 -96v-68h-117q-56 0 -85 32t-29 86v37q-204 27 -204 358q0 361 244 361t244 -361q0 -331 -204 -358v-87h151zM300 61q155 0 155 231v114q0 231 -155 231t-155 -231v-114q0 -231 155 -231z" />
    <glyph glyph-name="R" unicode="R" 
d="M174 298v-298h-84v698h254q96 0 147.5 -53t51.5 -148q0 -85 -44.5 -136t-127.5 -59l178 -302h-94l-170 298h-111zM174 369h168q53 0 82.5 26.5t29.5 75.5v52q0 49 -29.5 75.5t-82.5 26.5h-168v-256z" />
    <glyph glyph-name="S" unicode="S" 
d="M298 -12q-164 0 -253 123l61 50q41 -52 87 -76.5t108 -24.5q75 0 115.5 35t40.5 98q0 52 -30 80t-100 40l-78 13q-180 30 -180 190q0 94 62 144t171 50q159 0 234 -107l-59 -51q-66 86 -176 86q-71 0 -109 -30.5t-38 -89.5q0 -49 29.5 -78t101.5 -41l75 -13
q182 -32 182 -191q0 -97 -64 -152t-180 -55z" />
    <glyph glyph-name="T" unicode="T" 
d="M575 625h-233v-625h-84v625h-233v73h550v-73z" />
    <glyph glyph-name="U" unicode="U" 
d="M80 698h84v-419q0 -49 1.5 -75.5t8.5 -58.5t21.5 -47.5t40.5 -26t64 -10.5t64 10.5t40.5 26t21.5 47.5t8.5 58.5t1.5 75.5v419h84v-399q0 -84 -8 -137t-30.5 -95t-67 -60.5t-114.5 -18.5t-114.5 18.5t-67 60.5t-30.5 95t-8 137v399z" />
    <glyph glyph-name="V" unicode="V" 
d="M357 0h-114l-207 698h89l99 -349l75 -264h5l75 264l99 349h86z" />
    <glyph glyph-name="W" unicode="W" 
d="M211 0h-121l-55 698h75l29 -400l15 -211h8l92 429h94l92 -429h8l15 211l29 400h73l-55 -698h-121l-85 417h-8z" />
    <glyph glyph-name="X" unicode="X" 
d="M352 357l223 -357h-95l-83 139l-92 152h-4l-95 -152l-88 -139h-92l228 356l-215 342h95l81 -135l87 -141h4l86 141l84 135h92z" />
    <glyph glyph-name="Y" unicode="Y" 
d="M342 0h-84v274l-241 424h96l100 -182l85 -159h4l87 159l100 182h94l-241 -424v-274z" />
    <glyph glyph-name="Z" unicode="Z" 
d="M552 73v-73h-504v75l395 550h-378v73h470v-75l-396 -550h413z" />
    <glyph glyph-name="bracketleft" unicode="[" 
d="M505 -138h-280v898h280v-62h-211v-774h211v-62z" />
    <glyph glyph-name="backslash" unicode="\" 
d="M510 -138h-72l-348 898h72z" />
    <glyph glyph-name="bracketright" unicode="]" 
d="M95 760h280v-898h-280v62h211v774h-211v62z" />
    <glyph glyph-name="asciicircum" unicode="^" 
d="M555 318l-66 -31l-189 342h-4l-189 -342l-62 31l210 380h90z" />
    <glyph glyph-name="underscore" unicode="_" 
d="M540 -169h-480v74h480v-74z" />
    <glyph glyph-name="grave" unicode="`" 
d="M293 585l-106 159l73 35l85 -170z" />
    <glyph glyph-name="a" unicode="a" 
d="M550 0h-55q-81 0 -92 84h-5q-36 -96 -155 -96q-81 0 -129 42t-48 115q0 150 222 150h110v51q0 56 -32 85t-91 29q-94 0 -138 -76l-54 40q21 44 72 74t125 30q91 0 144.5 -46.5t53.5 -127.5v-284h72v-70zM257 55q61 0 101 27.5t40 67.5v85h-110q-138 0 -138 -78v-21
q0 -39 28.5 -60t78.5 -21z" />
    <glyph glyph-name="b" unicode="b" 
d="M95 0v740h80v-308h4q50 96 159 96q95 0 148.5 -71.5t53.5 -198.5t-53.5 -198.5t-148.5 -71.5q-109 0 -159 96h-4v-84h-80zM307 59q69 0 108 42t39 113v88q0 71 -39 113t-108 42q-56 0 -94 -28t-38 -78v-186q0 -50 38 -78t94 -28z" />
    <glyph glyph-name="c" unicode="c" 
d="M318 -12q-110 0 -172 73t-62 197t62 197t171 73q142 0 191 -119l-64 -34q-30 84 -127 84q-69 0 -108 -43.5t-39 -113.5v-88q0 -70 39 -113.5t110 -43.5q98 0 140 90l57 -39q-24 -55 -74 -87.5t-124 -32.5z" />
    <glyph glyph-name="d" unicode="d" 
d="M425 0v84h-4q-50 -96 -159 -96q-95 0 -148.5 71.5t-53.5 198.5t53.5 198.5t148.5 71.5q109 0 159 -96h4v308h80v-740h-80zM293 59q56 0 94 28t38 78v186q0 50 -38 78t-94 28q-69 0 -108 -42t-39 -113v-88q0 -71 39 -113t108 -42z" />
    <glyph glyph-name="e" unicode="e" 
d="M309 -12q-111 0 -176.5 73t-65.5 196t65.5 197t171.5 74q103 0 166 -70.5t63 -181.5v-38h-382v-24q0 -69 43 -113t115 -44q105 0 148 90l59 -40q-24 -54 -78.5 -86.5t-128.5 -32.5zM304 462q-66 0 -109.5 -44.5t-43.5 -112.5v-7h296v11q0 68 -39.5 110.5t-103.5 42.5z
" />
    <glyph glyph-name="f" unicode="f" 
d="M83 0v68h174v380h-184v68h184v106q0 54 29 86t85 32h173v-68h-207v-156h207v-68h-207v-380h184v-68h-438z" />
    <glyph glyph-name="g" unicode="g" 
d="M561 -59q0 -153 -260 -153q-234 0 -234 128q0 77 84 99v12q-46 22 -46 71q0 67 93 90v4q-48 21 -74.5 62.5t-26.5 95.5q0 79 55 128.5t145 49.5q59 0 102 -21v9q0 70 62 70h95v-70h-116v-35q58 -50 58 -131q0 -79 -55.5 -128.5t-145.5 -49.5q-28 0 -49 4
q-29 -6 -51.5 -20.5t-22.5 -38.5q0 -38 83 -38h114q190 0 190 -138zM486 -63q0 68 -112 68h-179q-52 -21 -52 -70q0 -37 29 -60t88 -23h78q71 0 109.5 21.5t38.5 63.5zM297 234q58 0 87.5 27.5t29.5 74.5v29q0 47 -29.5 74t-87.5 27t-87 -27t-29 -74v-29q0 -47 29 -74.5
t87 -27.5z" />
    <glyph glyph-name="h" unicode="h" 
d="M98 0v740h80v-308h4q41 96 147 96q82 0 130.5 -52t48.5 -145v-331h-80v317q0 140 -122 140q-53 0 -90.5 -25.5t-37.5 -73.5v-358h-80z" />
    <glyph glyph-name="i" unicode="i" 
d="M332 630q-63 0 -63 51v16q0 51 63 51t63 -51v-16q0 -51 -63 -51zM106 0v68h186v380h-186v68h266v-448h174v-68h-440z" />
    <glyph glyph-name="j" unicode="j" 
d="M102 -200v68h250v580h-259v68h339v-598q0 -54 -29 -86t-85 -32h-216zM392 630q-63 0 -63 51v16q0 51 63 51t63 -51v-16q0 -51 -63 -51z" />
    <glyph glyph-name="k" unicode="k" 
d="M105 0v740h80v-467h4l90 85l172 158h98l-214 -202l239 -314h-99l-201 268l-89 -81v-187h-80z" />
    <glyph glyph-name="l" unicode="l" 
d="M80 0v68h180v604h-180v68h260v-672h180v-68h-440z" />
    <glyph glyph-name="m" unicode="m" 
d="M128 0h-74v516h74v-60h4q29 72 99 72q84 0 94 -81h3q33 81 112 81q60 0 83 -41.5t23 -128.5v-358h-74v345q0 66 -13.5 91.5t-49.5 25.5q-33 0 -52.5 -21.5t-19.5 -61.5v-379h-74v345q0 66 -13.5 91.5t-48.5 25.5q-33 0 -53 -21.5t-20 -61.5v-379z" />
    <glyph glyph-name="n" unicode="n" 
d="M178 0h-80v516h80v-84h4q41 96 147 96q82 0 130.5 -52t48.5 -145v-331h-80v317q0 140 -122 140q-53 0 -90.5 -25.5t-37.5 -73.5v-358z" />
    <glyph glyph-name="o" unicode="o" 
d="M300 -12q-108 0 -171 73t-63 197t63 197t171 73t171 -73t63 -197t-63 -197t-171 -73zM300 57q69 0 109 41.5t40 122.5v74q0 81 -40 122.5t-109 41.5t-109 -41.5t-40 -122.5v-74q0 -81 40 -122.5t109 -41.5z" />
    <glyph glyph-name="p" unicode="p" 
d="M95 -200v716h80v-84h4q50 96 159 96q95 0 148.5 -71.5t53.5 -198.5t-53.5 -198.5t-148.5 -71.5q-109 0 -159 96h-4v-284h-80zM307 59q69 0 108 42t39 113v88q0 71 -39 113t-108 42q-56 0 -94 -28t-38 -78v-186q0 -50 38 -78t94 -28z" />
    <glyph glyph-name="q" unicode="q" 
d="M425 -200v284h-4q-50 -96 -159 -96q-95 0 -148.5 71.5t-53.5 198.5t53.5 198.5t148.5 71.5q109 0 159 -96h4v84h80v-716h-80zM293 59q56 0 94 28t38 78v186q0 50 -38 78t-94 28q-69 0 -108 -42t-39 -113v-88q0 -71 39 -113t108 -42z" />
    <glyph glyph-name="r" unicode="r" 
d="M77 0v68h151v380h-151v68h231v-130h5q38 130 174 130h72v-80h-97q-73 0 -113.5 -41t-40.5 -104v-223h200v-68h-431z" />
    <glyph glyph-name="s" unicode="s" 
d="M306 -12q-150 0 -239 101l54 47q76 -81 187 -81q63 0 100 22.5t37 66.5q0 37 -24 53t-67 22l-81 12q-28 4 -47 8t-46 14.5t-43.5 25t-28.5 39t-12 56.5q0 75 57 114.5t151 39.5q132 0 210 -83l-52 -49q-54 65 -161 65q-61 0 -93.5 -21t-32.5 -61q0 -37 24.5 -53t66.5 -22
l81 -12q28 -4 47.5 -8t46 -14.5t43 -25t28.5 -39t12 -56.5q0 -76 -59 -118.5t-159 -42.5z" />
    <glyph glyph-name="t" unicode="t" 
d="M526 0h-201q-56 0 -85 32t-29 86v330h-172v68h128q26 0 36.5 10.5t10.5 36.5v135h77v-182h235v-68h-235v-380h235v-68z" />
    <glyph glyph-name="u" unicode="u" 
d="M422 0v84h-4q-41 -96 -147 -96q-82 0 -130.5 52t-48.5 145v331h80v-317q0 -140 122 -140q53 0 90.5 25.5t37.5 73.5v358h80v-516h-80z" />
    <glyph glyph-name="v" unicode="v" 
d="M351 0h-102l-185 516h81l74 -216l80 -233h4l80 233l74 216h79z" />
    <glyph glyph-name="w" unicode="w" 
d="M109 0l-79 516h71l59 -446h9l88 446h88l88 -446h9l59 446h69l-79 -516h-104l-82 432h-8l-84 -432h-104z" />
    <glyph glyph-name="x" unicode="x" 
d="M153 0h-92l192 262l-187 254h96l78 -109l62 -86h4l60 86l77 109h92l-189 -253l194 -263h-96l-87 121l-59 82h-4l-57 -82z" />
    <glyph glyph-name="y" unicode="y" 
d="M380 300l87 216h80l-256 -629q-19 -47 -47.5 -67t-84.5 -20h-76v68h120l58 142l-208 506h82l87 -216l77 -196h4z" />
    <glyph glyph-name="z" unicode="z" 
d="M515 0h-430v77l333 371h-322v68h409v-77l-333 -371h343v-68z" />
    <glyph glyph-name="braceleft" unicode="{" 
d="M495 -138h-176q-40 0 -62 23t-22 59v63q0 12 1 22.5t3.5 20.5t4.5 17t6.5 16t7 13.5t8.5 13t8 11t9 11.5t8 10q30 37 30 65q0 73 -138 73h-78v62h78q138 0 138 73q0 28 -30 65q-2 2 -7.5 9t-7.5 10t-7.5 10t-8 11t-6.5 11.5t-6 13.5t-5 14.5t-4.5 16.5t-2.5 18t-1 21v63
q0 36 22 59t62 23h176v-62h-191v-77q0 -26 6.5 -47t12.5 -30t21 -29q17 -22 23.5 -31t15 -30t8.5 -40q0 -41 -29.5 -67.5t-80.5 -33.5v-4q51 -7 80.5 -33.5t29.5 -67.5q0 -19 -8.5 -40t-15 -30t-23.5 -31q-15 -20 -21 -29t-12.5 -30t-6.5 -47v-77h191v-62z" />
    <glyph glyph-name="bar" unicode="|" 
d="M335 -138h-70v898h70v-898z" />
    <glyph glyph-name="braceright" unicode="}" 
d="M105 760h176q40 0 62 -23t22 -59v-63q0 -12 -1 -22.5t-3.5 -20.5t-4.5 -17t-6.5 -16t-7 -13.5t-8.5 -13t-8 -11t-9 -11.5t-8 -10q-30 -37 -30 -65q0 -73 138 -73h78v-62h-78q-138 0 -138 -73q0 -28 30 -65q2 -2 7.5 -9t7.5 -10t7.5 -10t8 -11t6.5 -11.5t6 -13.5t5 -14.5
t4.5 -16.5t2.5 -18t1 -21v-63q0 -36 -22 -59t-62 -23h-176v62h191v77q0 26 -6.5 47t-12.5 30t-21 29q-17 22 -23.5 31t-15 30t-8.5 40q0 41 29.5 67.5t80.5 33.5v4q-51 7 -80.5 33.5t-29.5 67.5q0 19 8.5 40t15 30t23.5 31q15 20 21 29t12.5 30t6.5 47v77h-191v62z" />
    <glyph glyph-name="asciitilde" unicode="~" 
d="M408 237q-47 0 -113 32q-76 37 -104 37q-49 0 -78 -69l-61 25q14 50 50.5 80.5t89.5 30.5q47 0 113 -32q76 -37 104 -37q49 0 78 69l61 -25q-14 -50 -50.5 -80.5t-89.5 -30.5z" />
    <glyph glyph-name="uni00A0" unicode="&#xa0;" 
 />
    <glyph glyph-name="exclamdown" unicode="&#xa1;" 
d="M344 -182h-88v203l28 262h32l28 -262v-203zM300 387q-74 0 -74 60v18q0 60 74 60t74 -60v-18q0 -60 -74 -60z" />
    <glyph glyph-name="cent" unicode="&#xa2;" 
d="M341 -114h-62v105q-92 13 -143.5 84t-51.5 183t51.5 183t143.5 84v105h62v-103q121 -10 167 -118l-64 -34q-27 73 -104 83v-400q82 9 119 89l57 -39q-48 -109 -175 -119v-103zM170 214q0 -60 28.5 -101t81.5 -52v394q-52 -11 -81 -52t-29 -101v-88z" />
    <glyph glyph-name="sterling" unicode="&#xa3;" 
d="M538 0h-463v105q79 32 79 132q0 22 -5 49h-97v69h78q-32 96 -32 144q0 94 63.5 152.5t170.5 58.5q144 0 218 -114l-63 -45q-59 86 -160 86q-143 0 -143 -143q0 -49 30 -139h201v-69h-182q3 -20 3 -39q0 -56 -24.5 -98t-57.5 -64v-5h384v-80z" />
    <glyph glyph-name="yen" unicode="&#xa5;" 
d="M75 0v69h185v186h-185v69h141l-194 374h93l184 -374h4l184 374h91l-194 -374h141v-69h-185v-186h185v-69h-450z" />
    <glyph glyph-name="brokenbar" unicode="&#xa6;" 
d="M335 401h-70v359h70v-359zM335 -138h-70v359h70v-359z" />
    <glyph glyph-name="section" unicode="&#xa7;" 
d="M487 3q0 -72 -55.5 -115t-145.5 -43q-104 0 -170 56l47 56q51 -43 124 -43q57 0 89 23.5t32 64.5q0 67 -106 97l-64 18q-157 44 -157 155q0 48 29 85t83 58v5q-76 47 -76 132q0 72 55.5 115t145.5 43q104 0 170 -56l-47 -56q-51 43 -124 43q-57 0 -89 -23.5t-32 -64.5
q0 -67 106 -97l64 -18q157 -44 157 -155q0 -48 -29 -85t-83 -58v-5q76 -47 76 -132zM444 263q0 42 -29 68.5t-91 43.5l-63 17q-17 4 -34 11q-67 -46 -67 -111q0 -42 29 -68.5t91 -43.5l63 -17q17 -4 34 -11q67 46 67 111z" />
    <glyph glyph-name="dieresis" unicode="&#xa8;" 
d="M207 618q-57 0 -57 46v14q0 46 57 46t57 -46v-14q0 -46 -57 -46zM393 618q-57 0 -57 46v14q0 46 57 46t57 -46v-14q0 -46 -57 -46z" />
    <glyph glyph-name="copyright" unicode="&#xa9;" 
d="M300 18q-128 0 -214 90.5t-86 240.5t86 240.5t214 90.5t214 -90.5t86 -240.5t-86 -240.5t-214 -90.5zM300 73q102 0 169.5 71t67.5 175v60q0 104 -67.5 175t-169.5 71t-169.5 -71t-67.5 -175v-60q0 -104 67.5 -175t169.5 -71zM305 171q-72 0 -113 48t-41 130t41 130
t113 48q89 0 126 -80l-53 -29q-23 52 -73 52q-38 0 -60 -25.5t-22 -66.5v-57q0 -42 21.5 -67.5t61.5 -25.5q50 0 80 55l50 -31q-38 -81 -131 -81z" />
    <glyph glyph-name="ordfeminine" unicode="&#xaa;" 
d="M463 357h-34q-60 0 -63 53h-4q-30 -61 -113 -61q-53 0 -82 27t-29 72q0 104 151 104h73v28q0 78 -77 78q-67 0 -93 -52l-42 34q41 70 138 70q64 0 100.5 -33.5t36.5 -93.5v-170h38v-56zM362 506h-75q-86 0 -86 -47v-10q0 -49 61 -49q41 0 70.5 18t29.5 47v41z" />
    <glyph glyph-name="guillemotleft" unicode="&#xab;" 
d="M534 113l-25 -57l-206 174v80l206 174l25 -57l-148 -157zM304 113l-25 -57l-206 174v80l206 174l25 -57l-148 -157z" />
    <glyph glyph-name="logicalnot" unicode="&#xac;" 
d="M522 78h-69v193h-391v68h460v-261z" />
    <glyph glyph-name="uni00AD" unicode="&#xad;" 
d="M445 262h-290v84h290v-84z" />
    <glyph glyph-name="registered" unicode="&#xae;" 
d="M300 346q-77 0 -130 52t-53 130t53 130t130 52t130 -52t53 -130t-53 -130t-130 -52zM300 387q59 0 97 36t38 95v20q0 59 -38 95t-97 36t-97 -36t-38 -95v-20q0 -59 38 -95t97 -36zM270 506v-70h-40v185h85q28 0 43.5 -15.5t15.5 -41.5q0 -39 -37 -52l46 -76h-45l-39 70
h-29zM270 535h36q26 0 26 24v7q0 24 -26 24h-36v-55z" />
    <glyph glyph-name="macron" unicode="&#xaf;" 
d="M160 637v68h280v-68h-280z" />
    <glyph glyph-name="degree" unicode="&#xb0;" 
d="M300 368q-72 0 -121.5 49t-49.5 122t49.5 122t121.5 49t121.5 -49t49.5 -122t-49.5 -122t-121.5 -49zM300 432q45 0 73 30.5t28 76.5t-28 76.5t-73 30.5t-73 -30.5t-28 -76.5t28 -76.5t73 -30.5z" />
    <glyph glyph-name="plusminus" unicode="&#xb1;" 
d="M338 152h-76v199h-200v68h200v199h76v-199h200v-68h-200v-199zM538 0h-476v68h476v-68z" />
    <glyph glyph-name="twosuperior" unicode="&#xb2;" 
d="M438 379v-50h-272v57l130 105q62 51 62 98v6q0 26 -17 41.5t-48 15.5q-58 0 -78 -58l-54 20q31 90 136 90q60 0 94 -30t34 -79q0 -40 -24 -72.5t-71 -68.5l-97 -75h205z" />
    <glyph glyph-name="threesuperior" unicode="&#xb3;" 
d="M242 546h40q37 0 56 14t19 38v4q0 25 -17.5 38.5t-47.5 13.5q-54 0 -83 -45l-43 34q43 61 128 61q58 0 94 -25.5t36 -69.5q0 -34 -22 -56t-56 -29v-3q37 -6 60.5 -29t23.5 -61q0 -49 -39 -78.5t-104 -29.5q-87 0 -136 66l47 34q33 -50 89 -50q37 0 57 16t20 45v6
q0 55 -77 55h-45v51z" />
    <glyph glyph-name="acute" unicode="&#xb4;" 
d="M413 744l-106 -159l-52 24l85 170z" />
    <glyph glyph-name="mu" unicode="&#xb5;" 
d="M178 -200h-80v716h80v-317q0 -140 119 -140q52 0 88.5 25.5t36.5 73.5v358h80v-516h-80v84h-4q-42 -96 -140 -96q-75 0 -103 52h-4l7 -84v-156z" />
    <glyph glyph-name="paragraph" unicode="&#xb6;" 
d="M270 -149v395q-94 0 -159.5 64.5t-65.5 161.5t65.5 161.5t159.5 64.5h234v-847h-72v783h-90v-783h-72z" />
    <glyph glyph-name="periodcentered" unicode="&#xb7;" 
d="M300 235q-74 0 -74 60v18q0 60 74 60t74 -60v-18q0 -60 -74 -60z" />
    <glyph glyph-name="cedilla" unicode="&#xb8;" 
d="M312 -207q-69 0 -99 41l38 41q22 -28 61 -28q44 0 44 31t-68 41l-28 4l19 97h50l-16 -81l3 -3q19 6 39 6q30 0 49 -17.5t19 -48.5q0 -41 -31.5 -62t-79.5 -21z" />
    <glyph glyph-name="onesuperior" unicode="&#xb9;" 
d="M446 329h-270v50h109v265l-106 -55l-25 44l126 65h68v-319h98v-50z" />
    <glyph glyph-name="ordmasculine" unicode="&#xba;" 
d="M300 349q-75 0 -117.5 48.5t-42.5 132.5t42.5 132t117.5 48t117.5 -48t42.5 -132t-42.5 -132.5t-117.5 -48.5zM300 402q44 0 67.5 27t23.5 71v59q0 44 -23.5 71t-67.5 27t-67.5 -27t-23.5 -71v-59q0 -44 23.5 -71t67.5 -27z" />
    <glyph glyph-name="guillemotright" unicode="&#xbb;" 
d="M321 56l-25 57l148 157l-148 157l25 57l206 -174v-80zM91 56l-25 57l148 157l-148 157l25 57l206 -174v-80z" />
    <glyph glyph-name="onequarter" unicode="&#xbc;" 
d="M477 0v64h-163v59l142 212h82v-223h47v-48h-47v-64h-61zM360 112h117v170h-3zM350 398l160 300h72l-160 -300h-72zM18 0l160 300h72l-160 -300h-72zM39 363v50h94v230l-89 -45l-24 44l108 56h68v-285h83v-50h-240z" />
    <glyph glyph-name="onehalf" unicode="&#xbd;" 
d="M329 0v58l113 90q54 44 54 90v5q0 20 -14 33t-39 13q-46 0 -67 -55l-53 22q28 85 125 85q54 0 84 -27.5t30 -69.5q0 -65 -90 -135l-77 -59h180v-50h-246zM350 398l160 300h72l-160 -300h-72zM18 0l160 300h72l-160 -300h-72zM39 363v50h94v230l-89 -45l-24 44l108 56h68
v-285h83v-50h-240z" />
    <glyph glyph-name="threequarters" unicode="&#xbe;" 
d="M477 0v64h-163v59l142 212h82v-223h47v-48h-47v-64h-61zM360 112h117v170h-3zM350 398l160 300h72l-160 -300h-72zM18 0l160 300h72l-160 -300h-72zM143 357q-86 0 -126 71l47 33q28 -53 79 -53q29 0 45.5 13.5t16.5 36.5v7q0 46 -69 46h-35v50h35q30 0 46.5 11.5
t16.5 29.5v7q0 20 -15 32t-41 12q-47 0 -72 -41l-42 34q40 58 116 58q53 0 85.5 -23.5t32.5 -63.5q0 -31 -20 -51t-50 -26v-4q34 -6 55 -26t21 -54q0 -45 -35 -72t-91 -27z" />
    <glyph glyph-name="questiondown" unicode="&#xbf;" 
d="M299 -194q-95 0 -152 51.5t-57 137.5q0 87 56 139t136 66v101h79v-157q-184 -8 -184 -139v-14q0 -55 33 -83.5t92 -28.5q57 0 94.5 32t51.5 85l75 -28q-21 -72 -77.5 -117t-146.5 -45zM318 387q-74 0 -74 60v18q0 60 74 60t74 -60v-18q0 -60 -74 -60z" />
    <glyph glyph-name="Agrave" unicode="&#xc0;" 
d="M293 755l-106 159l73 35l85 -170zM570 0h-89l-59 199h-245l-59 -199h-87l214 698h111zM402 272l-98 337h-9l-98 -337h205z" />
    <glyph glyph-name="Aacute" unicode="&#xc1;" 
d="M413 914l-106 -159l-52 24l85 170zM570 0h-89l-59 199h-245l-59 -199h-87l214 698h111zM402 272l-98 337h-9l-98 -337h205z" />
    <glyph glyph-name="Acircumflex" unicode="&#xc2;" 
d="M250 935h100l111 -143l-45 -31l-117 117l-117 -117l-43 31zM570 0h-89l-59 199h-245l-59 -199h-87l214 698h111zM402 272l-98 337h-9l-98 -337h205z" />
    <glyph glyph-name="Atilde" unicode="&#xc3;" 
d="M373 782q-30 0 -80 26q-45 24 -70 24q-26 0 -58 -27l-33 40q35 53 95 53q30 0 80 -26q45 -24 70 -24q26 0 58 27l33 -40q-35 -53 -95 -53zM570 0h-89l-59 199h-245l-59 -199h-87l214 698h111zM402 272l-98 337h-9l-98 -337h205z" />
    <glyph glyph-name="Adieresis" unicode="&#xc4;" 
d="M207 788q-57 0 -57 46v14q0 46 57 46t57 -46v-14q0 -46 -57 -46zM393 788q-57 0 -57 46v14q0 46 57 46t57 -46v-14q0 -46 -57 -46zM570 0h-89l-59 199h-245l-59 -199h-87l214 698h111zM402 272l-98 337h-9l-98 -337h205z" />
    <glyph glyph-name="Aring" unicode="&#xc5;" 
d="M300 746q-49 0 -82.5 33t-33.5 82t33.5 82t82.5 33t82.5 -33t33.5 -82t-33.5 -82t-82.5 -33zM300 795q27 0 42.5 14.5t15.5 40.5v22q0 26 -15.5 40.5t-42.5 14.5t-42.5 -14.5t-15.5 -40.5v-22q0 -26 15.5 -40.5t42.5 -14.5zM570 0h-89l-59 199h-245l-59 -199h-87l214 698
h111zM402 272l-98 337h-9l-98 -337h205z" />
    <glyph glyph-name="AE" unicode="&#xc6;" 
d="M312 0v201h-152l-56 -201h-84l206 698h334v-69h-168v-241h156v-69h-156v-250h168v-69h-248zM312 638h-31l-103 -368h134v368z" />
    <glyph glyph-name="Ccedilla" unicode="&#xc7;" 
d="M323 637q-81 0 -122.5 -61.5t-41.5 -169.5v-114q0 -108 41.5 -169.5t122.5 -61.5q58 0 89.5 29t53.5 84l72 -33q-31 -69 -78 -110t-130 -43l-9 -49l3 -3q19 6 39 6q30 0 49 -17.5t19 -48.5q0 -41 -31.5 -62t-79.5 -21q-69 0 -99 41l38 41q22 -28 61 -28q44 0 44 31
t-68 41l-28 4l13 68q-211 30 -211 358q0 176 63.5 268.5t189.5 92.5q87 0 135.5 -41.5t79.5 -111.5l-72 -33q-22 55 -53.5 84t-89.5 29z" />
    <glyph glyph-name="Egrave" unicode="&#xc8;" 
d="M298 755l-106 159l73 35l85 -170zM520 0h-430v698h430v-73h-346v-235h334v-73h-334v-244h346v-73z" />
    <glyph glyph-name="Eacute" unicode="&#xc9;" 
d="M418 914l-106 -159l-52 24l85 170zM520 0h-430v698h430v-73h-346v-235h334v-73h-334v-244h346v-73z" />
    <glyph glyph-name="Ecircumflex" unicode="&#xca;" 
d="M255 935h100l111 -143l-45 -31l-117 117l-117 -117l-43 31zM520 0h-430v698h430v-73h-346v-235h334v-73h-334v-244h346v-73z" />
    <glyph glyph-name="Edieresis" unicode="&#xcb;" 
d="M212 788q-57 0 -57 46v14q0 46 57 46t57 -46v-14q0 -46 -57 -46zM398 788q-57 0 -57 46v14q0 46 57 46t57 -46v-14q0 -46 -57 -46zM520 0h-430v698h430v-73h-346v-235h334v-73h-334v-244h346v-73z" />
    <glyph glyph-name="Igrave" unicode="&#xcc;" 
d="M293 755l-106 159l73 35l85 -170zM516 0h-432v67h174v564h-174v67h432v-67h-174v-564h174v-67z" />
    <glyph glyph-name="Iacute" unicode="&#xcd;" 
d="M413 914l-106 -159l-52 24l85 170zM516 0h-432v67h174v564h-174v67h432v-67h-174v-564h174v-67z" />
    <glyph glyph-name="Icircumflex" unicode="&#xce;" 
d="M250 935h100l111 -143l-45 -31l-117 117l-117 -117l-43 31zM516 0h-432v67h174v564h-174v67h432v-67h-174v-564h174v-67z" />
    <glyph glyph-name="Idieresis" unicode="&#xcf;" 
d="M207 788q-57 0 -57 46v14q0 46 57 46t57 -46v-14q0 -46 -57 -46zM393 788q-57 0 -57 46v14q0 46 57 46t57 -46v-14q0 -46 -57 -46zM516 0h-432v67h174v564h-174v67h432v-67h-174v-564h174v-67z" />
    <glyph glyph-name="Eth" unicode="&#xd0;" 
d="M102 0v336h-80v64h80v298h188q254 0 254 -349t-254 -349h-188zM186 73h100q82 0 125.5 58t43.5 164v108q0 106 -43.5 164t-125.5 58h-100v-225h141v-64h-141v-263z" />
    <glyph glyph-name="Ntilde" unicode="&#xd1;" 
d="M373 782q-30 0 -80 26q-45 24 -70 24q-26 0 -58 -27l-33 40q35 53 95 53q30 0 80 -26q45 -24 70 -24q26 0 58 27l33 -40q-35 -53 -95 -53zM401 0l-238 591h-7v-591h-76v698h119l238 -585h7v585h76v-698h-119z" />
    <glyph glyph-name="Ograve" unicode="&#xd2;" 
d="M293 755l-106 159l73 35l85 -170zM300 -12q-244 0 -244 361t244 361t244 -361t-244 -361zM300 61q155 0 155 231v114q0 231 -155 231t-155 -231v-114q0 -231 155 -231z" />
    <glyph glyph-name="Oacute" unicode="&#xd3;" 
d="M413 914l-106 -159l-52 24l85 170zM300 -12q-244 0 -244 361t244 361t244 -361t-244 -361zM300 61q155 0 155 231v114q0 231 -155 231t-155 -231v-114q0 -231 155 -231z" />
    <glyph glyph-name="Ocircumflex" unicode="&#xd4;" 
d="M250 935h100l111 -143l-45 -31l-117 117l-117 -117l-43 31zM300 -12q-244 0 -244 361t244 361t244 -361t-244 -361zM300 61q155 0 155 231v114q0 231 -155 231t-155 -231v-114q0 -231 155 -231z" />
    <glyph glyph-name="Otilde" unicode="&#xd5;" 
d="M373 782q-30 0 -80 26q-45 24 -70 24q-26 0 -58 -27l-33 40q35 53 95 53q30 0 80 -26q45 -24 70 -24q26 0 58 27l33 -40q-35 -53 -95 -53zM300 -12q-244 0 -244 361t244 361t244 -361t-244 -361zM300 61q155 0 155 231v114q0 231 -155 231t-155 -231v-114
q0 -231 155 -231z" />
    <glyph glyph-name="Odieresis" unicode="&#xd6;" 
d="M207 788q-57 0 -57 46v14q0 46 57 46t57 -46v-14q0 -46 -57 -46zM393 788q-57 0 -57 46v14q0 46 57 46t57 -46v-14q0 -46 -57 -46zM300 -12q-244 0 -244 361t244 361t244 -361t-244 -361zM300 61q155 0 155 231v114q0 231 -155 231t-155 -231v-114q0 -231 155 -231z" />
    <glyph glyph-name="multiply" unicode="&#xd7;" 
d="M463 93l-163 163l-163 -163l-49 49l163 163l-163 163l49 49l163 -163l163 163l49 -49l-163 -163l163 -163z" />
    <glyph glyph-name="Oslash" unicode="&#xd8;" 
d="M300 -12q-90 0 -146 48l-47 -80l-60 36l60 102q-51 89 -51 255q0 361 244 361q90 0 146 -48l47 80l60 -36l-60 -102q51 -89 51 -255q0 -361 -244 -361zM145 292q0 -72 14 -118l248 417q-40 46 -107 46q-155 0 -155 -231v-114zM300 61q155 0 155 231v114q0 72 -14 118
l-248 -417q40 -46 107 -46z" />
    <glyph glyph-name="Ugrave" unicode="&#xd9;" 
d="M293 755l-106 159l73 35l85 -170zM80 698h84v-419q0 -49 1.5 -75.5t8.5 -58.5t21.5 -47.5t40.5 -26t64 -10.5t64 10.5t40.5 26t21.5 47.5t8.5 58.5t1.5 75.5v419h84v-399q0 -84 -8 -137t-30.5 -95t-67 -60.5t-114.5 -18.5t-114.5 18.5t-67 60.5t-30.5 95t-8 137v399z" />
    <glyph glyph-name="Uacute" unicode="&#xda;" 
d="M413 914l-106 -159l-52 24l85 170zM80 698h84v-419q0 -49 1.5 -75.5t8.5 -58.5t21.5 -47.5t40.5 -26t64 -10.5t64 10.5t40.5 26t21.5 47.5t8.5 58.5t1.5 75.5v419h84v-399q0 -84 -8 -137t-30.5 -95t-67 -60.5t-114.5 -18.5t-114.5 18.5t-67 60.5t-30.5 95t-8 137v399z
" />
    <glyph glyph-name="Ucircumflex" unicode="&#xdb;" 
d="M250 935h100l111 -143l-45 -31l-117 117l-117 -117l-43 31zM80 698h84v-419q0 -49 1.5 -75.5t8.5 -58.5t21.5 -47.5t40.5 -26t64 -10.5t64 10.5t40.5 26t21.5 47.5t8.5 58.5t1.5 75.5v419h84v-399q0 -84 -8 -137t-30.5 -95t-67 -60.5t-114.5 -18.5t-114.5 18.5t-67 60.5
t-30.5 95t-8 137v399z" />
    <glyph glyph-name="Udieresis" unicode="&#xdc;" 
d="M207 788q-57 0 -57 46v14q0 46 57 46t57 -46v-14q0 -46 -57 -46zM393 788q-57 0 -57 46v14q0 46 57 46t57 -46v-14q0 -46 -57 -46zM80 698h84v-419q0 -49 1.5 -75.5t8.5 -58.5t21.5 -47.5t40.5 -26t64 -10.5t64 10.5t40.5 26t21.5 47.5t8.5 58.5t1.5 75.5v419h84v-399
q0 -84 -8 -137t-30.5 -95t-67 -60.5t-114.5 -18.5t-114.5 18.5t-67 60.5t-30.5 95t-8 137v399z" />
    <glyph glyph-name="Yacute" unicode="&#xdd;" 
d="M413 914l-106 -159l-52 24l85 170zM342 0h-84v274l-241 424h96l100 -182l85 -159h4l87 159l100 182h94l-241 -424v-274z" />
    <glyph glyph-name="Thorn" unicode="&#xde;" 
d="M174 0h-84v698h84v-145h170q95 0 147 -53t52 -146t-52 -146t-147 -53h-170v-155zM174 480v-252h170q53 0 82.5 26t29.5 74v52q0 48 -29.5 74t-82.5 26h-170z" />
    <glyph glyph-name="germandbls" unicode="&#xdf;" 
d="M182 0h-80v622q0 54 29 86t85 32h137v-69h-171v-155h343v-79l-173 -225q105 -7 162.5 -56.5t57.5 -141.5q0 -103 -70 -158.5t-192 -55.5h-66v68h66q90 0 133.5 32.5t43.5 102.5v25q0 66 -46.5 95t-148.5 29h-16v68l176 228h-270v-448z" />
    <glyph glyph-name="agrave" unicode="&#xe0;" 
d="M276 585l-106 159l73 35l85 -170zM550 0h-55q-81 0 -92 84h-5q-36 -96 -155 -96q-81 0 -129 42t-48 115q0 150 222 150h110v51q0 56 -32 85t-91 29q-94 0 -138 -76l-54 40q21 44 72 74t125 30q91 0 144.5 -46.5t53.5 -127.5v-284h72v-70zM257 55q61 0 101 27.5t40 67.5
v85h-110q-138 0 -138 -78v-21q0 -39 28.5 -60t78.5 -21z" />
    <glyph glyph-name="aacute" unicode="&#xe1;" 
d="M396 744l-106 -159l-52 24l85 170zM550 0h-55q-81 0 -92 84h-5q-36 -96 -155 -96q-81 0 -129 42t-48 115q0 150 222 150h110v51q0 56 -32 85t-91 29q-94 0 -138 -76l-54 40q21 44 72 74t125 30q91 0 144.5 -46.5t53.5 -127.5v-284h72v-70zM257 55q61 0 101 27.5t40 67.5
v85h-110q-138 0 -138 -78v-21q0 -39 28.5 -60t78.5 -21z" />
    <glyph glyph-name="acircumflex" unicode="&#xe2;" 
d="M233 765h100l111 -143l-45 -31l-117 117l-117 -117l-43 31zM550 0h-55q-81 0 -92 84h-5q-36 -96 -155 -96q-81 0 -129 42t-48 115q0 150 222 150h110v51q0 56 -32 85t-91 29q-94 0 -138 -76l-54 40q21 44 72 74t125 30q91 0 144.5 -46.5t53.5 -127.5v-284h72v-70zM257 55
q61 0 101 27.5t40 67.5v85h-110q-138 0 -138 -78v-21q0 -39 28.5 -60t78.5 -21z" />
    <glyph glyph-name="atilde" unicode="&#xe3;" 
d="M356 612q-30 0 -80 26q-45 24 -70 24q-26 0 -58 -27l-33 40q35 53 95 53q30 0 80 -26q45 -24 70 -24q26 0 58 27l33 -40q-35 -53 -95 -53zM550 0h-55q-81 0 -92 84h-5q-36 -96 -155 -96q-81 0 -129 42t-48 115q0 150 222 150h110v51q0 56 -32 85t-91 29q-94 0 -138 -76
l-54 40q21 44 72 74t125 30q91 0 144.5 -46.5t53.5 -127.5v-284h72v-70zM257 55q61 0 101 27.5t40 67.5v85h-110q-138 0 -138 -78v-21q0 -39 28.5 -60t78.5 -21z" />
    <glyph glyph-name="adieresis" unicode="&#xe4;" 
d="M190 618q-57 0 -57 46v14q0 46 57 46t57 -46v-14q0 -46 -57 -46zM376 618q-57 0 -57 46v14q0 46 57 46t57 -46v-14q0 -46 -57 -46zM550 0h-55q-81 0 -92 84h-5q-36 -96 -155 -96q-81 0 -129 42t-48 115q0 150 222 150h110v51q0 56 -32 85t-91 29q-94 0 -138 -76l-54 40
q21 44 72 74t125 30q91 0 144.5 -46.5t53.5 -127.5v-284h72v-70zM257 55q61 0 101 27.5t40 67.5v85h-110q-138 0 -138 -78v-21q0 -39 28.5 -60t78.5 -21z" />
    <glyph glyph-name="aring" unicode="&#xe5;" 
d="M283 576q-49 0 -82.5 33t-33.5 82t33.5 82t82.5 33t82.5 -33t33.5 -82t-33.5 -82t-82.5 -33zM283 625q27 0 42.5 14.5t15.5 40.5v22q0 26 -15.5 40.5t-42.5 14.5t-42.5 -14.5t-15.5 -40.5v-22q0 -26 15.5 -40.5t42.5 -14.5zM550 0h-55q-81 0 -92 84h-5q-36 -96 -155 -96
q-81 0 -129 42t-48 115q0 150 222 150h110v51q0 56 -32 85t-91 29q-94 0 -138 -76l-54 40q21 44 72 74t125 30q91 0 144.5 -46.5t53.5 -127.5v-284h72v-70zM257 55q61 0 101 27.5t40 67.5v85h-110q-138 0 -138 -78v-21q0 -39 28.5 -60t78.5 -21z" />
    <glyph glyph-name="ae" unicode="&#xe6;" 
d="M141 -12q-58 0 -94.5 39.5t-36.5 110.5q0 78 45.5 117.5t132.5 39.5h63v53q0 64 -20.5 92t-60.5 28q-36 0 -57.5 -20t-37.5 -59l-53 33q18 45 56.5 75.5t94.5 30.5q88 0 124 -78h3q37 78 124 78q158 0 158 -236v-54h-258v-25q0 -73 25 -117t71 -44q62 0 96 89l58 -27
q-17 -52 -57.5 -89t-98.5 -37q-102 0 -146 114h-3q-13 -57 -46.5 -85.5t-81.5 -28.5zM155 50q46 0 71 30t25 74v84h-52q-116 0 -116 -86v-15q0 -87 72 -87zM420 470q-96 0 -96 -141v-34h192v34q0 141 -96 141z" />
    <glyph glyph-name="ccedilla" unicode="&#xe7;" 
d="M317 528q142 0 191 -119l-64 -34q-30 84 -127 84q-69 0 -108 -43.5t-39 -113.5v-88q0 -70 39 -113.5t110 -43.5q98 0 140 90l57 -39q-51 -116 -190 -120l-10 -49l3 -3q19 6 39 6q30 0 49 -17.5t19 -48.5q0 -41 -31.5 -62t-79.5 -21q-69 0 -99 41l38 41q22 -28 61 -28
q44 0 44 31t-68 41l-28 4l14 68q-91 13 -142 84.5t-51 182.5q0 124 62 197t171 73z" />
    <glyph glyph-name="egrave" unicode="&#xe8;" 
d="M295 585l-106 159l73 35l85 -170zM309 -12q-111 0 -176.5 73t-65.5 196t65.5 197t171.5 74q103 0 166 -70.5t63 -181.5v-38h-382v-24q0 -69 43 -113t115 -44q105 0 148 90l59 -40q-24 -54 -78.5 -86.5t-128.5 -32.5zM304 462q-66 0 -109.5 -44.5t-43.5 -112.5v-7h296v11
q0 68 -39.5 110.5t-103.5 42.5z" />
    <glyph glyph-name="eacute" unicode="&#xe9;" 
d="M415 744l-106 -159l-52 24l85 170zM309 -12q-111 0 -176.5 73t-65.5 196t65.5 197t171.5 74q103 0 166 -70.5t63 -181.5v-38h-382v-24q0 -69 43 -113t115 -44q105 0 148 90l59 -40q-24 -54 -78.5 -86.5t-128.5 -32.5zM304 462q-66 0 -109.5 -44.5t-43.5 -112.5v-7h296v11
q0 68 -39.5 110.5t-103.5 42.5z" />
    <glyph glyph-name="ecircumflex" unicode="&#xea;" 
d="M252 765h100l111 -143l-45 -31l-117 117l-117 -117l-43 31zM309 -12q-111 0 -176.5 73t-65.5 196t65.5 197t171.5 74q103 0 166 -70.5t63 -181.5v-38h-382v-24q0 -69 43 -113t115 -44q105 0 148 90l59 -40q-24 -54 -78.5 -86.5t-128.5 -32.5zM304 462q-66 0 -109.5 -44.5
t-43.5 -112.5v-7h296v11q0 68 -39.5 110.5t-103.5 42.5z" />
    <glyph glyph-name="edieresis" unicode="&#xeb;" 
d="M209 618q-57 0 -57 46v14q0 46 57 46t57 -46v-14q0 -46 -57 -46zM395 618q-57 0 -57 46v14q0 46 57 46t57 -46v-14q0 -46 -57 -46zM309 -12q-111 0 -176.5 73t-65.5 196t65.5 197t171.5 74q103 0 166 -70.5t63 -181.5v-38h-382v-24q0 -69 43 -113t115 -44q105 0 148 90
l59 -40q-24 -54 -78.5 -86.5t-128.5 -32.5zM304 462q-66 0 -109.5 -44.5t-43.5 -112.5v-7h296v11q0 68 -39.5 110.5t-103.5 42.5z" />
    <glyph glyph-name="igrave" unicode="&#xec;" 
d="M325 585l-106 159l73 35l85 -170zM106 0v68h186v380h-186v68h266v-448h174v-68h-440z" />
    <glyph glyph-name="iacute" unicode="&#xed;" 
d="M445 744l-106 -159l-52 24l85 170zM106 0v68h186v380h-186v68h266v-448h174v-68h-440z" />
    <glyph glyph-name="icircumflex" unicode="&#xee;" 
d="M282 765h100l111 -143l-45 -31l-117 117l-117 -117l-43 31zM106 0v68h186v380h-186v68h266v-448h174v-68h-440z" />
    <glyph glyph-name="idieresis" unicode="&#xef;" 
d="M239 618q-57 0 -57 46v14q0 46 57 46t57 -46v-14q0 -46 -57 -46zM425 618q-57 0 -57 46v14q0 46 57 46t57 -46v-14q0 -46 -57 -46zM106 0v68h186v380h-186v68h266v-448h174v-68h-440z" />
    <glyph glyph-name="eth" unicode="&#xf0;" 
d="M421 753l38 -45l-87 -61q162 -158 162 -381q0 -137 -61 -207.5t-170 -70.5q-111 0 -174 69.5t-63 188.5q0 117 59.5 187.5t154.5 70.5q107 0 165 -96l4 2q-46 115 -134 198l-99 -70l-38 45l92 64q-59 47 -143 93h126q45 -29 74 -52zM300 57q69 0 109 39t40 115v70
q0 76 -40 115t-109 39t-109 -39t-40 -115v-70q0 -76 40 -115t109 -39z" />
    <glyph glyph-name="ntilde" unicode="&#xf1;" 
d="M376 612q-30 0 -80 26q-45 24 -70 24q-26 0 -58 -27l-33 40q35 53 95 53q30 0 80 -26q45 -24 70 -24q26 0 58 27l33 -40q-35 -53 -95 -53zM178 0h-80v516h80v-84h4q41 96 147 96q82 0 130.5 -52t48.5 -145v-331h-80v317q0 140 -122 140q-53 0 -90.5 -25.5t-37.5 -73.5
v-358z" />
    <glyph glyph-name="ograve" unicode="&#xf2;" 
d="M293 585l-106 159l73 35l85 -170zM300 -12q-108 0 -171 73t-63 197t63 197t171 73t171 -73t63 -197t-63 -197t-171 -73zM300 57q69 0 109 41.5t40 122.5v74q0 81 -40 122.5t-109 41.5t-109 -41.5t-40 -122.5v-74q0 -81 40 -122.5t109 -41.5z" />
    <glyph glyph-name="oacute" unicode="&#xf3;" 
d="M413 744l-106 -159l-52 24l85 170zM300 -12q-108 0 -171 73t-63 197t63 197t171 73t171 -73t63 -197t-63 -197t-171 -73zM300 57q69 0 109 41.5t40 122.5v74q0 81 -40 122.5t-109 41.5t-109 -41.5t-40 -122.5v-74q0 -81 40 -122.5t109 -41.5z" />
    <glyph glyph-name="ocircumflex" unicode="&#xf4;" 
d="M250 765h100l111 -143l-45 -31l-117 117l-117 -117l-43 31zM300 -12q-108 0 -171 73t-63 197t63 197t171 73t171 -73t63 -197t-63 -197t-171 -73zM300 57q69 0 109 41.5t40 122.5v74q0 81 -40 122.5t-109 41.5t-109 -41.5t-40 -122.5v-74q0 -81 40 -122.5t109 -41.5z" />
    <glyph glyph-name="otilde" unicode="&#xf5;" 
d="M373 612q-30 0 -80 26q-45 24 -70 24q-26 0 -58 -27l-33 40q35 53 95 53q30 0 80 -26q45 -24 70 -24q26 0 58 27l33 -40q-35 -53 -95 -53zM300 -12q-108 0 -171 73t-63 197t63 197t171 73t171 -73t63 -197t-63 -197t-171 -73zM300 57q69 0 109 41.5t40 122.5v74
q0 81 -40 122.5t-109 41.5t-109 -41.5t-40 -122.5v-74q0 -81 40 -122.5t109 -41.5z" />
    <glyph glyph-name="odieresis" unicode="&#xf6;" 
d="M207 618q-57 0 -57 46v14q0 46 57 46t57 -46v-14q0 -46 -57 -46zM393 618q-57 0 -57 46v14q0 46 57 46t57 -46v-14q0 -46 -57 -46zM300 -12q-108 0 -171 73t-63 197t63 197t171 73t171 -73t63 -197t-63 -197t-171 -73zM300 57q69 0 109 41.5t40 122.5v74q0 81 -40 122.5
t-109 41.5t-109 -41.5t-40 -122.5v-74q0 -81 40 -122.5t109 -41.5z" />
    <glyph glyph-name="divide" unicode="&#xf7;" 
d="M538 271h-476v68h476v-68zM300 52q-62 0 -62 48v22q0 48 62 48t62 -48v-22q0 -48 -62 -48zM300 440q-62 0 -62 48v22q0 48 62 48t62 -48v-22q0 -48 -62 -48z" />
    <glyph glyph-name="oslash" unicode="&#xf8;" 
d="M92 -40l-45 34l69 84q-50 72 -50 180q0 124 63 197t171 73q85 0 145 -49l63 77l45 -34l-69 -84q50 -72 50 -180q0 -124 -63 -197t-171 -73q-85 0 -145 49zM300 459q-69 0 -109 -41.5t-40 -122.5v-74q0 -50 15 -83l235 287q-37 34 -101 34zM300 57q69 0 109 41.5t40 122.5
v74q0 50 -15 83l-235 -287q37 -34 101 -34z" />
    <glyph glyph-name="ugrave" unicode="&#xf9;" 
d="M290 585l-106 159l73 35l85 -170zM422 0v84h-4q-41 -96 -147 -96q-82 0 -130.5 52t-48.5 145v331h80v-317q0 -140 122 -140q53 0 90.5 25.5t37.5 73.5v358h80v-516h-80z" />
    <glyph glyph-name="uacute" unicode="&#xfa;" 
d="M410 744l-106 -159l-52 24l85 170zM422 0v84h-4q-41 -96 -147 -96q-82 0 -130.5 52t-48.5 145v331h80v-317q0 -140 122 -140q53 0 90.5 25.5t37.5 73.5v358h80v-516h-80z" />
    <glyph glyph-name="ucircumflex" unicode="&#xfb;" 
d="M247 765h100l111 -143l-45 -31l-117 117l-117 -117l-43 31zM422 0v84h-4q-41 -96 -147 -96q-82 0 -130.5 52t-48.5 145v331h80v-317q0 -140 122 -140q53 0 90.5 25.5t37.5 73.5v358h80v-516h-80z" />
    <glyph glyph-name="udieresis" unicode="&#xfc;" 
d="M204 618q-57 0 -57 46v14q0 46 57 46t57 -46v-14q0 -46 -57 -46zM390 618q-57 0 -57 46v14q0 46 57 46t57 -46v-14q0 -46 -57 -46zM422 0v84h-4q-41 -96 -147 -96q-82 0 -130.5 52t-48.5 145v331h80v-317q0 -140 122 -140q53 0 90.5 25.5t37.5 73.5v358h80v-516h-80z" />
    <glyph glyph-name="yacute" unicode="&#xfd;" 
d="M413 744l-106 -159l-52 24l85 170zM380 300l87 216h80l-256 -629q-19 -47 -47.5 -67t-84.5 -20h-76v68h120l58 142l-208 506h82l87 -216l77 -196h4z" />
    <glyph glyph-name="thorn" unicode="&#xfe;" 
d="M95 -200v940h80v-308h4q50 96 159 96q95 0 148.5 -71.5t53.5 -198.5t-53.5 -198.5t-148.5 -71.5q-109 0 -159 96h-4v-284h-80zM307 59q69 0 108 42t39 113v88q0 71 -39 113t-108 42q-56 0 -94 -28t-38 -78v-186q0 -50 38 -78t94 -28z" />
    <glyph glyph-name="ydieresis" unicode="&#xff;" 
d="M207 618q-57 0 -57 46v14q0 46 57 46t57 -46v-14q0 -46 -57 -46zM393 618q-57 0 -57 46v14q0 46 57 46t57 -46v-14q0 -46 -57 -46zM380 300l87 216h80l-256 -629q-19 -47 -47.5 -67t-84.5 -20h-76v68h120l58 142l-208 506h82l87 -216l77 -196h4z" />
    <glyph glyph-name="Amacron" unicode="&#x100;" 
d="M160 807v68h280v-68h-280zM570 0h-89l-59 199h-245l-59 -199h-87l214 698h111zM402 272l-98 337h-9l-98 -337h205z" />
    <glyph glyph-name="amacron" unicode="&#x101;" 
d="M143 637v68h280v-68h-280zM550 0h-55q-81 0 -92 84h-5q-36 -96 -155 -96q-81 0 -129 42t-48 115q0 150 222 150h110v51q0 56 -32 85t-91 29q-94 0 -138 -76l-54 40q21 44 72 74t125 30q91 0 144.5 -46.5t53.5 -127.5v-284h72v-70zM257 55q61 0 101 27.5t40 67.5v85h-110
q-138 0 -138 -78v-21q0 -39 28.5 -60t78.5 -21z" />
    <glyph glyph-name="Abreve" unicode="&#x102;" 
d="M300 765q-38 0 -67 14t-47 39.5t-28 47t-19 50.5l51 22l21 -34q19 -31 28 -43t24.5 -21.5t36.5 -9.5t36.5 9.5t24.5 21.5t28 43l21 34l51 -22q-9 -29 -19 -50.5t-28 -47t-47 -39.5t-67 -14zM570 0h-89l-59 199h-245l-59 -199h-87l214 698h111zM402 272l-98 337h-9
l-98 -337h205z" />
    <glyph glyph-name="abreve" unicode="&#x103;" 
d="M283 595q-38 0 -67 14t-47 39.5t-28 47t-19 50.5l51 22l21 -34q19 -31 28 -43t24.5 -21.5t36.5 -9.5t36.5 9.5t24.5 21.5t28 43l21 34l51 -22q-9 -29 -19 -50.5t-28 -47t-47 -39.5t-67 -14zM550 0h-55q-81 0 -92 84h-5q-36 -96 -155 -96q-81 0 -129 42t-48 115
q0 150 222 150h110v51q0 56 -32 85t-91 29q-94 0 -138 -76l-54 40q21 44 72 74t125 30q91 0 144.5 -46.5t53.5 -127.5v-284h72v-70zM257 55q61 0 101 27.5t40 67.5v85h-110q-138 0 -138 -78v-21q0 -39 28.5 -60t78.5 -21z" />
    <glyph glyph-name="Aogonek" unicode="&#x104;" 
d="M31 0l214 698h111l214 -698q-113 -71 -113 -114q0 -37 42 -37q31 0 52 26l40 -41q-24 -41 -93 -41q-48 0 -78.5 21t-30.5 59q0 69 115 124l-1 3h-22l-59 199h-245l-59 -199h-87zM402 272l-98 337h-9l-98 -337h205z" />
    <glyph glyph-name="aogonek" unicode="&#x105;" 
d="M550 70v-70q-113 -71 -113 -114q0 -37 42 -37q31 0 52 26l40 -41q-24 -41 -93 -41q-48 0 -78.5 21t-30.5 59q0 69 115 124l-1 3q-36 3 -56.5 25.5t-23.5 58.5h-5q-36 -96 -155 -96q-81 0 -129 42t-48 115q0 150 222 150h110v51q0 56 -32 85t-92 29q-93 0 -137 -76l-54 40
q21 44 72 74t125 30q91 0 144.5 -46.5t53.5 -127.5v-284h72zM398 235h-110q-138 0 -138 -78v-21q0 -39 28.5 -60t78.5 -21q61 0 101 27.5t40 67.5v85z" />
    <glyph glyph-name="Cacute" unicode="&#x106;" 
d="M441 914l-106 -159l-52 24l85 170zM323 -12q-126 0 -189.5 92.5t-63.5 268.5t63.5 268.5t189.5 92.5q87 0 135.5 -41.5t79.5 -111.5l-72 -33q-22 55 -53.5 84t-89.5 29q-81 0 -122.5 -61.5t-41.5 -169.5v-114q0 -108 41.5 -169.5t122.5 -61.5q58 0 89.5 29t53.5 84
l72 -33q-31 -70 -79.5 -111.5t-135.5 -41.5z" />
    <glyph glyph-name="cacute" unicode="&#x107;" 
d="M426 744l-106 -159l-52 24l85 170zM318 -12q-110 0 -172 73t-62 197t62 197t171 73q142 0 191 -119l-64 -34q-30 84 -127 84q-69 0 -108 -43.5t-39 -113.5v-88q0 -70 39 -113.5t110 -43.5q98 0 140 90l57 -39q-24 -55 -74 -87.5t-124 -32.5z" />
    <glyph glyph-name="Ccircumflex" unicode="&#x108;" 
d="M278 935h100l111 -143l-45 -31l-117 117l-117 -117l-43 31zM323 -12q-126 0 -189.5 92.5t-63.5 268.5t63.5 268.5t189.5 92.5q87 0 135.5 -41.5t79.5 -111.5l-72 -33q-22 55 -53.5 84t-89.5 29q-81 0 -122.5 -61.5t-41.5 -169.5v-114q0 -108 41.5 -169.5t122.5 -61.5
q58 0 89.5 29t53.5 84l72 -33q-31 -70 -79.5 -111.5t-135.5 -41.5z" />
    <glyph glyph-name="ccircumflex" unicode="&#x109;" 
d="M263 765h100l111 -143l-45 -31l-117 117l-117 -117l-43 31zM318 -12q-110 0 -172 73t-62 197t62 197t171 73q142 0 191 -119l-64 -34q-30 84 -127 84q-69 0 -108 -43.5t-39 -113.5v-88q0 -70 39 -113.5t110 -43.5q98 0 140 90l57 -39q-24 -55 -74 -87.5t-124 -32.5z" />
    <glyph glyph-name="Cdotaccent" unicode="&#x10a;" 
d="M328 782q-63 0 -63 51v16q0 51 63 51t63 -51v-16q0 -51 -63 -51zM323 -12q-126 0 -189.5 92.5t-63.5 268.5t63.5 268.5t189.5 92.5q87 0 135.5 -41.5t79.5 -111.5l-72 -33q-22 55 -53.5 84t-89.5 29q-81 0 -122.5 -61.5t-41.5 -169.5v-114q0 -108 41.5 -169.5
t122.5 -61.5q58 0 89.5 29t53.5 84l72 -33q-31 -70 -79.5 -111.5t-135.5 -41.5z" />
    <glyph glyph-name="cdotaccent" unicode="&#x10b;" 
d="M313 612q-63 0 -63 51v16q0 51 63 51t63 -51v-16q0 -51 -63 -51zM318 -12q-110 0 -172 73t-62 197t62 197t171 73q142 0 191 -119l-64 -34q-30 84 -127 84q-69 0 -108 -43.5t-39 -113.5v-88q0 -70 39 -113.5t110 -43.5q98 0 140 90l57 -39q-24 -55 -74 -87.5t-124 -32.5z
" />
    <glyph glyph-name="Ccaron" unicode="&#x10c;" 
d="M378 769h-100l-111 143l45 31l117 -117l117 117l43 -31zM323 -12q-126 0 -189.5 92.5t-63.5 268.5t63.5 268.5t189.5 92.5q87 0 135.5 -41.5t79.5 -111.5l-72 -33q-22 55 -53.5 84t-89.5 29q-81 0 -122.5 -61.5t-41.5 -169.5v-114q0 -108 41.5 -169.5t122.5 -61.5
q58 0 89.5 29t53.5 84l72 -33q-31 -70 -79.5 -111.5t-135.5 -41.5z" />
    <glyph glyph-name="ccaron" unicode="&#x10d;" 
d="M363 599h-100l-111 143l46 31l117 -117l117 117l42 -31zM318 -12q-110 0 -172 73t-62 197t62 197t171 73q142 0 191 -119l-64 -34q-30 84 -127 84q-69 0 -108 -43.5t-39 -113.5v-88q0 -70 39 -113.5t110 -43.5q98 0 140 90l57 -39q-24 -55 -74 -87.5t-124 -32.5z" />
    <glyph glyph-name="Dcaron" unicode="&#x10e;" 
d="M327 769h-100l-111 143l45 31l117 -117l117 117l43 -31zM95 0v698h195q254 0 254 -349t-254 -349h-195zM179 73h107q82 0 125.5 58t43.5 164v108q0 106 -43.5 164t-125.5 58h-107v-552z" />
    <glyph glyph-name="dcaron" unicode="&#x10f;" 
d="M237 -12q-90 0 -141 71.5t-51 198.5t51 198.5t141 71.5q102 0 149 -96h4v308h80v-740h-80v84h-4q-47 -96 -149 -96zM263 59q53 0 90 28.5t37 77.5v186q0 49 -37 77.5t-90 28.5q-64 0 -98 -41t-34 -114v-88q0 -73 34 -114t98 -41zM538 551l7 189h103l-49 -189h-61z" />
    <glyph glyph-name="Dcroat" unicode="&#x110;" 
d="M102 0v336h-80v64h80v298h188q254 0 254 -349t-254 -349h-188zM186 73h100q82 0 125.5 58t43.5 164v108q0 106 -43.5 164t-125.5 58h-100v-225h141v-64h-141v-263z" />
    <glyph glyph-name="dcroat" unicode="&#x111;" 
d="M425 0v84h-4q-50 -96 -159 -96q-95 0 -148.5 71.5t-53.5 198.5t53.5 198.5t148.5 71.5q109 0 159 -96h4v176h-153v62h153v70h80v-70h65v-62h-65v-608h-80zM293 59q56 0 94 28t38 78v186q0 50 -38 78t-94 28q-69 0 -108 -42t-39 -113v-88q0 -71 39 -113t108 -42z" />
    <glyph glyph-name="Emacron" unicode="&#x112;" 
d="M165 807v68h280v-68h-280zM520 0h-430v698h430v-73h-346v-235h334v-73h-334v-244h346v-73z" />
    <glyph glyph-name="emacron" unicode="&#x113;" 
d="M162 637v68h280v-68h-280zM309 -12q-111 0 -176.5 73t-65.5 196t65.5 197t171.5 74q103 0 166 -70.5t63 -181.5v-38h-382v-24q0 -69 43 -113t115 -44q105 0 148 90l59 -40q-24 -54 -78.5 -86.5t-128.5 -32.5zM304 462q-66 0 -109.5 -44.5t-43.5 -112.5v-7h296v11
q0 68 -39.5 110.5t-103.5 42.5z" />
    <glyph glyph-name="Ebreve" unicode="&#x114;" 
d="M305 765q-38 0 -67 14t-47 39.5t-28 47t-19 50.5l51 22l21 -34q19 -31 28 -43t24.5 -21.5t36.5 -9.5t36.5 9.5t24.5 21.5t28 43l21 34l51 -22q-9 -29 -19 -50.5t-28 -47t-47 -39.5t-67 -14zM520 0h-430v698h430v-73h-346v-235h334v-73h-334v-244h346v-73z" />
    <glyph glyph-name="ebreve" unicode="&#x115;" 
d="M302 595q-38 0 -67 14t-47 39.5t-28 47t-19 50.5l51 22l21 -34q19 -31 28 -43t24.5 -21.5t36.5 -9.5t36.5 9.5t24.5 21.5t28 43l21 34l51 -22q-9 -29 -19 -50.5t-28 -47t-47 -39.5t-67 -14zM309 -12q-111 0 -176.5 73t-65.5 196t65.5 197t171.5 74q103 0 166 -70.5
t63 -181.5v-38h-382v-24q0 -69 43 -113t115 -44q105 0 148 90l59 -40q-24 -54 -78.5 -86.5t-128.5 -32.5zM304 462q-66 0 -109.5 -44.5t-43.5 -112.5v-7h296v11q0 68 -39.5 110.5t-103.5 42.5z" />
    <glyph glyph-name="Edotaccent" unicode="&#x116;" 
d="M305 782q-63 0 -63 51v16q0 51 63 51t63 -51v-16q0 -51 -63 -51zM520 0h-430v698h430v-73h-346v-235h334v-73h-334v-244h346v-73z" />
    <glyph glyph-name="edotaccent" unicode="&#x117;" 
d="M302 612q-63 0 -63 51v16q0 51 63 51t63 -51v-16q0 -51 -63 -51zM309 -12q-111 0 -176.5 73t-65.5 196t65.5 197t171.5 74q103 0 166 -70.5t63 -181.5v-38h-382v-24q0 -69 43 -113t115 -44q105 0 148 90l59 -40q-24 -54 -78.5 -86.5t-128.5 -32.5zM304 462
q-66 0 -109.5 -44.5t-43.5 -112.5v-7h296v11q0 68 -39.5 110.5t-103.5 42.5z" />
    <glyph glyph-name="Eogonek" unicode="&#x118;" 
d="M90 0v698h430v-73h-346v-235h334v-73h-334v-244h346v-73q-113 -71 -113 -114q0 -37 42 -37q31 0 52 26l40 -41q-24 -41 -93 -41q-48 0 -78.5 21t-30.5 59q0 69 115 124l-1 3h-363z" />
    <glyph glyph-name="eogonek" unicode="&#x119;" 
d="M361 -207q-48 0 -78.5 21t-30.5 59q0 68 113 121l-2 3q-23 -9 -61 -9q-104 0 -169.5 74t-65.5 196t65.5 196t171.5 74q103 0 166 -70.5t63 -181.5v-38h-382v-24q0 -69 43 -113t115 -44q105 0 148 90l59 -40q-21 -46 -111 -119q-50 -41 -67.5 -61t-17.5 -41q0 -37 42 -37
q31 0 52 26l40 -41q-24 -41 -93 -41zM151 298h296v11q0 68 -39.5 110.5t-103.5 42.5q-66 0 -109.5 -44.5t-43.5 -112.5v-7z" />
    <glyph glyph-name="Ecaron" unicode="&#x11a;" 
d="M355 769h-100l-111 143l45 31l117 -117l117 117l43 -31zM520 0h-430v698h430v-73h-346v-235h334v-73h-334v-244h346v-73z" />
    <glyph glyph-name="ecaron" unicode="&#x11b;" 
d="M352 599h-100l-111 143l46 31l117 -117l117 117l42 -31zM309 -12q-111 0 -176.5 73t-65.5 196t65.5 197t171.5 74q103 0 166 -70.5t63 -181.5v-38h-382v-24q0 -69 43 -113t115 -44q105 0 148 90l59 -40q-24 -54 -78.5 -86.5t-128.5 -32.5zM304 462q-66 0 -109.5 -44.5
t-43.5 -112.5v-7h296v11q0 68 -39.5 110.5t-103.5 42.5z" />
    <glyph glyph-name="Gcircumflex" unicode="&#x11c;" 
d="M256 935h100l111 -143l-45 -31l-117 117l-117 -117l-43 31zM444 0v93h-5q-20 -48 -56 -76.5t-102 -28.5q-112 0 -168.5 91.5t-56.5 264.5q0 366 249 366q157 0 217 -153l-72 -33q-22 55 -53 84t-89 29q-82 0 -122.5 -61t-40.5 -170v-108q0 -239 155 -239q66 0 105 40.5
t39 106.5v72h-147v67h225v-345h-78z" />
    <glyph glyph-name="gcircumflex" unicode="&#x11d;" 
d="M247 765h100l111 -143l-45 -31l-117 117l-117 -117l-43 31zM301 -212q-234 0 -234 128q0 77 84 99v12q-46 22 -46 71q0 67 93 90v4q-48 21 -74.5 62.5t-26.5 95.5q0 79 55 128.5t145 49.5q43 0 78 -12h181v-64h-94q36 -39 36 -102q0 -79 -55.5 -128.5t-145.5 -49.5
q-28 0 -49 4q-29 -6 -51.5 -20.5t-22.5 -38.5q0 -38 83 -38h114q190 0 190 -138q0 -153 -260 -153zM297 234q58 0 87.5 27.5t29.5 74.5v29q0 47 -29.5 74t-87.5 27t-87 -27t-29 -74v-29q0 -47 29 -74.5t87 -27.5zM486 -63q0 68 -112 68h-179q-52 -21 -52 -70q0 -37 29 -60
t88 -23h78q71 0 109.5 21.5t38.5 63.5z" />
    <glyph glyph-name="Gbreve" unicode="&#x11e;" 
d="M306 765q-38 0 -67 14t-47 39.5t-28 47t-19 50.5l51 22l21 -34q19 -31 28 -43t24.5 -21.5t36.5 -9.5t36.5 9.5t24.5 21.5t28 43l21 34l51 -22q-9 -29 -19 -50.5t-28 -47t-47 -39.5t-67 -14zM444 0v93h-5q-20 -48 -56 -76.5t-102 -28.5q-112 0 -168.5 91.5t-56.5 264.5
q0 366 249 366q157 0 217 -153l-72 -33q-22 55 -53 84t-89 29q-82 0 -122.5 -61t-40.5 -170v-108q0 -239 155 -239q66 0 105 40.5t39 106.5v72h-147v67h225v-345h-78z" />
    <glyph glyph-name="gbreve" unicode="&#x11f;" 
d="M297 595q-38 0 -67 14t-47 39.5t-28 47t-19 50.5l51 22l21 -34q19 -31 28 -43t24.5 -21.5t36.5 -9.5t36.5 9.5t24.5 21.5t28 43l21 34l51 -22q-9 -29 -19 -50.5t-28 -47t-47 -39.5t-67 -14zM301 -212q-234 0 -234 128q0 77 84 99v12q-46 22 -46 71q0 67 93 90v4
q-48 21 -74.5 62.5t-26.5 95.5q0 79 55 128.5t145 49.5q43 0 78 -12h181v-64h-94q36 -39 36 -102q0 -79 -55.5 -128.5t-145.5 -49.5q-28 0 -49 4q-29 -6 -51.5 -20.5t-22.5 -38.5q0 -38 83 -38h114q190 0 190 -138q0 -153 -260 -153zM297 234q58 0 87.5 27.5t29.5 74.5v29
q0 47 -29.5 74t-87.5 27t-87 -27t-29 -74v-29q0 -47 29 -74.5t87 -27.5zM486 -63q0 68 -112 68h-179q-52 -21 -52 -70q0 -37 29 -60t88 -23h78q71 0 109.5 21.5t38.5 63.5z" />
    <glyph glyph-name="Gdotaccent" unicode="&#x120;" 
d="M306 782q-63 0 -63 51v16q0 51 63 51t63 -51v-16q0 -51 -63 -51zM444 0v93h-5q-20 -48 -56 -76.5t-102 -28.5q-112 0 -168.5 91.5t-56.5 264.5q0 366 249 366q157 0 217 -153l-72 -33q-22 55 -53 84t-89 29q-82 0 -122.5 -61t-40.5 -170v-108q0 -239 155 -239
q66 0 105 40.5t39 106.5v72h-147v67h225v-345h-78z" />
    <glyph glyph-name="gdotaccent" unicode="&#x121;" 
d="M297 612q-63 0 -63 51v16q0 51 63 51t63 -51v-16q0 -51 -63 -51zM561 -59q0 -153 -260 -153q-234 0 -234 128q0 77 84 99v12q-46 22 -46 71q0 67 93 90v4q-48 21 -74.5 62.5t-26.5 95.5q0 79 55 128.5t145 49.5q59 0 102 -21v9q0 70 62 70h95v-70h-116v-35
q58 -50 58 -131q0 -79 -55.5 -128.5t-145.5 -49.5q-28 0 -49 4q-29 -6 -51.5 -20.5t-22.5 -38.5q0 -38 83 -38h114q190 0 190 -138zM486 -63q0 68 -112 68h-179q-52 -21 -52 -70q0 -37 29 -60t88 -23h78q71 0 109.5 21.5t38.5 63.5zM297 234q58 0 87.5 27.5t29.5 74.5v29
q0 47 -29.5 74t-87.5 27t-87 -27t-29 -74v-29q0 -47 29 -74.5t87 -27.5z" />
    <glyph glyph-name="Gcommaaccent" unicode="&#x122;" 
d="M220 -251l28 189h109l-76 -189h-61zM444 0v93h-5q-20 -48 -56 -76.5t-102 -28.5q-112 0 -168.5 91.5t-56.5 264.5q0 366 249 366q157 0 217 -153l-72 -33q-22 55 -53 84t-89 29q-82 0 -122.5 -61t-40.5 -170v-108q0 -239 155 -239q66 0 105 40.5t39 106.5v72h-147v67h225
v-345h-78z" />
    <glyph glyph-name="gcommaaccent" unicode="&#x123;" 
d="M240 587l76 189h61l-28 -189h-109zM561 -59q0 -153 -260 -153q-234 0 -234 128q0 77 84 99v12q-46 22 -46 71q0 67 93 90v4q-48 21 -74.5 62.5t-26.5 95.5q0 79 55 128.5t145 49.5q59 0 102 -21v9q0 70 62 70h95v-70h-116v-35q58 -50 58 -131q0 -79 -55.5 -128.5
t-145.5 -49.5q-28 0 -49 4q-29 -6 -51.5 -20.5t-22.5 -38.5q0 -38 83 -38h114q190 0 190 -138zM486 -63q0 68 -112 68h-179q-52 -21 -52 -70q0 -37 29 -60t88 -23h78q71 0 109.5 21.5t38.5 63.5zM297 234q58 0 87.5 27.5t29.5 74.5v29q0 47 -29.5 74t-87.5 27t-87 -27
t-29 -74v-29q0 -47 29 -74.5t87 -27.5z" />
    <glyph glyph-name="Hcircumflex" unicode="&#x124;" 
d="M250 935h100l111 -143l-45 -31l-117 117l-117 -117l-43 31zM436 0v317h-272v-317h-84v698h84v-308h272v308h84v-698h-84z" />
    <glyph glyph-name="hcircumflex" unicode="&#x125;" 
d="M88 947h100l111 -143l-45 -31l-117 117l-117 -117l-43 31zM98 0v740h80v-308h4q41 96 147 96q82 0 130.5 -52t48.5 -145v-331h-80v317q0 140 -122 140q-53 0 -90.5 -25.5t-37.5 -73.5v-358h-80z" />
    <glyph glyph-name="Hbar" unicode="&#x126;" 
d="M436 0v317h-272v-317h-84v518h-70v64h70v116h84v-116h272v116h84v-116h70v-64h-70v-518h-84zM164 390h272v128h-272v-128z" />
    <glyph glyph-name="hbar" unicode="&#x127;" 
d="M178 0h-80v608h-65v62h65v70h80v-70h153v-62h-153v-176h4q41 96 147 96q82 0 130.5 -52t48.5 -145v-331h-80v317q0 140 -122 140q-53 0 -90.5 -25.5t-37.5 -73.5v-358z" />
    <glyph glyph-name="Itilde" unicode="&#x128;" 
d="M373 782q-30 0 -80 26q-45 24 -70 24q-26 0 -58 -27l-33 40q35 53 95 53q30 0 80 -26q45 -24 70 -24q26 0 58 27l33 -40q-35 -53 -95 -53zM516 0h-432v67h174v564h-174v67h432v-67h-174v-564h174v-67z" />
    <glyph glyph-name="itilde" unicode="&#x129;" 
d="M405 612q-30 0 -80 26q-45 24 -70 24q-26 0 -58 -27l-33 40q35 53 95 53q30 0 80 -26q45 -24 70 -24q26 0 58 27l33 -40q-35 -53 -95 -53zM106 0v68h186v380h-186v68h266v-448h174v-68h-440z" />
    <glyph glyph-name="Imacron" unicode="&#x12a;" 
d="M160 807v68h280v-68h-280zM516 0h-432v67h174v564h-174v67h432v-67h-174v-564h174v-67z" />
    <glyph glyph-name="imacron" unicode="&#x12b;" 
d="M192 637v68h280v-68h-280zM106 0v68h186v380h-186v68h266v-448h174v-68h-440z" />
    <glyph glyph-name="Ibreve" unicode="&#x12c;" 
d="M300 765q-38 0 -67 14t-47 39.5t-28 47t-19 50.5l51 22l21 -34q19 -31 28 -43t24.5 -21.5t36.5 -9.5t36.5 9.5t24.5 21.5t28 43l21 34l51 -22q-9 -29 -19 -50.5t-28 -47t-47 -39.5t-67 -14zM516 0h-432v67h174v564h-174v67h432v-67h-174v-564h174v-67z" />
    <glyph glyph-name="ibreve" unicode="&#x12d;" 
d="M332 595q-38 0 -67 14t-47 39.5t-28 47t-19 50.5l51 22l21 -34q19 -31 28 -43t24.5 -21.5t36.5 -9.5t36.5 9.5t24.5 21.5t28 43l21 34l51 -22q-9 -29 -19 -50.5t-28 -47t-47 -39.5t-67 -14zM106 0v68h186v380h-186v68h266v-448h174v-68h-440z" />
    <glyph glyph-name="Iogonek" unicode="&#x12e;" 
d="M84 0v67h174v564h-174v67h432v-67h-174v-564h174v-67q-113 -71 -113 -114q0 -37 42 -37q31 0 52 26l40 -41q-24 -41 -93 -41q-48 0 -78.5 21t-30.5 59q0 69 115 124l-1 3h-365z" />
    <glyph glyph-name="iogonek" unicode="&#x12f;" 
d="M474 -207q-48 0 -78.5 21t-30.5 59q0 69 115 124l-1 3h-373v68h186v380h-186v68h266v-448h174v-68q-113 -71 -113 -114q0 -37 42 -37q31 0 52 26l40 -41q-24 -41 -93 -41zM332 630q-63 0 -63 51v16q0 51 63 51t63 -51v-16q0 -51 -63 -51z" />
    <glyph glyph-name="Idotaccent" unicode="&#x130;" 
d="M300 782q-63 0 -63 51v16q0 51 63 51t63 -51v-16q0 -51 -63 -51zM516 0h-432v67h174v564h-174v67h432v-67h-174v-564h174v-67z" />
    <glyph glyph-name="dotlessi" unicode="&#x131;" 
d="M106 0v68h186v380h-186v68h266v-448h174v-68h-440z" />
    <glyph glyph-name="IJ" unicode="&#x132;" 
d="M426 698h84v-507q0 -92 -60 -147.5t-157 -55.5q-82 0 -137 41t-71 116l84 21q24 -104 127 -104q130 0 130 144v492zM90 290v408h84v-408h-84z" />
    <glyph glyph-name="ij" unicode="&#x133;" 
d="M105 0v516h80v-516h-80zM185 -200v68h230v648h80v-598q0 -54 -29 -86t-85 -32h-196zM145 630q-63 0 -63 51v16q0 51 63 51t63 -51v-16q0 -51 -63 -51zM455 630q-63 0 -63 51v16q0 51 63 51t63 -51v-16q0 -51 -63 -51z" />
    <glyph glyph-name="Jcircumflex" unicode="&#x134;" 
d="M263 935h100l111 -143l-45 -31l-117 117l-117 -117l-43 31zM144 698h336v-517q0 -88 -57 -140.5t-149 -52.5q-79 0 -131.5 41.5t-68.5 116.5l80 17q23 -101 122 -101q120 0 120 134v429h-252v73z" />
    <glyph glyph-name="jcircumflex" unicode="&#x135;" 
d="M342 765h100l111 -143l-45 -31l-117 117l-117 -117l-43 31zM102 -200v68h250v580h-259v68h339v-598q0 -54 -29 -86t-85 -32h-216z" />
    <glyph glyph-name="Kcommaaccent" unicode="&#x136;" 
d="M242 -251l28 189h109l-76 -189h-61zM480 0l-211 342l-100 -118v-224h-84v698h84v-364h3l92 116l206 248h101l-245 -294l252 -404h-98z" />
    <glyph glyph-name="kcommaaccent" unicode="&#x137;" 
d="M243 -251l28 189h109l-76 -189h-61zM105 0v740h80v-467h4l90 85l172 158h98l-214 -202l239 -314h-99l-201 268l-89 -81v-187h-80z" />
    <glyph glyph-name="kgreenlandic" unicode="&#x138;" 
d="M479 0l-196 253l-97 -88v-165h-80v516h80v-261h4l95 93l170 168h98l-214 -210l239 -306h-99z" />
    <glyph glyph-name="Lacute" unicode="&#x139;" 
d="M275 914l-106 -159l-52 24l85 170zM535 0h-415v698h84v-625h331v-73z" />
    <glyph glyph-name="lacute" unicode="&#x13a;" 
d="M413 926l-106 -159l-52 24l85 170zM80 0v68h180v604h-180v68h260v-672h180v-68h-440z" />
    <glyph glyph-name="Lcommaaccent" unicode="&#x13b;" 
d="M247 -251l28 189h109l-76 -189h-61zM535 0h-415v698h84v-625h331v-73z" />
    <glyph glyph-name="lcommaaccent" unicode="&#x13c;" 
d="M220 -251l28 189h109l-76 -189h-61zM80 0v68h180v604h-180v68h260v-672h180v-68h-440z" />
    <glyph glyph-name="Lcaron" unicode="&#x13d;" 
d="M400 740l-49 -189h-61l7 189h103zM535 0h-415v698h84v-625h331v-73z" />
    <glyph glyph-name="lcaron" unicode="&#x13e;" 
d="M536 740l-49 -189h-61l7 189h103zM80 0v68h180v604h-180v68h260v-672h180v-68h-440z" />
    <glyph glyph-name="Ldot" unicode="&#x13f;" 
d="M435 266q-63 0 -63 51v16q0 51 63 51t63 -51v-16q0 -51 -63 -51zM535 0h-415v698h84v-625h331v-73z" />
    <glyph glyph-name="ldot" unicode="&#x140;" 
d="M514 246q-63 0 -63 51v16q0 51 63 51t63 -51v-16q0 -51 -63 -51zM80 0v68h180v604h-180v68h260v-672h180v-68h-440z" />
    <glyph glyph-name="Lslash" unicode="&#x141;" 
d="M535 73v-73h-415v271l-80 -26v69l80 26v358h84v-334l211 69v-69l-211 -69v-222h331z" />
    <glyph glyph-name="lslash" unicode="&#x142;" 
d="M80 0v68h180v220l-153 -50v67l153 50v317h-180v68h260v-362l153 50v-67l-153 -50v-243h180v-68h-440z" />
    <glyph glyph-name="Nacute" unicode="&#x143;" 
d="M413 914l-106 -159l-52 24l85 170zM401 0l-238 591h-7v-591h-76v698h119l238 -585h7v585h76v-698h-119z" />
    <glyph glyph-name="nacute" unicode="&#x144;" 
d="M416 744l-106 -159l-52 24l85 170zM178 0h-80v516h80v-84h4q41 96 147 96q82 0 130.5 -52t48.5 -145v-331h-80v317q0 140 -122 140q-53 0 -90.5 -25.5t-37.5 -73.5v-358z" />
    <glyph glyph-name="Ncommaaccent" unicode="&#x145;" 
d="M220 -251l28 189h109l-76 -189h-61zM401 0l-238 591h-7v-591h-76v698h119l238 -585h7v585h76v-698h-119z" />
    <glyph glyph-name="ncommaaccent" unicode="&#x146;" 
d="M223 -251l28 189h109l-76 -189h-61zM178 0h-80v516h80v-84h4q41 96 147 96q82 0 130.5 -52t48.5 -145v-331h-80v317q0 140 -122 140q-53 0 -90.5 -25.5t-37.5 -73.5v-358z" />
    <glyph glyph-name="Ncaron" unicode="&#x147;" 
d="M350 769h-100l-111 143l45 31l117 -117l117 117l43 -31zM401 0l-238 591h-7v-591h-76v698h119l238 -585h7v585h76v-698h-119z" />
    <glyph glyph-name="ncaron" unicode="&#x148;" 
d="M353 599h-100l-111 143l46 31l117 -117l117 117l42 -31zM178 0h-80v516h80v-84h4q41 96 147 96q82 0 130.5 -52t48.5 -145v-331h-80v317q0 140 -122 140q-53 0 -90.5 -25.5t-37.5 -73.5v-358z" />
    <glyph glyph-name="napostrophe" unicode="&#x149;" 
d="M98 0v516h80v-84h4q41 96 147 96q82 0 130.5 -52t48.5 -145v-331h-80v317q0 140 -122 140q-53 0 -90.5 -25.5t-37.5 -73.5v-358h-80zM0 555l12 185h93l-52 -185h-53z" />
    <glyph glyph-name="Eng" unicode="&#x14a;" 
d="M156 0h-76v698h119l238 -585h7v585h76v-780q0 -54 -29 -86t-85 -32h-249v68h287v132h-43l-238 591h-7v-591z" />
    <glyph glyph-name="eng" unicode="&#x14b;" 
d="M178 -200v68h250v449q0 140 -122 140q-53 0 -90.5 -25.5t-37.5 -73.5v-358h-80v516h80v-84h4q41 96 147 96q82 0 130.5 -52t48.5 -145v-413q0 -54 -29 -86t-85 -32h-216z" />
    <glyph glyph-name="Omacron" unicode="&#x14c;" 
d="M160 807v68h280v-68h-280zM300 -12q-244 0 -244 361t244 361t244 -361t-244 -361zM300 61q155 0 155 231v114q0 231 -155 231t-155 -231v-114q0 -231 155 -231z" />
    <glyph glyph-name="omacron" unicode="&#x14d;" 
d="M160 637v68h280v-68h-280zM300 -12q-108 0 -171 73t-63 197t63 197t171 73t171 -73t63 -197t-63 -197t-171 -73zM300 57q69 0 109 41.5t40 122.5v74q0 81 -40 122.5t-109 41.5t-109 -41.5t-40 -122.5v-74q0 -81 40 -122.5t109 -41.5z" />
    <glyph glyph-name="Obreve" unicode="&#x14e;" 
d="M300 765q-38 0 -67 14t-47 39.5t-28 47t-19 50.5l51 22l21 -34q19 -31 28 -43t24.5 -21.5t36.5 -9.5t36.5 9.5t24.5 21.5t28 43l21 34l51 -22q-9 -29 -19 -50.5t-28 -47t-47 -39.5t-67 -14zM300 -12q-244 0 -244 361t244 361t244 -361t-244 -361zM300 61q155 0 155 231
v114q0 231 -155 231t-155 -231v-114q0 -231 155 -231z" />
    <glyph glyph-name="obreve" unicode="&#x14f;" 
d="M300 595q-38 0 -67 14t-47 39.5t-28 47t-19 50.5l51 22l21 -34q19 -31 28 -43t24.5 -21.5t36.5 -9.5t36.5 9.5t24.5 21.5t28 43l21 34l51 -22q-9 -29 -19 -50.5t-28 -47t-47 -39.5t-67 -14zM300 -12q-108 0 -171 73t-63 197t63 197t171 73t171 -73t63 -197t-63 -197
t-171 -73zM300 57q69 0 109 41.5t40 122.5v74q0 81 -40 122.5t-109 41.5t-109 -41.5t-40 -122.5v-74q0 -81 40 -122.5t109 -41.5z" />
    <glyph glyph-name="Ohungarumlaut" unicode="&#x150;" 
d="M333 915l-106 -159l-48 22l85 170zM493 915l-106 -159l-48 22l85 170zM300 -12q-244 0 -244 361t244 361t244 -361t-244 -361zM300 61q155 0 155 231v114q0 231 -155 231t-155 -231v-114q0 -231 155 -231z" />
    <glyph glyph-name="ohungarumlaut" unicode="&#x151;" 
d="M333 745l-106 -159l-48 22l85 170zM493 745l-106 -159l-48 22l85 170zM300 -12q-108 0 -171 73t-63 197t63 197t171 73t171 -73t63 -197t-63 -197t-171 -73zM300 57q69 0 109 41.5t40 122.5v74q0 81 -40 122.5t-109 41.5t-109 -41.5t-40 -122.5v-74q0 -81 40 -122.5
t109 -41.5z" />
    <glyph glyph-name="OE" unicode="&#x152;" 
d="M560 0h-271q-252 0 -252 349t252 349h271v-69h-168v-241h156v-69h-156v-250h168v-69zM293 69h19v560h-19q-83 0 -127 -59t-44 -167v-108q0 -108 44 -167t127 -59z" />
    <glyph glyph-name="oe" unicode="&#x153;" 
d="M176 48q85 0 85 157v106q0 157 -85 157t-85 -157v-106q0 -157 85 -157zM334 295h182v34q0 141 -91 141t-91 -141v-34zM427 -12q-84 0 -131 85h-3q-40 -85 -123 -85q-77 0 -116.5 71.5t-39.5 198.5t39.5 198.5t116.5 71.5q91 0 127 -94h3q40 94 132 94q150 0 150 -236v-54
h-248v-25q0 -73 25 -117t70 -44q57 0 87 89l58 -27q-16 -53 -53.5 -89.5t-93.5 -36.5z" />
    <glyph glyph-name="Racute" unicode="&#x154;" 
d="M421 914l-106 -159l-52 24l85 170zM174 298v-298h-84v698h254q96 0 147.5 -53t51.5 -148q0 -85 -44.5 -136t-127.5 -59l178 -302h-94l-170 298h-111zM174 369h168q53 0 82.5 26.5t29.5 75.5v52q0 49 -29.5 75.5t-82.5 26.5h-168v-256z" />
    <glyph glyph-name="racute" unicode="&#x155;" 
d="M466 744l-106 -159l-52 24l85 170zM77 0v68h151v380h-151v68h231v-130h5q38 130 174 130h72v-80h-97q-73 0 -113.5 -41t-40.5 -104v-223h200v-68h-431z" />
    <glyph glyph-name="Rcommaaccent" unicode="&#x156;" 
d="M228 -251l28 189h109l-76 -189h-61zM174 298v-298h-84v698h254q96 0 147.5 -53t51.5 -148q0 -85 -44.5 -136t-127.5 -59l178 -302h-94l-170 298h-111zM174 369h168q53 0 82.5 26.5t29.5 75.5v52q0 49 -29.5 75.5t-82.5 26.5h-168v-256z" />
    <glyph glyph-name="rcommaaccent" unicode="&#x157;" 
d="M188 -251l28 189h109l-76 -189h-61zM77 0v68h151v380h-151v68h231v-130h5q38 130 174 130h72v-80h-97q-73 0 -113.5 -41t-40.5 -104v-223h200v-68h-431z" />
    <glyph glyph-name="Rcaron" unicode="&#x158;" 
d="M358 769h-100l-111 143l45 31l117 -117l117 117l43 -31zM174 298v-298h-84v698h254q96 0 147.5 -53t51.5 -148q0 -85 -44.5 -136t-127.5 -59l178 -302h-94l-170 298h-111zM174 369h168q53 0 82.5 26.5t29.5 75.5v52q0 49 -29.5 75.5t-82.5 26.5h-168v-256z" />
    <glyph glyph-name="rcaron" unicode="&#x159;" 
d="M403 599h-100l-111 143l46 31l117 -117l117 117l42 -31zM77 0v68h151v380h-151v68h231v-130h5q38 130 174 130h72v-80h-97q-73 0 -113.5 -41t-40.5 -104v-223h200v-68h-431z" />
    <glyph glyph-name="Sacute" unicode="&#x15a;" 
d="M411 914l-106 -159l-52 24l85 170zM298 -12q-164 0 -253 123l61 50q41 -52 87 -76.5t108 -24.5q75 0 115.5 35t40.5 98q0 52 -30 80t-100 40l-78 13q-180 30 -180 190q0 94 62 144t171 50q159 0 234 -107l-59 -51q-66 86 -176 86q-71 0 -109 -30.5t-38 -89.5
q0 -49 29.5 -78t101.5 -41l75 -13q182 -32 182 -191q0 -97 -64 -152t-180 -55z" />
    <glyph glyph-name="sacute" unicode="&#x15b;" 
d="M411 744l-106 -159l-52 24l85 170zM306 -12q-150 0 -239 101l54 47q76 -81 187 -81q63 0 100 22.5t37 66.5q0 37 -24 53t-67 22l-81 12q-28 4 -47 8t-46 14.5t-43.5 25t-28.5 39t-12 56.5q0 75 57 114.5t151 39.5q132 0 210 -83l-52 -49q-54 65 -161 65q-61 0 -93.5 -21
t-32.5 -61q0 -37 24.5 -53t66.5 -22l81 -12q28 -4 47.5 -8t46 -14.5t43 -25t28.5 -39t12 -56.5q0 -76 -59 -118.5t-159 -42.5z" />
    <glyph glyph-name="Scircumflex" unicode="&#x15c;" 
d="M248 935h100l111 -143l-45 -31l-117 117l-117 -117l-43 31zM298 -12q-164 0 -253 123l61 50q41 -52 87 -76.5t108 -24.5q75 0 115.5 35t40.5 98q0 52 -30 80t-100 40l-78 13q-180 30 -180 190q0 94 62 144t171 50q159 0 234 -107l-59 -51q-66 86 -176 86
q-71 0 -109 -30.5t-38 -89.5q0 -49 29.5 -78t101.5 -41l75 -13q182 -32 182 -191q0 -97 -64 -152t-180 -55z" />
    <glyph glyph-name="scircumflex" unicode="&#x15d;" 
d="M248 765h100l111 -143l-45 -31l-117 117l-117 -117l-43 31zM306 -12q-150 0 -239 101l54 47q76 -81 187 -81q63 0 100 22.5t37 66.5q0 37 -24 53t-67 22l-81 12q-28 4 -47 8t-46 14.5t-43.5 25t-28.5 39t-12 56.5q0 75 57 114.5t151 39.5q132 0 210 -83l-52 -49
q-54 65 -161 65q-61 0 -93.5 -21t-32.5 -61q0 -37 24.5 -53t66.5 -22l81 -12q28 -4 47.5 -8t46 -14.5t43 -25t28.5 -39t12 -56.5q0 -76 -59 -118.5t-159 -42.5z" />
    <glyph glyph-name="Scedilla" unicode="&#x15e;" 
d="M309 -207q-69 0 -99 41l38 41q22 -28 61 -28q44 0 44 31t-68 41l-28 4l13 66q-144 9 -225 122l61 50q41 -52 87 -76.5t108 -24.5q75 0 115.5 35t40.5 98q0 52 -30 80t-100 40l-78 13q-180 30 -180 190q0 94 62 144t171 50q159 0 234 -107l-59 -51q-66 86 -176 86
q-71 0 -109 -30.5t-38 -89.5q0 -49 29.5 -78t101.5 -41l75 -13q182 -32 182 -191q0 -92 -58 -146.5t-164 -59.5l-10 -50l3 -3q19 6 39 6q30 0 49 -17.5t19 -48.5q0 -41 -31.5 -62t-79.5 -21z" />
    <glyph glyph-name="scedilla" unicode="&#x15f;" 
d="M310 -207q-69 0 -99 41l38 41q22 -28 61 -28q44 0 44 31t-68 41l-28 4l13 67q-125 10 -204 99l54 47q76 -81 187 -81q63 0 100 22.5t37 66.5q0 37 -24 53t-67 22l-81 12q-28 4 -47 8t-46 14.5t-43.5 25t-28.5 39t-12 56.5q0 75 57 114.5t151 39.5q132 0 210 -83l-52 -49
q-54 65 -161 65q-61 0 -93.5 -21t-32.5 -61q0 -37 24.5 -53t66.5 -22l81 -12q28 -4 47.5 -8t46 -14.5t43 -25t28.5 -39t12 -56.5q0 -73 -55 -115.5t-149 -45.5l-9 -49l3 -3q20 6 39 6q30 0 49 -17.5t19 -48.5q0 -41 -31.5 -62t-79.5 -21z" />
    <glyph glyph-name="Scaron" unicode="&#x160;" 
d="M348 769h-100l-111 143l45 31l117 -117l117 117l43 -31zM298 -12q-164 0 -253 123l61 50q41 -52 87 -76.5t108 -24.5q75 0 115.5 35t40.5 98q0 52 -30 80t-100 40l-78 13q-180 30 -180 190q0 94 62 144t171 50q159 0 234 -107l-59 -51q-66 86 -176 86q-71 0 -109 -30.5
t-38 -89.5q0 -49 29.5 -78t101.5 -41l75 -13q182 -32 182 -191q0 -97 -64 -152t-180 -55z" />
    <glyph glyph-name="scaron" unicode="&#x161;" 
d="M348 599h-100l-111 143l46 31l117 -117l117 117l42 -31zM306 -12q-150 0 -239 101l54 47q76 -81 187 -81q63 0 100 22.5t37 66.5q0 37 -24 53t-67 22l-81 12q-28 4 -47 8t-46 14.5t-43.5 25t-28.5 39t-12 56.5q0 75 57 114.5t151 39.5q132 0 210 -83l-52 -49
q-54 65 -161 65q-61 0 -93.5 -21t-32.5 -61q0 -37 24.5 -53t66.5 -22l81 -12q28 -4 47.5 -8t46 -14.5t43 -25t28.5 -39t12 -56.5q0 -76 -59 -118.5t-159 -42.5z" />
    <glyph glyph-name="Tcommaaccent" unicode="&#x162;" 
d="M220 -251l28 189h109l-76 -189h-61zM575 625h-233v-625h-84v625h-233v73h550v-73z" />
    <glyph glyph-name="tcommaaccent" unicode="&#x163;" 
d="M295 -251l28 189h109l-76 -189h-61zM526 0h-201q-56 0 -85 32t-29 86v330h-172v68h128q26 0 36.5 10.5t10.5 36.5v135h77v-182h235v-68h-235v-380h235v-68z" />
    <glyph glyph-name="Tcaron" unicode="&#x164;" 
d="M350 769h-100l-111 143l45 31l117 -117l117 117l43 -31zM575 625h-233v-625h-84v625h-233v73h550v-73z" />
    <glyph glyph-name="tcaron" unicode="&#x165;" 
d="M497 760l-49 -189h-61l7 189h103zM526 0h-201q-56 0 -85 32t-29 86v330h-172v68h128q26 0 36.5 10.5t10.5 36.5v135h77v-182h235v-68h-235v-380h235v-68z" />
    <glyph glyph-name="Tbar" unicode="&#x166;" 
d="M515 336h-173v-336h-84v336h-173v64h173v225h-233v73h550v-73h-233v-225h173v-64z" />
    <glyph glyph-name="tbar" unicode="&#x167;" 
d="M524 68v-68h-199q-56 0 -85 32t-29 86v129h-109v62h109v139h-172v68h128q26 0 36.5 10.5t10.5 36.5v135h77v-182h235v-68h-235v-139h173v-62h-173v-179h233z" />
    <glyph glyph-name="Utilde" unicode="&#x168;" 
d="M373 782q-30 0 -80 26q-45 24 -70 24q-26 0 -58 -27l-33 40q35 53 95 53q30 0 80 -26q45 -24 70 -24q26 0 58 27l33 -40q-35 -53 -95 -53zM80 698h84v-419q0 -49 1.5 -75.5t8.5 -58.5t21.5 -47.5t40.5 -26t64 -10.5t64 10.5t40.5 26t21.5 47.5t8.5 58.5t1.5 75.5v419h84
v-399q0 -84 -8 -137t-30.5 -95t-67 -60.5t-114.5 -18.5t-114.5 18.5t-67 60.5t-30.5 95t-8 137v399z" />
    <glyph glyph-name="utilde" unicode="&#x169;" 
d="M370 612q-30 0 -80 26q-45 24 -70 24q-26 0 -58 -27l-33 40q35 53 95 53q30 0 80 -26q45 -24 70 -24q26 0 58 27l33 -40q-35 -53 -95 -53zM422 0v84h-4q-41 -96 -147 -96q-82 0 -130.5 52t-48.5 145v331h80v-317q0 -140 122 -140q53 0 90.5 25.5t37.5 73.5v358h80v-516
h-80z" />
    <glyph glyph-name="Umacron" unicode="&#x16a;" 
d="M160 807v68h280v-68h-280zM80 698h84v-419q0 -49 1.5 -75.5t8.5 -58.5t21.5 -47.5t40.5 -26t64 -10.5t64 10.5t40.5 26t21.5 47.5t8.5 58.5t1.5 75.5v419h84v-399q0 -84 -8 -137t-30.5 -95t-67 -60.5t-114.5 -18.5t-114.5 18.5t-67 60.5t-30.5 95t-8 137v399z" />
    <glyph glyph-name="umacron" unicode="&#x16b;" 
d="M157 637v68h280v-68h-280zM422 0v84h-4q-41 -96 -147 -96q-82 0 -130.5 52t-48.5 145v331h80v-317q0 -140 122 -140q53 0 90.5 25.5t37.5 73.5v358h80v-516h-80z" />
    <glyph glyph-name="Ubreve" unicode="&#x16c;" 
d="M300 765q-38 0 -67 14t-47 39.5t-28 47t-19 50.5l51 22l21 -34q19 -31 28 -43t24.5 -21.5t36.5 -9.5t36.5 9.5t24.5 21.5t28 43l21 34l51 -22q-9 -29 -19 -50.5t-28 -47t-47 -39.5t-67 -14zM80 698h84v-419q0 -49 1.5 -75.5t8.5 -58.5t21.5 -47.5t40.5 -26t64 -10.5
t64 10.5t40.5 26t21.5 47.5t8.5 58.5t1.5 75.5v419h84v-399q0 -84 -8 -137t-30.5 -95t-67 -60.5t-114.5 -18.5t-114.5 18.5t-67 60.5t-30.5 95t-8 137v399z" />
    <glyph glyph-name="ubreve" unicode="&#x16d;" 
d="M297 595q-38 0 -67 14t-47 39.5t-28 47t-19 50.5l51 22l21 -34q19 -31 28 -43t24.5 -21.5t36.5 -9.5t36.5 9.5t24.5 21.5t28 43l21 34l51 -22q-9 -29 -19 -50.5t-28 -47t-47 -39.5t-67 -14zM422 0v84h-4q-41 -96 -147 -96q-82 0 -130.5 52t-48.5 145v331h80v-317
q0 -140 122 -140q53 0 90.5 25.5t37.5 73.5v358h80v-516h-80z" />
    <glyph glyph-name="Uring" unicode="&#x16e;" 
d="M300 746q-49 0 -82.5 33t-33.5 82t33.5 82t82.5 33t82.5 -33t33.5 -82t-33.5 -82t-82.5 -33zM300 795q27 0 42.5 14.5t15.5 40.5v22q0 26 -15.5 40.5t-42.5 14.5t-42.5 -14.5t-15.5 -40.5v-22q0 -26 15.5 -40.5t42.5 -14.5zM80 698h84v-419q0 -49 1.5 -75.5t8.5 -58.5
t21.5 -47.5t40.5 -26t64 -10.5t64 10.5t40.5 26t21.5 47.5t8.5 58.5t1.5 75.5v419h84v-399q0 -84 -8 -137t-30.5 -95t-67 -60.5t-114.5 -18.5t-114.5 18.5t-67 60.5t-30.5 95t-8 137v399z" />
    <glyph glyph-name="uring" unicode="&#x16f;" 
d="M297 576q-49 0 -82.5 33t-33.5 82t33.5 82t82.5 33t82.5 -33t33.5 -82t-33.5 -82t-82.5 -33zM297 625q27 0 42.5 14.5t15.5 40.5v22q0 26 -15.5 40.5t-42.5 14.5t-42.5 -14.5t-15.5 -40.5v-22q0 -26 15.5 -40.5t42.5 -14.5zM422 0v84h-4q-41 -96 -147 -96
q-82 0 -130.5 52t-48.5 145v331h80v-317q0 -140 122 -140q53 0 90.5 25.5t37.5 73.5v358h80v-516h-80z" />
    <glyph glyph-name="Uhungarumlaut" unicode="&#x170;" 
d="M333 915l-106 -159l-48 22l85 170zM493 915l-106 -159l-48 22l85 170zM80 698h84v-419q0 -49 1.5 -75.5t8.5 -58.5t21.5 -47.5t40.5 -26t64 -10.5t64 10.5t40.5 26t21.5 47.5t8.5 58.5t1.5 75.5v419h84v-399q0 -84 -8 -137t-30.5 -95t-67 -60.5t-114.5 -18.5t-114.5 18.5
t-67 60.5t-30.5 95t-8 137v399z" />
    <glyph glyph-name="uhungarumlaut" unicode="&#x171;" 
d="M330 745l-106 -159l-48 22l85 170zM490 745l-106 -159l-48 22l85 170zM422 0v84h-4q-41 -96 -147 -96q-82 0 -130.5 52t-48.5 145v331h80v-317q0 -140 122 -140q53 0 90.5 25.5t37.5 73.5v358h80v-516h-80z" />
    <glyph glyph-name="Uogonek" unicode="&#x172;" 
d="M80 698h84v-419q0 -49 1.5 -75.5t8.5 -58.5t21.5 -47.5t40.5 -26t64 -10.5t64 10.5t40.5 26t21.5 47.5t8.5 58.5t1.5 75.5v419h84v-399q0 -126 -19.5 -187.5t-87.5 -111.5q-5 -4 -27.5 -19.5t-32.5 -23.5t-25 -21.5t-21.5 -26t-6.5 -25.5q0 -17 12 -26t30 -9q31 0 52 26
l40 -41q-24 -41 -93 -41q-47 0 -78 21t-31 58q0 65 115 117l-2 4q-20 -5 -50 -5q-68 0 -111.5 19t-65.5 61.5t-30 95t-8 135.5v399z" />
    <glyph glyph-name="uogonek" unicode="&#x173;" 
d="M502 516v-516q-113 -71 -113 -114q0 -37 42 -37q31 0 52 26l40 -41q-24 -41 -93 -41q-48 0 -78.5 21t-30.5 59q0 69 115 124l-1 3h-13v84h-4q-41 -96 -147 -96q-82 0 -130.5 52t-48.5 145v331h80v-317q0 -140 122 -140q53 0 90.5 25.5t37.5 73.5v358h80z" />
    <glyph glyph-name="Wcircumflex" unicode="&#x174;" 
d="M250 935h100l111 -143l-45 -31l-117 117l-117 -117l-43 31zM211 0h-121l-55 698h75l29 -400l15 -211h8l92 429h94l92 -429h8l15 211l29 400h73l-55 -698h-121l-85 417h-8z" />
    <glyph glyph-name="wcircumflex" unicode="&#x175;" 
d="M250 765h100l111 -143l-45 -31l-117 117l-117 -117l-43 31zM109 0l-79 516h71l59 -446h9l88 446h88l88 -446h9l59 446h69l-79 -516h-104l-82 432h-8l-84 -432h-104z" />
    <glyph glyph-name="Ycircumflex" unicode="&#x176;" 
d="M250 935h100l111 -143l-45 -31l-117 117l-117 -117l-43 31zM342 0h-84v274l-241 424h96l100 -182l85 -159h4l87 159l100 182h94l-241 -424v-274z" />
    <glyph glyph-name="ycircumflex" unicode="&#x177;" 
d="M250 765h100l111 -143l-45 -31l-117 117l-117 -117l-43 31zM380 300l87 216h80l-256 -629q-19 -47 -47.5 -67t-84.5 -20h-76v68h120l58 142l-208 506h82l87 -216l77 -196h4z" />
    <glyph glyph-name="Ydieresis" unicode="&#x178;" 
d="M207 788q-57 0 -57 46v14q0 46 57 46t57 -46v-14q0 -46 -57 -46zM393 788q-57 0 -57 46v14q0 46 57 46t57 -46v-14q0 -46 -57 -46zM342 0h-84v274l-241 424h96l100 -182l85 -159h4l87 159l100 182h94l-241 -424v-274z" />
    <glyph glyph-name="Zacute" unicode="&#x179;" 
d="M413 914l-106 -159l-52 24l85 170zM552 73v-73h-504v75l395 550h-378v73h470v-75l-396 -550h413z" />
    <glyph glyph-name="zacute" unicode="&#x17a;" 
d="M413 744l-106 -159l-52 24l85 170zM515 0h-430v77l333 371h-322v68h409v-77l-333 -371h343v-68z" />
    <glyph glyph-name="Zdotaccent" unicode="&#x17b;" 
d="M300 782q-63 0 -63 51v16q0 51 63 51t63 -51v-16q0 -51 -63 -51zM552 73v-73h-504v75l395 550h-378v73h470v-75l-396 -550h413z" />
    <glyph glyph-name="zdotaccent" unicode="&#x17c;" 
d="M300 612q-63 0 -63 51v16q0 51 63 51t63 -51v-16q0 -51 -63 -51zM515 0h-430v77l333 371h-322v68h409v-77l-333 -371h343v-68z" />
    <glyph glyph-name="Zcaron" unicode="&#x17d;" 
d="M350 769h-100l-111 143l45 31l117 -117l117 117l43 -31zM552 73v-73h-504v75l395 550h-378v73h470v-75l-396 -550h413z" />
    <glyph glyph-name="zcaron" unicode="&#x17e;" 
d="M350 599h-100l-111 143l46 31l117 -117l117 117l42 -31zM515 0h-430v77l333 371h-322v68h409v-77l-333 -371h343v-68z" />
    <glyph glyph-name="uni018F" unicode="&#x18f;" 
d="M300 -12q-244 0 -244 361v22h399v33q0 233 -166 233q-51 0 -91 -28.5t-65 -109.5l-70 33q23 87 82.5 132.5t149.5 45.5q249 0 249 -360q0 -362 -244 -362zM299 61q156 0 156 231v10h-312v-10q0 -231 156 -231z" />
    <glyph glyph-name="florin" unicode="&#x192;" 
d="M-43 -200l12 68h211l83 502h-185l11 68h186l24 147q20 113 128 113h183l-12 -69h-212l-32 -191h185l-11 -68h-185l-76 -457q-20 -113 -128 -113h-182z" />
    <glyph glyph-name="Ohorn" unicode="&#x1a0;" 
d="M549 810v-100q0 -63 -63 -63h-28q86 -82 86 -298q0 -361 -244 -361t-244 361t244 361q44 0 80 -12h98v112h71zM300 61q155 0 155 231v114q0 231 -155 231t-155 -231v-114q0 -231 155 -231z" />
    <glyph glyph-name="ohorn" unicode="&#x1a1;" 
d="M469 628h71v-100q0 -61 -63 -61h-22q79 -73 79 -209q0 -124 -63 -197t-171 -73t-171 73t-63 197t63 197t171 73q43 0 79 -12h90v112zM300 57q69 0 109 41.5t40 122.5v74q0 81 -40 122.5t-109 41.5t-109 -41.5t-40 -122.5v-74q0 -81 40 -122.5t109 -41.5z" />
    <glyph glyph-name="Uhorn" unicode="&#x1af;" 
d="M80 698h84v-419q0 -49 1.5 -75.5t8.5 -58.5t21.5 -47.5t40.5 -26t64 -10.5t64 10.5t40.5 26t21.5 47.5t8.5 58.5t1.5 75.5v419h93v112h71v-102q0 -63 -63 -63h-17v-346q0 -84 -8 -137t-30.5 -95t-67 -60.5t-114.5 -18.5t-114.5 18.5t-67 60.5t-30.5 95t-8 137v399z" />
    <glyph glyph-name="uhorn" unicode="&#x1b0;" 
d="M587 628v-102q0 -63 -63 -63h-22v-463h-80v84h-4q-41 -96 -147 -96q-82 0 -130.5 52t-48.5 145v331h80v-317q0 -140 122 -140q53 0 90.5 25.5t37.5 73.5v358h94v112h71z" />
    <glyph glyph-name="Aringacute" unicode="&#x1fa;" 
d="M410 1094l-96 -107l-47 19l73 113zM300 736q-49 0 -82.5 33t-33.5 82t33.5 82t82.5 33t82.5 -33t33.5 -82t-33.5 -82t-82.5 -33zM300 785q27 0 42.5 14.5t15.5 40.5v22q0 26 -15.5 40.5t-42.5 14.5t-42.5 -14.5t-15.5 -40.5v-22q0 -26 15.5 -40.5t42.5 -14.5zM570 0h-89
l-59 199h-245l-59 -199h-87l214 698h111zM402 272l-98 337h-9l-98 -337h205z" />
    <glyph glyph-name="aringacute" unicode="&#x1fb;" 
d="M388 919l-94 -105l-41 26l75 116zM283 566q-49 0 -82.5 33t-33.5 82t33.5 82t82.5 33t82.5 -33t33.5 -82t-33.5 -82t-82.5 -33zM283 615q27 0 42.5 14.5t15.5 40.5v22q0 26 -15.5 40.5t-42.5 14.5t-42.5 -14.5t-15.5 -40.5v-22q0 -26 15.5 -40.5t42.5 -14.5zM550 0h-55
q-81 0 -92 84h-5q-36 -96 -155 -96q-81 0 -129 42t-48 115q0 150 222 150h110v51q0 56 -32 85t-91 29q-94 0 -138 -76l-54 40q21 44 72 74t125 30q91 0 144.5 -46.5t53.5 -127.5v-284h72v-70zM257 55q61 0 101 27.5t40 67.5v85h-110q-138 0 -138 -78v-21q0 -39 28.5 -60
t78.5 -21z" />
    <glyph glyph-name="AEacute" unicode="&#x1fc;" 
d="M506 914l-106 -159l-52 24l85 170zM312 0v201h-152l-56 -201h-84l206 698h334v-69h-168v-241h156v-69h-156v-250h168v-69h-248zM312 638h-31l-103 -368h134v368z" />
    <glyph glyph-name="aeacute" unicode="&#x1fd;" 
d="M413 744l-106 -159l-52 24l85 170zM141 -12q-58 0 -94.5 39.5t-36.5 110.5q0 78 45.5 117.5t132.5 39.5h63v53q0 64 -20.5 92t-60.5 28q-36 0 -57.5 -20t-37.5 -59l-53 33q18 45 56.5 75.5t94.5 30.5q88 0 124 -78h3q37 78 124 78q158 0 158 -236v-54h-258v-25
q0 -73 25 -117t71 -44q62 0 96 89l58 -27q-17 -52 -57.5 -89t-98.5 -37q-102 0 -146 114h-3q-13 -57 -46.5 -85.5t-81.5 -28.5zM155 50q46 0 71 30t25 74v84h-52q-116 0 -116 -86v-15q0 -87 72 -87zM420 470q-96 0 -96 -141v-34h192v34q0 141 -96 141z" />
    <glyph glyph-name="Oslashacute" unicode="&#x1fe;" 
d="M413 914l-106 -159l-52 24l85 170zM300 -12q-90 0 -146 48l-47 -80l-60 36l60 102q-51 89 -51 255q0 361 244 361q90 0 146 -48l47 80l60 -36l-60 -102q51 -89 51 -255q0 -361 -244 -361zM145 292q0 -72 14 -118l248 417q-40 46 -107 46q-155 0 -155 -231v-114zM300 61
q155 0 155 231v114q0 72 -14 118l-248 -417q40 -46 107 -46z" />
    <glyph glyph-name="oslashacute" unicode="&#x1ff;" 
d="M413 744l-106 -159l-52 24l85 170zM92 -40l-45 34l69 84q-50 72 -50 180q0 124 63 197t171 73q85 0 145 -49l63 77l45 -34l-69 -84q50 -72 50 -180q0 -124 -63 -197t-171 -73q-85 0 -145 49zM300 459q-69 0 -109 -41.5t-40 -122.5v-74q0 -50 15 -83l235 287
q-37 34 -101 34zM300 57q69 0 109 41.5t40 122.5v74q0 50 -15 83l-235 -287q37 -34 101 -34z" />
    <glyph glyph-name="Scommaaccent" unicode="&#x218;" 
d="M217 -251l28 189h109l-76 -189h-61zM298 -12q-164 0 -253 123l61 50q41 -52 87 -76.5t108 -24.5q75 0 115.5 35t40.5 98q0 52 -30 80t-100 40l-78 13q-180 30 -180 190q0 94 62 144t171 50q159 0 234 -107l-59 -51q-66 86 -176 86q-71 0 -109 -30.5t-38 -89.5
q0 -49 29.5 -78t101.5 -41l75 -13q182 -32 182 -191q0 -97 -64 -152t-180 -55z" />
    <glyph glyph-name="scommaaccent" unicode="&#x219;" 
d="M214 -251l28 189h109l-76 -189h-61zM306 -12q-150 0 -239 101l54 47q76 -81 187 -81q63 0 100 22.5t37 66.5q0 37 -24 53t-67 22l-81 12q-28 4 -47 8t-46 14.5t-43.5 25t-28.5 39t-12 56.5q0 75 57 114.5t151 39.5q132 0 210 -83l-52 -49q-54 65 -161 65q-61 0 -93.5 -21
t-32.5 -61q0 -37 24.5 -53t66.5 -22l81 -12q28 -4 47.5 -8t46 -14.5t43 -25t28.5 -39t12 -56.5q0 -76 -59 -118.5t-159 -42.5z" />
    <glyph glyph-name="uni021A" unicode="&#x21a;" 
d="M220 -251l28 189h109l-76 -189h-61zM575 625h-233v-625h-84v625h-233v73h550v-73z" />
    <glyph glyph-name="uni021B" unicode="&#x21b;" 
d="M295 -251l28 189h109l-76 -189h-61zM526 0h-201q-56 0 -85 32t-29 86v330h-172v68h128q26 0 36.5 10.5t10.5 36.5v135h77v-182h235v-68h-235v-380h235v-68z" />
    <glyph glyph-name="uni0237" unicode="&#x237;" 
d="M102 -200v68h250v580h-259v68h339v-598q0 -54 -29 -86t-85 -32h-216z" />
    <glyph glyph-name="uni0259" unicode="&#x259;" 
d="M67 278h382v24q0 69 -43 113t-115 44q-105 0 -148 -90l-59 40q24 54 78.5 86.5t128.5 32.5q111 0 176.5 -73t65.5 -196t-65.5 -197t-171.5 -74q-103 0 -166 70.5t-63 181.5v38zM153 218v-11q0 -68 39.5 -110.5t103.5 -42.5q66 0 109.5 44.5t43.5 112.5v7h-296z" />
    <glyph glyph-name="uni02BB" unicode="&#x2bb;" 
d="M243 587l76 189h61l-28 -189h-109z" />
    <glyph glyph-name="uni02BC" unicode="&#x2bc;" 
d="M300 740l-49 -189h-61l7 189h103z" />
    <glyph glyph-name="circumflex" unicode="&#x2c6;" 
d="M250 765h100l111 -143l-45 -31l-117 117l-117 -117l-43 31z" />
    <glyph glyph-name="caron" unicode="&#x2c7;" 
d="M350 599h-100l-111 143l46 31l117 -117l117 117l42 -31z" />
    <glyph glyph-name="breve" unicode="&#x2d8;" 
d="M300 595q-38 0 -67 14t-47 39.5t-28 47t-19 50.5l51 22l21 -34q19 -31 28 -43t24.5 -21.5t36.5 -9.5t36.5 9.5t24.5 21.5t28 43l21 34l51 -22q-9 -29 -19 -50.5t-28 -47t-47 -39.5t-67 -14z" />
    <glyph glyph-name="dotaccent" unicode="&#x2d9;" 
d="M300 612q-63 0 -63 51v16q0 51 63 51t63 -51v-16q0 -51 -63 -51z" />
    <glyph glyph-name="ring" unicode="&#x2da;" 
d="M300 576q-49 0 -82.5 33t-33.5 82t33.5 82t82.5 33t82.5 -33t33.5 -82t-33.5 -82t-82.5 -33zM300 625q27 0 42.5 14.5t15.5 40.5v22q0 26 -15.5 40.5t-42.5 14.5t-42.5 -14.5t-15.5 -40.5v-22q0 -26 15.5 -40.5t42.5 -14.5z" />
    <glyph glyph-name="ogonek" unicode="&#x2db;" 
d="M228 -207q-48 0 -78.5 21t-30.5 59q0 69 115 124l-6 15l65 7l7 -19q-113 -71 -113 -114q0 -37 42 -37q31 0 52 26l40 -41q-24 -41 -93 -41z" />
    <glyph glyph-name="tilde" unicode="&#x2dc;" 
d="M373 612q-30 0 -80 26q-45 24 -70 24q-26 0 -58 -27l-33 40q35 53 95 53q30 0 80 -26q45 -24 70 -24q26 0 58 27l33 -40q-35 -53 -95 -53z" />
    <glyph glyph-name="hungarumlaut" unicode="&#x2dd;" 
d="M333 745l-106 -159l-48 22l85 170zM493 745l-106 -159l-48 22l85 170z" />
    <glyph glyph-name="uni0300" unicode="&#x300;" horiz-adv-x="0" 
d="M-7 585l-106 159l73 35l85 -170z" />
    <glyph glyph-name="uni0301" unicode="&#x301;" horiz-adv-x="0" 
d="M113 744l-106 -159l-52 24l85 170z" />
    <glyph glyph-name="uni0302" unicode="&#x302;" horiz-adv-x="0" 
d="M-50 765h100l111 -143l-45 -31l-117 117l-117 -117l-43 31z" />
    <glyph glyph-name="uni0303" unicode="&#x303;" horiz-adv-x="0" 
d="M73 612q-30 0 -80 26q-45 24 -70 24q-26 0 -58 -27l-33 40q35 53 95 53q30 0 80 -26q45 -24 70 -24q26 0 58 27l33 -40q-35 -53 -95 -53z" />
    <glyph glyph-name="uni0304" unicode="&#x304;" horiz-adv-x="0" 
d="M-140 637v68h280v-68h-280z" />
    <glyph glyph-name="uni0306" unicode="&#x306;" horiz-adv-x="0" 
d="M0 595q-38 0 -67 14t-47 39.5t-28 47t-19 50.5l51 22l21 -34q19 -31 28 -43t24.5 -21.5t36.5 -9.5t36.5 9.5t24.5 21.5t28 43l21 34l51 -22q-9 -29 -19 -50.5t-28 -47t-47 -39.5t-67 -14z" />
    <glyph glyph-name="uni0307" unicode="&#x307;" horiz-adv-x="0" 
d="M0 612q-63 0 -63 51v16q0 51 63 51t63 -51v-16q0 -51 -63 -51z" />
    <glyph glyph-name="uni0308" unicode="&#x308;" horiz-adv-x="0" 
d="M-93 618q-57 0 -57 46v14q0 46 57 46t57 -46v-14q0 -46 -57 -46zM93 618q-57 0 -57 46v14q0 46 57 46t57 -46v-14q0 -46 -57 -46z" />
    <glyph glyph-name="uni0309" unicode="&#x309;" horiz-adv-x="0" 
d="M-84 704v61h109q70 0 70 -55q0 -41 -49 -103l-24 -30l-46 23l58 104h-118z" />
    <glyph glyph-name="uni030A" unicode="&#x30a;" horiz-adv-x="0" 
d="M0 576q-49 0 -82.5 33t-33.5 82t33.5 82t82.5 33t82.5 -33t33.5 -82t-33.5 -82t-82.5 -33zM0 625q27 0 42.5 14.5t15.5 40.5v22q0 26 -15.5 40.5t-42.5 14.5t-42.5 -14.5t-15.5 -40.5v-22q0 -26 15.5 -40.5t42.5 -14.5z" />
    <glyph glyph-name="uni030B" unicode="&#x30b;" horiz-adv-x="0" 
d="M33 745l-106 -159l-48 22l85 170zM193 745l-106 -159l-48 22l85 170z" />
    <glyph glyph-name="uni030C" unicode="&#x30c;" horiz-adv-x="0" 
d="M50 599h-100l-111 143l46 31l117 -117l117 117l42 -31z" />
    <glyph glyph-name="uni0312" unicode="&#x312;" horiz-adv-x="0" 
d="M-57 587l76 189h61l-28 -189h-109z" />
    <glyph glyph-name="uni0315" unicode="&#x315;" horiz-adv-x="0" 
d="M110 740l-49 -189h-61l7 189h103z" />
    <glyph glyph-name="uni031B" unicode="&#x31b;" horiz-adv-x="0" 
d="M77 628v-102q0 -63 -63 -63h-91v53h83v112h71z" />
    <glyph glyph-name="uni0323" unicode="&#x323;" horiz-adv-x="0" 
d="M0 -172q-57 0 -57 46v14q0 46 57 46t57 -46v-14q0 -46 -57 -46z" />
    <glyph glyph-name="uni0326" unicode="&#x326;" horiz-adv-x="0" 
d="M-80 -251l28 189h109l-76 -189h-61z" />
    <glyph glyph-name="uni0327" unicode="&#x327;" horiz-adv-x="0" 
d="M12 -207q-69 0 -99 41l38 41q22 -28 61 -28q44 0 44 31t-68 41l-28 4l19 97h50l-16 -81l3 -3q19 6 39 6q30 0 49 -17.5t19 -48.5q0 -41 -31.5 -62t-79.5 -21z" />
    <glyph glyph-name="uni0328" unicode="&#x328;" horiz-adv-x="0" 
d="M-72 -207q-48 0 -78.5 21t-30.5 59q0 69 115 124l-6 15l65 7l7 -19q-113 -71 -113 -114q0 -37 42 -37q31 0 52 26l40 -41q-24 -41 -93 -41z" />
    <glyph glyph-name="pi" unicode="&#x3c0;" 
d="M112 0v448h-92v68h545v-68h-92v-380h92v-68h-58q-56 0 -85 32t-29 86v330h-201v-448h-80z" />
    <glyph glyph-name="uni0400" unicode="&#x400;" 
d="M298 755l-106 159l73 35l85 -170zM520 0h-430v698h430v-73h-346v-235h334v-73h-334v-244h346v-73z" />
    <glyph glyph-name="uni0401" unicode="&#x401;" 
d="M212 788q-57 0 -57 46v14q0 46 57 46t57 -46v-14q0 -46 -57 -46zM398 788q-57 0 -57 46v14q0 46 57 46t57 -46v-14q0 -46 -57 -46zM520 0h-430v698h430v-73h-346v-235h334v-73h-334v-244h346v-73z" />
    <glyph glyph-name="uni0402" unicode="&#x402;" 
d="M254 -164v73h214v321q0 70 -25.5 102.5t-81.5 32.5q-60 0 -107 -20v-345h-84v625h-160v73h404v-73h-160v-206h5q57 19 105 19q98 0 143 -53t45 -155v-276q0 -54 -29 -86t-85 -32h-184z" />
    <glyph glyph-name="uni0403" unicode="&#x403;" 
d="M440 914l-106 -159l-52 24l85 170zM132 0v698h391v-73h-307v-625h-84z" />
    <glyph glyph-name="uni0404" unicode="&#x404;" 
d="M387 317h-231v-25q0 -108 42 -169.5t125 -61.5q60 0 92 29t54 84l72 -33q-31 -70 -80 -111.5t-138 -41.5q-128 0 -192 92.5t-64 268.5t64 268.5t192 92.5q89 0 138 -41.5t80 -111.5l-72 -33q-22 55 -54 84t-92 29q-83 0 -125 -61.5t-42 -169.5v-16h231v-73z" />
    <glyph glyph-name="uni0405" unicode="&#x405;" 
d="M298 -12q-164 0 -253 123l61 50q41 -52 87 -76.5t108 -24.5q75 0 115.5 35t40.5 98q0 52 -30 80t-100 40l-78 13q-180 30 -180 190q0 94 62 144t171 50q159 0 234 -107l-59 -51q-66 86 -176 86q-71 0 -109 -30.5t-38 -89.5q0 -49 29.5 -78t101.5 -41l75 -13
q182 -32 182 -191q0 -97 -64 -152t-180 -55z" />
    <glyph glyph-name="uni0406" unicode="&#x406;" 
d="M516 0h-432v67h174v564h-174v67h432v-67h-174v-564h174v-67z" />
    <glyph glyph-name="uni0407" unicode="&#x407;" 
d="M207 788q-57 0 -57 46v14q0 46 57 46t57 -46v-14q0 -46 -57 -46zM393 788q-57 0 -57 46v14q0 46 57 46t57 -46v-14q0 -46 -57 -46zM516 0h-432v67h174v564h-174v67h432v-67h-174v-564h174v-67z" />
    <glyph glyph-name="uni0408" unicode="&#x408;" 
d="M144 698h336v-517q0 -88 -57 -140.5t-149 -52.5q-79 0 -131.5 41.5t-68.5 116.5l80 17q23 -101 122 -101q120 0 120 134v429h-252v73z" />
    <glyph glyph-name="uni0409" unicode="&#x409;" 
d="M305 0v625h-112v-88q0 -254 -17 -355t-58 -142q-40 -40 -109 -40h-11v73h47q28 28 41 67.5t20 132.5t7 270v155h274v-280h16q94 0 144.5 -54.5t50.5 -154.5t-50.5 -154.5t-144.5 -54.5h-98zM387 73h16q51 0 79.5 27.5t28.5 82.5v52q0 55 -28.5 82.5t-79.5 27.5h-16v-272z
" />
    <glyph glyph-name="uni040A" unicode="&#x40a;" 
d="M285 0v317h-155v-317h-82v698h82v-308h155v308h82v-280h36q94 0 144.5 -54.5t50.5 -154.5t-50.5 -154.5t-144.5 -54.5h-118zM367 73h36q51 0 79.5 27.5t28.5 82.5v52q0 55 -28.5 82.5t-79.5 27.5h-36v-272z" />
    <glyph glyph-name="uni040B" unicode="&#x40b;" 
d="M170 0v625h-160v73h404v-73h-160v-206h5q57 19 105 19q98 0 143 -53t45 -155v-230h-84v230q0 70 -25.5 102.5t-81.5 32.5q-60 0 -107 -20v-345h-84z" />
    <glyph glyph-name="uni040C" unicode="&#x40c;" 
d="M399 914l-106 -159l-52 24l85 170zM80 0v698h84v-308h123l148 308h89l-133 -276q-17 -34 -31.5 -48t-33.5 -17v-5q23 -5 37.5 -20.5t32.5 -56.5l90 -202h65v-73h-63q-60 0 -93 74l-108 244h-123v-318h-84z" />
    <glyph glyph-name="uni040D" unicode="&#x40d;" 
d="M293 755l-106 159l73 35l85 -170zM80 0v698h84v-352l-14 -202h5l285 554h80v-698h-84v352l14 202h-5l-285 -554h-80z" />
    <glyph glyph-name="uni040E" unicode="&#x40e;" 
d="M300 765q-50 0 -82.5 22t-56.5 71l-28 57l72 23l40 -106q17 -6 55 -6t55 6l40 106l72 -23l-28 -57q-24 -49 -56.5 -71t-82.5 -22zM139 0v73h104l35 90l-234 535h90l139 -328l41 -112h2l38 111l122 329h86l-228 -602q-22 -59 -49.5 -77.5t-85.5 -18.5h-60z" />
    <glyph glyph-name="uni040F" unicode="&#x40f;" 
d="M262 -150v150h-179v698h84v-625h266v625h84v-698h-178v-150h-77z" />
    <glyph glyph-name="uni0410" unicode="&#x410;" 
d="M570 0h-89l-59 199h-245l-59 -199h-87l214 698h111zM402 272l-98 337h-9l-98 -337h205z" />
    <glyph glyph-name="uni0411" unicode="&#x411;" 
d="M85 0v698h394v-73h-310v-207h172q94 0 144.5 -54.5t50.5 -154.5t-50.5 -154.5t-144.5 -54.5h-256zM169 73h170q51 0 79.5 27.5t28.5 82.5v52q0 55 -28.5 82.5t-79.5 27.5h-170v-272z" />
    <glyph glyph-name="uni0412" unicode="&#x412;" 
d="M88 0v698h237q89 0 140.5 -49t51.5 -131q0 -116 -109 -150v-3q135 -31 135 -164q0 -85 -53.5 -143t-134.5 -58h-267zM172 73h158q59 0 91.5 27t32.5 79v41q0 52 -32.5 79t-91.5 27h-158v-253zM172 395h144q54 0 83.5 24t29.5 71v39q0 47 -29.5 71.5t-83.5 24.5h-144v-230
z" />
    <glyph glyph-name="uni0413" unicode="&#x413;" 
d="M132 0v698h391v-73h-307v-625h-84z" />
    <glyph glyph-name="uni0414" unicode="&#x414;" 
d="M14 -150v223h60q91 130 91 420v205h326v-625h85v-223h-77v150h-408v-150h-77zM407 73v552h-160v-138q0 -290 -77 -414h237z" />
    <glyph glyph-name="uni0415" unicode="&#x415;" 
d="M520 0h-430v698h430v-73h-346v-235h334v-73h-334v-244h346v-73z" />
    <glyph glyph-name="uni0416" unicode="&#x416;" 
d="M259 0v318h-69l-102 -318h-86l84 265q15 46 31 64t40 23v5q-45 10 -65 82l-74 259h82l90 -308h69v308h82v-308h69l91 308h81l-75 -258q-12 -42 -27 -60t-37 -23v-5q25 -5 41.5 -23.5t30.5 -63.5l83 -265h-87l-101 318h-69v-318h-82z" />
    <glyph glyph-name="uni0417" unicode="&#x417;" 
d="M281 -12q-153 0 -241 123l61 50q74 -101 180 -101q70 0 110.5 33.5t40.5 93.5v21q0 53 -36.5 84.5t-107.5 31.5h-98v73h92q135 0 135 114v21q0 49 -34.5 77.5t-98.5 28.5q-104 0 -156 -78l-63 41q75 109 219 109q107 0 164 -49.5t57 -134.5q0 -70 -36.5 -111t-96.5 -50
v-5q66 -8 107.5 -49t41.5 -115q0 -94 -64.5 -151t-175.5 -57z" />
    <glyph glyph-name="uni0418" unicode="&#x418;" 
d="M80 0v698h84v-352l-14 -202h5l285 554h80v-698h-84v352l14 202h-5l-285 -554h-80z" />
    <glyph glyph-name="uni0419" unicode="&#x419;" 
d="M300 765q-50 0 -82.5 22t-56.5 71l-28 57l72 23l40 -106q17 -6 55 -6t55 6l40 106l72 -23l-28 -57q-24 -49 -56.5 -71t-82.5 -22zM80 0v698h84v-352l-14 -202h5l285 554h80v-698h-84v352l14 202h-5l-285 -554h-80z" />
    <glyph glyph-name="uni041A" unicode="&#x41a;" 
d="M80 0v698h84v-308h123l148 308h89l-133 -276q-17 -34 -31.5 -48t-33.5 -17v-5q23 -5 37.5 -20.5t32.5 -56.5l90 -202h65v-73h-63q-60 0 -93 74l-108 244h-123v-318h-84z" />
    <glyph glyph-name="uni041B" unicode="&#x41b;" 
d="M437 0v625h-196v-126q0 -206 -23.5 -308t-72.5 -151q-40 -40 -109 -40h-31v73h67q48 46 67.5 138t19.5 294v193h362v-698h-84z" />
    <glyph glyph-name="uni041C" unicode="&#x41c;" 
d="M455 0v350v221h-8l-147 -359l-147 359h-8v-221v-350h-77v698h108l123 -308h6l123 308h104v-698h-77z" />
    <glyph glyph-name="uni041D" unicode="&#x41d;" 
d="M436 0v317h-272v-317h-84v698h84v-308h272v308h84v-698h-84z" />
    <glyph glyph-name="uni041E" unicode="&#x41e;" 
d="M300 -12q-244 0 -244 361t244 361t244 -361t-244 -361zM300 61q155 0 155 231v114q0 231 -155 231t-155 -231v-114q0 -231 155 -231z" />
    <glyph glyph-name="uni041F" unicode="&#x41f;" 
d="M83 0v698h434v-698h-84v625h-266v-625h-84z" />
    <glyph glyph-name="uni0420" unicode="&#x420;" 
d="M174 0h-84v698h254q96 0 147.5 -53t51.5 -148t-51.5 -148t-147.5 -53h-170v-296zM174 625v-256h168q53 0 82.5 26.5t29.5 75.5v52q0 49 -29.5 75.5t-82.5 26.5h-168z" />
    <glyph glyph-name="uni0421" unicode="&#x421;" 
d="M323 -12q-126 0 -189.5 92.5t-63.5 268.5t63.5 268.5t189.5 92.5q87 0 135.5 -41.5t79.5 -111.5l-72 -33q-22 55 -53.5 84t-89.5 29q-81 0 -122.5 -61.5t-41.5 -169.5v-114q0 -108 41.5 -169.5t122.5 -61.5q58 0 89.5 29t53.5 84l72 -33q-31 -70 -79.5 -111.5
t-135.5 -41.5z" />
    <glyph glyph-name="uni0422" unicode="&#x422;" 
d="M575 625h-233v-625h-84v625h-233v73h550v-73z" />
    <glyph glyph-name="uni0423" unicode="&#x423;" 
d="M139 0v73h104l35 90l-234 535h90l139 -328l41 -112h2l38 111l122 329h86l-228 -602q-22 -59 -49.5 -77.5t-85.5 -18.5h-60z" />
    <glyph glyph-name="uni0424" unicode="&#x424;" 
d="M258 -29v90q-117 7 -174.5 85.5t-57.5 201.5t57.5 201.5t174.5 85.5v90h84v-90q117 -7 174.5 -85.5t57.5 -201.5t-57.5 -201.5t-174.5 -85.5v-90h-84zM260 132v432q-147 -14 -147 -175v-82q0 -161 147 -175zM340 132q147 14 147 175v82q0 161 -147 175v-432z" />
    <glyph glyph-name="uni0425" unicode="&#x425;" 
d="M352 357l223 -357h-95l-83 139l-92 152h-4l-95 -152l-88 -139h-92l228 356l-215 342h95l81 -135l87 -141h4l86 141l84 135h92z" />
    <glyph glyph-name="uni0426" unicode="&#x426;" 
d="M497 -150v150h-417v698h84v-625h251v625h84v-625h75v-223h-77z" />
    <glyph glyph-name="uni0427" unicode="&#x427;" 
d="M428 0v275h-5q-59 -23 -140 -23q-122 0 -172.5 59.5t-50.5 188.5v198h84v-198q0 -97 31 -136t111 -39q79 0 142 24v349h84v-698h-84z" />
    <glyph glyph-name="uni0428" unicode="&#x428;" 
d="M48 0v698h82v-625h129v625h82v-625h129v625h82v-698h-504z" />
    <glyph glyph-name="uni0429" unicode="&#x429;" 
d="M520 -150v150h-472v698h82v-625h113v625h82v-625h113v625h82v-625h75v-223h-75z" />
    <glyph glyph-name="uni042A" unicode="&#x42a;" 
d="M170 0v625h-160v73h244v-280h131q94 0 144.5 -54.5t50.5 -154.5t-50.5 -154.5t-144.5 -54.5h-215zM254 73h129q51 0 79.5 27.5t28.5 82.5v52q0 55 -28.5 82.5t-79.5 27.5h-129v-272z" />
    <glyph glyph-name="uni042B" unicode="&#x42b;" 
d="M48 0v698h82v-280h70q94 0 144.5 -54.5t50.5 -154.5t-50.5 -154.5t-144.5 -54.5h-152zM130 73h70q51 0 79.5 27.5t28.5 82.5v52q0 55 -28.5 82.5t-79.5 27.5h-70v-272zM470 0v698h82v-698h-82z" />
    <glyph glyph-name="uni042C" unicode="&#x42c;" 
d="M92 0v698h84v-280h171q94 0 144.5 -54.5t50.5 -154.5t-50.5 -154.5t-144.5 -54.5h-255zM176 73h169q51 0 79.5 27.5t28.5 82.5v52q0 55 -28.5 82.5t-79.5 27.5h-169v-272z" />
    <glyph glyph-name="uni042D" unicode="&#x42d;" 
d="M277 -12q-88 0 -137.5 41.5t-80.5 111.5l72 33q22 -54 54 -83.5t92 -29.5q83 0 125 61.5t42 169.5v25h-231v73h231v16q0 108 -42 169.5t-125 61.5q-60 0 -92 -29.5t-54 -83.5l-72 33q31 70 80.5 111.5t137.5 41.5q128 0 192 -92.5t64 -268.5t-64 -268.5t-192 -92.5z" />
    <glyph glyph-name="uni042E" unicode="&#x42e;" 
d="M382 -12q-65 0 -100 26.5t-53 97.5t-21 205h-78v-317h-82v698h82v-308h78q3 129 21 198t53.5 95.5t99.5 26.5q66 0 101.5 -27.5t54 -106t18.5 -227.5t-18.5 -227.5t-54 -106t-101.5 -27.5zM382 61q32 0 49.5 13.5t27.5 58t10 129.5v174q0 85 -10 129.5t-27.5 58
t-49.5 13.5t-49.5 -13.5t-27.5 -58t-10 -129.5v-174q0 -85 10 -129.5t27.5 -58t49.5 -13.5z" />
    <glyph glyph-name="uni042F" unicode="&#x42f;" 
d="M39 0v73h64l82 171q15 31 31 45t40 19v5q-90 4 -136 53.5t-46 133.5q0 92 51 145t144 53h245v-698h-84v300h-126l-110 -229q-34 -71 -92 -71h-63zM430 372v253h-159q-51 0 -79.5 -27.5t-28.5 -82.5v-33q0 -55 28.5 -82.5t79.5 -27.5h159z" />
    <glyph glyph-name="uni0430" unicode="&#x430;" 
d="M550 0h-55q-81 0 -92 84h-5q-36 -96 -155 -96q-81 0 -129 42t-48 115q0 150 222 150h110v51q0 56 -32 85t-91 29q-94 0 -138 -76l-54 40q21 44 72 74t125 30q91 0 144.5 -46.5t53.5 -127.5v-284h72v-70zM257 55q61 0 101 27.5t40 67.5v85h-110q-138 0 -138 -78v-21
q0 -39 28.5 -60t78.5 -21z" />
    <glyph glyph-name="uni0431" unicode="&#x431;" 
d="M301 -12q-108 0 -170 79.5t-62 237.5q0 225 63 324.5t204 108.5l158 10v-79l-166 -11q-87 -6 -125 -58.5t-50 -188.5h5q45 105 154 105q100 0 161 -70.5t61 -194.5q0 -117 -64.5 -190t-168.5 -73zM301 57q66 0 107 42t41 117v63q0 81 -40 124.5t-106 43.5
q-73 0 -111 -35.5t-38 -94.5v-101q0 -76 40 -117.5t107 -41.5z" />
    <glyph glyph-name="uni0432" unicode="&#x432;" 
d="M107 0v516h263q63 0 99 -35.5t36 -95.5q0 -97 -101 -109v-4q58 -4 88.5 -36t30.5 -82q0 -65 -40 -109.5t-110 -44.5h-266zM187 64h166q40 0 62.5 20t22.5 55v23q0 35 -21.5 54.5t-57.5 19.5h-172v-172zM187 299h162q33 0 52 17t19 48v22q0 31 -19 48.5t-52 17.5h-162
v-153z" />
    <glyph glyph-name="uni0433" unicode="&#x433;" 
d="M135 0v516h370v-68h-290v-448h-80z" />
    <glyph glyph-name="uni0434" unicode="&#x434;" 
d="M22 -140v208h58q69 112 69 284v164h333v-448h85v-208h-73v140h-399v-140h-73zM167 68h235v380h-175v-100q0 -172 -60 -280z" />
    <glyph glyph-name="uni0435" unicode="&#x435;" 
d="M309 -12q-111 0 -176.5 73t-65.5 196t65.5 197t171.5 74q103 0 166 -70.5t63 -181.5v-38h-382v-24q0 -69 43 -113t115 -44q105 0 148 90l59 -40q-24 -54 -78.5 -86.5t-128.5 -32.5zM304 462q-66 0 -109.5 -44.5t-43.5 -112.5v-7h296v11q0 68 -39.5 110.5t-103.5 42.5z
" />
    <glyph glyph-name="uni0436" unicode="&#x436;" 
d="M263 0v233h-88l-65 -233h-80l57 203q16 55 56 61v4q-38 9 -52 59l-55 189h76l63 -217h88v217h74v-217h88l64 217h75l-56 -189q-16 -51 -51 -59v-4q43 -6 57 -61l56 -203h-81l-64 233h-88v-233h-74z" />
    <glyph glyph-name="uni0437" unicode="&#x437;" 
d="M279 -12q-149 0 -218 100l59 48q50 -79 159 -79q69 0 102.5 22t33.5 60v14q0 80 -99 80h-139v67h129q98 0 98 73v12q0 74 -123 74q-109 0 -156 -76l-56 38q72 107 216 107q101 0 152.5 -36.5t51.5 -102.5q0 -91 -95 -115v-4q51 -7 78.5 -39t27.5 -81q0 -75 -58.5 -118.5
t-162.5 -43.5z" />
    <glyph glyph-name="uni0438" unicode="&#x438;" 
d="M95 0v516h80v-263l-8 -132h4l259 395h75v-516h-80v263l8 132h-4l-259 -395h-75z" />
    <glyph glyph-name="uni0439" unicode="&#x439;" 
d="M296 595q-50 0 -82.5 22t-56.5 71l-28 57l72 23l40 -106q17 -6 55 -6t55 6l40 106l72 -23l-28 -57q-24 -49 -56.5 -71t-82.5 -22zM95 0v516h80v-263l-8 -132h4l259 395h75v-516h-80v263l8 132h-4l-259 -395h-75z" />
    <glyph glyph-name="uni043A" unicode="&#x43a;" 
d="M107 0v516h80v-216h110l139 216h83l-126 -196q-17 -26 -30 -36.5t-31 -15.5v-4q37 -6 63 -50l84 -146h58v-68h-58q-48 0 -83 60l-99 172h-110v-232h-80z" />
    <glyph glyph-name="uni043B" unicode="&#x43b;" 
d="M26 0v68h64q61 79 61 301v147h343v-516h-80v448h-185v-81q0 -258 -75 -333q-34 -34 -97 -34h-31z" />
    <glyph glyph-name="uni043C" unicode="&#x43c;" 
d="M72 0v516h110l119 -263h6l119 263h102v-516h-77v323l3 92h-6l-148 -327l-148 327h-6l3 -92v-323h-77z" />
    <glyph glyph-name="uni043D" unicode="&#x43d;" 
d="M95 0v516h80v-216h250v216h80v-516h-80v232h-250v-232h-80z" />
    <glyph glyph-name="uni043E" unicode="&#x43e;" 
d="M300 -12q-108 0 -171 73t-63 197t63 197t171 73t171 -73t63 -197t-63 -197t-171 -73zM300 57q69 0 109 41.5t40 122.5v74q0 81 -40 122.5t-109 41.5t-109 -41.5t-40 -122.5v-74q0 -81 40 -122.5t109 -41.5z" />
    <glyph glyph-name="uni043F" unicode="&#x43f;" 
d="M97 0v516h406v-516h-80v448h-246v-448h-80z" />
    <glyph glyph-name="uni0440" unicode="&#x440;" 
d="M95 -200v716h80v-84h4q50 96 159 96q95 0 148.5 -71.5t53.5 -198.5t-53.5 -198.5t-148.5 -71.5q-109 0 -159 96h-4v-284h-80zM307 59q69 0 108 42t39 113v88q0 71 -39 113t-108 42q-56 0 -94 -28t-38 -78v-186q0 -50 38 -78t94 -28z" />
    <glyph glyph-name="uni0441" unicode="&#x441;" 
d="M318 -12q-110 0 -172 73t-62 197t62 197t171 73q142 0 191 -119l-64 -34q-30 84 -127 84q-69 0 -108 -43.5t-39 -113.5v-88q0 -70 39 -113.5t110 -43.5q98 0 140 90l57 -39q-24 -55 -74 -87.5t-124 -32.5z" />
    <glyph glyph-name="uni0442" unicode="&#x442;" 
d="M260 0v448h-190v68h460v-68h-190v-448h-80z" />
    <glyph glyph-name="uni0443" unicode="&#x443;" 
d="M380 300l87 216h80l-256 -629q-19 -47 -47.5 -67t-84.5 -20h-76v68h120l58 142l-208 506h82l87 -216l77 -196h4z" />
    <glyph glyph-name="uni0444" unicode="&#x444;" 
d="M194 55q69 0 69 76v254q0 76 -69 76q-38 0 -56 -34t-18 -124v-90q0 -90 18 -124t56 -34zM263 -200v253h-3q-31 -65 -91 -65q-64 0 -94.5 59.5t-30.5 210.5t30.5 210.5t94.5 59.5q60 0 91 -65h3v247h74v-247h3q31 65 91 65q64 0 94.5 -59.5t30.5 -210.5t-30.5 -210.5
t-94.5 -59.5q-60 0 -91 65h-3v-253h-74zM406 55q38 0 56 34t18 124v90q0 90 -18 124t-56 34q-69 0 -69 -76v-254q0 -76 69 -76z" />
    <glyph glyph-name="uni0445" unicode="&#x445;" 
d="M153 0h-92l192 262l-187 254h96l78 -109l62 -86h4l60 86l77 109h92l-189 -253l194 -263h-96l-87 121l-59 82h-4l-57 -82z" />
    <glyph glyph-name="uni0446" unicode="&#x446;" 
d="M497 -140v140h-413v516h80v-448h241v448h80v-448h85v-208h-73z" />
    <glyph glyph-name="uni0447" unicode="&#x447;" 
d="M410 0v237h-5q-56 -62 -154 -62q-171 0 -171 159v182h80v-175q0 -48 27.5 -71t87.5 -23q61 0 98 16t37 47v206h80v-516h-80z" />
    <glyph glyph-name="uni0448" unicode="&#x448;" 
d="M54 0v516h74v-450h135v450h74v-450h135v450h74v-516h-492z" />
    <glyph glyph-name="uni0449" unicode="&#x449;" 
d="M530 -140v140h-476v516h74v-450h135v450h74v-450h135v450h74v-448h54v-208h-70z" />
    <glyph glyph-name="uni044A" unicode="&#x44a;" 
d="M161 0v448h-150v68h230v-187h146q78 0 124 -44.5t46 -120.5q0 -77 -45 -120.5t-124 -43.5h-227zM241 68h135q96 0 96 76v42q0 75 -96 75h-135v-193z" />
    <glyph glyph-name="uni044B" unicode="&#x44b;" 
d="M54 0v516h80v-187h87q78 0 124 -44.5t46 -120.5q0 -77 -45 -120.5t-124 -43.5h-168zM134 68h76q96 0 96 76v42q0 75 -96 75h-76v-193zM466 0v516h80v-516h-80z" />
    <glyph glyph-name="uni044C" unicode="&#x44c;" 
d="M111 0v516h80v-187h160q78 0 124 -44.5t46 -120.5q0 -77 -45 -120.5t-124 -43.5h-241zM191 68h149q96 0 96 76v42q0 75 -96 75h-149v-193z" />
    <glyph glyph-name="uni044D" unicode="&#x44d;" 
d="M206 227v67h224v8q0 70 -39 113.5t-110 43.5q-98 0 -135 -84l-62 33q52 120 198 120q110 0 172 -73t62 -197t-62 -197t-171 -73q-74 0 -124.5 32.5t-74.5 85.5l59 41q43 -90 140 -90q69 0 108 43.5t39 113.5v13h-224z" />
    <glyph glyph-name="uni044E" unicode="&#x44e;" 
d="M389 -12q-82 0 -121.5 52.5t-43.5 193.5h-96v-234h-74v516h74v-219h97q5 132 44.5 181.5t119.5 49.5q56 0 90.5 -21.5t54.5 -82t20 -166.5t-20 -166.5t-54.5 -82t-90.5 -21.5zM389 54q46 0 67 33.5t21 123.5v94q0 90 -21 123.5t-67 33.5t-67 -33.5t-21 -123.5v-94
q0 -90 21 -123.5t67 -33.5z" />
    <glyph glyph-name="uni044F" unicode="&#x44f;" 
d="M68 0v68h58l45 85q24 44 60 50v4q-65 3 -103.5 41.5t-38.5 108.5q0 74 45 116.5t124 42.5h232v-516h-80v199h-125l-71 -133q-36 -66 -91 -66h-55zM410 265v183h-140q-96 0 -96 -76v-31q0 -76 96 -76h140z" />
    <glyph glyph-name="uni0450" unicode="&#x450;" 
d="M295 585l-106 159l73 35l85 -170zM309 -12q-111 0 -176.5 73t-65.5 196t65.5 197t171.5 74q103 0 166 -70.5t63 -181.5v-38h-382v-24q0 -69 43 -113t115 -44q105 0 148 90l59 -40q-24 -54 -78.5 -86.5t-128.5 -32.5zM304 462q-66 0 -109.5 -44.5t-43.5 -112.5v-7h296v11
q0 68 -39.5 110.5t-103.5 42.5z" />
    <glyph glyph-name="uni0451" unicode="&#x451;" 
d="M209 618q-57 0 -57 46v14q0 46 57 46t57 -46v-14q0 -46 -57 -46zM395 618q-57 0 -57 46v14q0 46 57 46t57 -46v-14q0 -46 -57 -46zM309 -12q-111 0 -176.5 73t-65.5 196t65.5 197t171.5 74q103 0 166 -70.5t63 -181.5v-38h-382v-24q0 -69 43 -113t115 -44q105 0 148 90
l59 -40q-24 -54 -78.5 -86.5t-128.5 -32.5zM304 462q-66 0 -109.5 -44.5t-43.5 -112.5v-7h296v11q0 68 -39.5 110.5t-103.5 42.5z" />
    <glyph glyph-name="uni0452" unicode="&#x452;" 
d="M178 -200v68h250v449q0 140 -122 140q-53 0 -90.5 -25.5t-37.5 -73.5v-358h-80v608h-65v62h65v70h80v-70h153v-62h-153v-176h4q41 96 147 96q82 0 130.5 -52t48.5 -145v-413q0 -54 -29 -86t-85 -32h-216z" />
    <glyph glyph-name="uni0453" unicode="&#x453;" 
d="M433 744l-106 -159l-52 24l85 170zM135 0v516h370v-68h-290v-448h-80z" />
    <glyph glyph-name="uni0454" unicode="&#x454;" 
d="M318 -12q-110 0 -172 73t-62 197t62 197t171 73q142 0 191 -119l-64 -34q-30 84 -127 84q-69 0 -108 -43.5t-39 -113.5v-8h224v-67h-224v-13q0 -70 39 -113.5t110 -43.5q98 0 140 90l57 -39q-24 -55 -74 -87.5t-124 -32.5z" />
    <glyph glyph-name="uni0455" unicode="&#x455;" 
d="M306 -12q-150 0 -239 101l54 47q76 -81 187 -81q63 0 100 22.5t37 66.5q0 37 -24 53t-67 22l-81 12q-28 4 -47 8t-46 14.5t-43.5 25t-28.5 39t-12 56.5q0 75 57 114.5t151 39.5q132 0 210 -83l-52 -49q-54 65 -161 65q-61 0 -93.5 -21t-32.5 -61q0 -37 24.5 -53t66.5 -22
l81 -12q28 -4 47.5 -8t46 -14.5t43 -25t28.5 -39t12 -56.5q0 -76 -59 -118.5t-159 -42.5z" />
    <glyph glyph-name="uni0456" unicode="&#x456;" 
d="M332 630q-63 0 -63 51v16q0 51 63 51t63 -51v-16q0 -51 -63 -51zM106 0v68h186v380h-186v68h266v-448h174v-68h-440z" />
    <glyph glyph-name="uni0457" unicode="&#x457;" 
d="M239 618q-57 0 -57 46v14q0 46 57 46t57 -46v-14q0 -46 -57 -46zM425 618q-57 0 -57 46v14q0 46 57 46t57 -46v-14q0 -46 -57 -46zM106 0v68h186v380h-186v68h266v-448h174v-68h-440z" />
    <glyph glyph-name="uni0458" unicode="&#x458;" 
d="M102 -200v68h250v580h-259v68h339v-598q0 -54 -29 -86t-85 -32h-216zM392 630q-63 0 -63 51v16q0 51 63 51t63 -51v-16q0 -51 -63 -51z" />
    <glyph glyph-name="uni0459" unicode="&#x459;" 
d="M2 0v66h49q60 82 60 313v137h254v-187h58q78 0 120.5 -43t42.5 -121t-42.5 -121.5t-120.5 -43.5h-132v450h-108v-73q0 -268 -75 -343q-34 -34 -91 -34h-15zM365 66h46q96 0 96 78v41q0 78 -96 78h-46v-197z" />
    <glyph glyph-name="uni045A" unicode="&#x45a;" 
d="M54 0v516h74v-217h163v217h74v-187h58q78 0 120.5 -43t42.5 -121t-42.5 -121.5t-120.5 -43.5h-132v233h-163v-233h-74zM365 66h46q96 0 96 78v41q0 78 -96 78h-46v-197z" />
    <glyph glyph-name="uni045B" unicode="&#x45b;" 
d="M178 0h-80v608h-65v62h65v70h80v-70h153v-62h-153v-176h4q41 96 147 96q82 0 130.5 -52t48.5 -145v-331h-80v317q0 140 -122 140q-53 0 -90.5 -25.5t-37.5 -73.5v-358z" />
    <glyph glyph-name="uni045C" unicode="&#x45c;" 
d="M409 744l-106 -159l-52 24l85 170zM107 0v516h80v-216h110l139 216h83l-126 -196q-17 -26 -30 -36.5t-31 -15.5v-4q37 -6 63 -50l84 -146h58v-68h-58q-48 0 -83 60l-99 172h-110v-232h-80z" />
    <glyph glyph-name="uni045D" unicode="&#x45d;" 
d="M289 585l-106 159l73 35l85 -170zM95 0v516h80v-263l-8 -132h4l259 395h75v-516h-80v263l8 132h-4l-259 -395h-75z" />
    <glyph glyph-name="uni045E" unicode="&#x45e;" 
d="M300 595q-50 0 -82.5 22t-56.5 71l-28 57l72 23l40 -106q17 -6 55 -6t55 6l40 106l72 -23l-28 -57q-24 -49 -56.5 -71t-82.5 -22zM380 300l87 216h80l-256 -629q-19 -47 -47.5 -67t-84.5 -20h-76v68h120l58 142l-208 506h82l87 -216l77 -196h4z" />
    <glyph glyph-name="uni045F" unicode="&#x45f;" 
d="M97 0v516h80v-448h246v448h80v-516h-166v-140h-73v140h-167z" />
    <glyph glyph-name="uni0472" unicode="&#x472;" 
d="M300 -12q-244 0 -244 361t244 361t244 -361t-244 -361zM300 61q155 0 155 231v25h-310v-25q0 -231 155 -231zM145 406v-16h310v16q0 231 -155 231t-155 -231z" />
    <glyph glyph-name="uni0473" unicode="&#x473;" 
d="M300 -12q-108 0 -171 73t-63 197t63 197t171 73t171 -73t63 -197t-63 -197t-171 -73zM300 57q69 0 109 41.5t40 122.5v6h-298v-6q0 -81 40 -122.5t109 -41.5zM300 459q-69 0 -109 -41.5t-40 -122.5h298q0 81 -40 122.5t-109 41.5z" />
    <glyph glyph-name="uni0490" unicode="&#x490;" 
d="M132 0v698h314v150h77v-223h-307v-625h-84z" />
    <glyph glyph-name="uni0491" unicode="&#x491;" 
d="M135 0v516h297v140h73v-208h-290v-448h-80z" />
    <glyph glyph-name="uni0492" unicode="&#x492;" 
d="M51 400h99v298h391v-73h-307v-225h198v-64h-198v-336h-84v336h-99v64z" />
    <glyph glyph-name="uni0493" unicode="&#x493;" 
d="M153 0v223h-109v62h109v231h370v-68h-290v-163h193v-62h-193v-223h-80z" />
    <glyph glyph-name="uni0494" unicode="&#x494;" 
d="M242 -164v73h163q51 41 51 155v88q0 97 -31 136t-111 39q-79 0 -142 -24v-303h-84v698h391v-73h-307v-248h5q59 23 140 23q122 0 172.5 -59.5t50.5 -188.5v-88q0 -228 -173 -228h-125z" />
    <glyph glyph-name="uni0495" unicode="&#x495;" 
d="M323 -200v68h84q33 40 33 127v97q0 67 -26.5 94t-88.5 27q-61 0 -98 -16t-37 -47v-150h-80v516h326v-68h-246v-225h5q56 62 154 62q85 0 128 -44t43 -139v-119q0 -94 -40 -138.5t-111 -44.5h-46z" />
    <glyph glyph-name="uni0496" unicode="&#x496;" 
d="M561 -150v150h-64l-101 318h-67v-318h-82v318h-67l-102 -318h-86l84 265q15 46 31 64t40 23v5q-45 10 -65 82l-74 259h82l90 -308h67v308h82v-308h67l91 308h81l-75 -258q-12 -42 -27 -60t-37 -23v-5q25 -5 41.5 -23.5t30.5 -63.5l60 -192h75v-223h-75z" />
    <glyph glyph-name="uni0497" unicode="&#x497;" 
d="M527 -140v140h-46l-64 233h-88v-233h-74v233h-88l-65 -233h-80l57 203q16 55 56 61v4q-38 9 -52 59l-55 189h76l63 -217h88v217h74v-217h88l64 217h75l-56 -189q-16 -51 -51 -59v-4q43 -6 57 -61l37 -135h54v-208h-70z" />
    <glyph glyph-name="uni0498" unicode="&#x498;" 
d="M244 -150v140q-128 14 -204 121l61 50q74 -101 180 -101q70 0 110.5 33.5t40.5 93.5v21q0 53 -36.5 84.5t-107.5 31.5h-98v73h92q135 0 135 114v21q0 49 -34.5 77.5t-98.5 28.5q-104 0 -156 -78l-63 41q75 109 219 109q107 0 164 -49.5t57 -134.5q0 -70 -36.5 -111
t-96.5 -50v-5q66 -8 107.5 -49t41.5 -115q0 -85 -53.5 -140.5t-146.5 -65.5v-140h-77z" />
    <glyph glyph-name="uni0499" unicode="&#x499;" 
d="M243 -140v130q-122 10 -182 98l59 48q50 -79 159 -79q69 0 102.5 22t33.5 60v14q0 80 -99 80h-139v67h129q98 0 98 73v12q0 74 -123 74q-109 0 -156 -76l-56 38q72 107 216 107q101 0 152.5 -36.5t51.5 -102.5q0 -91 -95 -115v-4q51 -7 78.5 -39t27.5 -81
q0 -68 -48.5 -110.5t-135.5 -49.5v-130h-73z" />
    <glyph glyph-name="uni049A" unicode="&#x49a;" 
d="M482 -150v150q-62 0 -95 74l-108 244h-123v-318h-84v698h84v-308h123l148 308h89l-133 -276q-17 -34 -31.5 -48t-33.5 -17v-5q23 -5 37.5 -20.5t32.5 -56.5l90 -202h81v-223h-77z" />
    <glyph glyph-name="uni049B" unicode="&#x49b;" 
d="M462 -140v140q-43 6 -74 60l-99 172h-110v-232h-80v516h80v-216h110l139 216h83l-126 -196q-17 -26 -30 -36.5t-31 -15.5v-4q37 -6 63 -50l84 -146h64v-208h-73z" />
    <glyph glyph-name="uni049C" unicode="&#x49c;" 
d="M200 164v154h-56v-318h-84v698h84v-308h56v154h66v-154h47l142 308h89l-127 -275q-27 -60 -65 -66v-5q23 -5 36.5 -20.5t32.5 -58.5l85 -200h65v-73h-63q-62 0 -93 74l-102 244h-47v-154h-66z" />
    <glyph glyph-name="uni049D" unicode="&#x49d;" 
d="M221 115v117h-54v-232h-80v516h80v-216h54v118h62v-118h40l133 216h83l-120 -195q-27 -45 -61 -53v-4q39 -6 62 -50l79 -146h58v-68h-58q-50 0 -85 64l-91 168h-40v-117h-62z" />
    <glyph glyph-name="uni04A0" unicode="&#x4a0;" 
d="M162 0v625h-160v73h244v-308h101l136 308h89l-121 -271q-16 -35 -31 -50t-36 -20v-5q23 -5 37.5 -20.5t30.5 -55.5l82 -203h65v-73h-63q-61 0 -94 82l-95 236h-101v-318h-84z" />
    <glyph glyph-name="uni04A1" unicode="&#x4a1;" 
d="M161 0v448h-150v68h230v-216h96l129 216h83l-117 -194q-26 -45 -63 -54v-4q40 -6 65 -53l75 -143h58v-68h-58q-27 0 -47 15.5t-41 56.5l-84 160h-96v-232h-80z" />
    <glyph glyph-name="uni04A2" unicode="&#x4a2;" 
d="M497 -150v150h-82v317h-251v-317h-84v698h84v-308h251v308h84v-625h75v-223h-77z" />
    <glyph glyph-name="uni04A3" unicode="&#x4a3;" 
d="M84 0v516h80v-216h241v216h80v-448h85v-208h-73v140h-92v232h-241v-232h-80z" />
    <glyph glyph-name="uni04A4" unicode="&#x4a4;" 
d="M49 0v698h84v-308h182v308h271v-73h-187v-625h-84v317h-182v-317h-84z" />
    <glyph glyph-name="uni04A5" unicode="&#x4a5;" 
d="M54 0v516h80v-216h181v216h261v-68h-181v-448h-80v232h-181v-232h-80z" />
    <glyph glyph-name="uni04AA" unicode="&#x4aa;" 
d="M284 -150v141q-214 27 -214 358q0 176 63.5 268.5t189.5 92.5q87 0 135.5 -41.5t79.5 -111.5l-72 -33q-22 55 -53.5 84t-89.5 29q-81 0 -122.5 -61.5t-41.5 -169.5v-114q0 -108 41.5 -169.5t122.5 -61.5q58 0 89.5 29t53.5 84l72 -33q-28 -62 -68 -101.5t-109 -48.5v-141
h-77z" />
    <glyph glyph-name="uni04AB" unicode="&#x4ab;" 
d="M282 -140v130q-94 12 -146 83.5t-52 184.5q0 124 62 197t171 73q142 0 191 -119l-64 -34q-30 84 -127 84q-69 0 -108 -43.5t-39 -113.5v-88q0 -70 39 -113.5t110 -43.5q98 0 140 90l57 -39q-45 -102 -161 -118v-130h-73z" />
    <glyph glyph-name="uni04AE" unicode="&#x4ae;" 
d="M342 0h-84v274l-241 424h96l100 -182l85 -159h4l87 159l100 182h94l-241 -424v-274z" />
    <glyph glyph-name="uni04AF" unicode="&#x4af;" 
d="M260 -200v200l-196 516h81l74 -202l80 -224h4l80 224l74 202h79l-196 -516v-200h-80z" />
    <glyph glyph-name="uni04B0" unicode="&#x4b0;" 
d="M109 274h149l-241 424h96l100 -182l85 -159h4l87 159l100 182h94l-241 -424h149v-64h-149v-210h-84v210h-149v64z" />
    <glyph glyph-name="uni04B1" unicode="&#x4b1;" 
d="M260 -200v138h-135v62h135l-196 516h81l74 -202l80 -224h4l80 224l74 202h79l-196 -516h135v-62h-135v-138h-80z" />
    <glyph glyph-name="uni04B2" unicode="&#x4b2;" 
d="M528 -150v150h-54l-84 141l-92 152h-4l-95 -152l-87 -141h-92l228 356l-215 342h95l81 -135l87 -141h4l86 141l84 135h92l-216 -341l178 -284h81v-223h-77z" />
    <glyph glyph-name="uni04B3" unicode="&#x4b3;" 
d="M502 -140v140h-58l-87 121l-59 82h-4l-57 -82l-84 -121h-92l192 262l-187 254h96l78 -109l62 -86h4l60 86l77 109h92l-189 -253l144 -195h85v-208h-73z" />
    <glyph glyph-name="uni04B6" unicode="&#x4b6;" 
d="M497 -150v150h-82v275h-5q-53 -23 -137 -23q-120 0 -170 59.5t-50 188.5v198h84v-198q0 -97 30.5 -136t108.5 -39q82 0 139 24v349h84v-625h75v-223h-77z" />
    <glyph glyph-name="uni04B7" unicode="&#x4b7;" 
d="M497 -140v140h-92v237h-5q-56 -62 -154 -62q-171 0 -171 159v182h80v-175q0 -48 27.5 -71t87.5 -23q62 0 98.5 16t36.5 47v206h80v-448h85v-208h-73z" />
    <glyph glyph-name="uni04B8" unicode="&#x4b8;" 
d="M256 114v139q-106 6 -151 65.5t-45 181.5v198h84v-198q0 -88 25 -127.5t87 -46.5v168h66v-168q54 3 106 23v349h84v-698h-84v275h-5q-45 -18 -101 -22v-139h-66z" />
    <glyph glyph-name="uni04B9" unicode="&#x4b9;" 
d="M410 0v236h-5q-36 -42 -89 -55v-92h-62v86q-174 0 -174 159v182h80v-175q0 -88 94 -93v144h62v-144q94 10 94 62v206h80v-516h-80z" />
    <glyph glyph-name="uni04BA" unicode="&#x4ba;" 
d="M88 0v698h84v-275h5q59 23 140 23q122 0 172.5 -59.5t50.5 -188.5v-198h-84v198q0 97 -31 136t-111 39q-79 0 -142 -24v-349h-84z" />
    <glyph glyph-name="uni04BB" unicode="&#x4bb;" 
d="M98 0v740h80v-308h4q41 96 147 96q82 0 130.5 -52t48.5 -145v-331h-80v317q0 140 -122 140q-53 0 -90.5 -25.5t-37.5 -73.5v-358h-80z" />
    <glyph glyph-name="uni04C0" unicode="&#x4c0;" 
d="M516 0h-432v67h174v564h-174v67h432v-67h-174v-564h174v-67z" />
    <glyph glyph-name="uni04C1" unicode="&#x4c1;" 
d="M300 765q-50 0 -82.5 22t-56.5 71l-28 57l72 23l40 -106q17 -6 55 -6t55 6l40 106l72 -23l-28 -57q-24 -49 -56.5 -71t-82.5 -22zM259 0v318h-69l-102 -318h-86l84 265q15 46 31 64t40 23v5q-45 10 -65 82l-74 259h82l90 -308h69v308h82v-308h69l91 308h81l-75 -258
q-12 -42 -27 -60t-37 -23v-5q25 -5 41.5 -23.5t30.5 -63.5l83 -265h-87l-101 318h-69v-318h-82z" />
    <glyph glyph-name="uni04C2" unicode="&#x4c2;" 
d="M300 595q-50 0 -82.5 22t-56.5 71l-28 57l72 23l40 -106q17 -6 55 -6t55 6l40 106l72 -23l-28 -57q-24 -49 -56.5 -71t-82.5 -22zM263 0v233h-88l-65 -233h-80l57 203q16 55 56 61v4q-38 9 -52 59l-55 189h76l63 -217h88v217h74v-217h88l64 217h75l-56 -189
q-16 -51 -51 -59v-4q43 -6 57 -61l56 -203h-81l-64 233h-88v-233h-74z" />
    <glyph glyph-name="uni04CF" unicode="&#x4cf;" 
d="M80 0v68h180v604h-180v68h440v-68h-180v-604h180v-68h-440z" />
    <glyph glyph-name="uni04D0" unicode="&#x4d0;" 
d="M300 765q-50 0 -82.5 22t-56.5 71l-28 57l72 23l40 -106q17 -6 55 -6t55 6l40 106l72 -23l-28 -57q-24 -49 -56.5 -71t-82.5 -22zM570 0h-89l-59 199h-245l-59 -199h-87l214 698h111zM402 272l-98 337h-9l-98 -337h205z" />
    <glyph glyph-name="uni04D1" unicode="&#x4d1;" 
d="M283 595q-50 0 -82.5 22t-56.5 71l-28 57l72 23l40 -106q17 -6 55 -6t55 6l40 106l72 -23l-28 -57q-24 -49 -56.5 -71t-82.5 -22zM550 0h-55q-81 0 -92 84h-5q-36 -96 -155 -96q-81 0 -129 42t-48 115q0 150 222 150h110v51q0 56 -32 85t-91 29q-94 0 -138 -76l-54 40
q21 44 72 74t125 30q91 0 144.5 -46.5t53.5 -127.5v-284h72v-70zM257 55q61 0 101 27.5t40 67.5v85h-110q-138 0 -138 -78v-21q0 -39 28.5 -60t78.5 -21z" />
    <glyph glyph-name="uni04D2" unicode="&#x4d2;" 
d="M207 788q-57 0 -57 46v14q0 46 57 46t57 -46v-14q0 -46 -57 -46zM393 788q-57 0 -57 46v14q0 46 57 46t57 -46v-14q0 -46 -57 -46zM570 0h-89l-59 199h-245l-59 -199h-87l214 698h111zM402 272l-98 337h-9l-98 -337h205z" />
    <glyph glyph-name="uni04D3" unicode="&#x4d3;" 
d="M190 618q-57 0 -57 46v14q0 46 57 46t57 -46v-14q0 -46 -57 -46zM376 618q-57 0 -57 46v14q0 46 57 46t57 -46v-14q0 -46 -57 -46zM550 0h-55q-81 0 -92 84h-5q-36 -96 -155 -96q-81 0 -129 42t-48 115q0 150 222 150h110v51q0 56 -32 85t-91 29q-94 0 -138 -76l-54 40
q21 44 72 74t125 30q91 0 144.5 -46.5t53.5 -127.5v-284h72v-70zM257 55q61 0 101 27.5t40 67.5v85h-110q-138 0 -138 -78v-21q0 -39 28.5 -60t78.5 -21z" />
    <glyph glyph-name="uni04D4" unicode="&#x4d4;" 
d="M312 0v201h-152l-56 -201h-84l206 698h334v-69h-168v-241h156v-69h-156v-250h168v-69h-248zM312 638h-31l-103 -368h134v368z" />
    <glyph glyph-name="uni04D5" unicode="&#x4d5;" 
d="M141 -12q-58 0 -94.5 39.5t-36.5 110.5q0 78 45.5 117.5t132.5 39.5h63v53q0 64 -20.5 92t-60.5 28q-36 0 -57.5 -20t-37.5 -59l-53 33q18 45 56.5 75.5t94.5 30.5q88 0 124 -78h3q37 78 124 78q158 0 158 -236v-54h-258v-25q0 -73 25 -117t71 -44q62 0 96 89l58 -27
q-17 -52 -57.5 -89t-98.5 -37q-102 0 -146 114h-3q-13 -57 -46.5 -85.5t-81.5 -28.5zM155 50q46 0 71 30t25 74v84h-52q-116 0 -116 -86v-15q0 -87 72 -87zM420 470q-96 0 -96 -141v-34h192v34q0 141 -96 141z" />
    <glyph glyph-name="uni04D6" unicode="&#x4d6;" 
d="M305 765q-50 0 -82.5 22t-56.5 71l-28 57l72 23l40 -106q17 -6 55 -6t55 6l40 106l72 -23l-28 -57q-24 -49 -56.5 -71t-82.5 -22zM520 0h-430v698h430v-73h-346v-235h334v-73h-334v-244h346v-73z" />
    <glyph glyph-name="uni04D7" unicode="&#x4d7;" 
d="M302 595q-50 0 -82.5 22t-56.5 71l-28 57l72 23l40 -106q17 -6 55 -6t55 6l40 106l72 -23l-28 -57q-24 -49 -56.5 -71t-82.5 -22zM309 -12q-111 0 -176.5 73t-65.5 196t65.5 197t171.5 74q103 0 166 -70.5t63 -181.5v-38h-382v-24q0 -69 43 -113t115 -44q105 0 148 90
l59 -40q-24 -54 -78.5 -86.5t-128.5 -32.5zM304 462q-66 0 -109.5 -44.5t-43.5 -112.5v-7h296v11q0 68 -39.5 110.5t-103.5 42.5z" />
    <glyph glyph-name="uni04D8" unicode="&#x4d8;" 
d="M300 -12q-244 0 -244 361v22h399v33q0 233 -166 233q-51 0 -91 -28.5t-65 -109.5l-70 33q23 87 82.5 132.5t149.5 45.5q249 0 249 -360q0 -362 -244 -362zM299 61q156 0 156 231v10h-312v-10q0 -231 156 -231z" />
    <glyph glyph-name="uni04D9" unicode="&#x4d9;" 
d="M67 278h382v24q0 69 -43 113t-115 44q-105 0 -148 -90l-59 40q24 54 78.5 86.5t128.5 32.5q111 0 176.5 -73t65.5 -196t-65.5 -197t-171.5 -74q-103 0 -166 70.5t-63 181.5v38zM153 218v-11q0 -68 39.5 -110.5t103.5 -42.5q66 0 109.5 44.5t43.5 112.5v7h-296z" />
    <glyph glyph-name="uni04DC" unicode="&#x4dc;" 
d="M207 788q-57 0 -57 46v14q0 46 57 46t57 -46v-14q0 -46 -57 -46zM393 788q-57 0 -57 46v14q0 46 57 46t57 -46v-14q0 -46 -57 -46zM259 0v318h-69l-102 -318h-86l84 265q15 46 31 64t40 23v5q-45 10 -65 82l-74 259h82l90 -308h69v308h82v-308h69l91 308h81l-75 -258
q-12 -42 -27 -60t-37 -23v-5q25 -5 41.5 -23.5t30.5 -63.5l83 -265h-87l-101 318h-69v-318h-82z" />
    <glyph glyph-name="uni04DD" unicode="&#x4dd;" 
d="M207 618q-57 0 -57 46v14q0 46 57 46t57 -46v-14q0 -46 -57 -46zM393 618q-57 0 -57 46v14q0 46 57 46t57 -46v-14q0 -46 -57 -46zM263 0v233h-88l-65 -233h-80l57 203q16 55 56 61v4q-38 9 -52 59l-55 189h76l63 -217h88v217h74v-217h88l64 217h75l-56 -189
q-16 -51 -51 -59v-4q43 -6 57 -61l56 -203h-81l-64 233h-88v-233h-74z" />
    <glyph glyph-name="uni04DE" unicode="&#x4de;" 
d="M191 788q-57 0 -57 46v14q0 46 57 46t57 -46v-14q0 -46 -57 -46zM377 788q-57 0 -57 46v14q0 46 57 46t57 -46v-14q0 -46 -57 -46zM281 -12q-153 0 -241 123l61 50q74 -101 180 -101q70 0 110.5 33.5t40.5 93.5v21q0 53 -36.5 84.5t-107.5 31.5h-98v73h92q135 0 135 114
v21q0 49 -34.5 77.5t-98.5 28.5q-104 0 -156 -78l-63 41q75 109 219 109q107 0 164 -49.5t57 -134.5q0 -70 -36.5 -111t-96.5 -50v-5q66 -8 107.5 -49t41.5 -115q0 -94 -64.5 -151t-175.5 -57z" />
    <glyph glyph-name="uni04DF" unicode="&#x4df;" 
d="M192 618q-57 0 -57 46v14q0 46 57 46t57 -46v-14q0 -46 -57 -46zM378 618q-57 0 -57 46v14q0 46 57 46t57 -46v-14q0 -46 -57 -46zM279 -12q-149 0 -218 100l59 48q50 -79 159 -79q69 0 102.5 22t33.5 60v14q0 80 -99 80h-139v67h129q98 0 98 73v12q0 74 -123 74
q-109 0 -156 -76l-56 38q72 107 216 107q101 0 152.5 -36.5t51.5 -102.5q0 -91 -95 -115v-4q51 -7 78.5 -39t27.5 -81q0 -75 -58.5 -118.5t-162.5 -43.5z" />
    <glyph glyph-name="uni04E2" unicode="&#x4e2;" 
d="M160 807v68h280v-68h-280zM80 0v698h84v-352l-14 -202h5l285 554h80v-698h-84v352l14 202h-5l-285 -554h-80z" />
    <glyph glyph-name="uni04E3" unicode="&#x4e3;" 
d="M156 637v68h280v-68h-280zM95 0v516h80v-263l-8 -132h4l259 395h75v-516h-80v263l8 132h-4l-259 -395h-75z" />
    <glyph glyph-name="uni04E4" unicode="&#x4e4;" 
d="M207 788q-57 0 -57 46v14q0 46 57 46t57 -46v-14q0 -46 -57 -46zM393 788q-57 0 -57 46v14q0 46 57 46t57 -46v-14q0 -46 -57 -46zM80 0v698h84v-352l-14 -202h5l285 554h80v-698h-84v352l14 202h-5l-285 -554h-80z" />
    <glyph glyph-name="uni04E5" unicode="&#x4e5;" 
d="M203 618q-57 0 -57 46v14q0 46 57 46t57 -46v-14q0 -46 -57 -46zM389 618q-57 0 -57 46v14q0 46 57 46t57 -46v-14q0 -46 -57 -46zM95 0v516h80v-263l-8 -132h4l259 395h75v-516h-80v263l8 132h-4l-259 -395h-75z" />
    <glyph glyph-name="uni04E6" unicode="&#x4e6;" 
d="M207 788q-57 0 -57 46v14q0 46 57 46t57 -46v-14q0 -46 -57 -46zM393 788q-57 0 -57 46v14q0 46 57 46t57 -46v-14q0 -46 -57 -46zM300 -12q-244 0 -244 361t244 361t244 -361t-244 -361zM300 61q155 0 155 231v114q0 231 -155 231t-155 -231v-114q0 -231 155 -231z" />
    <glyph glyph-name="uni04E7" unicode="&#x4e7;" 
d="M207 618q-57 0 -57 46v14q0 46 57 46t57 -46v-14q0 -46 -57 -46zM393 618q-57 0 -57 46v14q0 46 57 46t57 -46v-14q0 -46 -57 -46zM300 -12q-108 0 -171 73t-63 197t63 197t171 73t171 -73t63 -197t-63 -197t-171 -73zM300 57q69 0 109 41.5t40 122.5v74q0 81 -40 122.5
t-109 41.5t-109 -41.5t-40 -122.5v-74q0 -81 40 -122.5t109 -41.5z" />
    <glyph glyph-name="uni04E8" unicode="&#x4e8;" 
d="M300 -12q-244 0 -244 361t244 361t244 -361t-244 -361zM300 61q155 0 155 231v25h-310v-25q0 -231 155 -231zM145 406v-16h310v16q0 231 -155 231t-155 -231z" />
    <glyph glyph-name="uni04E9" unicode="&#x4e9;" 
d="M300 -12q-108 0 -171 73t-63 197t63 197t171 73t171 -73t63 -197t-63 -197t-171 -73zM300 57q69 0 109 41.5t40 122.5v6h-298v-6q0 -81 40 -122.5t109 -41.5zM300 459q-69 0 -109 -41.5t-40 -122.5h298q0 81 -40 122.5t-109 41.5z" />
    <glyph glyph-name="uni04EE" unicode="&#x4ee;" 
d="M160 807v68h280v-68h-280zM139 0v73h104l35 90l-234 535h90l139 -328l41 -112h2l38 111l122 329h86l-228 -602q-22 -59 -49.5 -77.5t-85.5 -18.5h-60z" />
    <glyph glyph-name="uni04EF" unicode="&#x4ef;" 
d="M160 637v68h280v-68h-280zM380 300l87 216h80l-256 -629q-19 -47 -47.5 -67t-84.5 -20h-76v68h120l58 142l-208 506h82l87 -216l77 -196h4z" />
    <glyph glyph-name="uni04F0" unicode="&#x4f0;" 
d="M207 788q-57 0 -57 46v14q0 46 57 46t57 -46v-14q0 -46 -57 -46zM393 788q-57 0 -57 46v14q0 46 57 46t57 -46v-14q0 -46 -57 -46zM139 0v73h104l35 90l-234 535h90l139 -328l41 -112h2l38 111l122 329h86l-228 -602q-22 -59 -49.5 -77.5t-85.5 -18.5h-60z" />
    <glyph glyph-name="uni04F1" unicode="&#x4f1;" 
d="M207 618q-57 0 -57 46v14q0 46 57 46t57 -46v-14q0 -46 -57 -46zM393 618q-57 0 -57 46v14q0 46 57 46t57 -46v-14q0 -46 -57 -46zM380 300l87 216h80l-256 -629q-19 -47 -47.5 -67t-84.5 -20h-76v68h120l58 142l-208 506h82l87 -216l77 -196h4z" />
    <glyph glyph-name="uni04F2" unicode="&#x4f2;" 
d="M333 915l-106 -159l-48 22l85 170zM493 915l-106 -159l-48 22l85 170zM139 0v73h104l35 90l-234 535h90l139 -328l41 -112h2l38 111l122 329h86l-228 -602q-22 -59 -49.5 -77.5t-85.5 -18.5h-60z" />
    <glyph glyph-name="uni04F3" unicode="&#x4f3;" 
d="M333 745l-106 -159l-48 22l85 170zM493 745l-106 -159l-48 22l85 170zM380 300l87 216h80l-256 -629q-19 -47 -47.5 -67t-84.5 -20h-76v68h120l58 142l-208 506h82l87 -216l77 -196h4z" />
    <glyph glyph-name="uni04F4" unicode="&#x4f4;" 
d="M193 788q-57 0 -57 46v14q0 46 57 46t57 -46v-14q0 -46 -57 -46zM379 788q-57 0 -57 46v14q0 46 57 46t57 -46v-14q0 -46 -57 -46zM428 0v275h-5q-59 -23 -140 -23q-122 0 -172.5 59.5t-50.5 188.5v198h84v-198q0 -97 31 -136t111 -39q79 0 142 24v349h84v-698h-84z" />
    <glyph glyph-name="uni04F5" unicode="&#x4f5;" 
d="M192 618q-57 0 -57 46v14q0 46 57 46t57 -46v-14q0 -46 -57 -46zM378 618q-57 0 -57 46v14q0 46 57 46t57 -46v-14q0 -46 -57 -46zM410 0v237h-5q-56 -62 -154 -62q-171 0 -171 159v182h80v-175q0 -48 27.5 -71t87.5 -23q61 0 98 16t37 47v206h80v-516h-80z" />
    <glyph glyph-name="uni04F8" unicode="&#x4f8;" 
d="M207 788q-57 0 -57 46v14q0 46 57 46t57 -46v-14q0 -46 -57 -46zM393 788q-57 0 -57 46v14q0 46 57 46t57 -46v-14q0 -46 -57 -46zM48 0v698h82v-280h70q94 0 144.5 -54.5t50.5 -154.5t-50.5 -154.5t-144.5 -54.5h-152zM130 73h70q51 0 79.5 27.5t28.5 82.5v52
q0 55 -28.5 82.5t-79.5 27.5h-70v-272zM470 0v698h82v-698h-82z" />
    <glyph glyph-name="uni04F9" unicode="&#x4f9;" 
d="M207 618q-57 0 -57 46v14q0 46 57 46t57 -46v-14q0 -46 -57 -46zM393 618q-57 0 -57 46v14q0 46 57 46t57 -46v-14q0 -46 -57 -46zM54 0v516h80v-187h87q78 0 124 -44.5t46 -120.5q0 -77 -45 -120.5t-124 -43.5h-168zM134 68h76q96 0 96 76v42q0 75 -96 75h-76v-193z
M466 0v516h80v-516h-80z" />
    <glyph glyph-name="uni0E3F" unicode="&#xe3f;" 
d="M326 0v-113h-62v113h-176v698h176v113h62v-113h8q89 0 140.5 -49t51.5 -131q0 -117 -113 -154v-3q125 -39 125 -160q0 -85 -53.5 -143t-134.5 -58h-24zM170 394h95v233h-95v-233zM325 627v-233q117 0 117 95v41q0 97 -117 97zM170 71h95v256h-95v-256zM325 327v-256
q128 0 128 106v44q0 106 -128 106z" />
    <glyph glyph-name="Wgrave" unicode="&#x1e80;" 
d="M293 755l-106 159l73 35l85 -170zM211 0h-121l-55 698h75l29 -400l15 -211h8l92 429h94l92 -429h8l15 211l29 400h73l-55 -698h-121l-85 417h-8z" />
    <glyph glyph-name="wgrave" unicode="&#x1e81;" 
d="M293 585l-106 159l73 35l85 -170zM109 0l-79 516h71l59 -446h9l88 446h88l88 -446h9l59 446h69l-79 -516h-104l-82 432h-8l-84 -432h-104z" />
    <glyph glyph-name="Wacute" unicode="&#x1e82;" 
d="M413 914l-106 -159l-52 24l85 170zM211 0h-121l-55 698h75l29 -400l15 -211h8l92 429h94l92 -429h8l15 211l29 400h73l-55 -698h-121l-85 417h-8z" />
    <glyph glyph-name="wacute" unicode="&#x1e83;" 
d="M413 744l-106 -159l-52 24l85 170zM109 0l-79 516h71l59 -446h9l88 446h88l88 -446h9l59 446h69l-79 -516h-104l-82 432h-8l-84 -432h-104z" />
    <glyph glyph-name="Wdieresis" unicode="&#x1e84;" 
d="M207 788q-57 0 -57 46v14q0 46 57 46t57 -46v-14q0 -46 -57 -46zM393 788q-57 0 -57 46v14q0 46 57 46t57 -46v-14q0 -46 -57 -46zM211 0h-121l-55 698h75l29 -400l15 -211h8l92 429h94l92 -429h8l15 211l29 400h73l-55 -698h-121l-85 417h-8z" />
    <glyph glyph-name="wdieresis" unicode="&#x1e85;" 
d="M207 618q-57 0 -57 46v14q0 46 57 46t57 -46v-14q0 -46 -57 -46zM393 618q-57 0 -57 46v14q0 46 57 46t57 -46v-14q0 -46 -57 -46zM109 0l-79 516h71l59 -446h9l88 446h88l88 -446h9l59 446h69l-79 -516h-104l-82 432h-8l-84 -432h-104z" />
    <glyph glyph-name="uni1E9E" unicode="&#x1e9e;" 
d="M63 0v698h473v-82l-169 -211v-4q100 -2 156.5 -55.5t56.5 -150.5t-56.5 -152t-153.5 -55q-119 0 -181 85l58 49q48 -64 126 -64q54 0 86 32t32 87v36q0 55 -32 87t-87 32h-94v77l173 216h-304v-625h-84z" />
    <glyph glyph-name="uni1EA0" unicode="&#x1ea0;" 
d="M300 -172q-57 0 -57 46v14q0 46 57 46t57 -46v-14q0 -46 -57 -46zM570 0h-89l-59 199h-245l-59 -199h-87l214 698h111zM402 272l-98 337h-9l-98 -337h205z" />
    <glyph glyph-name="uni1EA1" unicode="&#x1ea1;" 
d="M283 -172q-57 0 -57 46v14q0 46 57 46t57 -46v-14q0 -46 -57 -46zM550 0h-55q-81 0 -92 84h-5q-36 -96 -155 -96q-81 0 -129 42t-48 115q0 150 222 150h110v51q0 56 -32 85t-91 29q-94 0 -138 -76l-54 40q21 44 72 74t125 30q91 0 144.5 -46.5t53.5 -127.5v-284h72v-70z
M257 55q61 0 101 27.5t40 67.5v85h-110q-138 0 -138 -78v-21q0 -39 28.5 -60t78.5 -21z" />
    <glyph glyph-name="uni1EA2" unicode="&#x1ea2;" 
d="M216 874v61h109q70 0 70 -55q0 -41 -49 -103l-24 -30l-46 23l58 104h-118zM570 0h-89l-59 199h-245l-59 -199h-87l214 698h111zM402 272l-98 337h-9l-98 -337h205z" />
    <glyph glyph-name="uni1EA3" unicode="&#x1ea3;" 
d="M199 704v61h109q70 0 70 -55q0 -41 -49 -103l-24 -30l-46 23l58 104h-118zM550 0h-55q-81 0 -92 84h-5q-36 -96 -155 -96q-81 0 -129 42t-48 115q0 150 222 150h110v51q0 56 -32 85t-91 29q-94 0 -138 -76l-54 40q21 44 72 74t125 30q91 0 144.5 -46.5t53.5 -127.5v-284
h72v-70zM257 55q61 0 101 27.5t40 67.5v85h-110q-138 0 -138 -78v-21q0 -39 28.5 -60t78.5 -21z" />
    <glyph glyph-name="uni1EA4" unicode="&#x1ea4;" 
d="M560 1041l-106 -159l-49 23l85 170zM250 925h100l110 -144l-44 -30l-117 119l-117 -119l-42 30zM570 0h-89l-59 199h-245l-59 -199h-87l214 698h111zM402 272l-98 337h-9l-98 -337h205z" />
    <glyph glyph-name="uni1EA5" unicode="&#x1ea5;" 
d="M543 871l-106 -159l-49 23l85 170zM233 755h100l110 -144l-44 -30l-117 119l-117 -119l-42 30zM550 0h-55q-81 0 -92 84h-5q-36 -96 -155 -96q-81 0 -129 42t-48 115q0 150 222 150h110v51q0 56 -32 85t-91 29q-94 0 -138 -76l-54 40q21 44 72 74t125 30
q91 0 144.5 -46.5t53.5 -127.5v-284h72v-70zM257 55q61 0 101 27.5t40 67.5v85h-110q-138 0 -138 -78v-21q0 -39 28.5 -60t78.5 -21z" />
    <glyph glyph-name="uni1EA6" unicode="&#x1ea6;" 
d="M146 882l-106 159l70 34l85 -170zM250 925h100l110 -144l-44 -30l-117 119l-117 -119l-42 30zM570 0h-89l-59 199h-245l-59 -199h-87l214 698h111zM402 272l-98 337h-9l-98 -337h205z" />
    <glyph glyph-name="uni1EA7" unicode="&#x1ea7;" 
d="M129 712l-106 159l70 34l85 -170zM233 755h100l110 -144l-44 -30l-117 119l-117 -119l-42 30zM550 0h-55q-81 0 -92 84h-5q-36 -96 -155 -96q-81 0 -129 42t-48 115q0 150 222 150h110v51q0 56 -32 85t-91 29q-94 0 -138 -76l-54 40q21 44 72 74t125 30q91 0 144.5 -46.5
t53.5 -127.5v-284h72v-70zM257 55q61 0 101 27.5t40 67.5v85h-110q-138 0 -138 -78v-21q0 -39 28.5 -60t78.5 -21z" />
    <glyph glyph-name="uni1EA8" unicode="&#x1ea8;" 
d="M353 1003v61h109q70 0 70 -55q0 -41 -49 -103l-24 -30l-46 23l58 104h-118zM250 925h100l110 -144l-44 -30l-117 119l-117 -119l-42 30zM570 0h-89l-59 199h-245l-59 -199h-87l214 698h111zM402 272l-98 337h-9l-98 -337h205z" />
    <glyph glyph-name="uni1EA9" unicode="&#x1ea9;" 
d="M336 833v61h109q70 0 70 -55q0 -41 -49 -103l-24 -30l-46 23l58 104h-118zM233 755h100l110 -144l-44 -30l-117 119l-117 -119l-42 30zM550 0h-55q-81 0 -92 84h-5q-36 -96 -155 -96q-81 0 -129 42t-48 115q0 150 222 150h110v51q0 56 -32 85t-91 29q-94 0 -138 -76
l-54 40q21 44 72 74t125 30q91 0 144.5 -46.5t53.5 -127.5v-284h72v-70zM257 55q61 0 101 27.5t40 67.5v85h-110q-138 0 -138 -78v-21q0 -39 28.5 -60t78.5 -21z" />
    <glyph glyph-name="uni1EAA" unicode="&#x1eaa;" 
d="M228 1062q30 0 80 -26q45 -24 70 -24q26 0 58 27l31 -36q-35 -53 -95 -53q-30 0 -80 26q-45 24 -70 24q-26 0 -58 -27l-31 36q35 53 95 53zM250 915h100l110 -134l-44 -30l-117 111l-117 -111l-42 30zM570 0h-89l-59 199h-245l-59 -199h-87l214 698h111zM402 272l-98 337
h-9l-98 -337h205z" />
    <glyph glyph-name="uni1EAB" unicode="&#x1eab;" 
d="M211 892q30 0 80 -26q45 -24 70 -24q26 0 58 27l31 -36q-35 -53 -95 -53q-30 0 -80 26q-45 24 -70 24q-26 0 -58 -27l-31 36q35 53 95 53zM233 745h100l110 -134l-44 -30l-117 111l-117 -111l-42 30zM550 0h-55q-81 0 -92 84h-5q-36 -96 -155 -96q-81 0 -129 42t-48 115
q0 150 222 150h110v51q0 56 -32 85t-91 29q-94 0 -138 -76l-54 40q21 44 72 74t125 30q91 0 144.5 -46.5t53.5 -127.5v-284h72v-70zM257 55q61 0 101 27.5t40 67.5v85h-110q-138 0 -138 -78v-21q0 -39 28.5 -60t78.5 -21z" />
    <glyph glyph-name="uni1EAC" unicode="&#x1eac;" 
d="M300 -172q-57 0 -57 46v14q0 46 57 46t57 -46v-14q0 -46 -57 -46zM250 935h100l111 -143l-45 -31l-117 117l-117 -117l-43 31zM570 0h-89l-59 199h-245l-59 -199h-87l214 698h111zM402 272l-98 337h-9l-98 -337h205z" />
    <glyph glyph-name="uni1EAD" unicode="&#x1ead;" 
d="M283 -172q-57 0 -57 46v14q0 46 57 46t57 -46v-14q0 -46 -57 -46zM233 765h100l111 -143l-45 -31l-117 117l-117 -117l-43 31zM550 0h-55q-81 0 -92 84h-5q-36 -96 -155 -96q-81 0 -129 42t-48 115q0 150 222 150h110v51q0 56 -32 85t-91 29q-94 0 -138 -76l-54 40
q21 44 72 74t125 30q91 0 144.5 -46.5t53.5 -127.5v-284h72v-70zM257 55q61 0 101 27.5t40 67.5v85h-110q-138 0 -138 -78v-21q0 -39 28.5 -60t78.5 -21z" />
    <glyph glyph-name="uni1EAE" unicode="&#x1eae;" 
d="M299 755q-120 0 -165 139l47 23l21 -32q25 -37 45.5 -51.5t52.5 -14.5t52.5 14.5t45.5 51.5l21 32l47 -23q-45 -139 -167 -139zM413 1037l-106 -159l-49 23l85 170zM570 0h-89l-59 199h-245l-59 -199h-87l214 698h111zM402 272l-98 337h-9l-98 -337h205z" />
    <glyph glyph-name="uni1EAF" unicode="&#x1eaf;" 
d="M282 585q-120 0 -165 139l47 23l21 -32q25 -37 45.5 -51.5t52.5 -14.5t52.5 14.5t45.5 51.5l21 32l47 -23q-45 -139 -167 -139zM396 867l-106 -159l-49 23l85 170zM550 0h-55q-81 0 -92 84h-5q-36 -96 -155 -96q-81 0 -129 42t-48 115q0 150 222 150h110v51q0 56 -32 85
t-91 29q-94 0 -138 -76l-54 40q21 44 72 74t125 30q91 0 144.5 -46.5t53.5 -127.5v-284h72v-70zM257 55q61 0 101 27.5t40 67.5v85h-110q-138 0 -138 -78v-21q0 -39 28.5 -60t78.5 -21z" />
    <glyph glyph-name="uni1EB0" unicode="&#x1eb0;" 
d="M301 755q-122 0 -167 139l47 23l21 -32q25 -37 45.5 -51.5t52.5 -14.5t52.5 14.5t45.5 51.5l21 32l47 -23q-45 -139 -165 -139zM293 878l-106 159l70 34l85 -170zM570 0h-89l-59 199h-245l-59 -199h-87l214 698h111zM402 272l-98 337h-9l-98 -337h205z" />
    <glyph glyph-name="uni1EB1" unicode="&#x1eb1;" 
d="M284 585q-122 0 -167 139l47 23l21 -32q25 -37 45.5 -51.5t52.5 -14.5t52.5 14.5t45.5 51.5l21 32l47 -23q-45 -139 -165 -139zM276 708l-106 159l70 34l85 -170zM550 0h-55q-81 0 -92 84h-5q-36 -96 -155 -96q-81 0 -129 42t-48 115q0 150 222 150h110v51q0 56 -32 85
t-91 29q-94 0 -138 -76l-54 40q21 44 72 74t125 30q91 0 144.5 -46.5t53.5 -127.5v-284h72v-70zM257 55q61 0 101 27.5t40 67.5v85h-110q-138 0 -138 -78v-21q0 -39 28.5 -60t78.5 -21z" />
    <glyph glyph-name="uni1EB2" unicode="&#x1eb2;" 
d="M215 999v61h94q70 0 70 -55q0 -41 -49 -103l-24 -30l-46 23l58 104h-103zM301 755q-122 0 -167 139l47 23l21 -32q25 -37 45.5 -51.5t52.5 -14.5t52.5 14.5t45.5 51.5l21 32l47 -23q-45 -139 -165 -139zM570 0h-89l-59 199h-245l-59 -199h-87l214 698h111zM402 272
l-98 337h-9l-98 -337h205z" />
    <glyph glyph-name="uni1EB3" unicode="&#x1eb3;" 
d="M284 585q-122 0 -167 139l47 23l21 -32q25 -37 45.5 -51.5t52.5 -14.5t52.5 14.5t45.5 51.5l21 32l47 -23q-45 -139 -165 -139zM198 829v61h94q70 0 70 -55q0 -41 -49 -103l-24 -30l-46 23l58 104h-103zM550 0h-55q-81 0 -92 84h-5q-36 -96 -155 -96q-81 0 -129 42
t-48 115q0 150 222 150h110v51q0 56 -32 85t-91 29q-94 0 -138 -76l-54 40q21 44 72 74t125 30q91 0 144.5 -46.5t53.5 -127.5v-284h72v-70zM257 55q61 0 101 27.5t40 67.5v85h-110q-138 0 -138 -78v-21q0 -39 28.5 -60t78.5 -21z" />
    <glyph glyph-name="uni1EB4" unicode="&#x1eb4;" 
d="M372 939q-30 0 -80 26q-45 24 -70 24q-26 0 -58 -27l-31 36q35 53 95 53q30 0 80 -26q45 -24 70 -24q26 0 58 27l31 -36q-35 -53 -95 -53zM301 755q-122 0 -167 139l47 23l21 -32q25 -37 45.5 -51.5t52.5 -14.5t52.5 14.5t45.5 51.5l21 32l47 -23q-45 -139 -165 -139z
M570 0h-89l-59 199h-245l-59 -199h-87l214 698h111zM402 272l-98 337h-9l-98 -337h205z" />
    <glyph glyph-name="uni1EB5" unicode="&#x1eb5;" 
d="M284 585q-122 0 -167 139l47 23l21 -32q25 -37 45.5 -51.5t52.5 -14.5t52.5 14.5t45.5 51.5l21 32l47 -23q-45 -139 -165 -139zM355 769q-30 0 -80 26q-45 24 -70 24q-26 0 -58 -27l-31 36q35 53 95 53q30 0 80 -26q45 -24 70 -24q26 0 58 27l31 -36q-35 -53 -95 -53z
M550 0h-55q-81 0 -92 84h-5q-36 -96 -155 -96q-81 0 -129 42t-48 115q0 150 222 150h110v51q0 56 -32 85t-91 29q-94 0 -138 -76l-54 40q21 44 72 74t125 30q91 0 144.5 -46.5t53.5 -127.5v-284h72v-70zM257 55q61 0 101 27.5t40 67.5v85h-110q-138 0 -138 -78v-21
q0 -39 28.5 -60t78.5 -21z" />
    <glyph glyph-name="uni1EB6" unicode="&#x1eb6;" 
d="M300 -172q-57 0 -57 46v14q0 46 57 46t57 -46v-14q0 -46 -57 -46zM300 765q-38 0 -67 14t-47 39.5t-28 47t-19 50.5l51 22l21 -34q19 -31 28 -43t24.5 -21.5t36.5 -9.5t36.5 9.5t24.5 21.5t28 43l21 34l51 -22q-9 -29 -19 -50.5t-28 -47t-47 -39.5t-67 -14zM570 0h-89
l-59 199h-245l-59 -199h-87l214 698h111zM402 272l-98 337h-9l-98 -337h205z" />
    <glyph glyph-name="uni1EB7" unicode="&#x1eb7;" 
d="M283 -172q-57 0 -57 46v14q0 46 57 46t57 -46v-14q0 -46 -57 -46zM283 595q-38 0 -67 14t-47 39.5t-28 47t-19 50.5l51 22l21 -34q19 -31 28 -43t24.5 -21.5t36.5 -9.5t36.5 9.5t24.5 21.5t28 43l21 34l51 -22q-9 -29 -19 -50.5t-28 -47t-47 -39.5t-67 -14zM550 0h-55
q-81 0 -92 84h-5q-36 -96 -155 -96q-81 0 -129 42t-48 115q0 150 222 150h110v51q0 56 -32 85t-91 29q-94 0 -138 -76l-54 40q21 44 72 74t125 30q91 0 144.5 -46.5t53.5 -127.5v-284h72v-70zM257 55q61 0 101 27.5t40 67.5v85h-110q-138 0 -138 -78v-21q0 -39 28.5 -60
t78.5 -21z" />
    <glyph glyph-name="uni1EB8" unicode="&#x1eb8;" 
d="M305 -172q-57 0 -57 46v14q0 46 57 46t57 -46v-14q0 -46 -57 -46zM520 0h-430v698h430v-73h-346v-235h334v-73h-334v-244h346v-73z" />
    <glyph glyph-name="uni1EB9" unicode="&#x1eb9;" 
d="M309 -172q-57 0 -57 46v14q0 46 57 46t57 -46v-14q0 -46 -57 -46zM309 -12q-111 0 -176.5 73t-65.5 196t65.5 197t171.5 74q103 0 166 -70.5t63 -181.5v-38h-382v-24q0 -69 43 -113t115 -44q105 0 148 90l59 -40q-24 -54 -78.5 -86.5t-128.5 -32.5zM304 462
q-66 0 -109.5 -44.5t-43.5 -112.5v-7h296v11q0 68 -39.5 110.5t-103.5 42.5z" />
    <glyph glyph-name="uni1EBA" unicode="&#x1eba;" 
d="M221 874v61h109q70 0 70 -55q0 -41 -49 -103l-24 -30l-46 23l58 104h-118zM520 0h-430v698h430v-73h-346v-235h334v-73h-334v-244h346v-73z" />
    <glyph glyph-name="uni1EBB" unicode="&#x1ebb;" 
d="M218 704v61h109q70 0 70 -55q0 -41 -49 -103l-24 -30l-46 23l58 104h-118zM309 -12q-111 0 -176.5 73t-65.5 196t65.5 197t171.5 74q103 0 166 -70.5t63 -181.5v-38h-382v-24q0 -69 43 -113t115 -44q105 0 148 90l59 -40q-24 -54 -78.5 -86.5t-128.5 -32.5zM304 462
q-66 0 -109.5 -44.5t-43.5 -112.5v-7h296v11q0 68 -39.5 110.5t-103.5 42.5z" />
    <glyph glyph-name="uni1EBC" unicode="&#x1ebc;" 
d="M378 782q-30 0 -80 26q-45 24 -70 24q-26 0 -58 -27l-33 40q35 53 95 53q30 0 80 -26q45 -24 70 -24q26 0 58 27l33 -40q-35 -53 -95 -53zM520 0h-430v698h430v-73h-346v-235h334v-73h-334v-244h346v-73z" />
    <glyph glyph-name="uni1EBD" unicode="&#x1ebd;" 
d="M375 612q-30 0 -80 26q-45 24 -70 24q-26 0 -58 -27l-33 40q35 53 95 53q30 0 80 -26q45 -24 70 -24q26 0 58 27l33 -40q-35 -53 -95 -53zM309 -12q-111 0 -176.5 73t-65.5 196t65.5 197t171.5 74q103 0 166 -70.5t63 -181.5v-38h-382v-24q0 -69 43 -113t115 -44
q105 0 148 90l59 -40q-24 -54 -78.5 -86.5t-128.5 -32.5zM304 462q-66 0 -109.5 -44.5t-43.5 -112.5v-7h296v11q0 68 -39.5 110.5t-103.5 42.5z" />
    <glyph glyph-name="uni1EBE" unicode="&#x1ebe;" 
d="M565 1041l-106 -159l-49 23l85 170zM255 925h100l110 -144l-44 -30l-117 119l-117 -119l-42 30zM520 0h-430v698h430v-73h-346v-235h334v-73h-334v-244h346v-73z" />
    <glyph glyph-name="uni1EBF" unicode="&#x1ebf;" 
d="M562 871l-106 -159l-49 23l85 170zM252 755h100l110 -144l-44 -30l-117 119l-117 -119l-42 30zM309 -12q-111 0 -176.5 73t-65.5 196t65.5 197t171.5 74q103 0 166 -70.5t63 -181.5v-38h-382v-24q0 -69 43 -113t115 -44q105 0 148 90l59 -40q-24 -54 -78.5 -86.5
t-128.5 -32.5zM304 462q-66 0 -109.5 -44.5t-43.5 -112.5v-7h296v11q0 68 -39.5 110.5t-103.5 42.5z" />
    <glyph glyph-name="uni1EC0" unicode="&#x1ec0;" 
d="M151 882l-106 159l70 34l85 -170zM255 925h100l110 -144l-44 -30l-117 119l-117 -119l-42 30zM520 0h-430v698h430v-73h-346v-235h334v-73h-334v-244h346v-73z" />
    <glyph glyph-name="uni1EC1" unicode="&#x1ec1;" 
d="M148 712l-106 159l70 34l85 -170zM252 755h100l110 -144l-44 -30l-117 119l-117 -119l-42 30zM309 -12q-111 0 -176.5 73t-65.5 196t65.5 197t171.5 74q103 0 166 -70.5t63 -181.5v-38h-382v-24q0 -69 43 -113t115 -44q105 0 148 90l59 -40q-24 -54 -78.5 -86.5
t-128.5 -32.5zM304 462q-66 0 -109.5 -44.5t-43.5 -112.5v-7h296v11q0 68 -39.5 110.5t-103.5 42.5z" />
    <glyph glyph-name="uni1EC2" unicode="&#x1ec2;" 
d="M358 1003v61h109q70 0 70 -55q0 -41 -49 -103l-24 -30l-46 23l58 104h-118zM255 925h100l110 -144l-44 -30l-117 119l-117 -119l-42 30zM520 0h-430v698h430v-73h-346v-235h334v-73h-334v-244h346v-73z" />
    <glyph glyph-name="uni1EC3" unicode="&#x1ec3;" 
d="M355 833v61h109q70 0 70 -55q0 -41 -49 -103l-24 -30l-46 23l58 104h-118zM252 755h100l110 -144l-44 -30l-117 119l-117 -119l-42 30zM309 -12q-111 0 -176.5 73t-65.5 196t65.5 197t171.5 74q103 0 166 -70.5t63 -181.5v-38h-382v-24q0 -69 43 -113t115 -44
q105 0 148 90l59 -40q-24 -54 -78.5 -86.5t-128.5 -32.5zM304 462q-66 0 -109.5 -44.5t-43.5 -112.5v-7h296v11q0 68 -39.5 110.5t-103.5 42.5z" />
    <glyph glyph-name="uni1EC4" unicode="&#x1ec4;" 
d="M233 1062q30 0 80 -26q45 -24 70 -24q26 0 58 27l31 -36q-35 -53 -95 -53q-30 0 -80 26q-45 24 -70 24q-26 0 -58 -27l-31 36q35 53 95 53zM255 915h100l110 -134l-44 -30l-117 111l-117 -111l-42 30zM520 0h-430v698h430v-73h-346v-235h334v-73h-334v-244h346v-73z" />
    <glyph glyph-name="uni1EC5" unicode="&#x1ec5;" 
d="M230 892q30 0 80 -26q45 -24 70 -24q26 0 58 27l31 -36q-35 -53 -95 -53q-30 0 -80 26q-45 24 -70 24q-26 0 -58 -27l-31 36q35 53 95 53zM252 745h100l110 -134l-44 -30l-117 111l-117 -111l-42 30zM309 -12q-111 0 -176.5 73t-65.5 196t65.5 197t171.5 74
q103 0 166 -70.5t63 -181.5v-38h-382v-24q0 -69 43 -113t115 -44q105 0 148 90l59 -40q-24 -54 -78.5 -86.5t-128.5 -32.5zM304 462q-66 0 -109.5 -44.5t-43.5 -112.5v-7h296v11q0 68 -39.5 110.5t-103.5 42.5z" />
    <glyph glyph-name="uni1EC6" unicode="&#x1ec6;" 
d="M305 -172q-57 0 -57 46v14q0 46 57 46t57 -46v-14q0 -46 -57 -46zM255 935h100l111 -143l-45 -31l-117 117l-117 -117l-43 31zM520 0h-430v698h430v-73h-346v-235h334v-73h-334v-244h346v-73z" />
    <glyph glyph-name="uni1EC7" unicode="&#x1ec7;" 
d="M309 -172q-57 0 -57 46v14q0 46 57 46t57 -46v-14q0 -46 -57 -46zM252 765h100l111 -143l-45 -31l-117 117l-117 -117l-43 31zM309 -12q-111 0 -176.5 73t-65.5 196t65.5 197t171.5 74q103 0 166 -70.5t63 -181.5v-38h-382v-24q0 -69 43 -113t115 -44q105 0 148 90
l59 -40q-24 -54 -78.5 -86.5t-128.5 -32.5zM304 462q-66 0 -109.5 -44.5t-43.5 -112.5v-7h296v11q0 68 -39.5 110.5t-103.5 42.5z" />
    <glyph glyph-name="uni1EC8" unicode="&#x1ec8;" 
d="M216 874v61h109q70 0 70 -55q0 -41 -49 -103l-24 -30l-46 23l58 104h-118zM516 0h-432v67h174v564h-174v67h432v-67h-174v-564h174v-67z" />
    <glyph glyph-name="uni1EC9" unicode="&#x1ec9;" 
d="M248 704v61h109q70 0 70 -55q0 -41 -49 -103l-24 -30l-46 23l58 104h-118zM106 0v68h186v380h-186v68h266v-448h174v-68h-440z" />
    <glyph glyph-name="uni1ECA" unicode="&#x1eca;" 
d="M300 -172q-57 0 -57 46v14q0 46 57 46t57 -46v-14q0 -46 -57 -46zM516 0h-432v67h174v564h-174v67h432v-67h-174v-564h174v-67z" />
    <glyph glyph-name="uni1ECB" unicode="&#x1ecb;" 
d="M332 -172q-57 0 -57 46v14q0 46 57 46t57 -46v-14q0 -46 -57 -46zM332 630q-63 0 -63 51v16q0 51 63 51t63 -51v-16q0 -51 -63 -51zM106 0v68h186v380h-186v68h266v-448h174v-68h-440z" />
    <glyph glyph-name="uni1ECC" unicode="&#x1ecc;" 
d="M300 -172q-57 0 -57 46v14q0 46 57 46t57 -46v-14q0 -46 -57 -46zM300 -12q-244 0 -244 361t244 361t244 -361t-244 -361zM300 61q155 0 155 231v114q0 231 -155 231t-155 -231v-114q0 -231 155 -231z" />
    <glyph glyph-name="uni1ECD" unicode="&#x1ecd;" 
d="M300 -172q-57 0 -57 46v14q0 46 57 46t57 -46v-14q0 -46 -57 -46zM300 -12q-108 0 -171 73t-63 197t63 197t171 73t171 -73t63 -197t-63 -197t-171 -73zM300 57q69 0 109 41.5t40 122.5v74q0 81 -40 122.5t-109 41.5t-109 -41.5t-40 -122.5v-74q0 -81 40 -122.5
t109 -41.5z" />
    <glyph glyph-name="uni1ECE" unicode="&#x1ece;" 
d="M216 874v61h109q70 0 70 -55q0 -41 -49 -103l-24 -30l-46 23l58 104h-118zM300 -12q-244 0 -244 361t244 361t244 -361t-244 -361zM300 61q155 0 155 231v114q0 231 -155 231t-155 -231v-114q0 -231 155 -231z" />
    <glyph glyph-name="uni1ECF" unicode="&#x1ecf;" 
d="M216 704v61h109q70 0 70 -55q0 -41 -49 -103l-24 -30l-46 23l58 104h-118zM300 -12q-108 0 -171 73t-63 197t63 197t171 73t171 -73t63 -197t-63 -197t-171 -73zM300 57q69 0 109 41.5t40 122.5v74q0 81 -40 122.5t-109 41.5t-109 -41.5t-40 -122.5v-74q0 -81 40 -122.5
t109 -41.5z" />
    <glyph glyph-name="uni1ED0" unicode="&#x1ed0;" 
d="M560 1041l-106 -159l-49 23l85 170zM250 925h100l110 -144l-44 -30l-117 119l-117 -119l-42 30zM300 -12q-244 0 -244 361t244 361t244 -361t-244 -361zM300 61q155 0 155 231v114q0 231 -155 231t-155 -231v-114q0 -231 155 -231z" />
    <glyph glyph-name="uni1ED1" unicode="&#x1ed1;" 
d="M560 871l-106 -159l-49 23l85 170zM250 755h100l110 -144l-44 -30l-117 119l-117 -119l-42 30zM300 -12q-108 0 -171 73t-63 197t63 197t171 73t171 -73t63 -197t-63 -197t-171 -73zM300 57q69 0 109 41.5t40 122.5v74q0 81 -40 122.5t-109 41.5t-109 -41.5t-40 -122.5
v-74q0 -81 40 -122.5t109 -41.5z" />
    <glyph glyph-name="uni1ED2" unicode="&#x1ed2;" 
d="M146 882l-106 159l70 34l85 -170zM250 925h100l110 -144l-44 -30l-117 119l-117 -119l-42 30zM300 -12q-244 0 -244 361t244 361t244 -361t-244 -361zM300 61q155 0 155 231v114q0 231 -155 231t-155 -231v-114q0 -231 155 -231z" />
    <glyph glyph-name="uni1ED3" unicode="&#x1ed3;" 
d="M146 712l-106 159l70 34l85 -170zM250 755h100l110 -144l-44 -30l-117 119l-117 -119l-42 30zM300 -12q-108 0 -171 73t-63 197t63 197t171 73t171 -73t63 -197t-63 -197t-171 -73zM300 57q69 0 109 41.5t40 122.5v74q0 81 -40 122.5t-109 41.5t-109 -41.5t-40 -122.5
v-74q0 -81 40 -122.5t109 -41.5z" />
    <glyph glyph-name="uni1ED4" unicode="&#x1ed4;" 
d="M353 1003v61h109q70 0 70 -55q0 -41 -49 -103l-24 -30l-46 23l58 104h-118zM250 925h100l110 -144l-44 -30l-117 119l-117 -119l-42 30zM300 -12q-244 0 -244 361t244 361t244 -361t-244 -361zM300 61q155 0 155 231v114q0 231 -155 231t-155 -231v-114q0 -231 155 -231z
" />
    <glyph glyph-name="uni1ED5" unicode="&#x1ed5;" 
d="M353 833v61h109q70 0 70 -55q0 -41 -49 -103l-24 -30l-46 23l58 104h-118zM250 755h100l110 -144l-44 -30l-117 119l-117 -119l-42 30zM300 -12q-108 0 -171 73t-63 197t63 197t171 73t171 -73t63 -197t-63 -197t-171 -73zM300 57q69 0 109 41.5t40 122.5v74
q0 81 -40 122.5t-109 41.5t-109 -41.5t-40 -122.5v-74q0 -81 40 -122.5t109 -41.5z" />
    <glyph glyph-name="uni1ED6" unicode="&#x1ed6;" 
d="M228 1062q30 0 80 -26q45 -24 70 -24q26 0 58 27l31 -36q-35 -53 -95 -53q-30 0 -80 26q-45 24 -70 24q-26 0 -58 -27l-31 36q35 53 95 53zM250 915h100l110 -134l-44 -30l-117 111l-117 -111l-42 30zM300 -12q-244 0 -244 361t244 361t244 -361t-244 -361zM300 61
q155 0 155 231v114q0 231 -155 231t-155 -231v-114q0 -231 155 -231z" />
    <glyph glyph-name="uni1ED7" unicode="&#x1ed7;" 
d="M228 892q30 0 80 -26q45 -24 70 -24q26 0 58 27l31 -36q-35 -53 -95 -53q-30 0 -80 26q-45 24 -70 24q-26 0 -58 -27l-31 36q35 53 95 53zM250 745h100l110 -134l-44 -30l-117 111l-117 -111l-42 30zM300 -12q-108 0 -171 73t-63 197t63 197t171 73t171 -73t63 -197
t-63 -197t-171 -73zM300 57q69 0 109 41.5t40 122.5v74q0 81 -40 122.5t-109 41.5t-109 -41.5t-40 -122.5v-74q0 -81 40 -122.5t109 -41.5z" />
    <glyph glyph-name="uni1ED8" unicode="&#x1ed8;" 
d="M300 -172q-57 0 -57 46v14q0 46 57 46t57 -46v-14q0 -46 -57 -46zM250 935h100l111 -143l-45 -31l-117 117l-117 -117l-43 31zM300 -12q-244 0 -244 361t244 361t244 -361t-244 -361zM300 61q155 0 155 231v114q0 231 -155 231t-155 -231v-114q0 -231 155 -231z" />
    <glyph glyph-name="uni1ED9" unicode="&#x1ed9;" 
d="M300 -172q-57 0 -57 46v14q0 46 57 46t57 -46v-14q0 -46 -57 -46zM250 765h100l111 -143l-45 -31l-117 117l-117 -117l-43 31zM300 -12q-108 0 -171 73t-63 197t63 197t171 73t171 -73t63 -197t-63 -197t-171 -73zM300 57q69 0 109 41.5t40 122.5v74q0 81 -40 122.5
t-109 41.5t-109 -41.5t-40 -122.5v-74q0 -81 40 -122.5t109 -41.5z" />
    <glyph glyph-name="uni1EDA" unicode="&#x1eda;" 
d="M413 914l-106 -159l-52 24l85 170zM549 810v-100q0 -63 -63 -63h-28q86 -82 86 -298q0 -361 -244 -361t-244 361t244 361q44 0 80 -12h98v112h71zM300 61q155 0 155 231v114q0 231 -155 231t-155 -231v-114q0 -231 155 -231z" />
    <glyph glyph-name="uni1EDB" unicode="&#x1edb;" 
d="M413 744l-106 -159l-52 24l85 170zM469 628h71v-100q0 -61 -63 -61h-22q79 -73 79 -209q0 -124 -63 -197t-171 -73t-171 73t-63 197t63 197t171 73q43 0 79 -12h90v112zM300 57q69 0 109 41.5t40 122.5v74q0 81 -40 122.5t-109 41.5t-109 -41.5t-40 -122.5v-74
q0 -81 40 -122.5t109 -41.5z" />
    <glyph glyph-name="uni1EDC" unicode="&#x1edc;" 
d="M293 755l-106 159l73 35l85 -170zM549 810v-100q0 -63 -63 -63h-28q86 -82 86 -298q0 -361 -244 -361t-244 361t244 361q44 0 80 -12h98v112h71zM300 61q155 0 155 231v114q0 231 -155 231t-155 -231v-114q0 -231 155 -231z" />
    <glyph glyph-name="uni1EDD" unicode="&#x1edd;" 
d="M293 585l-106 159l73 35l85 -170zM469 628h71v-100q0 -61 -63 -61h-22q79 -73 79 -209q0 -124 -63 -197t-171 -73t-171 73t-63 197t63 197t171 73q43 0 79 -12h90v112zM300 57q69 0 109 41.5t40 122.5v74q0 81 -40 122.5t-109 41.5t-109 -41.5t-40 -122.5v-74
q0 -81 40 -122.5t109 -41.5z" />
    <glyph glyph-name="uni1EDE" unicode="&#x1ede;" 
d="M216 874v61h109q70 0 70 -55q0 -41 -49 -103l-24 -30l-46 23l58 104h-118zM549 810v-100q0 -63 -63 -63h-28q86 -82 86 -298q0 -361 -244 -361t-244 361t244 361q44 0 80 -12h98v112h71zM300 61q155 0 155 231v114q0 231 -155 231t-155 -231v-114q0 -231 155 -231z" />
    <glyph glyph-name="uni1EDF" unicode="&#x1edf;" 
d="M216 704v61h109q70 0 70 -55q0 -41 -49 -103l-24 -30l-46 23l58 104h-118zM469 628h71v-100q0 -61 -63 -61h-22q79 -73 79 -209q0 -124 -63 -197t-171 -73t-171 73t-63 197t63 197t171 73q43 0 79 -12h90v112zM300 57q69 0 109 41.5t40 122.5v74q0 81 -40 122.5
t-109 41.5t-109 -41.5t-40 -122.5v-74q0 -81 40 -122.5t109 -41.5z" />
    <glyph glyph-name="uni1EE0" unicode="&#x1ee0;" 
d="M363 786q-26 0 -70 22q-38 20 -57 20q-27 0 -57 -27l-33 40q35 53 91 53q26 0 70 -22q38 -20 57 -20q27 0 57 27l33 -40q-35 -53 -91 -53zM549 810v-100q0 -63 -63 -63h-28q86 -82 86 -298q0 -361 -244 -361t-244 361t244 361q44 0 80 -12h98v112h71zM300 61
q155 0 155 231v114q0 231 -155 231t-155 -231v-114q0 -231 155 -231z" />
    <glyph glyph-name="uni1EE1" unicode="&#x1ee1;" 
d="M363 616q-26 0 -70 22q-38 20 -57 20q-27 0 -57 -27l-33 40q35 53 91 53q26 0 70 -22q38 -20 57 -20q27 0 57 27l33 -40q-35 -53 -91 -53zM469 628h71v-100q0 -61 -63 -61h-22q79 -73 79 -209q0 -124 -63 -197t-171 -73t-171 73t-63 197t63 197t171 73q43 0 79 -12h90
v112zM300 57q69 0 109 41.5t40 122.5v74q0 81 -40 122.5t-109 41.5t-109 -41.5t-40 -122.5v-74q0 -81 40 -122.5t109 -41.5z" />
    <glyph glyph-name="uni1EE2" unicode="&#x1ee2;" 
d="M300 -172q-57 0 -57 46v14q0 46 57 46t57 -46v-14q0 -46 -57 -46zM549 810v-100q0 -63 -63 -63h-28q86 -82 86 -298q0 -361 -244 -361t-244 361t244 361q44 0 80 -12h98v112h71zM300 61q155 0 155 231v114q0 231 -155 231t-155 -231v-114q0 -231 155 -231z" />
    <glyph glyph-name="uni1EE3" unicode="&#x1ee3;" 
d="M300 -172q-57 0 -57 46v14q0 46 57 46t57 -46v-14q0 -46 -57 -46zM469 628h71v-100q0 -61 -63 -61h-22q79 -73 79 -209q0 -124 -63 -197t-171 -73t-171 73t-63 197t63 197t171 73q43 0 79 -12h90v112zM300 57q69 0 109 41.5t40 122.5v74q0 81 -40 122.5t-109 41.5
t-109 -41.5t-40 -122.5v-74q0 -81 40 -122.5t109 -41.5z" />
    <glyph glyph-name="uni1EE4" unicode="&#x1ee4;" 
d="M300 -172q-57 0 -57 46v14q0 46 57 46t57 -46v-14q0 -46 -57 -46zM80 698h84v-419q0 -49 1.5 -75.5t8.5 -58.5t21.5 -47.5t40.5 -26t64 -10.5t64 10.5t40.5 26t21.5 47.5t8.5 58.5t1.5 75.5v419h84v-399q0 -84 -8 -137t-30.5 -95t-67 -60.5t-114.5 -18.5t-114.5 18.5
t-67 60.5t-30.5 95t-8 137v399z" />
    <glyph glyph-name="uni1EE5" unicode="&#x1ee5;" 
d="M297 -172q-57 0 -57 46v14q0 46 57 46t57 -46v-14q0 -46 -57 -46zM422 0v84h-4q-41 -96 -147 -96q-82 0 -130.5 52t-48.5 145v331h80v-317q0 -140 122 -140q53 0 90.5 25.5t37.5 73.5v358h80v-516h-80z" />
    <glyph glyph-name="uni1EE6" unicode="&#x1ee6;" 
d="M216 874v61h109q70 0 70 -55q0 -41 -49 -103l-24 -30l-46 23l58 104h-118zM80 698h84v-419q0 -49 1.5 -75.5t8.5 -58.5t21.5 -47.5t40.5 -26t64 -10.5t64 10.5t40.5 26t21.5 47.5t8.5 58.5t1.5 75.5v419h84v-399q0 -84 -8 -137t-30.5 -95t-67 -60.5t-114.5 -18.5
t-114.5 18.5t-67 60.5t-30.5 95t-8 137v399z" />
    <glyph glyph-name="uni1EE7" unicode="&#x1ee7;" 
d="M213 704v61h109q70 0 70 -55q0 -41 -49 -103l-24 -30l-46 23l58 104h-118zM422 0v84h-4q-41 -96 -147 -96q-82 0 -130.5 52t-48.5 145v331h80v-317q0 -140 122 -140q53 0 90.5 25.5t37.5 73.5v358h80v-516h-80z" />
    <glyph glyph-name="uni1EE8" unicode="&#x1ee8;" 
d="M413 914l-106 -159l-52 24l85 170zM80 698h84v-419q0 -49 1.5 -75.5t8.5 -58.5t21.5 -47.5t40.5 -26t64 -10.5t64 10.5t40.5 26t21.5 47.5t8.5 58.5t1.5 75.5v419h93v112h71v-102q0 -63 -63 -63h-17v-346q0 -84 -8 -137t-30.5 -95t-67 -60.5t-114.5 -18.5t-114.5 18.5
t-67 60.5t-30.5 95t-8 137v399z" />
    <glyph glyph-name="uni1EE9" unicode="&#x1ee9;" 
d="M410 744l-106 -159l-52 24l85 170zM587 628v-102q0 -63 -63 -63h-22v-463h-80v84h-4q-41 -96 -147 -96q-82 0 -130.5 52t-48.5 145v331h80v-317q0 -140 122 -140q53 0 90.5 25.5t37.5 73.5v358h94v112h71z" />
    <glyph glyph-name="uni1EEA" unicode="&#x1eea;" 
d="M293 755l-106 159l73 35l85 -170zM80 698h84v-419q0 -49 1.5 -75.5t8.5 -58.5t21.5 -47.5t40.5 -26t64 -10.5t64 10.5t40.5 26t21.5 47.5t8.5 58.5t1.5 75.5v419h93v112h71v-102q0 -63 -63 -63h-17v-346q0 -84 -8 -137t-30.5 -95t-67 -60.5t-114.5 -18.5t-114.5 18.5
t-67 60.5t-30.5 95t-8 137v399z" />
    <glyph glyph-name="uni1EEB" unicode="&#x1eeb;" 
d="M290 585l-106 159l73 35l85 -170zM587 628v-102q0 -63 -63 -63h-22v-463h-80v84h-4q-41 -96 -147 -96q-82 0 -130.5 52t-48.5 145v331h80v-317q0 -140 122 -140q53 0 90.5 25.5t37.5 73.5v358h94v112h71z" />
    <glyph glyph-name="uni1EEC" unicode="&#x1eec;" 
d="M216 874v61h109q70 0 70 -55q0 -41 -49 -103l-24 -30l-46 23l58 104h-118zM80 698h84v-419q0 -49 1.5 -75.5t8.5 -58.5t21.5 -47.5t40.5 -26t64 -10.5t64 10.5t40.5 26t21.5 47.5t8.5 58.5t1.5 75.5v419h93v112h71v-102q0 -63 -63 -63h-17v-346q0 -84 -8 -137t-30.5 -95
t-67 -60.5t-114.5 -18.5t-114.5 18.5t-67 60.5t-30.5 95t-8 137v399z" />
    <glyph glyph-name="uni1EED" unicode="&#x1eed;" 
d="M213 704v61h109q70 0 70 -55q0 -41 -49 -103l-24 -30l-46 23l58 104h-118zM587 628v-102q0 -63 -63 -63h-22v-463h-80v84h-4q-41 -96 -147 -96q-82 0 -130.5 52t-48.5 145v331h80v-317q0 -140 122 -140q53 0 90.5 25.5t37.5 73.5v358h94v112h71z" />
    <glyph glyph-name="uni1EEE" unicode="&#x1eee;" 
d="M363 786q-26 0 -70 22q-38 20 -57 20q-27 0 -57 -27l-33 40q35 53 91 53q26 0 70 -22q38 -20 57 -20q27 0 57 27l33 -40q-35 -53 -91 -53zM80 698h84v-419q0 -49 1.5 -75.5t8.5 -58.5t21.5 -47.5t40.5 -26t64 -10.5t64 10.5t40.5 26t21.5 47.5t8.5 58.5t1.5 75.5v419h93
v112h71v-102q0 -63 -63 -63h-17v-346q0 -84 -8 -137t-30.5 -95t-67 -60.5t-114.5 -18.5t-114.5 18.5t-67 60.5t-30.5 95t-8 137v399z" />
    <glyph glyph-name="uni1EEF" unicode="&#x1eef;" 
d="M360 616q-26 0 -70 22q-38 20 -57 20q-27 0 -57 -27l-33 40q35 53 91 53q26 0 70 -22q38 -20 57 -20q27 0 57 27l33 -40q-35 -53 -91 -53zM587 628v-102q0 -63 -63 -63h-22v-463h-80v84h-4q-41 -96 -147 -96q-82 0 -130.5 52t-48.5 145v331h80v-317q0 -140 122 -140
q53 0 90.5 25.5t37.5 73.5v358h94v112h71z" />
    <glyph glyph-name="uni1EF0" unicode="&#x1ef0;" 
d="M300 -172q-57 0 -57 46v14q0 46 57 46t57 -46v-14q0 -46 -57 -46zM80 698h84v-419q0 -49 1.5 -75.5t8.5 -58.5t21.5 -47.5t40.5 -26t64 -10.5t64 10.5t40.5 26t21.5 47.5t8.5 58.5t1.5 75.5v419h93v112h71v-102q0 -63 -63 -63h-17v-346q0 -84 -8 -137t-30.5 -95
t-67 -60.5t-114.5 -18.5t-114.5 18.5t-67 60.5t-30.5 95t-8 137v399z" />
    <glyph glyph-name="uni1EF1" unicode="&#x1ef1;" 
d="M297 -172q-57 0 -57 46v14q0 46 57 46t57 -46v-14q0 -46 -57 -46zM587 628v-102q0 -63 -63 -63h-22v-463h-80v84h-4q-41 -96 -147 -96q-82 0 -130.5 52t-48.5 145v331h80v-317q0 -140 122 -140q53 0 90.5 25.5t37.5 73.5v358h94v112h71z" />
    <glyph glyph-name="Ygrave" unicode="&#x1ef2;" 
d="M293 755l-106 159l73 35l85 -170zM342 0h-84v274l-241 424h96l100 -182l85 -159h4l87 159l100 182h94l-241 -424v-274z" />
    <glyph glyph-name="ygrave" unicode="&#x1ef3;" 
d="M293 585l-106 159l73 35l85 -170zM380 300l87 216h80l-256 -629q-19 -47 -47.5 -67t-84.5 -20h-76v68h120l58 142l-208 506h82l87 -216l77 -196h4z" />
    <glyph glyph-name="uni1EF4" unicode="&#x1ef4;" 
d="M300 -172q-57 0 -57 46v14q0 46 57 46t57 -46v-14q0 -46 -57 -46zM342 0h-84v274l-241 424h96l100 -182l85 -159h4l87 159l100 182h94l-241 -424v-274z" />
    <glyph glyph-name="uni1EF5" unicode="&#x1ef5;" 
d="M460 -172q-57 0 -57 46v14q0 46 57 46t57 -46v-14q0 -46 -57 -46zM380 300l87 216h80l-256 -629q-19 -47 -47.5 -67t-84.5 -20h-76v68h120l58 142l-208 506h82l87 -216l77 -196h4z" />
    <glyph glyph-name="uni1EF6" unicode="&#x1ef6;" 
d="M216 874v61h109q70 0 70 -55q0 -41 -49 -103l-24 -30l-46 23l58 104h-118zM342 0h-84v274l-241 424h96l100 -182l85 -159h4l87 159l100 182h94l-241 -424v-274z" />
    <glyph glyph-name="uni1EF7" unicode="&#x1ef7;" 
d="M216 704v61h109q70 0 70 -55q0 -41 -49 -103l-24 -30l-46 23l58 104h-118zM380 300l87 216h80l-256 -629q-19 -47 -47.5 -67t-84.5 -20h-76v68h120l58 142l-208 506h82l87 -216l77 -196h4z" />
    <glyph glyph-name="uni1EF8" unicode="&#x1ef8;" 
d="M373 782q-30 0 -80 26q-45 24 -70 24q-26 0 -58 -27l-33 40q35 53 95 53q30 0 80 -26q45 -24 70 -24q26 0 58 27l33 -40q-35 -53 -95 -53zM342 0h-84v274l-241 424h96l100 -182l85 -159h4l87 159l100 182h94l-241 -424v-274z" />
    <glyph glyph-name="uni1EF9" unicode="&#x1ef9;" 
d="M373 612q-30 0 -80 26q-45 24 -70 24q-26 0 -58 -27l-33 40q35 53 95 53q30 0 80 -26q45 -24 70 -24q26 0 58 27l33 -40q-35 -53 -95 -53zM380 300l87 216h80l-256 -629q-19 -47 -47.5 -67t-84.5 -20h-76v68h120l58 142l-208 506h82l87 -216l77 -196h4z" />
    <glyph glyph-name="endash" unicode="&#x2013;" 
d="M540 267h-480v74h480v-74z" />
    <glyph glyph-name="emdash" unicode="&#x2014;" 
d="M600 267h-600v74h600v-74z" />
    <glyph glyph-name="quoteleft" unicode="&#x2018;" 
d="M195 463l115 277h67l-53 -277h-129z" />
    <glyph glyph-name="quoteright" unicode="&#x2019;" 
d="M223 463l53 277h129l-115 -277h-67z" />
    <glyph glyph-name="quotesinglbase" unicode="&#x201a;" 
d="M204 -141l53 277h129l-115 -277h-67z" />
    <glyph glyph-name="quotedblleft" unicode="&#x201c;" 
d="M321 463l115 277h67l-53 -277h-129zM81 463l115 277h67l-53 -277h-129z" />
    <glyph glyph-name="quotedblright" unicode="&#x201d;" 
d="M349 463l53 277h129l-115 -277h-67zM109 463l53 277h129l-115 -277h-67z" />
    <glyph glyph-name="quotedblbase" unicode="&#x201e;" 
d="M349 -141l53 277h129l-115 -277h-67zM109 -141l53 277h129l-115 -277h-67z" />
    <glyph glyph-name="dagger" unicode="&#x2020;" 
d="M335 -200h-70v652h-195v64h195v224h70v-224h195v-64h-195v-652z" />
    <glyph glyph-name="daggerdbl" unicode="&#x2021;" 
d="M335 -200h-70v224h-195v64h195v364h-195v64h195v224h70v-224h195v-64h-195v-364h195v-64h-195v-224z" />
    <glyph glyph-name="bullet" unicode="&#x2022;" 
d="M300 186q-63 0 -92.5 28t-29.5 76v28q0 48 29.5 76t92.5 28t92.5 -28t29.5 -76v-28q0 -48 -29.5 -76t-92.5 -28z" />
    <glyph glyph-name="ellipsis" unicode="&#x2026;" 
d="M107 -4q-63 0 -63 51v29q0 51 63 51t63 -51v-29q0 -51 -63 -51zM300 -4q-63 0 -63 51v29q0 51 63 51t63 -51v-29q0 -51 -63 -51zM493 -4q-63 0 -63 51v29q0 51 63 51t63 -51v-29q0 -51 -63 -51z" />
    <glyph glyph-name="perthousand" unicode="&#x2030;" 
d="M139 400q-66 0 -102.5 39.5t-36.5 115.5t36.5 115.5t102.5 39.5t102.5 -39.5t36.5 -115.5t-36.5 -115.5t-102.5 -39.5zM139 450q33 0 52 22t19 59v48q0 37 -19 59t-52 22t-52 -22t-19 -59v-48q0 -37 19 -59t52 -22zM81 278l-20 50l450 176l20 -50zM248 -12q-64 0 -100 40
t-36 115t36 115t100 40q67 0 106 -50h5q37 50 105 50q64 0 100 -40t36 -115t-36 -115t-100 -40q-68 0 -105 50h-6q-37 -50 -105 -50zM251 38q33 0 52 22t19 59v48q0 37 -19 59t-52 22t-52 -22t-19 -59v-48q0 -37 19 -59t52 -22zM461 38q33 0 52 22t19 59v48q0 37 -19 59
t-52 22t-52 -22t-19 -59v-48q0 -37 19 -59t52 -22z" />
    <glyph glyph-name="guilsinglleft" unicode="&#x2039;" 
d="M401 113l-25 -57l-206 174v80l206 174l25 -57l-148 -157z" />
    <glyph glyph-name="guilsinglright" unicode="&#x203a;" 
d="M224 56l-25 57l148 157l-148 157l25 57l206 -174v-80z" />
    <glyph glyph-name="fraction" unicode="&#x2044;" 
d="M350 398l160 300h72l-160 -300h-72zM18 0l160 300h72l-160 -300h-72z" />
    <glyph glyph-name="uni2070" unicode="&#x2070;" 
d="M300 323q-145 0 -145 191q0 190 145 190t145 -190q0 -191 -145 -191zM300 374q78 0 78 107v65q0 107 -78 107t-78 -107v-65q0 -107 78 -107zM300 484q-29 0 -29 24v11q0 24 29 24t29 -24v-11q0 -24 -29 -24z" />
    <glyph glyph-name="uni2074" unicode="&#x2074;" 
d="M396 329h-60v72h-189v52l164 245h85v-249h56v-48h-56v-72zM336 449v192h-4l-130 -192h134z" />
    <glyph glyph-name="uni2075" unicode="&#x2075;" 
d="M415 698v-50h-179l-11 -133h4q30 49 84 49q53 0 87.5 -31t34.5 -84q0 -56 -38.5 -91t-104.5 -35q-85 0 -132 66l45 34q34 -50 88 -50q37 0 56.5 18t19.5 50v5q0 32 -19.5 50t-56.5 18q-39 0 -68 -29l-52 7l14 206h228z" />
    <glyph glyph-name="uni2076" unicode="&#x2076;" 
d="M302 323q-66 0 -103.5 38.5t-37.5 105.5q0 73 43 134t101 97h84q-74 -49 -111.5 -90.5t-51.5 -97.5l4 -1q32 53 94 53q52 0 85.5 -31t33.5 -83q0 -56 -39 -90.5t-102 -34.5zM302 371q35 0 55.5 17.5t20.5 51.5v5q0 34 -20.5 51.5t-55.5 17.5t-55.5 -17.5t-20.5 -51.5v-5
q0 -34 20.5 -51.5t55.5 -17.5z" />
    <glyph glyph-name="uni2077" unicode="&#x2077;" 
d="M292 329h-67l148 319h-155v-68h-54v118h272v-52z" />
    <glyph glyph-name="uni2078" unicode="&#x2078;" 
d="M300 323q-68 0 -106 30t-38 77q0 35 21.5 58t58.5 32v4q-67 22 -67 85q0 43 35 69t96 26t96 -26t35 -69q0 -63 -67 -85v-4q80 -20 80 -90q0 -47 -38 -77t-106 -30zM300 543q69 0 69 52v9q0 52 -69 52t-69 -52v-9q0 -52 69 -52zM300 371q77 0 77 57v12q0 57 -77 57
t-77 -57v-12q0 -57 77 -57z" />
    <glyph glyph-name="uni2079" unicode="&#x2079;" 
d="M438 560q0 -73 -42.5 -134.5t-100.5 -96.5h-84q74 49 111.5 90.5t50.5 97.5l-4 1q-30 -54 -93 -54q-52 0 -85.5 31.5t-33.5 83.5q0 56 38.5 90.5t102.5 34.5q66 0 103 -38.5t37 -105.5zM297 512q35 0 55.5 17.5t20.5 51.5v6q0 34 -20.5 51.5t-55.5 17.5t-55.5 -17.5
t-20.5 -51.5v-6q0 -34 20.5 -51.5t55.5 -17.5z" />
    <glyph glyph-name="uni2080" unicode="&#x2080;" 
d="M300 -6q-145 0 -145 191q0 190 145 190t145 -190q0 -191 -145 -191zM300 45q78 0 78 107v65q0 107 -78 107t-78 -107v-65q0 -107 78 -107zM300 155q-29 0 -29 24v11q0 24 29 24t29 -24v-11q0 -24 -29 -24z" />
    <glyph glyph-name="uni2081" unicode="&#x2081;" 
d="M446 0h-270v50h109v265l-106 -55l-25 44l126 65h68v-319h98v-50z" />
    <glyph glyph-name="uni2082" unicode="&#x2082;" 
d="M438 50v-50h-272v57l130 105q62 51 62 98v6q0 26 -17 41.5t-48 15.5q-58 0 -78 -58l-54 20q31 90 136 90q60 0 94 -30t34 -79q0 -40 -24 -72.5t-71 -68.5l-97 -75h205z" />
    <glyph glyph-name="uni2083" unicode="&#x2083;" 
d="M242 217h40q37 0 56 14t19 38v4q0 25 -17.5 38.5t-47.5 13.5q-54 0 -83 -45l-43 34q43 61 128 61q58 0 94 -25.5t36 -69.5q0 -34 -22 -56t-56 -29v-3q37 -6 60.5 -29t23.5 -61q0 -49 -39 -78.5t-104 -29.5q-87 0 -136 66l47 34q33 -50 89 -50q37 0 57 16t20 45v6
q0 55 -77 55h-45v51z" />
    <glyph glyph-name="uni2084" unicode="&#x2084;" 
d="M396 0h-60v72h-189v52l164 245h85v-249h56v-48h-56v-72zM336 120v192h-4l-130 -192h134z" />
    <glyph glyph-name="uni2085" unicode="&#x2085;" 
d="M415 319h-179l-11 -133h4q30 49 84 49q53 0 87.5 -31t34.5 -84q0 -56 -38.5 -91t-104.5 -35q-85 0 -132 66l45 34q34 -50 88 -50q37 0 56.5 18t19.5 50v5q0 32 -19.5 50t-56.5 18q-39 0 -68 -29l-52 7l14 206h228v-50z" />
    <glyph glyph-name="uni2086" unicode="&#x2086;" 
d="M302 -6q-66 0 -103.5 38.5t-37.5 105.5q0 73 43 134t101 97h84q-74 -49 -111.5 -90.5t-51.5 -97.5l4 -1q32 53 94 53q52 0 85.5 -31t33.5 -83q0 -56 -39 -90.5t-102 -34.5zM302 42q35 0 55.5 17.5t20.5 51.5v5q0 34 -20.5 51.5t-55.5 17.5t-55.5 -17.5t-20.5 -51.5v-5
q0 -34 20.5 -51.5t55.5 -17.5z" />
    <glyph glyph-name="uni2087" unicode="&#x2087;" 
d="M292 0h-67l148 319h-155v-67h-54v117h272v-52z" />
    <glyph glyph-name="uni2088" unicode="&#x2088;" 
d="M300 -6q-68 0 -106 30t-38 77q0 35 21.5 58t58.5 32v4q-67 22 -67 85q0 43 35 69t96 26t96 -26t35 -69q0 -63 -67 -85v-4q80 -20 80 -90q0 -47 -38 -77t-106 -30zM300 42q77 0 77 57v12q0 57 -77 57t-77 -57v-12q0 -57 77 -57zM300 214q69 0 69 52v9q0 52 -69 52t-69 -52
v-9q0 -52 69 -52z" />
    <glyph glyph-name="uni2089" unicode="&#x2089;" 
d="M438 231q0 -73 -42.5 -134.5t-100.5 -96.5h-84q74 49 111.5 90.5t50.5 97.5l-4 1q-30 -54 -93 -54q-52 0 -85.5 31.5t-33.5 83.5q0 56 38.5 90.5t102.5 34.5q66 0 103 -38.5t37 -105.5zM297 183q35 0 55.5 17.5t20.5 51.5v6q0 34 -20.5 51.5t-55.5 17.5t-55.5 -17.5
t-20.5 -51.5v-6q0 -34 20.5 -51.5t55.5 -17.5z" />
    <glyph glyph-name="uni20A1" unicode="&#x20a1;" 
d="M285 -113l11 102q-32 3 -57 12l-12 -114h-62l15 145q-110 83 -110 317q0 303 180 352l12 110h62l-11 -101h10q29 0 48 -4l11 105h62l-13 -125q66 -35 107 -129l-68 -30q-21 53 -49 79l-58 -545q41 10 65 38t42 73l68 -31q-28 -63 -69 -102.5t-111 -48.5l-11 -103h-62z
M323 641q-13 0 -19 -1l-59 -564q25 -15 60 -18l61 578q-22 5 -43 5zM153 292q0 -104 39 -166l52 496q-91 -51 -91 -216v-114z" />
    <glyph glyph-name="uni20A4" unicode="&#x20a4;" 
d="M538 80v-80h-463v105q67 27 77 104h-100v65h99q-5 35 -21 82h-78v65h57q-11 44 -11 78q0 94 63.5 152.5t170.5 58.5q144 0 218 -114l-63 -45q-59 86 -160 86q-143 0 -143 -143q0 -32 9 -73h222v-65h-202q18 -54 21 -82h181v-65h-182q-15 -82 -79 -124v-5h384z" />
    <glyph glyph-name="uni20A6" unicode="&#x20a6;" 
d="M508 389v-80h65v-65h-65v-244h-125l-85 248h-136v-248h-70v244h-65v65h65v80h-65v65h65v244h125l85 -248h136v248h70v-244h65v-65h-65zM162 304h116l-109 318h-7v-318zM322 394l109 -318h7v318h-116z" />
    <glyph glyph-name="uni20A8" unicode="&#x20a8;" 
d="M129 0h-80v698h129q172 0 172 -187q0 -141 -100 -173l88 -208q17 -40 40 -57.5t60 -17.5q76 0 76 66q0 8 -1 14.5t-4 13.5t-5 11t-8.5 11t-9.5 10.5t-12.5 12.5t-13.5 13l-19 19q-37 37 -55.5 67t-18.5 68q0 50 32.5 82.5t89.5 32.5q54 0 96 -32l-32 -54q-29 22 -60 22
q-51 0 -51 -51q0 -21 11 -37.5t43 -48.5l15 -15q48 -48 61 -70q17 -30 17 -69q0 -62 -40 -97.5t-118 -35.5q-122 0 -165 105l-93 229h-44v-322zM129 392h42q97 0 97 94v46q0 94 -97 94h-42v-234z" />
    <glyph glyph-name="uni20A9" unicode="&#x20a9;" 
d="M516 399l-3 -86h61v-65h-63l-8 -248h-130l-65 404h-16l-65 -404h-130l-8 248h-63v65h61l-3 86h-58v65h56l-7 234h75l3 -239h296l3 239h73l-7 -234h56v-65h-58zM160 74h17l54 330h-77zM425 74h17l6 330h-77z" />
    <glyph glyph-name="uni20AA" unicode="&#x20aa;" 
d="M196 0v551h76v-487h84q47 0 79.5 28.5t32.5 89.5v516h77v-500q0 -97 -51.5 -147.5t-137.5 -50.5h-160zM136 0h-77v698h162q85 0 136 -50.5t51 -147.5v-353h-76v369q0 61 -32 89.5t-79 28.5h-85v-634z" />
    <glyph glyph-name="uni20AB" unicode="&#x20ab;" 
d="M411 139v69h-4q-45 -78 -143 -78q-85 0 -133 56t-48 159t48 159.5t133 56.5q98 0 143 -78h4v136h-153v61h153v60h76v-60h69v-61h-69v-480h-76zM294 194q49 0 83 25.5t34 66.5v119q0 40 -34.5 66t-82.5 26q-61 0 -95.5 -31.5t-34.5 -85.5v-69q0 -54 34.5 -85.5t95.5 -31.5
zM518 0h-436v68h436v-68z" />
    <glyph glyph-name="Euro" unicode="&#x20ac;" 
d="M323 -12q-126 0 -189.5 92.5t-63.5 268.5t63.5 268.5t189.5 92.5q87 0 135.5 -41.5t79.5 -111.5l-70 -32q-22 55 -54 84.5t-91 29.5q-70 0 -111 -46t-52 -129h228v-69h-231v-92h231v-69h-228q11 -83 52 -129t111 -46q59 0 91 29.5t54 84.5l70 -32q-31 -70 -79.5 -111.5
t-135.5 -41.5z" />
    <glyph glyph-name="uni20AD" unicode="&#x20ad;" 
d="M184 327v-327h-84v327h-72v69h72v302h84v-302h54l213 302h95l-216 -302h216v-69h-209l225 -327h-102l-220 327h-56z" />
    <glyph glyph-name="uni20AE" unicode="&#x20ae;" 
d="M483 282l-140 -65v-217h-85v177l-140 -65v69l140 65v91l-140 -65v69l140 65v219h-232v73h549v-73h-232v-179l140 65v-69l-140 -65v-91l140 65v-69z" />
    <glyph glyph-name="uni20B1" unicode="&#x20b1;" 
d="M165 194v-194h-82v341h-55v65h55v80h-55v65h55v147h241q148 0 183 -147h67v-65h-57q1 -13 1 -40t-1 -40h57v-65h-67q-35 -147 -183 -147h-159zM165 629v-80h267q-19 80 -110 80h-157zM165 404h271v84h-271v-84zM165 263h157q91 0 110 80h-267v-80z" />
    <glyph glyph-name="uni20B2" unicode="&#x20b2;" 
d="M189 -113l21 118q-154 65 -154 344q0 176 63.5 268.5t188.5 92.5q18 0 26 -1l18 102h63l-20 -115q80 -30 129 -139l-68 -30q-31 75 -75 98l-49 -280h190v-101q0 -117 -55 -186.5t-163 -69.5q-12 0 -34 2l-18 -103h-63zM223 78l100 562q-4 1 -14 1q-84 0 -127 -62.5
t-43 -172.5v-114q0 -159 84 -214zM305 55q67 0 104 46t37 127v52h-126l-39 -223q14 -2 24 -2z" />
    <glyph glyph-name="uni20B4" unicode="&#x20b4;" 
d="M304 -12q-92 0 -147 51.5t-55 132.5q0 42 19 82h-94v65h145l144 87v3h-289v65h367q15 24 15 57q0 53 -31 81t-87 28q-83 0 -140 -65l-53 49q80 86 200 86q86 0 139 -46.5t53 -123.5q0 -36 -14 -66h97v-65h-148l-144 -87v-3h292v-65h-367q-23 -31 -23 -74q0 -58 33.5 -90
t92.5 -32q85 0 160 78l51 -51q-83 -97 -216 -97z" />
    <glyph glyph-name="uni20B5" unicode="&#x20b5;" 
d="M194 -113l22 123q-146 67 -146 339q0 176 63.5 268.5t189.5 92.5h16l18 101h63l-20 -112q88 -29 138 -142l-68 -30q-33 80 -83 102l-101 -568q16 -4 37 -4q60 0 92.5 30t54.5 85l68 -31q-31 -70 -79.5 -111.5t-135.5 -41.5q-27 0 -47 4l-19 -105h-63zM230 85l98 556
q-88 0 -131.5 -62t-43.5 -173v-114q0 -151 77 -207z" />
    <glyph glyph-name="uni20B8" unicode="&#x20b8;" 
d="M555 629h-510v69h510v-69zM555 470h-213v-470h-84v470h-213v69h510v-69z" />
    <glyph glyph-name="uni20B9" unicode="&#x20b9;" 
d="M506 0h-103l-222 291h-125v69h172q57 0 90.5 28t33.5 82h-296v69h293q-4 42 -37.5 66t-83.5 24h-172v69h498v-69h-191v-5q49 -23 65 -85h126v-69h-120q-5 -67 -45.5 -114t-109.5 -60z" />
    <glyph glyph-name="uni20BA" unicode="&#x20ba;" 
d="M155 0v247l-99 -46v69l99 46v91l-99 -46v69l99 46v222h84v-183l182 85v-69l-182 -85v-91l182 85v-69l-182 -85v-213h52q84 0 132.5 62.5t48.5 169.5h82q0 -134 -67 -219.5t-191 -85.5h-141z" />
    <glyph glyph-name="uni20BD" unicode="&#x20bd;" 
d="M439 134h-227v-134h-84v134h-83v69h83v91h-83v69h83v335h228q96 0 147.5 -54t51.5 -150t-52 -148t-148 -52h-143v-91h227v-69zM212 625v-262h144q53 0 82.5 26t29.5 74v62q0 48 -29.5 74t-82.5 26h-144z" />
    <glyph glyph-name="uni20BF" unicode="&#x20bf;" 
d="M319 -113v113h-69v-113h-62v113h-100v698h100v113h62v-113h69v113h62v-119q64 -14 100 -60t36 -114q0 -114 -109 -150v-3q135 -32 135 -164q0 -78 -45.5 -133.5t-116.5 -65.5v-115h-62zM172 626v-231h145q112 0 112 95v39q0 47 -29.5 72t-82.5 25h-145zM172 326v-254h159
q59 0 91 27t32 80v41q0 52 -32 79t-91 27h-159z" />
    <glyph glyph-name="uni2113" unicode="&#x2113;" 
d="M321 -12q-78 0 -120 46.5t-42 124.5v24q-25 -18 -56 -37l-33 54q66 41 89 59v296q0 197 148 197q68 0 104.5 -43t36.5 -124q0 -96 -52 -182t-158 -180v-45q0 -123 87 -123q41 0 68.5 25.5t58.5 81.5l58 -35q-56 -139 -189 -139zM308 685q-70 0 -70 -123v-253
q135 138 135 266v17q0 93 -65 93z" />
    <glyph glyph-name="uni2116" unicode="&#x2116;" 
d="M481 345q-108 0 -108 181q0 180 108 180t108 -180q0 -181 -108 -181zM111 0h-68v698h127l51 -349l38 -259h6v608h68v-698h-127l-51 349l-38 259h-6v-608zM481 399q26 0 36 21.5t10 67.5v75q0 46 -10 67.5t-36 21.5q-27 0 -36.5 -21.5t-9.5 -67.5v-75q0 -46 9.5 -67.5
t36.5 -21.5zM585 256h-208v57h208v-57z" />
    <glyph glyph-name="trademark" unicode="&#x2122;" 
d="M154 419h-52v233h-86v46h224v-46h-86v-233zM330 419h-48v279h65l65 -134h3l65 134h62v-279h-48v127l1 83h-4l-79 -156l-79 156h-4l1 -83v-127z" />
    <glyph glyph-name="Omega" unicode="&#x2126;" 
d="M54 0v68h137v10q-127 74 -127 315q0 317 236 317t236 -317q0 -241 -127 -315v-10h137v-68h-208v104q48 17 78.5 83t30.5 144v107q0 200 -147 200t-147 -200v-107q0 -78 30.5 -144t78.5 -83v-104h-208z" />
    <glyph glyph-name="uni212E" unicode="&#x212e;" 
d="M145 349v-240q60 -75 155 -75q131 0 205 136l41 -23q-86 -159 -246 -159q-123 0 -198.5 102t-75.5 259t75.5 259t198.5 102t198.5 -102t75.5 -259h-429zM145 389h310v205q-60 72 -155 72t-155 -72v-205z" />
    <glyph glyph-name="uni2150" unicode="&#x2150;" 
d="M383 0l129 283h-129v-64h-55v116h245v-54l-126 -281h-64zM350 398l160 300h72l-160 -300h-72zM18 0l160 300h72l-160 -300h-72zM39 363v50h94v230l-89 -45l-24 44l108 56h68v-285h83v-50h-240z" />
    <glyph glyph-name="uni2151" unicode="&#x2151;" 
d="M365 0q70 49 106 86.5t47 84.5l-6 1q-27 -52 -87 -52q-46 0 -75 28.5t-29 75.5q0 52 35 84.5t93 32.5q60 0 94 -36t34 -96q0 -66 -37 -121t-88 -88h-87zM449 166q29 0 47 15.5t18 42.5v11q0 27 -18 42.5t-47 15.5t-47 -15.5t-18 -42.5v-11q0 -27 18 -42.5t47 -15.5z
M350 398l160 300h72l-160 -300h-72zM18 0l160 300h72l-160 -300h-72zM39 363v50h94v230l-89 -45l-24 44l108 56h68v-285h83v-50h-240z" />
    <glyph glyph-name="uni2153" unicode="&#x2153;" 
d="M443 -6q-86 0 -126 71l47 33q28 -53 79 -53q29 0 45.5 13.5t16.5 36.5v7q0 46 -69 46h-35v50h35q30 0 46.5 11.5t16.5 29.5v7q0 20 -15 32t-41 12q-47 0 -72 -41l-42 34q40 58 116 58q53 0 85.5 -23.5t32.5 -63.5q0 -31 -20 -51t-50 -26v-4q34 -6 55 -26t21 -54
q0 -45 -35 -72t-91 -27zM350 398l160 300h72l-160 -300h-72zM18 0l160 300h72l-160 -300h-72zM39 363v50h94v230l-89 -45l-24 44l108 56h68v-285h83v-50h-240z" />
    <glyph glyph-name="uni2154" unicode="&#x2154;" 
d="M443 -6q-86 0 -126 71l47 33q28 -53 79 -53q29 0 45.5 13.5t16.5 36.5v7q0 46 -69 46h-35v50h35q30 0 46.5 11.5t16.5 29.5v7q0 20 -15 32t-41 12q-47 0 -72 -41l-42 34q40 58 116 58q53 0 85.5 -23.5t32.5 -63.5q0 -31 -20 -51t-50 -26v-4q34 -6 55 -26t21 -54
q0 -45 -35 -72t-91 -27zM350 398l160 300h72l-160 -300h-72zM18 0l160 300h72l-160 -300h-72zM29 363v58l113 90q54 43 54 90v5q0 20 -14 33t-39 13q-46 0 -67 -55l-53 22q28 85 125 85q54 0 84 -27.5t30 -69.5q0 -65 -90 -135l-77 -59h180v-50h-246z" />
    <glyph glyph-name="uni2155" unicode="&#x2155;" 
d="M448 -6q-84 0 -120 69l45 34q30 -52 75 -52q30 0 48 17t18 44v3q0 25 -18 40.5t-46 15.5q-34 0 -59 -27l-53 8l13 189h208v-51h-160l-9 -117h5q12 24 29 36t46 12q47 0 77.5 -28t30.5 -76q0 -51 -35 -84t-95 -33zM350 398l160 300h72l-160 -300h-72zM18 0l160 300h72
l-160 -300h-72zM39 363v50h94v230l-89 -45l-24 44l108 56h68v-285h83v-50h-240z" />
    <glyph glyph-name="uni2156" unicode="&#x2156;" 
d="M448 -6q-84 0 -120 69l45 34q30 -52 75 -52q30 0 48 17t18 44v3q0 25 -18 40.5t-46 15.5q-34 0 -59 -27l-53 8l13 189h208v-51h-160l-9 -117h5q12 24 29 36t46 12q47 0 77.5 -28t30.5 -76q0 -51 -35 -84t-95 -33zM350 398l160 300h72l-160 -300h-72zM18 0l160 300h72
l-160 -300h-72zM29 363v58l113 90q54 43 54 90v5q0 20 -14 33t-39 13q-46 0 -67 -55l-53 22q28 85 125 85q54 0 84 -27.5t30 -69.5q0 -65 -90 -135l-77 -59h180v-50h-246z" />
    <glyph glyph-name="uni2157" unicode="&#x2157;" 
d="M448 -6q-84 0 -120 69l45 34q30 -52 75 -52q30 0 48 17t18 44v3q0 25 -18 40.5t-46 15.5q-34 0 -59 -27l-53 8l13 189h208v-51h-160l-9 -117h5q12 24 29 36t46 12q47 0 77.5 -28t30.5 -76q0 -51 -35 -84t-95 -33zM350 398l160 300h72l-160 -300h-72zM18 0l160 300h72
l-160 -300h-72zM143 357q-86 0 -126 71l47 33q28 -53 79 -53q29 0 45.5 13.5t16.5 36.5v7q0 46 -69 46h-35v50h35q30 0 46.5 11.5t16.5 29.5v7q0 20 -15 32t-41 12q-47 0 -72 -41l-42 34q40 58 116 58q53 0 85.5 -23.5t32.5 -63.5q0 -31 -20 -51t-50 -26v-4q34 -6 55 -26
t21 -54q0 -45 -35 -72t-91 -27z" />
    <glyph glyph-name="uni2158" unicode="&#x2158;" 
d="M448 -6q-84 0 -120 69l45 34q30 -52 75 -52q30 0 48 17t18 44v3q0 25 -18 40.5t-46 15.5q-34 0 -59 -27l-53 8l13 189h208v-51h-160l-9 -117h5q12 24 29 36t46 12q47 0 77.5 -28t30.5 -76q0 -51 -35 -84t-95 -33zM350 398l160 300h72l-160 -300h-72zM18 0l160 300h72
l-160 -300h-72zM177 363v64h-163v59l142 212h82v-223h47v-48h-47v-64h-61zM60 475h117v170h-3z" />
    <glyph glyph-name="uni2159" unicode="&#x2159;" 
d="M451 -6q-60 0 -94 36t-34 96q0 66 37 121t88 88h87q-70 -49 -106 -86.5t-47 -84.5l6 -1q27 52 87 52q46 0 75 -28.5t29 -75.5q0 -52 -35 -84.5t-93 -32.5zM451 42q29 0 47 15.5t18 42.5v11q0 27 -18 42.5t-47 15.5t-47 -15.5t-18 -42.5v-11q0 -27 18 -42.5t47 -15.5z
M350 398l160 300h72l-160 -300h-72zM18 0l160 300h72l-160 -300h-72zM39 363v50h94v230l-89 -45l-24 44l108 56h68v-285h83v-50h-240z" />
    <glyph glyph-name="uni215A" unicode="&#x215a;" 
d="M451 -6q-60 0 -94 36t-34 96q0 66 37 121t88 88h87q-70 -49 -106 -86.5t-47 -84.5l6 -1q27 52 87 52q46 0 75 -28.5t29 -75.5q0 -52 -35 -84.5t-93 -32.5zM451 42q29 0 47 15.5t18 42.5v11q0 27 -18 42.5t-47 15.5t-47 -15.5t-18 -42.5v-11q0 -27 18 -42.5t47 -15.5z
M350 398l160 300h72l-160 -300h-72zM18 0l160 300h72l-160 -300h-72zM148 357q-84 0 -120 69l45 34q30 -52 75 -52q30 0 48 17t18 44v3q0 25 -18 40.5t-46 15.5q-34 0 -59 -27l-53 8l13 189h208v-51h-160l-9 -117h5q12 24 29 36t46 12q47 0 77.5 -28t30.5 -76q0 -51 -35 -84
t-95 -33z" />
    <glyph glyph-name="uni215B" unicode="&#x215b;" 
d="M450 -6q-60 0 -93.5 27t-33.5 70q0 63 72 82v4q-64 21 -64 76q0 39 31.5 63.5t87.5 24.5t87.5 -24.5t31.5 -63.5q0 -55 -64 -76v-4q72 -19 72 -82q0 -43 -33.5 -70t-93.5 -27zM450 194q29 0 44.5 12.5t15.5 33.5v7q0 21 -15.5 33.5t-44.5 12.5t-44.5 -12.5t-15.5 -33.5
v-7q0 -21 15.5 -33.5t44.5 -12.5zM450 42q31 0 48 13.5t17 36.5v9q0 23 -17 36.5t-48 13.5t-48 -13.5t-17 -36.5v-9q0 -23 17 -36.5t48 -13.5zM350 398l160 300h72l-160 -300h-72zM18 0l160 300h72l-160 -300h-72zM39 363v50h94v230l-89 -45l-24 44l108 56h68v-285h83v-50
h-240z" />
    <glyph glyph-name="uni215C" unicode="&#x215c;" 
d="M450 -6q-60 0 -93.5 27t-33.5 70q0 63 72 82v4q-64 21 -64 76q0 39 31.5 63.5t87.5 24.5t87.5 -24.5t31.5 -63.5q0 -55 -64 -76v-4q72 -19 72 -82q0 -43 -33.5 -70t-93.5 -27zM450 194q29 0 44.5 12.5t15.5 33.5v7q0 21 -15.5 33.5t-44.5 12.5t-44.5 -12.5t-15.5 -33.5
v-7q0 -21 15.5 -33.5t44.5 -12.5zM450 42q31 0 48 13.5t17 36.5v9q0 23 -17 36.5t-48 13.5t-48 -13.5t-17 -36.5v-9q0 -23 17 -36.5t48 -13.5zM350 398l160 300h72l-160 -300h-72zM18 0l160 300h72l-160 -300h-72zM143 357q-86 0 -126 71l47 33q28 -53 79 -53
q29 0 45.5 13.5t16.5 36.5v7q0 46 -69 46h-35v50h35q30 0 46.5 11.5t16.5 29.5v7q0 20 -15 32t-41 12q-47 0 -72 -41l-42 34q40 58 116 58q53 0 85.5 -23.5t32.5 -63.5q0 -31 -20 -51t-50 -26v-4q34 -6 55 -26t21 -54q0 -45 -35 -72t-91 -27z" />
    <glyph glyph-name="uni215D" unicode="&#x215d;" 
d="M450 -6q-60 0 -93.5 27t-33.5 70q0 63 72 82v4q-64 21 -64 76q0 39 31.5 63.5t87.5 24.5t87.5 -24.5t31.5 -63.5q0 -55 -64 -76v-4q72 -19 72 -82q0 -43 -33.5 -70t-93.5 -27zM450 194q29 0 44.5 12.5t15.5 33.5v7q0 21 -15.5 33.5t-44.5 12.5t-44.5 -12.5t-15.5 -33.5
v-7q0 -21 15.5 -33.5t44.5 -12.5zM450 42q31 0 48 13.5t17 36.5v9q0 23 -17 36.5t-48 13.5t-48 -13.5t-17 -36.5v-9q0 -23 17 -36.5t48 -13.5zM350 398l160 300h72l-160 -300h-72zM18 0l160 300h72l-160 -300h-72zM148 357q-84 0 -120 69l45 34q30 -52 75 -52q30 0 48 17
t18 44v3q0 25 -18 40.5t-46 15.5q-34 0 -59 -27l-53 8l13 189h208v-51h-160l-9 -117h5q12 24 29 36t46 12q47 0 77.5 -28t30.5 -76q0 -51 -35 -84t-95 -33z" />
    <glyph glyph-name="uni215E" unicode="&#x215e;" 
d="M450 -6q-60 0 -93.5 27t-33.5 70q0 63 72 82v4q-64 21 -64 76q0 39 31.5 63.5t87.5 24.5t87.5 -24.5t31.5 -63.5q0 -55 -64 -76v-4q72 -19 72 -82q0 -43 -33.5 -70t-93.5 -27zM450 194q29 0 44.5 12.5t15.5 33.5v7q0 21 -15.5 33.5t-44.5 12.5t-44.5 -12.5t-15.5 -33.5
v-7q0 -21 15.5 -33.5t44.5 -12.5zM450 42q31 0 48 13.5t17 36.5v9q0 23 -17 36.5t-48 13.5t-48 -13.5t-17 -36.5v-9q0 -23 17 -36.5t48 -13.5zM350 398l160 300h72l-160 -300h-72zM18 0l160 300h72l-160 -300h-72zM83 363l129 283h-129v-64h-55v116h245v-54l-126 -281h-64z
" />
    <glyph glyph-name="uni2190" unicode="&#x2190;" 
d="M20 349l207 207l48 -48l-86 -86l-50 -42l1 -3l96 6h336v-68h-336l-96 6l-1 -3l50 -42l86 -86l-48 -48z" />
    <glyph glyph-name="uni2191" unicode="&#x2191;" 
d="M300 710l207 -207l-48 -49l-86 87l-42 50l-3 -1l6 -97v-493h-68v493l6 97l-3 1l-42 -50l-86 -87l-48 49z" />
    <glyph glyph-name="uni2192" unicode="&#x2192;" 
d="M581 349l-207 -207l-48 48l86 86l50 42l-1 3l-96 -6h-336v68h336l96 -6l1 3l-50 42l-86 86l48 48z" />
    <glyph glyph-name="uni2193" unicode="&#x2193;" 
d="M300 -12l-207 207l48 49l86 -87l42 -50l3 1l-6 97v493h68v-493l-6 -97l3 -1l42 50l86 87l48 -49z" />
    <glyph glyph-name="uni2194" unicode="&#x2194;" 
d="M0 349l207 207l49 -48l-87 -86l-50 -42l1 -3l97 6h166l97 -6l1 3l-50 42l-87 86l49 48l207 -207l-207 -207l-49 48l87 86l50 42l-1 3l-97 -6h-166l-97 6l-1 -3l50 -42l87 -86l-49 -48z" />
    <glyph glyph-name="uni2195" unicode="&#x2195;" 
d="M300 -12l-207 207l48 49l86 -87l42 -50l3 1l-6 97v288l6 97l-3 1l-42 -50l-86 -87l-48 49l207 207l207 -207l-48 -49l-86 87l-42 50l-3 -1l6 -97v-288l-6 -97l3 -1l42 50l86 87l48 -49z" />
    <glyph glyph-name="uni2196" unicode="&#x2196;" 
d="M59 614h293v-68h-122l-65 6l-1 -3l72 -64l336 -336l-48 -48l-336 336l-64 72l-3 -1l6 -65v-122h-68v293z" />
    <glyph glyph-name="uni2197" unicode="&#x2197;" 
d="M541 614v-293h-68v122l6 65l-3 1l-64 -72l-336 -336l-48 48l336 336l72 64l-1 3l-65 -6h-122v68h293z" />
    <glyph glyph-name="uni2198" unicode="&#x2198;" 
d="M541 101h-293v68h122l65 -6l1 3l-72 64l-336 336l48 48l336 -336l64 -72l3 1l-6 65v122h68v-293z" />
    <glyph glyph-name="uni2199" unicode="&#x2199;" 
d="M59 101v293h68v-122l-6 -65l3 -1l64 72l336 336l48 -48l-336 -336l-72 -64l1 -3l65 6h122v-68h-293z" />
    <glyph glyph-name="uni21A9" unicode="&#x21a9;" 
d="M20 284l207 207l49 -48l-87 -86l-50 -42l1 -3l97 6h137q56 0 94 29.5t38 88.5t-38 88.5t-94 29.5v68q88 0 147 -48.5t59 -137.5t-59 -137.5t-147 -48.5h-137l-97 6l-1 -3l50 -42l87 -86l-49 -48z" />
    <glyph glyph-name="uni21AA" unicode="&#x21aa;" 
d="M580 284l-207 -207l-49 48l87 86l50 42l-1 3l-97 -6h-137q-88 0 -147 48.5t-59 137.5t59 137.5t147 48.5v-68q-56 0 -94 -29.5t-38 -88.5t38 -88.5t94 -29.5h137l97 -6l1 3l-50 42l-87 86l49 48z" />
    <glyph glyph-name="uni21B0" unicode="&#x21b0;" 
d="M41 491l207 207l48 -48l-86 -86l-50 -42l1 -3l96 6h261v-525h-68v457h-193l-96 6l-1 -3l50 -42l86 -86l-48 -48z" />
    <glyph glyph-name="uni21B1" unicode="&#x21b1;" 
d="M559 491l-207 -207l-48 48l86 86l50 42l-1 3l-96 -6h-193v-457h-68v525h261l96 -6l1 3l-50 42l-86 86l48 48z" />
    <glyph glyph-name="uni21B2" unicode="&#x21b2;" 
d="M41 207l207 207l48 -48l-86 -86l-50 -42l1 -3l96 6h193v457h68v-525h-261l-96 6l-1 -3l50 -42l86 -86l-48 -48z" />
    <glyph glyph-name="uni21B3" unicode="&#x21b3;" 
d="M559 207l-207 -207l-48 48l86 86l50 42l-1 3l-96 -6h-261v525h68v-457h193l96 -6l1 3l-50 42l-86 86l48 48z" />
    <glyph glyph-name="uni21B6" unicode="&#x21b6;" 
d="M211 41l-207 207l48 49l86 -87l42 -50l3 1l-6 97v163q0 98 55 165.5t151 67.5q90 0 147 -58.5t57 -153.5v-11h-68v11q0 64 -39 105t-97 41q-69 0 -103.5 -48.5t-34.5 -119.5v-162l-6 -97l3 -1l42 50l86 87l48 -49z" />
    <glyph glyph-name="uni21B7" unicode="&#x21b7;" 
d="M390 41l-207 207l48 49l86 -87l42 -50l3 1l-6 97v162q0 71 -34.5 119.5t-103.5 48.5q-58 0 -97 -41t-39 -105v-11h-68v11q0 95 57 153.5t147 58.5q96 0 151 -67.5t55 -165.5v-163l-6 -97l3 -1l42 50l86 87l48 -49z" />
    <glyph glyph-name="uni21BA" unicode="&#x21ba;" 
d="M276 698h288v-68h-115l-61 5l-1 -3l40 -33q67 -55 107 -123t40 -175q0 -139 -75 -226t-198 -87q-121 0 -198 84.5t-77 223.5q0 94 45 173t120 124l38 -49q-135 -86 -135 -248q0 -112 57.5 -179t149.5 -67q93 0 149 71t56 180q0 84 -30.5 140.5t-90.5 106.5l-43 36l-3 -1
l5 -57v-116h-68v288z" />
    <glyph glyph-name="uni21BB" unicode="&#x21bb;" 
d="M324 698v-288h-68v116l5 57l-3 1l-43 -36q-60 -50 -90.5 -106.5t-30.5 -140.5q0 -109 56 -180t149 -71q92 0 149.5 67t57.5 179q0 162 -135 248l38 49q75 -45 120 -124t45 -173q0 -139 -77 -223.5t-198 -84.5q-123 0 -198 87t-75 226q0 107 40 175t107 123l40 33l-1 3
l-61 -5h-115v68h288z" />
    <glyph glyph-name="uni21C4" unicode="&#x21c4;" 
d="M20 195l207 207l48 -48l-86 -86l-50 -42l1 -3l96 6h336v-68h-336l-96 6l-1 -3l50 -42l86 -86l-48 -48zM579 503l-207 -207l-48 48l86 86l50 42l-1 3l-96 -6h-336v68h336l96 -6l1 3l-50 42l-86 86l48 48z" />
    <glyph glyph-name="uni21C6" unicode="&#x21c6;" 
d="M581 195l-207 -207l-48 48l86 86l50 42l-1 3l-96 -6h-336v68h336l96 -6l1 3l-50 42l-86 86l48 48zM20 503l207 207l48 -48l-86 -86l-50 -42l1 -3l96 6h336v-68h-336l-96 6l-1 -3l50 -42l86 -86l-48 -48z" />
    <glyph glyph-name="partialdiff" unicode="&#x2202;" 
d="M534 272q0 -142 -60.5 -213t-169.5 -71q-112 0 -175 69.5t-63 188.5q0 117 59.5 187.5t153.5 70.5q105 0 166 -96l4 2q-60 171 -307 288h131q40 -24 68 -43.5t67.5 -58.5t64 -80.5t43 -105.5t18.5 -138zM300 57q69 0 109 39t40 115v70q0 76 -40 115t-109 39t-109 -39
t-40 -115v-70q0 -76 40 -115t109 -39z" />
    <glyph glyph-name="Delta" unicode="&#x2206;" 
d="M46 0v75l199 623h111l198 -623v-75h-508zM467 73l-163 537h-9l-164 -537h336z" />
    <glyph glyph-name="product" unicode="&#x220f;" 
d="M78 0v698h444v-698h-84v625h-276v-625h-84z" />
    <glyph glyph-name="summation" unicode="&#x2211;" 
d="M531 -127v-73h-468v75l267 372v4l-267 372v75h468v-73h-378l251 -349v-54l-251 -349h378z" />
    <glyph glyph-name="minus" unicode="&#x2212;" 
d="M538 271h-476v68h476v-68z" />
    <glyph glyph-name="radical" unicode="&#x221a;" 
d="M367 0h-114l-127 452h-102v64h163l45 -165l77 -284h5l81 284l99 347h78z" />
    <glyph glyph-name="infinity" unicode="&#x221e;" 
d="M157 126q-70 0 -108 47t-38 132q0 84 41 131.5t113 47.5q110 0 151 -133h4q12 64 45 98.5t77 34.5q70 0 108.5 -47t38.5 -132q0 -84 -41 -131.5t-113 -47.5q-110 0 -151 133h-4q-12 -64 -45.5 -98.5t-77.5 -34.5zM166 188q33 0 60 31.5t43 87.5q-16 54 -43 84.5t-60 30.5
q-37 0 -58 -23.5t-21 -66.5v-54q0 -43 21 -66.5t58 -23.5zM434 188q37 0 58 23.5t21 66.5v54q0 43 -21 66.5t-58 23.5q-33 0 -60 -31.5t-43 -87.5q16 -54 43 -84.5t60 -30.5z" />
    <glyph glyph-name="integral" unicode="&#x222b;" 
d="M35 -200v68h212v754q0 54 29 86t85 32h178v-69h-212v-753q0 -54 -29 -86t-85 -32h-178z" />
    <glyph glyph-name="approxequal" unicode="&#x2248;" 
d="M408 138q-47 0 -113 32q-76 37 -104 37q-49 0 -78 -69l-61 25q14 50 50.5 80.5t89.5 30.5q47 0 113 -32q76 -37 104 -37q49 0 78 69l61 -25q-14 -50 -50.5 -80.5t-89.5 -30.5zM408 337q-47 0 -113 32q-76 37 -104 37q-49 0 -78 -69l-61 25q14 50 50.5 80.5t89.5 30.5
q47 0 113 -32q76 -37 104 -37q49 0 78 69l61 -25q-14 -50 -50.5 -80.5t-89.5 -30.5z" />
    <glyph glyph-name="notequal" unicode="&#x2260;" 
d="M209 72h-72l55 100h-130v68h167l71 132h-238v68h275l54 100h72l-55 -100h130v-68h-167l-71 -132h238v-68h-275z" />
    <glyph glyph-name="lessequal" unicode="&#x2264;" 
d="M515 0h-430v68h430v-68zM515 593v-80l-355 -152v-7l355 -151v-82l-430 191v89z" />
    <glyph glyph-name="greaterequal" unicode="&#x2265;" 
d="M85 121v80l355 152v7l-355 151v82l430 -191v-89zM85 0v68h430v-68h-430z" />
    <glyph glyph-name="lozenge" unicode="&#x25ca;" 
d="M341 0h-81l-218 349l218 349h81l218 -349zM297 75h7l171 274l-171 274h-7l-171 -274z" />
    <glyph glyph-name="uni2713" unicode="&#x2713;" 
d="M228 0l-182 484l76 22l74 -201l75 -216h5l83 216l164 407l71 -25l-280 -687h-86z" />
    <glyph glyph-name="uni274C" unicode="&#x274c;" 
d="M113 15l-63 40l204 296l-204 292l63 40l188 -271l186 271l63 -40l-204 -296l204 -292l-63 -40l-188 271z" />
    <glyph glyph-name="uni2B0E" unicode="&#x2b0e;" 
d="M364 101l-207 207l48 49l86 -87l42 -50l3 1l-6 97v212h-304v68h372v-280l-6 -97l3 -1l42 50l86 87l48 -49z" />
    <glyph glyph-name="uni2B0F" unicode="&#x2b0f;" 
d="M364 628l207 -207l-48 -49l-86 87l-42 50l-3 -1l6 -97v-280h-372v68h304v212l6 97l-3 1l-42 -50l-86 -87l-48 49z" />
    <glyph glyph-name="uni2B10" unicode="&#x2b10;" 
d="M236 101l-207 207l48 49l86 -87l42 -50l3 1l-6 97v280h372v-68h-304v-212l-6 -97l3 -1l42 50l86 87l48 -49z" />
    <glyph glyph-name="uni2B11" unicode="&#x2b11;" 
d="M236 628l207 -207l-48 -49l-86 87l-42 50l-3 -1l6 -97v-212h304v-68h-372v280l6 97l-3 1l-42 -50l-86 -87l-48 49z" />
    <glyph glyph-name="uniEBE7" unicode="&#xebe7;" 
d="M466 160q-42 0 -54 43l-38 142l121 -82q27 -19 27 -48q0 -23 -16.5 -39t-39.5 -16zM134 160q-23 0 -39.5 16t-16.5 39q0 29 27 48l121 82l-38 -142q-12 -43 -54 -43zM374 289v-37h-148v37h148zM374 215v-37h-148v37h148zM300 104q-45 0 -64 37h128q-19 -37 -64 -37z
M300 363q45 0 64 -37h-128q19 37 64 37zM342 373q-14 0 -23.5 9.5t-9.5 22.5t9.5 22.5t23.5 9.5t23.5 -9.5t9.5 -22.5t-9.5 -22.5t-23.5 -9.5zM258 373q-14 0 -23.5 9.5t-9.5 22.5t9.5 22.5t23.5 9.5t23.5 -9.5t9.5 -22.5t-9.5 -22.5t-23.5 -9.5zM275 2h-123v19h116zM448 2
h-123l7 19h116v-19zM262 39h-110v19h104zM448 39h-110l6 19h104v-19zM411 -35h-98l6 19h92v-19zM287 -35h-98v19h92zM245 -183h-93v19h93v-19zM448 -183h-93v19h93v-19zM245 -220h-93v19h93v-19zM448 -220h-93v19h93v-19zM263 -109l-6 19h86l-6 -19h-74zM411 -109h-56v19h56
v-19zM411 -72h-56v19h56v-19zM411 -146h-56v19h56v-19zM245 -109h-56v19h56v-19zM245 -72h-56v19h56v-19zM245 -146h-56v19h56v-19zM276 -146l-7 19h62l-7 -19h-48zM300 -72h-49l-6 19h48zM349 -72h-49l7 19h48zM288 -183l-6 19h36l-6 -19h-24zM300 -220l-6 19h12zM263 586
q0 16 10.5 26.5t26.5 10.5t26.5 -10.5t10.5 -26.5t-10.5 -26.5t-26.5 -10.5t-26.5 10.5t-10.5 26.5zM217 586q0 -35 24 -59t59 -24t59 24t24 59t-24 59t-59 24t-59 -24t-24 -59zM448 586q-18 -46 -58.5 -74t-89.5 -28t-89.5 28t-58.5 74q18 46 58.5 74t89.5 28t89.5 -28
t58.5 -74zM300 734q-84 0 -139 -65v28q21 38 58 60.5t81 22.5t81 -22.5t58 -60.5v-28q-55 65 -139 65z" />
    <glyph glyph-name="dieresisacute" unicode="&#xf6d7;" horiz-adv-x="0" 
d="M118 871l-106 -159l-49 23l85 170zM-99 597q-57 0 -57 46v14q0 46 57 46t57 -46v-14q0 -46 -57 -46zM99 597q-57 0 -57 46v14q0 46 57 46t57 -46v-14q0 -46 -57 -46z" />
    <glyph glyph-name="dieresisgrave" unicode="&#xf6d8;" horiz-adv-x="0" 
d="M-12 712l-106 159l70 34l85 -170zM-99 597q-57 0 -57 46v14q0 46 57 46t57 -46v-14q0 -46 -57 -46zM99 597q-57 0 -57 46v14q0 46 57 46t57 -46v-14q0 -46 -57 -46z" />
    <glyph glyph-name="fi" unicode="&#xfb01;" 
d="M108 0v448h-70v68h70v106q0 54 29 86t85 32h113v-68h-147v-156h314v-516h-80v448h-234v-448h-80zM462 630q-63 0 -63 51v16q0 51 63 51t63 -51v-16q0 -51 -63 -51z" />
    <glyph glyph-name="fl" unicode="&#xfb02;" 
d="M108 0v448h-70v68h70v106q0 54 29 86t85 32h123v-68h-157v-156h157v-68h-157v-448h-80zM422 0v740h80v-740h-80z" />
    <glyph glyph-name="a.alt01" 
d="M425 0v84h-4q-50 -96 -159 -96q-95 0 -148.5 71.5t-53.5 198.5t53.5 198.5t148.5 71.5q109 0 159 -96h4v84h80v-516h-80zM293 59q56 0 94 28t38 78v186q0 50 -38 78t-94 28q-69 0 -108 -42t-39 -113v-88q0 -71 39 -113t108 -42z" />
    <glyph glyph-name="g.alt01" 
d="M505 516v-499q0 -107 -60 -168t-167 -61q-116 0 -185 71l47 55q54 -56 139 -56q146 0 146 154v86h-4q-50 -96 -159 -96q-94 0 -148 70.5t-54 192.5t54 192.5t148 70.5q109 0 159 -96h4v84h80zM293 73q56 0 94 28t38 78v172q0 50 -38 78t-94 28q-69 0 -108 -42t-39 -113
v-74q0 -71 39 -113t108 -42z" />
    <glyph glyph-name="g.alt02" 
d="M301 -212q-234 0 -234 128q0 77 84 99v12q-46 22 -46 71q0 67 93 90v4q-48 21 -74.5 62.5t-26.5 95.5q0 79 55 128.5t145 49.5q43 0 78 -12h181v-64h-94q36 -39 36 -102q0 -79 -55.5 -128.5t-145.5 -49.5q-28 0 -49 4q-29 -6 -51.5 -20.5t-22.5 -38.5q0 -38 83 -38h114
q190 0 190 -138q0 -153 -260 -153zM297 234q58 0 87.5 27.5t29.5 74.5v29q0 47 -29.5 74t-87.5 27t-87 -27t-29 -74v-29q0 -47 29 -74.5t87 -27.5zM486 -63q0 68 -112 68h-179q-52 -21 -52 -70q0 -37 29 -60t88 -23h78q71 0 109.5 21.5t38.5 63.5z" />
    <glyph glyph-name="zero.alt01" 
d="M300 -12q-244 0 -244 361t244 361t244 -361t-244 -361zM300 637q-157 0 -157 -231v-114q0 -38 4 -65l289 316q-36 94 -136 94zM300 61q157 0 157 231v114q0 38 -4 65l-289 -316q36 -94 136 -94z" />
    <glyph glyph-name="zero.alt02" 
d="M300 -12q-244 0 -244 361t244 361t244 -361t-244 -361zM300 61q155 0 155 231v114q0 231 -155 231t-155 -231v-114q0 -231 155 -231z" />
    <glyph glyph-name="aacute.alt01" 
d="M400 744l-106 -159l-52 24l85 170zM425 0v84h-4q-50 -96 -159 -96q-95 0 -148.5 71.5t-53.5 198.5t53.5 198.5t148.5 71.5q109 0 159 -96h4v84h80v-516h-80zM293 59q56 0 94 28t38 78v186q0 50 -38 78t-94 28q-69 0 -108 -42t-39 -113v-88q0 -71 39 -113t108 -42z" />
    <glyph glyph-name="abreve.alt01" 
d="M287 595q-38 0 -67 14t-47 39.5t-28 47t-19 50.5l51 22l21 -34q19 -31 28 -43t24.5 -21.5t36.5 -9.5t36.5 9.5t24.5 21.5t28 43l21 34l51 -22q-9 -29 -19 -50.5t-28 -47t-47 -39.5t-67 -14zM425 0v84h-4q-50 -96 -159 -96q-95 0 -148.5 71.5t-53.5 198.5t53.5 198.5
t148.5 71.5q109 0 159 -96h4v84h80v-516h-80zM293 59q56 0 94 28t38 78v186q0 50 -38 78t-94 28q-69 0 -108 -42t-39 -113v-88q0 -71 39 -113t108 -42z" />
    <glyph glyph-name="acircumflex.alt01" 
d="M237 765h100l111 -143l-45 -31l-117 117l-117 -117l-43 31zM425 0v84h-4q-50 -96 -159 -96q-95 0 -148.5 71.5t-53.5 198.5t53.5 198.5t148.5 71.5q109 0 159 -96h4v84h80v-516h-80zM293 59q56 0 94 28t38 78v186q0 50 -38 78t-94 28q-69 0 -108 -42t-39 -113v-88
q0 -71 39 -113t108 -42z" />
    <glyph glyph-name="adieresis.alt01" 
d="M194 618q-57 0 -57 46v14q0 46 57 46t57 -46v-14q0 -46 -57 -46zM380 618q-57 0 -57 46v14q0 46 57 46t57 -46v-14q0 -46 -57 -46zM425 0v84h-4q-50 -96 -159 -96q-95 0 -148.5 71.5t-53.5 198.5t53.5 198.5t148.5 71.5q109 0 159 -96h4v84h80v-516h-80zM293 59
q56 0 94 28t38 78v186q0 50 -38 78t-94 28q-69 0 -108 -42t-39 -113v-88q0 -71 39 -113t108 -42z" />
    <glyph glyph-name="uni1EA1.alt01" 
d="M287 -172q-57 0 -57 46v14q0 46 57 46t57 -46v-14q0 -46 -57 -46zM425 0v84h-4q-50 -96 -159 -96q-95 0 -148.5 71.5t-53.5 198.5t53.5 198.5t148.5 71.5q109 0 159 -96h4v84h80v-516h-80zM293 59q56 0 94 28t38 78v186q0 50 -38 78t-94 28q-69 0 -108 -42t-39 -113v-88
q0 -71 39 -113t108 -42z" />
    <glyph glyph-name="agrave.alt01" 
d="M280 585l-106 159l73 35l85 -170zM425 0v84h-4q-50 -96 -159 -96q-95 0 -148.5 71.5t-53.5 198.5t53.5 198.5t148.5 71.5q109 0 159 -96h4v84h80v-516h-80zM293 59q56 0 94 28t38 78v186q0 50 -38 78t-94 28q-69 0 -108 -42t-39 -113v-88q0 -71 39 -113t108 -42z" />
    <glyph glyph-name="uni1EA3.alt01" 
d="M203 704v61h109q70 0 70 -55q0 -41 -49 -103l-24 -30l-46 23l58 104h-118zM425 0v84h-4q-50 -96 -159 -96q-95 0 -148.5 71.5t-53.5 198.5t53.5 198.5t148.5 71.5q109 0 159 -96h4v84h80v-516h-80zM293 59q56 0 94 28t38 78v186q0 50 -38 78t-94 28q-69 0 -108 -42
t-39 -113v-88q0 -71 39 -113t108 -42z" />
    <glyph glyph-name="amacron.alt01" 
d="M147 637v68h280v-68h-280zM425 0v84h-4q-50 -96 -159 -96q-95 0 -148.5 71.5t-53.5 198.5t53.5 198.5t148.5 71.5q109 0 159 -96h4v84h80v-516h-80zM293 59q56 0 94 28t38 78v186q0 50 -38 78t-94 28q-69 0 -108 -42t-39 -113v-88q0 -71 39 -113t108 -42z" />
    <glyph glyph-name="aogonek.alt01" 
d="M433 -207q-48 0 -78.5 21t-30.5 59q0 69 115 124l-1 3h-13v84h-4q-50 -96 -159 -96q-95 0 -148.5 71.5t-53.5 198.5t53.5 198.5t148.5 71.5q109 0 159 -96h4v84h80v-516q-113 -71 -113 -114q0 -37 42 -37q31 0 52 26l40 -41q-24 -41 -93 -41zM293 59q56 0 94 28t38 78
v186q0 50 -38 78t-94 28q-69 0 -108 -42t-39 -113v-88q0 -71 39 -113t108 -42z" />
    <glyph glyph-name="aring.alt01" 
d="M287 576q-49 0 -82.5 33t-33.5 82t33.5 82t82.5 33t82.5 -33t33.5 -82t-33.5 -82t-82.5 -33zM287 625q27 0 42.5 14.5t15.5 40.5v22q0 26 -15.5 40.5t-42.5 14.5t-42.5 -14.5t-15.5 -40.5v-22q0 -26 15.5 -40.5t42.5 -14.5zM425 0v84h-4q-50 -96 -159 -96
q-95 0 -148.5 71.5t-53.5 198.5t53.5 198.5t148.5 71.5q109 0 159 -96h4v84h80v-516h-80zM293 59q56 0 94 28t38 78v186q0 50 -38 78t-94 28q-69 0 -108 -42t-39 -113v-88q0 -71 39 -113t108 -42z" />
    <glyph glyph-name="aringacute.alt01" 
d="M392 919l-94 -105l-41 26l75 116zM287 566q-49 0 -82.5 33t-33.5 82t33.5 82t82.5 33t82.5 -33t33.5 -82t-33.5 -82t-82.5 -33zM287 615q27 0 42.5 14.5t15.5 40.5v22q0 26 -15.5 40.5t-42.5 14.5t-42.5 -14.5t-15.5 -40.5v-22q0 -26 15.5 -40.5t42.5 -14.5zM425 0v84h-4
q-50 -96 -159 -96q-95 0 -148.5 71.5t-53.5 198.5t53.5 198.5t148.5 71.5q109 0 159 -96h4v84h80v-516h-80zM293 59q56 0 94 28t38 78v186q0 50 -38 78t-94 28q-69 0 -108 -42t-39 -113v-88q0 -71 39 -113t108 -42z" />
    <glyph glyph-name="atilde.alt01" 
d="M360 612q-30 0 -80 26q-45 24 -70 24q-26 0 -58 -27l-33 40q35 53 95 53q30 0 80 -26q45 -24 70 -24q26 0 58 27l33 -40q-35 -53 -95 -53zM425 0v84h-4q-50 -96 -159 -96q-95 0 -148.5 71.5t-53.5 198.5t53.5 198.5t148.5 71.5q109 0 159 -96h4v84h80v-516h-80zM293 59
q56 0 94 28t38 78v186q0 50 -38 78t-94 28q-69 0 -108 -42t-39 -113v-88q0 -71 39 -113t108 -42z" />
    <glyph glyph-name="uni1EAF.alt01" 
d="M286 585q-120 0 -165 139l47 23l21 -32q25 -37 45.5 -51.5t52.5 -14.5t52.5 14.5t45.5 51.5l21 32l47 -23q-45 -139 -167 -139zM400 867l-106 -159l-49 23l85 170zM425 0v84h-4q-50 -96 -159 -96q-95 0 -148.5 71.5t-53.5 198.5t53.5 198.5t148.5 71.5q109 0 159 -96h4
v84h80v-516h-80zM293 59q56 0 94 28t38 78v186q0 50 -38 78t-94 28q-69 0 -108 -42t-39 -113v-88q0 -71 39 -113t108 -42z" />
    <glyph glyph-name="uni1EB7.alt01" 
d="M287 -172q-57 0 -57 46v14q0 46 57 46t57 -46v-14q0 -46 -57 -46zM287 595q-38 0 -67 14t-47 39.5t-28 47t-19 50.5l51 22l21 -34q19 -31 28 -43t24.5 -21.5t36.5 -9.5t36.5 9.5t24.5 21.5t28 43l21 34l51 -22q-9 -29 -19 -50.5t-28 -47t-47 -39.5t-67 -14zM425 0v84h-4
q-50 -96 -159 -96q-95 0 -148.5 71.5t-53.5 198.5t53.5 198.5t148.5 71.5q109 0 159 -96h4v84h80v-516h-80zM293 59q56 0 94 28t38 78v186q0 50 -38 78t-94 28q-69 0 -108 -42t-39 -113v-88q0 -71 39 -113t108 -42z" />
    <glyph glyph-name="uni1EB1.alt01" 
d="M288 585q-122 0 -167 139l47 23l21 -32q25 -37 45.5 -51.5t52.5 -14.5t52.5 14.5t45.5 51.5l21 32l47 -23q-45 -139 -165 -139zM280 708l-106 159l70 34l85 -170zM425 0v84h-4q-50 -96 -159 -96q-95 0 -148.5 71.5t-53.5 198.5t53.5 198.5t148.5 71.5q109 0 159 -96h4v84
h80v-516h-80zM293 59q56 0 94 28t38 78v186q0 50 -38 78t-94 28q-69 0 -108 -42t-39 -113v-88q0 -71 39 -113t108 -42z" />
    <glyph glyph-name="uni1EB3.alt01" 
d="M288 585q-122 0 -167 139l47 23l21 -32q25 -37 45.5 -51.5t52.5 -14.5t52.5 14.5t45.5 51.5l21 32l47 -23q-45 -139 -165 -139zM202 829v61h94q70 0 70 -55q0 -41 -49 -103l-24 -30l-46 23l58 104h-103zM425 0v84h-4q-50 -96 -159 -96q-95 0 -148.5 71.5t-53.5 198.5
t53.5 198.5t148.5 71.5q109 0 159 -96h4v84h80v-516h-80zM293 59q56 0 94 28t38 78v186q0 50 -38 78t-94 28q-69 0 -108 -42t-39 -113v-88q0 -71 39 -113t108 -42z" />
    <glyph glyph-name="uni1EB5.alt01" 
d="M288 585q-122 0 -167 139l47 23l21 -32q25 -37 45.5 -51.5t52.5 -14.5t52.5 14.5t45.5 51.5l21 32l47 -23q-45 -139 -165 -139zM359 769q-30 0 -80 26q-45 24 -70 24q-26 0 -58 -27l-31 36q35 53 95 53q30 0 80 -26q45 -24 70 -24q26 0 58 27l31 -36q-35 -53 -95 -53z
M425 0v84h-4q-50 -96 -159 -96q-95 0 -148.5 71.5t-53.5 198.5t53.5 198.5t148.5 71.5q109 0 159 -96h4v84h80v-516h-80zM293 59q56 0 94 28t38 78v186q0 50 -38 78t-94 28q-69 0 -108 -42t-39 -113v-88q0 -71 39 -113t108 -42z" />
    <glyph glyph-name="uni1EA5.alt01" 
d="M547 871l-106 -159l-49 23l85 170zM237 755h100l110 -144l-44 -30l-117 119l-117 -119l-42 30zM425 0v84h-4q-50 -96 -159 -96q-95 0 -148.5 71.5t-53.5 198.5t53.5 198.5t148.5 71.5q109 0 159 -96h4v84h80v-516h-80zM293 59q56 0 94 28t38 78v186q0 50 -38 78t-94 28
q-69 0 -108 -42t-39 -113v-88q0 -71 39 -113t108 -42z" />
    <glyph glyph-name="uni1EAD.alt01" 
d="M287 -172q-57 0 -57 46v14q0 46 57 46t57 -46v-14q0 -46 -57 -46zM237 765h100l111 -143l-45 -31l-117 117l-117 -117l-43 31zM425 0v84h-4q-50 -96 -159 -96q-95 0 -148.5 71.5t-53.5 198.5t53.5 198.5t148.5 71.5q109 0 159 -96h4v84h80v-516h-80zM293 59q56 0 94 28
t38 78v186q0 50 -38 78t-94 28q-69 0 -108 -42t-39 -113v-88q0 -71 39 -113t108 -42z" />
    <glyph glyph-name="uni1EA7.alt01" 
d="M133 712l-106 159l70 34l85 -170zM237 755h100l110 -144l-44 -30l-117 119l-117 -119l-42 30zM425 0v84h-4q-50 -96 -159 -96q-95 0 -148.5 71.5t-53.5 198.5t53.5 198.5t148.5 71.5q109 0 159 -96h4v84h80v-516h-80zM293 59q56 0 94 28t38 78v186q0 50 -38 78t-94 28
q-69 0 -108 -42t-39 -113v-88q0 -71 39 -113t108 -42z" />
    </font>
</defs>
</svg>
