<svg id="blockchaincomlogowhite" xmlns="http://www.w3.org/2000/svg" width="175.218" height="19.167" viewBox="0 0 175.218 19.167">
  <g id="Group_655" data-name="Group 655">
    <path id="Path_430" data-name="Path 430" d="M478.35,1404.143l-.884.884a2.518,2.518,0,0,0,0,3.631l7.119,7.189a2.183,2.183,0,0,0,.581.424v-8.714Z" transform="translate(-476.693 -1397.104)" fill="#fff"/>
    <path id="Path_431" data-name="Path 431" d="M510.509,1404.143l.884.884a2.518,2.518,0,0,1,0,3.631l-7.119,7.189a2.183,2.183,0,0,1-.581.424v-8.714Z" transform="translate(-492.799 -1397.104)" fill="#fff"/>
    <path id="Path_432" data-name="Path 432" d="M497.793,1391.934l-4.455-4.467a2.529,2.529,0,0,0-3.631,0l-4.467,4.467,6.258,3.123Z" transform="translate(-481.791 -1386.699)" fill="#fff"/>
    <path id="Path_433" data-name="Path 433" d="M543.853,1405.519h6.269c3.3,0,5.051-1.719,5.051-4.055a3.4,3.4,0,0,0-3.224-3.561v-.143a3.134,3.134,0,0,0,2.651-3.153c0-2.2-1.633-3.761-4.872-3.761h-5.875Zm3.1-2.536v-3.9h2.6a2.131,2.131,0,0,1,2.415,2.07c0,1.1-.752,1.827-2.486,1.827Zm0-6v-3.632h2.357c1.375,0,2.157.709,2.157,1.77,0,1.16-.946,1.863-2.214,1.863Zm12.726-6.14H556.63v14.672h3.052Zm6.913,14.888c3.339,0,5.416-2.286,5.416-5.674,0-3.41-2.078-5.688-5.416-5.688s-5.417,2.279-5.417,5.688C561.178,1403.448,563.256,1405.734,566.595,1405.734Zm.014-2.365c-1.54,0-2.328-1.411-2.328-3.331s.788-3.339,2.328-3.339c1.512,0,2.3,1.419,2.3,3.339S568.121,1403.37,566.609,1403.37Zm11.854,2.365c2.93,0,4.771-1.72,4.915-4.248H580.5a1.959,1.959,0,0,1-2,1.834c-1.426,0-2.35-1.2-2.35-3.3,0-2.078.931-3.267,2.35-3.267a1.962,1.962,0,0,1,2,1.834h2.88c-.129-2.544-2.056-4.213-4.929-4.213-3.339,0-5.4,2.314-5.4,5.688C573.047,1403.405,575.074,1405.734,578.463,1405.734Zm6.365-.215h3.052v-3.5l.824-.938,3,4.435h3.575l-4.291-6.24,4.084-4.765h-3.5l-3.525,4.177h-.165v-7.845h-3.052Zm15.757.215c2.93,0,4.771-1.72,4.915-4.248h-2.88a1.959,1.959,0,0,1-2,1.834c-1.426,0-2.35-1.2-2.35-3.3,0-2.078.931-3.267,2.35-3.267a1.962,1.962,0,0,1,2,1.834h2.88c-.129-2.544-2.056-4.213-4.929-4.213-3.339,0-5.4,2.314-5.4,5.688C595.168,1403.405,597.2,1405.734,600.584,1405.734Zm9.417-6.577a2.049,2.049,0,0,1,2.121-2.25,1.883,1.883,0,0,1,1.963,2.149v6.462h3.052v-7.007c.007-2.579-1.512-4.141-3.8-4.141a3.251,3.251,0,0,0-3.288,2.085h-.129v-5.61h-2.966v14.672H610Zm12.171,6.57a3.379,3.379,0,0,0,3.217-1.734h.086v1.526h2.894V1398.1c0-2.622-2.221-3.725-4.671-3.725-2.636,0-4.37,1.261-4.793,3.267l2.823.229a1.842,1.842,0,0,1,1.956-1.268c1.039,0,1.633.523,1.633,1.426v.043c0,.709-.752.8-2.665.989-2.178.2-4.134.931-4.134,3.389C618.518,1404.624,620.073,1405.727,622.172,1405.727Zm.874-2.106c-.939,0-1.612-.437-1.612-1.276,0-.859.709-1.282,1.784-1.433a7.333,7.333,0,0,0,2.12-.494v1.168A2.112,2.112,0,0,1,623.046,1403.62Zm7.187,1.9h3.052v-11h-3.052Zm1.533-12.423a1.547,1.547,0,1,0-1.648-1.547A1.608,1.608,0,0,0,631.766,1393.1Zm6.511,6.061a2.03,2.03,0,0,1,2.085-2.25,1.887,1.887,0,0,1,1.956,2.149v6.462h3.052v-7.007c0-2.565-1.5-4.141-3.8-4.141a3.325,3.325,0,0,0-3.31,2.085h-.129v-1.942h-2.909v11h3.052Z" transform="translate(-516.754 -1388.673)" fill="#fff"/>
    <path id="Path_434" data-name="Path 434" d="M802.036,1412.155a1.712,1.712,0,1,0,0-3.425,1.712,1.712,0,1,0,0,3.425Zm8.693.029c2.93,0,4.771-1.72,4.915-4.249h-2.88a1.959,1.959,0,0,1-2,1.834c-1.426,0-2.35-1.2-2.35-3.3,0-2.078.931-3.267,2.35-3.267a1.962,1.962,0,0,1,2,1.834h2.88c-.129-2.543-2.056-4.213-4.929-4.213-3.339,0-5.4,2.314-5.4,5.688C805.313,1409.855,807.34,1412.184,810.729,1412.184Zm11.337,0c3.339,0,5.416-2.285,5.416-5.675,0-3.41-2.078-5.688-5.416-5.688s-5.417,2.279-5.417,5.688C816.649,1409.9,818.727,1412.184,822.066,1412.184Zm.014-2.365c-1.54,0-2.329-1.411-2.329-3.331s.788-3.339,2.329-3.339c1.512,0,2.3,1.419,2.3,3.339S823.592,1409.82,822.08,1409.82Zm6.882,2.149h3.052v-6.605a1.845,1.845,0,0,1,1.791-2.027,1.621,1.621,0,0,1,1.677,1.77v6.863h2.959v-6.72a1.717,1.717,0,0,1,1.762-1.913,1.636,1.636,0,0,1,1.705,1.834v6.8h3.045v-7.4c0-2.386-1.419-3.747-3.468-3.747a3.344,3.344,0,0,0-3.317,2.085h-.115a2.9,2.9,0,0,0-2.987-2.085,3.088,3.088,0,0,0-3.066,2.085h-.129v-1.942h-2.909Z" transform="translate(-669.735 -1395.123)" fill="#fff"/>
  </g>
</svg>
