<svg xmlns="http://www.w3.org/2000/svg" id="chaincert_-_primary_-_positive" width="155.235" height="44.12" data-name="chaincert - primary - positive" viewBox="0 0 155.235 44.12">
    <defs>
        <style>
            .cls-1{fill:#31c25a}.cls-2{fill:#1c1c1c}
        </style>
    </defs>
    <path id="Path_238" d="M77.452 64.707V57.35L64.657 50l-12.7 7.35v7.357H50V94.12h29.413V64.707zm-23.53-6.229l10.739-6.209 10.83 6.231v6.209H73.53v-5.097l-8.857-5.085-8.791 5.085v5.095h-1.96zm17.648 6.229H57.843v-3.965l6.834-3.954 6.892 3.961zm5.883 27.452H51.961V66.667h25.491z" class="cls-1" data-name="Path 238" transform="translate(-50 -50)"/>
    <path id="Path_239" d="M83.57 116.8V107h-9.8v3.922H71.8V107H62v9.8h3.922v1.961H62v9.8h9.8v-3.922h1.961v3.922h9.8v-9.8h-3.913V116.8zm-19.609-1.961v-5.883h5.883v5.883zm5.883 11.765h-5.883v-5.883h5.883zm1.961-3.922v-3.922h-3.922v-1.96H71.8v-3.922h1.961v3.922h3.922v1.961h-3.918v3.922zm9.8-1.961v5.883h-5.879v-5.883zm-5.883-5.883v-5.883h5.883v5.883z" class="cls-1" data-name="Path 239" transform="translate(-58.078 -88.372)"/>
    <path id="Path_240" d="M186.935 124.474c-.712 3.337-3.206 5.771-7.651 5.771-5.624 0-8.285-4.02-8.285-9.111 0-4.9 2.745-9.3 8.471-9.3 4.722 0 7.013 2.8 7.445 5.791h-3.824a3.486 3.486 0 0 0-3.735-2.755c-3.164 0-4.386 2.869-4.386 6.128 0 3.026 1.062 6.209 4.49 6.209a3.538 3.538 0 0 0 3.628-2.735z" class="cls-2" data-name="Path 240" transform="translate(-131.456 -91.623)"/>
    <path id="Path_241" d="M229.386 109.4v7.1a4.258 4.258 0 0 1 3.814-1.9c2.484 0 4.461 1.484 4.461 5.131v8.621h-3.67v-8.066c0-1.748-.614-2.677-2.16-2.677-2.049 0-2.451 1.539-2.451 3.611v7.131h-3.69V109.4z" class="cls-2" data-name="Path 241" transform="translate(-168.272 -89.987)"/>
    <path id="Path_242" d="M279.833 135.615a31.025 31.025 0 0 0 .18 3.471h-3.53a5.634 5.634 0 0 1-.186-1.307c-.48.755-1.386 1.634-3.742 1.634-3.213 0-4.575-2.131-4.575-4.216 0-3.062 2.438-4.474 6.343-4.474h1.9v-.823c0-.954-.343-1.9-2.052-1.9-1.556 0-1.9.67-2.069 1.634h-3.494c.2-2.386 1.663-4.32 5.716-4.3 3.565.023 5.507 1.431 5.507 4.628zm-3.595-2.647h-1.5c-2.222 0-3.046.683-3.046 1.98a1.712 1.712 0 0 0 1.915 1.791c2.343 0 2.631-1.634 2.631-3.418z" class="cls-2" data-name="Path 242" transform="translate(-196.742 -100.718)"/>
    <path id="Path_243" d="M311.77 109.4h3.686v3.32h-3.686zm0 5.513h3.686v13.442h-3.686z" class="cls-2" data-name="Path 243" transform="translate(-226.221 -89.987)"/>
    <path id="Path_244" d="M330.433 129.02c0-1.144 0-2.4-.023-3.389h3.569a15.814 15.814 0 0 1 .144 1.716 4.051 4.051 0 0 1 3.863-2.026c2.677 0 4.415 1.824 4.415 5.2v8.549h-3.69v-8.138c0-1.51-.5-2.615-2.124-2.615-1.569 0-2.464.879-2.464 3.252v7.5h-3.69z" class="cls-2" data-name="Path 244" transform="translate(-238.769 -100.705)"/>
    <path id="Path_245" d="M389.835 124.474c-.712 3.337-3.206 5.771-7.651 5.771-5.624 0-8.285-4.02-8.285-9.111 0-4.9 2.745-9.3 8.468-9.3 4.726 0 7.017 2.8 7.448 5.791h-3.837a3.47 3.47 0 0 0-3.732-2.755c-3.164 0-4.386 2.869-4.386 6.128 0 3.026 1.062 6.209 4.49 6.209a3.541 3.541 0 0 0 3.628-2.735z" class="cls-2" data-name="Path 245" transform="translate(-268.046 -91.623)"/>
    <path id="Path_246" d="M430.423 133.147c0 1.683.837 3.327 2.673 3.327a2.111 2.111 0 0 0 2.324-1.438h3.69a5.854 5.854 0 0 1-6.111 4.35c-4.386 0-6.288-3.311-6.288-6.837 0-4.219 2.144-7.229 6.422-7.229 4.575 0 6.128 3.34 6.128 6.7a8.761 8.761 0 0 1-.046 1.131zm5.144-2.288c-.026-1.565-.654-2.882-2.441-2.882s-2.477 1.232-2.615 2.882z" class="cls-2" data-name="Path 246" transform="translate(-303.597 -100.705)"/>
    <path id="Path_247" d="M470.526 129.278c0-1.337 0-2.523-.026-3.647h3.615c.049.3.1 1.634.1 2.363a4.266 4.266 0 0 1 4.275-2.673v3.552c-2.677-.072-4.275.654-4.275 4.34v5.86h-3.686z" class="cls-2" data-name="Path 247" transform="translate(-333.076 -100.705)"/>
    <path id="Path_248" d="M499.437 118.777h2.052v-3.637h3.683v3.637h2.615v2.8h-2.615v6.631c0 1.02.307 1.418 1.405 1.418a6.586 6.586 0 0 0 .84-.042v2.559a8.265 8.265 0 0 1-2.477.258c-2.6 0-3.458-1.4-3.458-3.755v-7.069h-2.052z" class="cls-2" data-name="Path 248" transform="translate(-352.551 -93.852)"/>
</svg>
