<svg id="coinshareswhite" xmlns="http://www.w3.org/2000/svg" width="104.763" height="16.437" viewBox="0 0 104.763 16.437">
  <g id="Group_240" data-name="Group 240">
    <path id="Path_90" data-name="Path 90" d="M215.109-1063.936a13.478,13.478,0,0,1-1.452-.236,7.114,7.114,0,0,1-1.537-.571,3.5,3.5,0,0,1-1.8-2.806,10.552,10.552,0,0,1-.068-1.3c-.007-2.144,0-4.288,0-6.431a5.215,5.215,0,0,1,.441-2.308,3.9,3.9,0,0,1,2.838-2.075,10.427,10.427,0,0,1,3.417-.176c.875.082,1.743.244,2.615.365.281.039.381.151.326.457-.108.608-.178,1.223-.24,1.837-.022.219-.1.262-.3.236-.908-.116-1.816-.258-2.728-.308a8.84,8.84,0,0,0-2.013.107,1.637,1.637,0,0,0-1.427,1.689c-.044,1.271-.038,2.544-.04,3.816,0,1.043-.02,2.088.035,3.128a1.839,1.839,0,0,0,1.923,1.912,15.977,15.977,0,0,0,3.39-.174q.442-.057.881-.143c.174-.034.252.013.274.2q.122,1.005.266,2.008c.031.218-.084.289-.262.317q-1.237.19-2.475.376c-.225.033-.452.058-.678.086Z" transform="translate(-210.243 1080.369)" fill="#fff"/>
    <path id="Path_91" data-name="Path 91" d="M387.6-1007.816c-.416-.074-.837-.128-1.247-.224a3.556,3.556,0,0,1-2.99-3.4,33.706,33.706,0,0,1,.017-4.734,3.386,3.386,0,0,1,2.528-3.111,7.466,7.466,0,0,1,4.532-.008,3.375,3.375,0,0,1,2.549,3.091,30.249,30.249,0,0,1,.018,4.768,3.608,3.608,0,0,1-3.292,3.458c-.315.054-.63.1-.946.155Zm2.7-5.9v-1.65c0-.023,0-.046,0-.069a1.6,1.6,0,0,0-1.126-1.665,3.679,3.679,0,0,0-1.117-.143c-1.3.051-1.94.617-1.975,1.762-.036,1.168-.032,2.338,0,3.505a1.558,1.558,0,0,0,1.335,1.67,4.678,4.678,0,0,0,1.361.025,1.6,1.6,0,0,0,1.52-1.751C390.312-1012.588,390.3-1013.15,390.3-1013.711Z" transform="translate(-371.382 1024.249)" fill="#fff"/>
    <path id="Path_92" data-name="Path 92" d="M845.09-1063.945c-.543-.075-1.091-.125-1.628-.23-.583-.114-1.156-.275-1.733-.419-.208-.052-.289-.154-.231-.4.182-.769.171-.775.937-.586a13.54,13.54,0,0,0,4.019.4,6,6,0,0,0,1.282-.219,1.825,1.825,0,0,0,1.373-1.479,7.483,7.483,0,0,0,.021-2.666,1.5,1.5,0,0,0-1.092-1.215c-.714-.242-1.447-.427-2.172-.637-.791-.229-1.592-.427-2.369-.7a2.562,2.562,0,0,1-1.831-2.52,18.873,18.873,0,0,1,0-2.365,2.776,2.776,0,0,1,2.432-2.713,10.606,10.606,0,0,1,3.248-.181c.876.07,1.742.256,2.613.383.284.042.4.144.355.469-.1.749-.078.748-.816.614a16.05,16.05,0,0,0-4.067-.282,6.05,6.05,0,0,0-.848.125,1.7,1.7,0,0,0-1.608,1.724,15.979,15.979,0,0,0,.024,2.3,1.434,1.434,0,0,0,1.072,1.334c.748.25,1.513.448,2.268.677.8.243,1.6.473,2.39.75a2.5,2.5,0,0,1,1.781,2.607,16.961,16.961,0,0,1-.063,2.3,2.9,2.9,0,0,1-2.6,2.706c-.457.1-.924.149-1.387.222Z" transform="translate(-798.04 1080.378)" fill="#fff"/>
    <path id="Path_93" data-name="Path 93" d="M1469.131-1007.45l-.807-.15a3.082,3.082,0,0,1-2.732-2.96c-.088-1.84-.1-3.69,0-5.528a3.316,3.316,0,0,1,3.243-3.112,7.281,7.281,0,0,1,2.423.129,3.023,3.023,0,0,1,2.445,2.73c.128,1.029.071,2.081.1,3.122.005.2-.113.246-.287.244-.55,0-1.1,0-1.651,0q-2.34,0-4.679,0c-.394,0-.408,0-.4.407a15.768,15.768,0,0,0,.108,2.056,2.052,2.052,0,0,0,2.028,1.847,11.771,11.771,0,0,0,4.015-.373c.427-.1.43-.106.511.313.144.745.27.632-.515.825-.719.177-1.464.253-2.2.374-.146.024-.292.052-.438.077Zm.516-6.669c.848,0,1.7-.006,2.544,0,.249,0,.349-.079.338-.338-.018-.435.008-.871-.013-1.306a2.193,2.193,0,0,0-1.807-2.275,4.736,4.736,0,0,0-2.012.006,2.107,2.107,0,0,0-1.79,1.837,13.905,13.905,0,0,0-.119,1.64c-.016.414.012.43.417.432C1468.019-1014.116,1468.832-1014.118,1469.646-1014.119Z" transform="translate(-1379.14 1023.883)" fill="#fff"/>
    <path id="Path_94" data-name="Path 94" d="M1200.608-1007.377a3.308,3.308,0,0,1-.733-.116,2.337,2.337,0,0,1-1.922-2.148,6.733,6.733,0,0,1,.022-1.945,2.233,2.233,0,0,1,2.343-2.031c1.156-.049,2.314-.029,3.472-.04.149,0,.3-.009.447,0,.221.01.3-.088.292-.309-.011-.756.006-1.513-.009-2.27a1.6,1.6,0,0,0-1.249-1.612,7.421,7.421,0,0,0-2.63-.1c-.637.053-1.271.16-1.9.263-.189.031-.25-.029-.274-.2a3.289,3.289,0,0,0-.1-.539c-.082-.257.024-.351.26-.4a12.827,12.827,0,0,1,4.572-.227,4.322,4.322,0,0,1,1.079.327,2.508,2.508,0,0,1,1.516,2.17,7.8,7.8,0,0,1,.033.858q0,3.68,0,7.36c0,.126,0,.252,0,.378,0,.057.005.133-.027.166-.245.252-.781.124-.84.115a.416.416,0,0,1-.237-.21,3.359,3.359,0,0,1-.1-.57,1.874,1.874,0,0,0-.263.1,6.98,6.98,0,0,1-2.816.982C1201.461-1007.372,1201.071-1007.374,1200.608-1007.377Zm2.1-5.145v0c-.333,0-.665,0-1,0s-.664.02-1,.035a1.366,1.366,0,0,0-1.495,1.265,5.784,5.784,0,0,0,0,1.47,1.234,1.234,0,0,0,1.244,1.153,5.951,5.951,0,0,0,3.847-1,.406.406,0,0,0,.212-.393c-.008-.734-.015-1.468,0-2.2.007-.272-.11-.333-.344-.33C1203.693-1012.517,1203.2-1012.522,1202.707-1012.522Z" transform="translate(-1129.927 1023.811)" fill="#fff"/>
    <path id="Path_95" data-name="Path 95" d="M1634.025-1007.435c-.575-.095-1.149-.189-1.724-.285a2.464,2.464,0,0,1-.267-.064c-.966-.275-.757-.146-.618-.985.047-.284.176-.288.4-.225a9.9,9.9,0,0,0,2.885.369,7.575,7.575,0,0,0,1.126-.1,1.179,1.179,0,0,0,1.125-1.147,8.276,8.276,0,0,0,.014-1.473,1.112,1.112,0,0,0-.821-1.039c-.564-.187-1.142-.329-1.711-.5-.59-.179-1.19-.338-1.763-.564a1.961,1.961,0,0,1-1.317-1.912,12.958,12.958,0,0,1,.021-1.747,2.285,2.285,0,0,1,2.148-1.992,11.916,11.916,0,0,1,4.335.184c.234.049.312.165.269.383-.169.862.117.8-.861.662a11.663,11.663,0,0,0-3.49-.1,1.191,1.191,0,0,0-1.147,1.3c-.02.388-.012.778.006,1.166a1.108,1.108,0,0,0,.787,1.063c.529.184,1.074.32,1.607.492.674.217,1.354.424,2.012.683a1.765,1.765,0,0,1,1.2,1.617,13.515,13.515,0,0,1-.03,2.056,2.112,2.112,0,0,1-1.806,1.94c-.422.1-.854.15-1.281.224Z" transform="translate(-1533.505 1023.867)" fill="#fff"/>
    <path id="Path_96" data-name="Path 96" d="M657.549-1018.392c.516-.2.993-.388,1.475-.563a10.707,10.707,0,0,1,2.951-.6,2.326,2.326,0,0,1,2.555,2.192,8.018,8.018,0,0,1,.081,1.129q.01,3.87,0,7.74c0,.461,0,.463-.45.464-.653,0-1.307,0-1.961,0-.376,0-.381-.008-.381-.391,0-2.454-.02-4.908.009-7.361.012-.984-.582-1.143-1.25-1.037a8.783,8.783,0,0,0-2.366.8.476.476,0,0,0-.289.515c.007,2.328,0,4.655,0,6.983,0,.487,0,.488-.491.489-.654,0-1.307-.008-1.961,0-.252,0-.34-.082-.34-.338q.009-5.3,0-10.6c0-.257.089-.343.341-.335.493.014.986.018,1.479,0a.348.348,0,0,1,.4.314C657.411-1018.786,657.483-1018.6,657.549-1018.392Z" transform="translate(-624.523 1024.179)" fill="#fff"/>
    <path id="Path_97" data-name="Path 97" d="M1028.194-1077.309q0-3.749,0-7.5c0-.42,0-.42.414-.486.192-.031.388-.045.577-.088.219-.051.294.033.292.243,0,.447,0,.894,0,1.341q0,1.891,0,3.783c0,.368.032.386.369.242a12.441,12.441,0,0,1,3.28-.983,6.819,6.819,0,0,1,1.573-.029,1.837,1.837,0,0,1,1.643,1.646,5.536,5.536,0,0,1,.072.854q.008,4.248,0,8.5c0,.452,0,.459-.456.453-.964-.011-.822.133-.824-.809-.007-2.683,0-5.366,0-8.049,0-1.161-.44-1.552-1.6-1.418a12.756,12.756,0,0,0-3.8,1.152c-.257.117-.268.3-.268.53q0,3.938,0,7.876a3.4,3.4,0,0,0,0,.344c.029.28-.083.379-.37.38-.915,0-.915.014-.915-.9Z" transform="translate(-971.906 1085.484)" fill="#fff"/>
    <path id="Path_98" data-name="Path 98" d="M569.485-1010.034q0,2.578,0,5.156c0,.438,0,.44-.438.441q-.945,0-1.891,0c-.411,0-.429-.015-.43-.424q0-2.716,0-5.431,0-2.475,0-4.95c0-.453,0-.454.465-.454.642,0,1.284.012,1.925-.006.287-.008.375.094.374.375C569.48-1013.563,569.485-1011.8,569.485-1010.034Z" transform="translate(-542.193 1020.586)" fill="#fff"/>
    <path id="Path_99" data-name="Path 99" d="M1369.484-1016.462c.164-.1.325-.207.492-.3.846-.48,1.688-.967,2.542-1.431.322-.175.384-.123.427.237.1.868.09.844-.673,1.28-.885.505-1.739,1.062-2.614,1.586-.209.125-.209.3-.209.5q0,3.559,0,7.118c0,.689.064.624-.632.624-.739,0-.648.062-.649-.638q0-5.054,0-10.109c0-.513,0-.513.5-.514.688,0,.69,0,.7.693.005.3,0,.609,0,.913Z" transform="translate(-1288.482 1022.996)" fill="#fff"/>
    <path id="Path_100" data-name="Path 100" d="M569.494-1085.047c0,.423-.007.847,0,1.27.005.225-.063.336-.311.333q-1.064-.016-2.128,0c-.241,0-.324-.1-.323-.328q.007-1.288,0-2.575c0-.208.071-.314.3-.312q1.081.013,2.163,0c.229,0,.3.094.3.308C569.488-1085.917,569.494-1085.482,569.494-1085.047Z" transform="translate(-542.202 1086.66)" fill="#fff"/>
  </g>
</svg>
