<svg xmlns="http://www.w3.org/2000/svg" id="guardnodes_-_primary_-_positive" width="186.57" height="33.988" data-name="guardnodes - primary - positive" viewBox="0 0 186.57 33.988">
    <defs>
        <style>
            .cls-1{fill:#31c25a}.cls-2{fill:#1c1c1c}
        </style>
    </defs>
    <path id="Path_249" d="M79.413 61.19V58.5l-4.249-2.448-3.307 1.912-3.095-1.752a3.216 3.216 0 0 0 .18-1.059v-2.7L64.707 50l-4.249 2.448v2.693a3.216 3.216 0 0 0 .193 1.069l-3.108 1.762-3.294-1.922L50 58.5v2.69c0 2.092 2.007 3.5 3.268 4.186v3.337L50 70.589v2.7c0 3.036 4.249 4.647 4.249 4.647a9.513 9.513 0 0 0 2.99-1.938l3.219 1.843v1.5c0 3.036 4.249 4.647 4.249 4.647s4.249-1.611 4.249-4.647v-1.5L72.2 76a9.451 9.451 0 0 0 2.99 1.941s4.249-1.611 4.249-4.647v-2.7l-3.268-1.882v-3.33c1.235-.675 3.242-2.1 3.242-4.192zm-16.994-7.6l2.288-1.307 2.288 1.307v1.562c0 .98-1.268 1.961-2.288 2.487-1.007-.536-2.288-1.49-2.288-2.487zm-10.458 7.6v-1.562l2.288-1.307 2.288 1.307v1.562c0 1-1.265 1.961-2.288 2.487-.929-.497-2.288-1.438-2.288-2.487zm4.549 12.092c0 .98-1.268 1.961-2.288 2.487-1.007-.539-2.288-1.494-2.288-2.487v-1.565l2.288-1.307 2.288 1.307zm10.458 6.049c0 1-1.268 1.961-2.288 2.487-1.007-.539-2.288-1.49-2.288-2.487v-1.552l2.288-1.307 2.288 1.307zm4.141-4.99L68 76.1l-3.3-1.915-3.3 1.915-3.1-1.758a3.216 3.216 0 0 0 .18-1.059v-2.69l-3.28-1.886v-3.33c1.248-.683 3.268-2.095 3.268-4.186v-1.5l3.245-1.846a9.514 9.514 0 0 0 2.99 1.961 9.477 9.477 0 0 0 2.987-1.961l3.249 1.837v1.5c0 2.092 2.007 3.5 3.268 4.186v3.337l-3.268 1.882v2.7a3.216 3.216 0 0 0 .18 1.065zm6.33-2.614v1.565c0 .98-1.268 1.961-2.288 2.487-1.007-.539-2.288-1.494-2.288-2.487v-1.566l2.288-1.307zm-2.288-8.047c-1.007-.539-2.288-1.494-2.288-2.49v-1.562l2.288-1.307 2.288 1.307v1.562c.013 1-1.255 1.951-2.275 2.49z" class="cls-1" data-name="Path 249" transform="translate(-50 -50)"/>
    <path id="Path_250" d="M84.094 85.545l3.333 1.925v2.255c0 1.634-2.036 3-3.333 3.657-1.307-.654-3.333-2.033-3.333-3.657V87.47zm0-2.265L78.8 86.339v3.386c0 3.794 5.294 5.807 5.294 5.807s5.294-2.013 5.294-5.807v-3.386z" class="cls-1" data-name="Path 250" transform="translate(-69.388 -72.404)"/>
    <path id="Path_251" d="M187.863 91.908h-2.856a10.046 10.046 0 0 1-.3-1.778c-1 1.346-2.758 2.079-5.265 2.079-5.229 0-8.154-3.954-8.154-9.089 0-5.419 3.15-9.5 8.824-9.5 4.637 0 7.366 2.614 7.8 5.693h-3.883c-.373-1.209-1.307-2.637-3.961-2.637-3.7 0-4.758 3.1-4.758 6.275 0 3.1 1.209 6.157 4.781 6.157 3.333 0 3.948-2.314 3.948-3.922v-.163h-3.954v-3.2h7.772z" class="cls-2" data-name="Path 251" transform="translate(-131.651 -65.901)"/>
    <path id="Path_252" d="M243.111 97.731c0 1.307 0 2.722.026 3.922h-3.673c-.052-.363-.078-1.088-.1-1.562a3.856 3.856 0 0 1-3.726 1.876c-2.755 0-4.517-1.677-4.517-5.033V88.11h3.742v8.062c0 1.5.464 2.732 2.085 2.732 1.709 0 2.415-.912 2.415-3.595V88.12h3.749z" class="cls-2" data-name="Path 252" transform="translate(-171.928 -75.655)"/>
    <path id="Path_253" d="M285.72 97.513a30.485 30.485 0 0 0 .183 3.5h-3.579a5.556 5.556 0 0 1-.19-1.324c-.49.761-1.409 1.634-3.8 1.634-3.268 0-4.641-2.147-4.641-4.249 0-3.082 2.477-4.5 6.445-4.5h1.931v-.83c0-.961-.346-1.905-2.085-1.905-1.582 0-1.928.654-2.1 1.634h-3.566c.206-2.405 1.693-4.35 5.807-4.327 3.624.023 5.595 1.438 5.595 4.66zm-3.65-2.664h-1.526c-2.258 0-3.095.69-3.095 1.994a1.741 1.741 0 0 0 1.961 1.8c2.379 0 2.673-1.654 2.673-3.445z" class="cls-2" data-name="Path 253" transform="translate(-200.586 -75.002)"/>
    <path id="Path_254" d="M318.326 91.194c0-1.343 0-2.539-.026-3.67h3.673c.049.3.1 1.634.1 2.376a4.339 4.339 0 0 1 4.343-2.69v3.575c-2.719-.072-4.343.654-4.343 4.369v5.9h-3.745z" class="cls-2" data-name="Path 254" transform="translate(-230.616 -75.049)"/>
    <path id="Path_255" d="M357.927 71.18v15.36c0 1.232 0 2.481.026 3.719h-3.595c-.075-.405-.147-1.1-.17-1.415-.654 1.065-1.82 1.729-3.84 1.729-3.422 0-5.6-2.748-5.6-6.971 0-4.164 2.314-7.19 6.144-7.19 1.961 0 2.994.686 3.294 1.307v-6.536zm-9.337 12.331c0 2.637 1.029 4.066 2.863 4.066 2.575 0 2.873-2.147 2.873-4.092 0-2.314-.327-4.066-2.775-4.066-1.967 0-2.961 1.536-2.961 4.092z" class="cls-2" data-name="Path 255" transform="translate(-248.422 -64.258)"/>
    <path id="Path_256" d="M394.61 92.447V74.42h4.83c2.252 4.049 6.415 11.347 7.242 13.311h.049c-.2-1.879-.2-5.01-.2-7.968V74.42h3.533v18.027h-4.574c-1.938-3.523-6.536-11.909-7.441-13.991h-.042c.131 1.579.173 5.278.173 8.5v5.484z" class="cls-2" data-name="Path 256" transform="translate(-281.988 -66.439)"/>
    <path id="Path_257" d="M462.286 94.263c0 4.095-2.451 7.108-6.739 7.108-4.2 0-6.647-2.994-6.647-7.036 0-4.173 2.526-7.124 6.824-7.124 3.993-.001 6.562 2.81 6.562 7.052zm-9.582.026c0 2.614 1.121 4.151 2.925 4.151s2.853-1.546 2.853-4.128c0-2.83-1.039-4.17-2.905-4.17-1.742 0-2.877 1.287-2.877 4.147z" class="cls-2" data-name="Path 257" transform="translate(-318.535 -75.049)"/>
    <path id="Path_258" d="M507.77 71.18v15.36c0 1.232 0 2.481.026 3.719H504.2c-.075-.405-.15-1.1-.173-1.415-.654 1.065-1.817 1.729-3.84 1.729-3.422 0-5.6-2.748-5.6-6.971 0-4.164 2.314-7.19 6.147-7.19 1.961 0 2.994.686 3.291 1.307v-6.536zm-9.337 12.331c0 2.637 1.026 4.066 2.86 4.066 2.579 0 2.876-2.147 2.876-4.092 0-2.314-.327-4.066-2.778-4.066-1.967 0-2.958 1.536-2.958 4.092z" class="cls-2" data-name="Path 258" transform="translate(-349.293 -64.258)"/>
    <path id="Path_259" d="M544.875 95.093c0 1.69.85 3.347 2.716 3.347a2.135 2.135 0 0 0 2.36-1.445h3.749c-.48 1.654-1.961 4.376-6.209 4.376-4.458 0-6.392-3.333-6.392-6.883 0-4.249 2.18-7.278 6.536-7.278 4.647 0 6.209 3.363 6.209 6.739a8.384 8.384 0 0 1-.049 1.144zm5.229-2.288c-.026-1.575-.654-2.9-2.48-2.9s-2.52 1.235-2.667 2.9z" class="cls-2" data-name="Path 259" transform="translate(-380.603 -75.049)"/>
    <path id="Path_260" d="M588.047 97.008a2.345 2.345 0 0 0 2.562 1.683c1.4 0 1.889-.5 1.889-1.307s-.582-1.209-2.52-1.683c-4.409-1.088-5.131-2.454-5.131-4.363 0-1.987 1.405-4.1 5.487-4.1s5.494 2.242 5.611 4.075h-3.562c-.121-.5-.454-1.445-2.216-1.445-1.239 0-1.634.546-1.634 1.157 0 .673.422.98 2.615 1.51 4.516 1.049 5.154 2.614 5.154 4.575 0 2.242-1.7 4.281-5.83 4.281s-5.8-1.984-6.1-4.383z" class="cls-2" data-name="Path 260" transform="translate(-409.732 -75.07)"/>
</svg>
