<svg xmlns="http://www.w3.org/2000/svg" width="40" height="40" viewBox="0 0 40 40">
  <g id="Symbol_348_1" data-name="Symbol 348 – 1" transform="translate(-183 -402)">
    <g id="Group_426" data-name="Group 426" transform="translate(183 402)">
      <rect id="Rectangle_205" data-name="Rectangle 205" width="40" height="40" fill="none"/>
    </g>
    <g id="Group_427" data-name="Group 427" transform="translate(183.04 402.007)">
      <path id="Path_217" data-name="Path 217" d="M246.812,326.171v-1.642h4.142l2.171,3.76h5.785l2.171-3.76h4.062v1.642l5.01,2.893,5.01-2.893v-5.785l-5.01-2.893-5.01,2.893v1.643H261.08l-2.171-3.76h-5.785l-2.171,3.76h-4.142v-1.643l-5.01-2.893-5.01,2.893v5.785l5.01,2.893Zm20.83-4.342,2.51-1.449,2.51,1.449v2.9l-2.51,1.449-2.51-1.449Zm-13.074-1.061h2.9l1.449,2.51-1.449,2.51h-2.9l-1.449-2.51Zm-15.276,1.061,2.51-1.449,2.51,1.449v2.9l-2.51,1.449-2.51-1.449Z" transform="translate(-236.017 -317.493)" fill="#2eb95c"/>
      <path id="Path_218" data-name="Path 218" d="M237.72,470.371l2.171-3.76h4.142v1.643l5.01,2.893,5.01-2.893v-1.643h4.062l2.171,3.76h5.785l2.893-5.01-2.893-5.01h-5.785l-2.171,3.76h-4.062v-1.643l-5.01-2.893-5.01,2.893v1.643H239.89l-2.171-3.76h-5.785l-2.892,5.01,2.892,5.01Zm24.008-7.52h2.9l1.449,2.51-1.449,2.51h-2.9l-1.449-2.51Zm-15.2,1.061,2.51-1.449,2.51,1.449v2.9l-2.51,1.449-2.51-1.449Zm-13.154-1.061h2.9l1.449,2.51-1.449,2.51h-2.9l-1.449-2.51Z" transform="translate(-229.042 -445.368)" fill="#2eb95c"/>
      <path id="Path_219" data-name="Path 219" d="M265.142,604.552V606.2H261.08l-2.171-3.76h-5.785l-2.171,3.76h-4.142v-1.643l-5.01-2.893-5.01,2.893v5.785l5.01,2.893,5.01-2.893v-1.643h4.142l2.171,3.76h5.785l2.171-3.76h4.062v1.643l5.01,2.893,5.01-2.893v-5.785l-5.01-2.893Zm-20.83,4.342-2.51,1.449-2.51-1.449V606l2.51-1.449,2.51,1.449Zm13.154,1.061h-2.9l-1.449-2.51,1.449-2.51h2.9l1.449,2.51Zm15.2-1.061-2.51,1.449-2.51-1.449V606l2.51-1.449,2.51,1.449Z" transform="translate(-236.017 -573.243)" fill="#2eb95c"/>
    </g>
  </g>
</svg>
