<svg xmlns="http://www.w3.org/2000/svg" width="40" height="40" viewBox="0 0 40 40">
  <g id="Symbol_349_1" data-name="Symbol 349 – 1" transform="translate(-249 -403.048)">
    <path id="Path_220" data-name="Path 220" d="M885.465,314.421V309.5h0v-2.592l-.071.036-4.916-2.473,4.941-2.486.046.023v-2.567l-.046.023L872.965,293.2l-12.456,6.267-.046-.023v2.567l.046-.023,4.941,2.486-4.916,2.473-.071-.036V309.5h0v4.921l-7.5-3.771v15.016l15,7.531v-2.521h0v-3.715l5,2.516,5-2.516v3.715h0V333.2l15-7.531V310.65Zm-5,8.761v-3.727l2.5-1.256v3.726Zm0-6.248V312h0v-.053l2.5-1.257v4.989Zm-7.5-11.249-.046.023-2.459-1.237,2.5-1.26,2.5,1.26-2.459,1.237Zm0,2.567.046-.023,4.9,2.479-4.95,2.491-4.95-2.491,4.9-2.479Zm-1.25,6.839v4.986l-3.751-1.886V313.2Zm2.5,0,3.751-1.887v4.987l-3.751,1.886Zm8.676-6.886-2.477,1.246-4.9-2.479,2.465-1.24Zm-19.878-7.48,9.951-5.007,9.951,5.007-4.941,2.486-5.01-2.521-5.01,2.521Zm4.941,5.007,2.465,1.24-4.9,2.479-2.477-1.246Zm-4.99,4.957,2.5,1.257V312h0v4.936l-2.5-1.256Zm2.5,8.766v3.727l-2.5-1.257V318.2Zm0,9.965-10-5.02v-9.973l5,2.514v3.725h0v2.521l5,2.516Zm2.5-8.708,3.751,1.886v3.729l-3.751-1.887Zm6.251,5.615V322.6l3.751-1.886v3.728Zm16.25-1.926-10,5.02V325.7l5-2.516v-2.521h0v-3.725l5-2.514Z" transform="translate(-603.965 109.851)" fill="#2eb95c"/>
    <g id="Group_429" data-name="Group 429" transform="translate(249 403.067)">
      <rect id="Rectangle_208" data-name="Rectangle 208" width="40" height="39.962" transform="translate(0 0)" fill="none"/>
    </g>
  </g>
</svg>
