<svg xmlns="http://www.w3.org/2000/svg" width="19.22" height="19.988" viewBox="0 0 19.22 19.988">
  <g id="Group_636" data-name="Group 636" transform="translate(-308 -580)">
    <path id="Path_336" data-name="Path 336" d="M66.721,50l-2.5,1.441v.865H62.108v-.865L59.61,50l-2.5,1.441v.865H55v-.865L52.5,50,50,51.441v2.883l2.5,1.441L55,54.324V53.46h2.114v.859l2.5,1.447,2.5-1.441V53.46h2.114v.859l2.5,1.447,2.5-1.441V51.441ZM53.844,53.652l-1.345.769-1.345-.769V52.114l1.345-.769,1.345.769Zm7.111,0-1.345.769-1.345-.769V52.114l1.345-.769,1.345.769Zm7.111,0-1.345.769-1.345-.769V52.114l1.345-.769,1.345.769Z" transform="translate(258 530)" fill="#fff"/>
    <path id="Path_337" data-name="Path 337" d="M66.721,87l-2.5,1.441v.865H62.108v-.865L59.61,87l-2.5,1.441v.865H55v-.865L52.5,87,50,88.441v2.883l2.5,1.441L55,91.324V90.46h2.114v.859l2.5,1.447,2.5-1.441V90.46h2.114v.859l2.5,1.447,2.5-1.441V88.441ZM53.844,90.652l-1.345.769-1.345-.769V89.114l1.345-.769,1.345.769Zm7.111,0-1.345.769-1.345-.769V89.114l1.345-.769,1.345.769Zm7.111,0-1.345.769-1.345-.769V89.114l1.345-.769,1.345.769Z" transform="translate(258 500.111)" fill="#fff"/>
    <path id="Path_338" data-name="Path 338" d="M66.721,124l-2.5,1.441v.865H62.108v-.865L59.61,124l-2.5,1.441v.865H55v-.865L52.5,124,50,125.441v2.883l2.5,1.441,2.5-1.441v-.865h2.114v.859l2.5,1.447,2.5-1.441v-.865h2.114v.859l2.5,1.447,2.5-1.441v-2.883Zm-12.877,3.652-1.345.769-1.345-.769v-1.538l1.345-.769,1.345.769Zm7.111,0-1.345.769-1.345-.769v-1.538l1.345-.769,1.345.769Zm7.111,0-1.345.769-1.345-.769v-1.538l1.345-.769,1.345.769Z" transform="translate(258 470.223)" fill="#fff"/>
  </g>
</svg>
