<svg id="keystorage" xmlns="http://www.w3.org/2000/svg" width="64" height="64" viewBox="0 0 64 64">
  <rect id="Rectangle_2397" data-name="Rectangle 2397" width="64" height="64" fill="none"/>
  <g id="Group_3619" data-name="Group 3619" transform="translate(417.887 41.135)">
    <rect id="Rectangle_2398" data-name="Rectangle 2398" width="2.997" height="10.744" transform="translate(-390.849 -26.694)" fill="#fff"/>
    <path id="Path_2425" data-name="Path 2425" d="M-385.94-4.527l-18.6-10.736,12.894-7.444v3.483a2.854,2.854,0,0,0-1.522,2.459c.055,1.667,1.89,2.958,4.1,2.883a5.285,5.285,0,0,0,1.6-.317l5.491,4.217,4.507-2.623-8.008-3.209a2.477,2.477,0,0,0,.3-1.223,2.843,2.843,0,0,0-1.655-2.33v-6.119l.94-.542,18.6,10.735Z" fill="#fff"/>
    <path id="Path_2426" data-name="Path 2426" d="M-387.107,18.783-405.593,8.109V-13.185l18.486,10.673Z" fill="#fff"/>
    <path id="Path_2427" data-name="Path 2427" d="M-385.671-40.07h-7.46a5.1,5.1,0,0,0-5.1,5.1,5.1,5.1,0,0,0,5.1,5.1h7.46a5.1,5.1,0,0,0,5.1-5.1A5.1,5.1,0,0,0-385.671-40.07Zm-1.28,7h-4.669c-1.764,0-3.194-.929-3.194-2.076s1.43-2.075,3.194-2.075h4.669c1.765,0,3.195.929,3.195,2.075S-385.186-33.072-386.951-33.072Z" fill="#fff" stroke="#d9b52d" stroke-miterlimit="10" stroke-width="1"/>
    <path id="Path_2428" data-name="Path 2428" d="M-385.888-28.338l-.972.561v-1.865h-.992v11.759a1.358,1.358,0,0,1-1.359,1.358h-.279a1.358,1.358,0,0,1-1.359-1.358V-29.642h-.994V-24.9L-407.6-15.8V9.266L-385.888,21.8l21.709-12.534V-15.8Zm-1.219,47.121L-405.593,8.109V-13.185l18.486,10.673Zm1.167-23.31-18.6-10.736,12.894-7.444v3.483a2.854,2.854,0,0,0-1.522,2.459c.055,1.667,1.89,2.958,4.1,2.883a5.285,5.285,0,0,0,1.6-.317l5.491,4.217,4.508-2.623-8.009-3.209a2.477,2.477,0,0,0,.3-1.223,2.843,2.843,0,0,0-1.655-2.33v-6.119l.94-.542,18.6,10.735Z" fill="#d9b52d"/>
    <rect id="Rectangle_2399" data-name="Rectangle 2399" width="2.997" height="10.744" transform="translate(-390.849 -30.712)" fill="#fff"/>
  </g>
</svg>
