<svg xmlns="http://www.w3.org/2000/svg" width="22" height="22" viewBox="0 0 22 22">
  <g id="Symbol_352_1" data-name="Symbol 352 – 1" transform="translate(-213 -613)">
    <g id="Group_433" data-name="Group 433" transform="translate(-164 -150)">
      <g id="Group_432" data-name="Group 432" transform="translate(4)">
        <g id="Symbol_350" data-name="Symbol 350" transform="translate(-355 -152)">
          <path id="LinkedIn_1_" d="M16,9.375v5.915H12.57V9.769c0-1.388-.495-2.332-1.737-2.332A1.875,1.875,0,0,0,9.073,8.69a2.373,2.373,0,0,0-.115.837v5.762H5.528s.045-9.349,0-10.316h3.43V6.436l-.022.033h.022V6.436a3.4,3.4,0,0,1,3.091-1.7C14.307,4.732,16,6.205,16,9.375ZM1.942,0A1.787,1.787,0,1,0,1.9,3.564H1.92A1.788,1.788,0,1,0,1.942,0ZM.2,15.289h3.43V4.974H.2Z" transform="translate(731 918)" fill="#3d9155"/>
        </g>
      </g>
      <rect id="Rectangle_209" data-name="Rectangle 209" width="22" height="22" transform="translate(377 763)" fill="none"/>
    </g>
  </g>
</svg>
