<svg xmlns="http://www.w3.org/2000/svg" width="160" height="60" viewBox="0 0 160 60"><g transform="translate(-180 -3197)"><g transform="translate(0 -467)"><rect width="160" height="60" transform="translate(180 3664)" fill="none"/></g><g transform="translate(13 1)"><g transform="translate(186 3212)"><g transform="translate(-150 -36)"><g transform="translate(150 25)"><g transform="translate(0 11)"><path d="M84.608,0a1.9,1.9,0,0,0-1.385.572,1.886,1.886,0,0,0-.574,1.38,1.885,1.885,0,0,0,.574,1.38,1.964,1.964,0,0,0,2.77,0,1.886,1.886,0,0,0,.574-1.38,1.887,1.887,0,0,0-.574-1.38A1.9,1.9,0,0,0,84.608,0" fill="#3d9155" fill-rule="evenodd"/><path d="M9.917,12.007a5.092,5.092,0,1,0,6.928-1.98,5.07,5.07,0,0,0-6.928,1.98" fill="#3d9155" fill-rule="evenodd"/><path d="M7.747,24.437q-.441.264-.854.556a.38.38,0,0,0-.06.57,29.847,29.847,0,0,0,2.444,2.328,3.792,3.792,0,0,0,3.273.815,29.734,29.734,0,0,0,3.569-1.022A27.319,27.319,0,0,0,20.966,25.4q.418-.25.828-.517a.255.255,0,0,0-.01-.431,13.634,13.634,0,0,0-14.036-.016" fill="#3d9155" fill-rule="evenodd"/><g transform="translate(0 0)"><g transform="translate(0 6.787)"><path d="M4.372,1.076Q4.107.637,3.814.225a.383.383,0,0,0-.571-.06A29.905,29.905,0,0,0,.907,2.6,3.761,3.761,0,0,0,.089,5.863,29.554,29.554,0,0,0,1.115,9.42,27.122,27.122,0,0,0,3.4,14.25q.251.416.519.825a.256.256,0,0,0,.433-.01A13.509,13.509,0,0,0,4.372,1.076" fill="#3d9155" fill-rule="evenodd"/></g><path d="M20.892,4.5q.441-.264.854-.556a.38.38,0,0,0,.06-.57,29.817,29.817,0,0,0-2.444-2.328A3.792,3.792,0,0,0,16.089.232,29.811,29.811,0,0,0,12.52,1.254,27.311,27.311,0,0,0,7.674,3.536q-.418.25-.828.517a.254.254,0,0,0,.01.431A13.634,13.634,0,0,0,20.892,4.5" fill="#3d9155" fill-rule="evenodd"/><g transform="translate(22.289 6.787)"><path d="M2.088,14.286q.265.439.558.851a.383.383,0,0,0,.571.06,29.9,29.9,0,0,0,2.336-2.436A3.761,3.761,0,0,0,6.371,9.5,29.554,29.554,0,0,0,5.346,5.942a27.129,27.129,0,0,0-2.29-4.83Q2.805.7,2.537.287A.256.256,0,0,0,2.1.3a13.509,13.509,0,0,0-.016,13.989" fill="#3d9155" fill-rule="evenodd"/></g></g><path d="M62.941,6.449a5.277,5.277,0,0,0-4.915,2.62v-2.2H55.446V22.059h2.579v-7.9a5.811,5.811,0,0,1,1.2-3.839A4.082,4.082,0,0,1,62.52,8.9a3.59,3.59,0,0,1,2.8,1.141A5.053,5.053,0,0,1,66.349,13.5v8.56h2.579V13.017A6.9,6.9,0,0,0,67.354,8.1a6,6,0,0,0-4.413-1.648" fill="#3d9155" fill-rule="evenodd"/><g transform="translate(106.696 6.376)"><path d="M13.511,8.089A5.51,5.51,0,0,1,8.1,13.677,5.51,5.51,0,0,1,2.679,8.089,5.51,5.51,0,0,1,8.1,2.5a5.51,5.51,0,0,1,5.416,5.587M8.1.073a8.016,8.016,0,1,0,8.043,8.016A8.039,8.039,0,0,0,8.1.073" fill="#3d9155" fill-rule="evenodd"/></g><path d="M50.363,14.465a5.419,5.419,0,1,1-10.832,0,5.419,5.419,0,1,1,10.832,0M44.947,6.449a8.016,8.016,0,1,0,8.043,8.016,8.039,8.039,0,0,0-8.043-8.016" fill="#3d9155" fill-rule="evenodd"/><path d="M101.775,14.465a5.419,5.419,0,1,1-10.832,0,5.419,5.419,0,1,1,10.832,0ZM101.856,9A7.611,7.611,0,0,0,96.2,6.449a7.89,7.89,0,0,0-7.738,8.016A7.889,7.889,0,0,0,96.2,22.482a7.612,7.612,0,0,0,5.655-2.548v2.125h2.58V.715h-2.58Z" fill="#3d9155" fill-rule="evenodd"/><path d="M83.318,22.059H85.9V6.872h-2.58Z" fill="#3d9155" fill-rule="evenodd"/><path d="M75.984,6.872v-3a1.35,1.35,0,0,1,1.353-1.348h3.007V.178H77.056A3.645,3.645,0,0,0,73.4,3.817V6.872H70.551v2.38H73.4V22.059h2.58V9.252h4.36V6.872Z" fill="#3d9155" fill-rule="evenodd"/></g></g></g></g></g></g></svg>