<svg xmlns="http://www.w3.org/2000/svg" width="160" height="60" viewBox="0 0 160 60">
  <g id="Symbol_371_1" data-name="Symbol 371 – 1" transform="translate(-518 -1084)">
    <rect id="Rectangle_148" data-name="Rectangle 148" width="160" height="60" transform="translate(518 1084)" fill="none"/>
    <g id="_5kvetm" data-name="5kvetm" transform="translate(322.757 2190.66)">
      <g id="Group_240" data-name="Group 240" transform="translate(210.243 -1086.66)">
        <path id="Path_90" data-name="Path 90" d="M216.245-1060.209a16.607,16.607,0,0,1-1.791-.291,8.781,8.781,0,0,1-1.9-.7,4.316,4.316,0,0,1-2.225-3.461,13.023,13.023,0,0,1-.084-1.607c-.008-2.644,0-5.288,0-7.932a6.432,6.432,0,0,1,.544-2.846,4.815,4.815,0,0,1,3.5-2.559,12.856,12.856,0,0,1,4.215-.216c1.08.1,2.15.3,3.225.449.347.048.469.186.4.564-.133.75-.22,1.508-.3,2.266-.027.27-.119.323-.373.291-1.12-.142-2.239-.318-3.364-.38a10.911,10.911,0,0,0-2.482.132,2.018,2.018,0,0,0-1.76,2.084c-.054,1.568-.047,3.138-.05,4.706,0,1.286-.025,2.575.043,3.858a2.268,2.268,0,0,0,2.372,2.358,19.707,19.707,0,0,0,4.181-.215q.545-.071,1.086-.176c.215-.042.311.016.339.242q.151,1.24.328,2.477c.039.269-.1.357-.323.391q-1.526.234-3.053.464c-.278.041-.558.071-.836.106Z" transform="translate(-210.243 1080.477)" fill="#3d9155"/>
        <path id="Path_91" data-name="Path 91" d="M388.609-1005.057c-.513-.091-1.032-.158-1.538-.276a4.386,4.386,0,0,1-3.688-4.188,41.576,41.576,0,0,1,.022-5.839,4.177,4.177,0,0,1,3.118-3.837,9.209,9.209,0,0,1,5.59-.01,4.163,4.163,0,0,1,3.144,3.812,37.308,37.308,0,0,1,.023,5.88,4.45,4.45,0,0,1-4.06,4.266c-.388.067-.778.128-1.166.191Zm3.33-7.272v-2.035c0-.028,0-.056,0-.085a1.977,1.977,0,0,0-1.388-2.054,4.539,4.539,0,0,0-1.377-.176c-1.6.063-2.393.761-2.436,2.173-.044,1.44-.039,2.883,0,4.324a1.921,1.921,0,0,0,1.646,2.06,5.77,5.77,0,0,0,1.678.03,1.972,1.972,0,0,0,1.875-2.16C391.95-1010.944,391.939-1011.636,391.939-1012.329Z" transform="translate(-368.604 1025.325)" fill="#3d9155"/>
        <path id="Path_92" data-name="Path 92" d="M845.932-1060.219c-.67-.092-1.346-.155-2.008-.284-.719-.14-1.426-.339-2.138-.517-.257-.064-.357-.189-.285-.492.225-.949.21-.956,1.155-.723a16.7,16.7,0,0,0,4.957.5,7.4,7.4,0,0,0,1.581-.27,2.25,2.25,0,0,0,1.693-1.824,9.227,9.227,0,0,0,.026-3.288,1.848,1.848,0,0,0-1.347-1.5c-.88-.3-1.785-.527-2.679-.786-.975-.283-1.964-.526-2.922-.858a3.16,3.16,0,0,1-2.258-3.108,23.266,23.266,0,0,1,0-2.917,3.424,3.424,0,0,1,3-3.346,13.083,13.083,0,0,1,4.006-.223c1.08.087,2.148.316,3.223.473.35.051.491.177.438.578-.123.923-.1.922-1.006.757a19.79,19.79,0,0,0-5.016-.349,7.457,7.457,0,0,0-1.046.154,2.1,2.1,0,0,0-1.983,2.126,19.724,19.724,0,0,0,.03,2.834,1.768,1.768,0,0,0,1.322,1.646c.922.308,1.866.552,2.8.835.985.3,1.976.584,2.947.925a3.088,3.088,0,0,1,2.2,3.215,20.946,20.946,0,0,1-.077,2.832,3.579,3.579,0,0,1-3.2,3.337c-.564.12-1.14.184-1.71.274Z" transform="translate(-787.903 1080.487)" fill="#3d9155"/>
        <path id="Path_93" data-name="Path 93" d="M1469.973-1004.7l-1-.185a3.8,3.8,0,0,1-3.37-3.651c-.109-2.269-.117-4.551,0-6.818a4.09,4.09,0,0,1,4-3.838,8.982,8.982,0,0,1,2.988.159,3.729,3.729,0,0,1,3.016,3.367c.158,1.269.088,2.566.122,3.851.007.252-.139.3-.355.3-.679-.006-1.357,0-2.036,0q-2.886,0-5.771,0c-.485,0-.5,0-.488.5a19.433,19.433,0,0,0,.134,2.535,2.53,2.53,0,0,0,2.5,2.278,14.517,14.517,0,0,0,4.952-.46c.527-.119.53-.131.63.386.177.919.333.779-.635,1.018-.887.219-1.805.312-2.709.461-.18.03-.36.064-.54.1Zm.636-8.225c1.046,0,2.092-.007,3.138,0,.307,0,.43-.1.417-.417-.023-.536.01-1.075-.016-1.611a2.705,2.705,0,0,0-2.228-2.805,5.84,5.84,0,0,0-2.482.007,2.6,2.6,0,0,0-2.208,2.266,17.1,17.1,0,0,0-.146,2.023c-.02.511.015.531.514.532C1468.6-1012.92,1469.6-1012.922,1470.608-1012.923Z" transform="translate(-1358.982 1024.966)" fill="#3d9155"/>
        <path id="Path_94" data-name="Path 94" d="M1201.242-1004.626a4.081,4.081,0,0,1-.9-.143,2.882,2.882,0,0,1-2.371-2.649,8.3,8.3,0,0,1,.027-2.4,2.755,2.755,0,0,1,2.889-2.5c1.426-.06,2.855-.036,4.282-.049.184,0,.368-.011.551,0,.273.012.364-.109.36-.381-.014-.933.008-1.866-.011-2.8a1.979,1.979,0,0,0-1.54-1.988,9.154,9.154,0,0,0-3.244-.126c-.786.066-1.568.2-2.347.324-.233.038-.309-.036-.338-.243a4.06,4.06,0,0,0-.122-.665c-.1-.317.03-.433.321-.493a15.817,15.817,0,0,1,5.639-.28,5.332,5.332,0,0,1,1.331.4,3.093,3.093,0,0,1,1.869,2.677,9.591,9.591,0,0,1,.041,1.058q0,4.539,0,9.077c0,.155,0,.311-.006.466,0,.07.006.164-.034.2-.3.31-.963.153-1.035.142a.513.513,0,0,1-.292-.259,4.174,4.174,0,0,1-.124-.7,2.328,2.328,0,0,0-.325.118,8.608,8.608,0,0,1-3.472,1.211C1202.294-1004.619,1201.813-1004.622,1201.242-1004.626Zm2.589-6.346v0c-.41,0-.82-.006-1.23,0s-.819.025-1.228.043a1.684,1.684,0,0,0-1.844,1.56,7.128,7.128,0,0,0,.006,1.813,1.522,1.522,0,0,0,1.534,1.422,7.34,7.34,0,0,0,4.745-1.235.5.5,0,0,0,.262-.484c-.01-.9-.019-1.81,0-2.714.009-.336-.135-.411-.424-.406C1205.047-1010.965,1204.439-1010.971,1203.831-1010.971Z" transform="translate(-1114.067 1024.895)" fill="#3d9155"/>
        <path id="Path_95" data-name="Path 95" d="M1634.662-1004.683c-.709-.117-1.418-.233-2.126-.352a3.048,3.048,0,0,1-.329-.078c-1.191-.34-.933-.181-.762-1.215.058-.35.217-.355.493-.278a12.215,12.215,0,0,0,3.559.455,9.343,9.343,0,0,0,1.389-.129,1.454,1.454,0,0,0,1.387-1.415,10.21,10.21,0,0,0,.018-1.817,1.371,1.371,0,0,0-1.013-1.282c-.7-.231-1.409-.406-2.11-.618-.728-.221-1.468-.416-2.174-.7a2.418,2.418,0,0,1-1.624-2.359,15.945,15.945,0,0,1,.026-2.154,2.818,2.818,0,0,1,2.649-2.456,14.7,14.7,0,0,1,5.346.227c.289.061.385.2.332.472-.208,1.063.144.992-1.062.817a14.385,14.385,0,0,0-4.3-.125,1.469,1.469,0,0,0-1.415,1.6c-.025.478-.015.96.007,1.438a1.367,1.367,0,0,0,.97,1.311c.652.226,1.324.4,1.982.607.832.268,1.67.523,2.482.842a2.177,2.177,0,0,1,1.481,1.995,16.662,16.662,0,0,1-.037,2.536,2.6,2.6,0,0,1-2.227,2.393c-.52.121-1.053.186-1.581.276Z" transform="translate(-1510.685 1024.95)" fill="#3d9155"/>
        <path id="Path_96" data-name="Path 96" d="M658.111-1018.119c.636-.244,1.224-.478,1.819-.695a13.208,13.208,0,0,1,3.64-.739,2.869,2.869,0,0,1,3.151,2.7,9.9,9.9,0,0,1,.1,1.393q.013,4.773,0,9.546c0,.569,0,.571-.555.572-.806,0-1.612,0-2.418,0-.463,0-.47-.01-.47-.482,0-3.026-.024-6.053.011-9.079.014-1.214-.718-1.409-1.542-1.279a10.831,10.831,0,0,0-2.918.99.587.587,0,0,0-.356.635c.009,2.871.005,5.742,0,8.613,0,.6,0,.6-.606.6-.806,0-1.613-.01-2.418,0-.311.005-.42-.1-.419-.417q.011-6.534,0-13.068c0-.317.11-.422.42-.413.608.017,1.217.022,1.824,0a.429.429,0,0,1,.5.387C657.942-1018.6,658.031-1018.37,658.111-1018.119Z" transform="translate(-617.379 1025.257)" fill="#3d9155"/>
        <path id="Path_97" data-name="Path 97" d="M1028.194-1075.422q0-4.624,0-9.248c0-.517,0-.518.511-.6.237-.038.478-.055.711-.109.271-.063.363.041.361.3-.005.552,0,1.1,0,1.654q0,2.333,0,4.666c0,.453.039.476.455.3a15.351,15.351,0,0,1,4.045-1.212,8.413,8.413,0,0,1,1.941-.036,2.265,2.265,0,0,1,2.026,2.031,6.819,6.819,0,0,1,.089,1.053q.009,5.239,0,10.478c0,.558,0,.566-.563.559-1.189-.014-1.014.163-1.017-1-.009-3.309,0-6.618,0-9.927,0-1.433-.543-1.914-1.968-1.749a15.736,15.736,0,0,0-4.682,1.421c-.317.144-.331.373-.331.654q0,4.857,0,9.715a4.158,4.158,0,0,0,0,.424c.036.345-.1.468-.456.469-1.129,0-1.129.017-1.129-1.106Z" transform="translate(-958.771 1085.504)" fill="#3d9155"/>
        <path id="Path_98" data-name="Path 98" d="M570.129-1008.711q0,3.18,0,6.36c0,.54,0,.542-.54.544q-1.166,0-2.332,0c-.508,0-.529-.019-.53-.523q-.005-3.349,0-6.7,0-3.053,0-6.105c0-.559.006-.56.574-.56.792,0,1.583.014,2.374-.007.354-.009.463.116.461.463C570.124-1013.063,570.129-1010.887,570.129-1008.711Z" transform="translate(-536.469 1021.725)" fill="#3d9155"/>
        <path id="Path_99" data-name="Path 99" d="M1369.792-1016.035c.2-.124.4-.255.607-.372,1.043-.592,2.082-1.193,3.136-1.765.4-.216.473-.152.526.293.128,1.071.111,1.041-.83,1.579-1.091.623-2.145,1.31-3.224,1.956-.258.155-.258.375-.258.619q0,4.389,0,8.779c0,.85.078.769-.78.77-.911,0-.8.077-.8-.787q-.005-6.234,0-12.468c0-.633,0-.633.614-.633.849,0,.851,0,.866.855.006.375,0,.751,0,1.126Z" transform="translate(-1269.887 1024.094)" fill="#3d9155"/>
        <path id="Path_100" data-name="Path 100" d="M570.138-1084.671c0,.522-.008,1.044,0,1.566.006.278-.078.414-.383.41q-1.312-.019-2.625,0c-.3,0-.4-.125-.4-.4q.008-1.588,0-3.175c0-.256.088-.387.371-.384q1.334.016,2.667,0c.282,0,.371.116.366.38C570.13-1085.744,570.138-1085.207,570.138-1084.671Z" transform="translate(-536.478 1086.66)" fill="#3d9155"/>
      </g>
    </g>
  </g>
</svg>
