<svg xmlns="http://www.w3.org/2000/svg" xmlns:xlink="http://www.w3.org/1999/xlink" width="160" height="60" viewBox="0 0 160 60">
  <defs>
    <clipPath id="clip-path">
      <rect id="Rectangle_145" data-name="Rectangle 145" width="94.902" height="27.291" fill="#3d9155"/>
    </clipPath>
  </defs>
  <g id="Symbol_370_1" data-name="Symbol 370 – 1" transform="translate(-328 -1084)">
    <rect id="Rectangle_147" data-name="Rectangle 147" width="160" height="60" transform="translate(328 1084)" fill="none"/>
    <g id="Group_242" data-name="Group 242" transform="translate(-2.264 -2513.435)">
      <g id="Group_239" data-name="Group 239" transform="translate(363 3618.797)">
        <g id="Group_238" data-name="Group 238" transform="translate(0 0)">
          <g id="Group_237" data-name="Group 237" clip-path="url(#clip-path)">
            <path id="Path_86" data-name="Path 86" d="M6.989,59.82h8.029l3.2,3.685,3.2-3.685h8.168l-7.369,8.169,8.9,9.663H22.8l-4.588-5.284-4.588,5.284H5.321l8.9-9.663L6.989,59.82" transform="translate(-5.351 -59.229)" fill="#3d9155"/>
            <path id="Path_87" data-name="Path 87" d="M77.514,77.078H71.188V75.1h-.07a6.262,6.262,0,0,1-5.388,2.572c-5.284,0-9-4.415-9-9.524s3.65-9.489,8.934-9.489a7.276,7.276,0,0,1,5.527,2.329V59.246h6.326V77.078m-14.252-8.9a4.068,4.068,0,0,0,8.134,0,4.067,4.067,0,0,0-8.134,0Z" transform="translate(-30.686 -58.655)" fill="#3d9155"/>
            <path id="Path_88" data-name="Path 88" d="M111.924,61.262h.069a6.333,6.333,0,0,1,5.388-2.607c5.319,0,9,4.449,9,9.559,0,5.144-3.65,9.454-8.934,9.454a7.3,7.3,0,0,1-5.526-2.294v10.6H105.6V59.246h6.326v2.016m-.208,6.918a4.067,4.067,0,0,0,8.134,0,4.067,4.067,0,0,0-8.134,0Z" transform="translate(-54.772 -58.655)" fill="#3d9155"/>
          </g>
        </g>
        <path id="Path_89" data-name="Path 89" d="M171.632,68.179c0,6.048-5.005,9.489-10.741,9.489-5.7,0-10.741-3.407-10.741-9.489s5.006-9.524,10.741-9.524,10.741,3.441,10.741,9.524m-14.808,0a4.067,4.067,0,0,0,8.134,0,4.067,4.067,0,0,0-8.134,0Z" transform="translate(-76.729 -58.655)" fill="#3d9155"/>
      </g>
    </g>
  </g>
</svg>
