<svg xmlns="http://www.w3.org/2000/svg" width="160" height="60" viewBox="0 0 160 60">
  <g id="Symbol_372_1" data-name="Symbol 372 – 1" transform="translate(-708 -1084)">
    <rect id="Rectangle_149" data-name="Rectangle 149" width="160" height="60" transform="translate(708 1084)" fill="none"/>
    <g id="wDX9tH" transform="translate(272.818 2764.653)">
      <g id="Group_241" data-name="Group 241" transform="translate(449.182 -1657.653)">
        <path id="Path_101" data-name="Path 101" d="M1128.81-1656.089c-.61,1.887-1.165,3.617-1.728,5.345q-2.076,6.371-4.166,12.737a7.575,7.575,0,0,1-.716,1.5,3.237,3.237,0,0,1-3.009,1.727c-.892-.025-1.783-.088-2.842-.143.127-.793.233-1.449.345-2.151.65.078,1.189.16,1.731.2a1.764,1.764,0,0,0,1.876-1.069c.5-1.154.878-2.362,1.369-3.718a12.566,12.566,0,0,1-1.561-.018.878.878,0,0,1-.632-.4c-1.559-4.6-3.088-9.219-4.677-14,.965,0,1.846-.035,2.721.03.172.013.387.388.461.633,1.155,3.819,2.289,7.644,3.43,11.467.1.326.214.646.4,1.217.194-.52.33-.834.43-1.159,1.173-3.787,2.359-7.571,3.493-11.37.2-.66.5-.9,1.165-.848C1127.48-1656.05,1128.063-1656.089,1128.81-1656.089Z" transform="translate(-1008.986 1656.353)" fill="#3d9155"/>
        <path id="Path_102" data-name="Path 102" d="M550.975-1649.341h-9.822a3.843,3.843,0,0,0,3.283,4.518,10.388,10.388,0,0,0,4.393-.35c.223-.061.444-.131.655-.193.9,1.892.743,2.238-1.2,2.611a12.28,12.28,0,0,1-5.121,0,5.747,5.747,0,0,1-4.775-4.989,14.113,14.113,0,0,1,.012-4.408,6.147,6.147,0,0,1,6.569-5.295c3.091.106,5.184,1.694,5.747,4.731A31.379,31.379,0,0,1,550.975-1649.341Zm-2.811-2.071a3.429,3.429,0,0,0-3.193-3.923,3.629,3.629,0,0,0-3.839,3.923Z" transform="translate(-524.067 1657.485)" fill="#3d9155"/>
        <path id="Path_103" data-name="Path 103" d="M927.723-1657.286c3.527.04,6.34,2.009,6.609,6.588a12.954,12.954,0,0,1-.291,3.459,6.166,6.166,0,0,1-6.665,4.888c-4.208-.229-6.124-3.063-6.33-6.667a12.749,12.749,0,0,1,.2-3.078C921.939-1655.76,924.2-1657.326,927.723-1657.286Zm3.7,7.23a10.262,10.262,0,0,0-.691-3.358,3.04,3.04,0,0,0-3.134-1.735,3.1,3.1,0,0,0-3.051,1.893,8.457,8.457,0,0,0,.007,6.855,3.085,3.085,0,0,0,3.039,1.888,3.083,3.083,0,0,0,3.208-1.859A12.292,12.292,0,0,0,931.426-1650.056Z" transform="translate(-846.015 1657.345)" fill="#3d9155"/>
        <path id="Path_104" data-name="Path 104" d="M754.655-1656.37c.019.37.043.628.043.886,0,4.106-.008,8.212.014,12.318,0,.574-.155.824-.742.962a16.7,16.7,0,0,1-6.765.363,4.9,4.9,0,0,1-4.248-5.08c-.124-3.041-.037-6.091-.038-9.137a.758.758,0,0,1,.077-.223,1.176,1.176,0,0,1,.228-.068c2.368-.206,2.365-.205,2.369,2.141,0,2.2-.016,4.4.043,6.595a6.482,6.482,0,0,0,.424,1.918,2.237,2.237,0,0,0,1.842,1.577,26.92,26.92,0,0,0,3.312.1c.6,0,.834-.312.827-.96-.034-3.5,0-6.993-.032-10.49-.007-.686.161-.975.875-.911C753.434-1656.331,753.991-1656.37,754.655-1656.37Z" transform="translate(-696.199 1656.626)" fill="#3d9155"/>
        <path id="Path_105" data-name="Path 105" d="M1032.5-1645.491c1.609.451,3.095.91,4.642.484a3.968,3.968,0,0,0,1.469-.723,1.72,1.72,0,0,0-.132-2.848,10.8,10.8,0,0,0-1.859-.862c-.825-.356-1.676-.654-2.48-1.051a3.186,3.186,0,0,1-1.858-3.376,3.471,3.471,0,0,1,2.152-3.174,9.8,9.8,0,0,1,6.761-.015.622.622,0,0,1,.275.531c-.09.538-.263,1.062-.379,1.5-1.274-.168-2.437-.372-3.608-.451a3.628,3.628,0,0,0-1.533.318,1.444,1.444,0,0,0-.476,2.458,4.012,4.012,0,0,0,1.268.776c.855.35,1.746.612,2.614.933a3.6,3.6,0,0,1,2.595,3.187,3.906,3.906,0,0,1-2.1,4.188,8.208,8.208,0,0,1-3.241.881,26.036,26.036,0,0,1-4.156-.414.5.5,0,0,1-.464-.726C1032.153-1644.4,1032.321-1644.927,1032.5-1645.491Z" transform="translate(-939.303 1657.653)" fill="#3d9155"/>
        <path id="Path_106" data-name="Path 106" d="M655.5-1644.759c.851,1.643.66,2.127-1.249,2.336a15.723,15.723,0,0,1-3.864,0,5.8,5.8,0,0,1-5.044-4.634,9.7,9.7,0,0,1,.285-6.081,6.161,6.161,0,0,1,5.676-4.008c1.26,0,2.521.172,3.78.283.666.058.826.433.627,1.044-.129.395-.2.809-.282,1.172-1.1-.1-2.113-.253-3.131-.272a3.78,3.78,0,0,0-4.167,3.122,7.567,7.567,0,0,0,.117,4.611,3.646,3.646,0,0,0,3.447,2.607C652.918-1644.519,654.154-1644.686,655.5-1644.759Z" transform="translate(-613.859 1657.226)" fill="#3d9155"/>
        <path id="Path_107" data-name="Path 107" d="M861.657-1653.717a2.842,2.842,0,0,1-.422.07c-3.321-.224-4.365,1.849-4.443,4.58-.062,2.143-.013,4.29-.014,6.435,0,.285,0,.571,0,.93h-2.656c-.02-.254-.055-.481-.055-.709,0-4.29.006-8.58-.012-12.87,0-.574.094-.877.768-.853,1.775.064,1.542-.266,1.767,1.576.021.171.068.34.1.508.345-.313.667-.579.958-.875a4.118,4.118,0,0,1,3.487-1.163.754.754,0,0,1,.495.526A17.629,17.629,0,0,1,861.657-1653.717Z" transform="translate(-789.692 1656.377)" fill="#3d9155"/>
        <path id="Path_108" data-name="Path 108" d="M449.182-1617.4l.672-2.067a8.676,8.676,0,0,0,4.409.418,4.076,4.076,0,0,0,.965-.35,1.931,1.931,0,0,0,1.139-1.769,1.806,1.806,0,0,0-1.167-1.738c-.891-.4-1.823-.7-2.732-1.062-1.045-.412-1.043-.419-.69-1.5.139-.427.275-.855.416-1.282.016-.047.052-.088-.014.019,1.24.493,2.457.952,3.652,1.462a8.061,8.061,0,0,1,2.027,1.041,4.085,4.085,0,0,1-.782,6.5,10.645,10.645,0,0,1-3.229.953A9.544,9.544,0,0,1,449.182-1617.4Z" transform="translate(-449.182 1631.707)" fill="#3d9155"/>
        <path id="Path_109" data-name="Path 109" d="M1232.989-1650.787l-.752,2.333c-1.039-.4-2.039-.78-3.035-1.17-.369-.144-.739-.29-1.092-.468-1.866-.944-2.448-1.978-2.235-3.936a3.786,3.786,0,0,1,3.1-3.2,11.453,11.453,0,0,1,5.933.42l-.6,1.874c-1.109-.137-2.144-.312-3.185-.374a3.934,3.934,0,0,0-1.465.262,1.479,1.479,0,0,0-.459,2.674,8.9,8.9,0,0,0,1.99.938C1231.751-1651.2,1232.329-1651.021,1232.989-1650.787Z" transform="translate(-1102.368 1657.477)" fill="#3d9155"/>
        <path id="Path_110" data-name="Path 110" d="M1228.977-1579.437c-.037.13-.121.456-.225.776-.457,1.409-.46,1.421-1.921,1.3-.737-.063-1.472-.161-2.2-.283a10.1,10.1,0,0,1-1.19-.364l.517-1.961Z" transform="translate(-1100.355 1592.322)" fill="#3d9155"/>
        <path id="Path_111" data-name="Path 111" d="M478.885-1656.622l-.534,2.032c-1.713-.513-3.346-.962-5.181-.3.243-.77.43-1.437.673-2.084a.633.633,0,0,1,.463-.32A10.12,10.12,0,0,1,478.885-1656.622Z" transform="translate(-469.357 1657.371)" fill="#3d9155"/>
      </g>
    </g>
  </g>
</svg>
