<svg xmlns="http://www.w3.org/2000/svg" width="21.317" height="31.976" viewBox="0 0 21.317 31.976">
  <g id="mainstay_-_icon_-_primary" data-name="mainstay - icon - primary" transform="translate(-55 -34.5)">
    <path id="Path_224" data-name="Path 224" d="M74.9,45.159V39.829L65.623,34.5l-9.2,5.329v5.329H55V66.476H76.317V45.159ZM57.842,40.644l7.783-4.5,7.85,4.5v4.5H72.054V41.466L65.635,37.78l-6.371,3.686v3.693H57.842Zm12.79,4.515H60.685V42.286l4.953-2.866,5,2.871Zm4.263,19.9H56.421V46.58H74.9Z" fill="#31c25a"/>
    <path id="Path_225" data-name="Path 225" d="M82.633,98.606V91.5H75.527v2.842H74.106V91.5H67v7.106h2.842v1.421H67v7.106h7.106V104.29h1.421v2.842h7.106v-7.106H79.79V98.606ZM68.421,97.185V92.921h4.263v4.263Zm4.263,8.527H68.421v-4.263h4.263Zm1.421-2.842v-2.842H71.263V98.606h2.842V95.763h1.421v2.842h2.842v1.421H75.527v2.842Zm7.106-1.421v4.263H76.948v-4.263Zm-4.263-4.263V92.921h4.263v4.263Z" transform="translate(-9.158 -43.499)" fill="#31c25a"/>
  </g>
</svg>
