<svg id="mkslogo" xmlns="http://www.w3.org/2000/svg" width="40.944" height="40.943" viewBox="0 0 40.944 40.943">
  <path id="Path_426" data-name="Path 426" d="M526.183,1034.041a20.472,20.472,0,1,0,20.3,20.646A20.475,20.475,0,0,0,526.183,1034.041Zm6.876,1.64a5.172,5.172,0,0,1,.909.378,5.147,5.147,0,0,0-.91-.378,16.334,16.334,0,0,0-2.406-.744A16.374,16.374,0,0,1,533.059,1035.681Zm-5.948-.55a.091.091,0,0,0,0,.016,7.5,7.5,0,0,1,.871.377,7.517,7.517,0,0,0-.871-.377A.1.1,0,0,1,527.111,1035.131Zm-1.5-.4a4.792,4.792,0,0,1,.473.106,4.765,4.765,0,0,0-.473-.106Zm-2.5-.122.139-.011,0,0c.078-.02.157-.036.236-.048-.079.013-.158.029-.236.048l0,0-.139.011c-.371.048-.739.109-1.1.183C522.379,1034.718,522.747,1034.656,523.118,1034.608Zm-1.873,1.754a3.582,3.582,0,0,1,.351-.282,3.548,3.548,0,0,0-.351.282h0Zm-1.35.037a2.353,2.353,0,0,1,.242-.029,2.353,2.353,0,0,0-.242.029.893.893,0,0,0-.155.008A.881.881,0,0,1,519.894,1036.4Zm-13.346,14.283h0q.057-.268.127-.532Q506.605,1050.414,506.548,1050.682Zm1.314-3.745a.462.462,0,0,0-.075.116.462.462,0,0,1,.075-.116,1.962,1.962,0,0,1,.127-.32A1.962,1.962,0,0,0,507.862,1046.937Zm.343-.835a.159.159,0,0,0-.035.005A.159.159,0,0,1,508.205,1046.1Zm.039,0a.176.176,0,0,0-.038,0,.192.192,0,0,1,.038,0l.281-.518Zm12.361,27.773a3.951,3.951,0,0,1-.635-.167,3.951,3.951,0,0,0,.635.167.354.354,0,0,1,.14-.036.352.352,0,0,0-.14.036,1.682,1.682,0,0,0,.314.11A1.676,1.676,0,0,1,520.605,1073.877Zm4.239-.029-.19-.047.19.047a1.274,1.274,0,0,1,.12.062A1.274,1.274,0,0,0,524.844,1073.848Zm3.928.585c-.108.019-.216.035-.324.05.108-.015.216-.031.324-.05a2.089,2.089,0,0,0,.295-.031A2.089,2.089,0,0,1,528.773,1074.433Zm.625-.1h0c-.091.019-.182.039-.273.056.091-.017.182-.036.273-.056Zm1.523-1.669-.246-.015.246.015Zm1.8.813q-.3.11-.611.21.307-.1.611-.21c.229-.085.461-.163.688-.254C533.186,1073.317,532.954,1073.4,532.725,1073.48Zm.892-1a.125.125,0,0,0,.038-.1h0A.125.125,0,0,1,533.617,1072.477Zm4.9-2.97a1.752,1.752,0,0,1-.126.14,1.727,1.727,0,0,0,.126-.14,1.245,1.245,0,0,0,.257-.188A1.247,1.247,0,0,1,538.513,1069.507Zm2.218-2.185a.9.9,0,0,1-.065.105.9.9,0,0,0,.065-.105c.138-.161.283-.317.423-.476C541.014,1067.005,540.869,1067.161,540.731,1067.322ZM542.26,1056c-.044.561-.113,1.119-.2,1.674-.082.518-.217,1.024-.327,1.536-.085.281-.165.564-.255.843a17.731,17.731,0,0,1-4.407,7.168,1.5,1.5,0,0,0-.279.3.566.566,0,0,0-.084.055q-.687.646-1.431,1.226a19.275,19.275,0,0,1-6.144,3.2,5.775,5.775,0,0,0-.752.238c-.3.068-.6.137-.905.2-.526.116-1.057.2-1.59.282a.346.346,0,0,0-.064.022h0c-.223.018-.444.067-.665.076-.62.026-1.238.092-1.86.074-.074,0-.149.006-.224.009-.46-.031-.92-.057-1.379-.1a14.019,14.019,0,0,1-1.938-.287,8.951,8.951,0,0,1-1.129-.284,17.208,17.208,0,0,1-5.495-2.655c-.023-.017-.044-.037-.065-.056a16.065,16.065,0,0,1-2.252-1.955c-.056-.057-.115-.112-.172-.168a.181.181,0,0,0,0,.07.181.181,0,0,1,0-.07l-.053-.058a.153.153,0,0,1-.092-.022.152.152,0,0,0,.092.022l-.1-.116,0,0h0l-.028-.03,0-.007a.059.059,0,0,1-.027,0,.059.059,0,0,0,.027,0l-.051-.05h0l-.033-.036-.035-.042a12.536,12.536,0,0,1-1.033-1.366c.086-.042.055-.142.1-.2h0c.2.214.331.476.537.682a6.323,6.323,0,0,0,.545.668,12.017,12.017,0,0,0,.889.958,22.559,22.559,0,0,0,1.734,1.443c.151.1.3.209.454.309a12.488,12.488,0,0,0,1.486.879,14.466,14.466,0,0,0,2.283,1.01,16.736,16.736,0,0,0,3.154.792,9.777,9.777,0,0,0,1.5.144.859.859,0,0,0,.167.033,20.112,20.112,0,0,0,2.735-.079c.384-.03.765-.084,1.144-.149.554-.1,1.1-.208,1.647-.35.428-.112.856-.218,1.274-.361l.193-.061a19.62,19.62,0,0,0,3.063-1.3,16.815,16.815,0,0,0,1.734-1.04,19.133,19.133,0,0,0,2.75-2.293,14.76,14.76,0,0,0,1.322-1.5,15.439,15.439,0,0,0,1.336-1.912,9.917,9.917,0,0,0,.66-1.21,18.615,18.615,0,0,0,.071-.139c.031-.013.036-.04.035-.069a.063.063,0,0,0,.034-.069.065.065,0,0,0,.034-.069,9.968,9.968,0,0,0,.068-.14.078.078,0,0,0,.035-.077l0-.007a.058.058,0,0,0,.031-.062l0-.009a.055.055,0,0,0,.03-.06l0-.012a.053.053,0,0,0,.028-.057,16.093,16.093,0,0,0,1.459-5.252,15.9,15.9,0,0,0-5.5-13.728c-.383-.332-.8-.624-1.193-.941h0v0c.053-.041.086.012.122.034.1.062.2.128.295.193.035.03.068.061.105.088a16.738,16.738,0,0,1,2.753,2.512,17.268,17.268,0,0,1,1.8,2.509q.132.242.264.484a19.877,19.877,0,0,1,.86,1.881c.1.312.209.623.3.937a14.431,14.431,0,0,1,.643,4.05q0,.468.008.935C542.276,1055.39,542.283,1055.695,542.26,1056Zm-33.036,8.987q.428.581.858,1.159h0Q509.653,1065.567,509.224,1064.987Zm.961,1.264a.345.345,0,0,1,.036-.071.345.345,0,0,0-.036.071Zm1.534,1.65a.14.14,0,0,0,.089.049,3.837,3.837,0,0,0,.556.5,3.83,3.83,0,0,1-.556-.5A.14.14,0,0,1,511.719,1067.9Zm2.839-1.412a.833.833,0,0,0-.137-.153.833.833,0,0,1,.137.153c.345.32.693.636,1.054.937C515.251,1067.124,514.9,1066.809,514.558,1066.489Zm.656,3.78-.056.029.056-.029Zm17.282-30.293c.233.114.465.229.7.346-.231-.117-.464-.232-.7-.346-.228-.093-.454-.191-.684-.278C532.042,1039.784,532.268,1039.882,532.5,1039.975Zm-.026-.776c.163.076.325.153.492.221h0C532.8,1039.352,532.633,1039.275,532.47,1039.2Zm9.1,15.318a15.553,15.553,0,1,1-15.54-15.557A15.549,15.549,0,0,1,541.566,1054.517Zm-6.567-13.2a.222.222,0,0,1,.047.041A.222.222,0,0,0,535,1041.314Zm.042.08h0l-.032-.009.032.009Zm-14.6,28.777q-.081-.024-.162-.045l-.029-.018.029.018Q520.361,1070.148,520.442,1070.172Zm-1.393-.57q-.575-.27-1.128-.588h0Q518.473,1069.332,519.049,1069.6Zm16.6-28.034c.075-.085.167-.156.243-.242C535.814,1041.411,535.722,1041.482,535.646,1041.567Zm3.208,2.5a.359.359,0,0,0,.033.078.359.359,0,0,1-.033-.078c-.265-.3-.527-.6-.794-.9C538.327,1043.461,538.59,1043.764,538.854,1044.065Zm-.591-4.508a.087.087,0,0,0,.028,0,.087.087,0,0,1-.028,0Zm.068.065c.047.026.1.045.12.1a2,2,0,0,1,.534.333,2,2,0,0,0-.535-.333C538.432,1039.667,538.379,1039.648,538.332,1039.622Zm2.847,8.634h0l.053.011Zm1.449-4.728c-.24-.309-.475-.623-.722-.927a15.939,15.939,0,0,0-1.491-1.589c-.484-.452-1.019-.839-1.526-1.262l-.471-.3a.224.224,0,0,0-.068.067.224.224,0,0,1,.068-.067,8.647,8.647,0,0,0-.958-.6,14.359,14.359,0,0,0-1.911-.943,10.849,10.849,0,0,0-1.511-.532.151.151,0,0,1,0,.034.149.149,0,0,0,0-.033.79.79,0,0,0-.079-.033,13.939,13.939,0,0,0-1.392-.354,7.006,7.006,0,0,0-.955-.17.525.525,0,0,1-.118,0,7.742,7.742,0,0,0-1.578-.176,9.663,9.663,0,0,0-1.172-.033,8.653,8.653,0,0,0-1.289.063c-.138.011-.276.02-.413.033a17.082,17.082,0,0,0-2.044.331,13.608,13.608,0,0,0-1.567.413c-.251.078-.5.15-.753.237a18.407,18.407,0,0,0-10.515,8.907,16.157,16.157,0,0,0-1.762,10.959,15.648,15.648,0,0,0,3.921,7.753,17.064,17.064,0,0,0,2.248,2.026l-.04.037c-.071-.048-.144-.094-.214-.144a18.745,18.745,0,0,1-1.685-1.4c-.26-.271-.524-.537-.777-.814a15.808,15.808,0,0,1-2.867-4.427c-.263-.606-.467-1.233-.689-1.854l-.006-.068-.031-.038c0-.033,0-.067,0-.1l-.032-.038a.467.467,0,0,0-.018-.17,14.625,14.625,0,0,1-.464-3.067,19.094,19.094,0,0,1,.186-3.689c.064-.32.121-.642.193-.961a17.516,17.516,0,0,1,.751-2.563c.144-.367.323-.718.463-1.086.223-.436.439-.875.683-1.3a18.158,18.158,0,0,1,2.017-2.847,19.063,19.063,0,0,1,4.177-3.606,19.315,19.315,0,0,1,5.259-2.337l.133-.037a18.462,18.462,0,0,1,2.441-.506c.573-.083,1.151-.131,1.732-.157.391-.017.782-.012,1.173-.033l-.073-.061.073.061,1.379.078c.591.083,1.184.151,1.77.265a19.912,19.912,0,0,1,2.1.563c.227.076.453.156.679.235a17.612,17.612,0,0,1,3.29,1.674c.262.172.515.358.772.537a14.085,14.085,0,0,1,1.767,1.481c.214.213.427.431.658.628a.116.116,0,0,0,0-.071.117.117,0,0,1,0,.071l.051.056a.045.045,0,0,1,.02,0,.045.045,0,0,0-.02,0c.007.023.018.041.047.038h0a.127.127,0,0,0,.1.109h0c0,.025.008.037.033.037h0a.054.054,0,0,0,.047.058h0a.031.031,0,0,0,.033.036.045.045,0,0,0,.037.044,11.634,11.634,0,0,1,.976,1.3Zm.5.844a.391.391,0,0,0-.066-.137.391.391,0,0,1,.066.137,3.431,3.431,0,0,1,.349.569A3.431,3.431,0,0,0,543.126,1044.372Zm.515,19.848a.176.176,0,0,0,.012-.044h0A.176.176,0,0,1,543.641,1064.219Zm.034-.086-.022.042.022-.042Zm.142-.242a.181.181,0,0,0,0-.031h0A.181.181,0,0,1,543.817,1063.891Zm.022-.042a.1.1,0,0,0,.019-.058h0A.1.1,0,0,1,543.839,1063.849Zm.045-.085a.25.25,0,0,0,.045-.11h0A.25.25,0,0,1,543.884,1063.764Zm.507-1.091a.61.61,0,0,1-.124.282.6.6,0,0,0,.123-.283s0-.007.01-.01S544.391,1062.669,544.391,1062.673Zm1.229-5.879c.037-.029.078-.056.128-.015C545.7,1056.738,545.657,1056.765,545.62,1056.794Z" transform="translate(-505.541 -1034.041)" fill="#fff"/>
  <path id="Path_427" data-name="Path 427" d="M640.924,1147.7c.024.339.026.68.038,1.02,0,.1,0,.208,0,.312-.014,1.668.024,3.337-.026,5.005a1.148,1.148,0,0,1-.519,1.061h0a.546.546,0,0,0,.528.291c.716-.019,1.432-.006,2.148-.008.046,0,.1.029.141-.028l-.4-.337a.65.65,0,0,1-.234-.466c-.016-.23-.036-.461-.038-.691,0-.86,0-1.721,0-2.581,0-.034-.025-.081.03-.107.186.258.37.516.557.771.631.861,1.241,1.736,1.89,2.583a2.172,2.172,0,0,0,2.091.919c.391-.043.787-.038,1.206-.107l-.162-.121a10.756,10.756,0,0,1-1.9-1.733c-.723-.878-1.379-1.807-2.066-2.712-.073-.1,0-.134.043-.186q1.269-1.633,2.541-3.265c.234-.3.235-.3-.065-.561a.548.548,0,0,0-.084-.013H644.54c-.022,0-.046,0-.051.028.381.317.413.481.182.922a4.392,4.392,0,0,1-.384.6c-.325.433-.649.869-.979,1.3-.248.325-.476.665-.747.972,0-.535-.006-1.07,0-1.605a9.486,9.486,0,0,1,.037-1.207.926.926,0,0,1,.257-.622c.18-.162.178-.166-.01-.334a.454.454,0,0,0-.071-.044h-2.382A1.013,1.013,0,0,1,640.924,1147.7Zm3.864,5.191q-.226.226-.463.44h0Q644.562,1153.115,644.789,1152.889Z" transform="translate(-620.89 -1130.448)" fill="#fff"/>
  <path id="Path_428" data-name="Path 428" d="M565,1154.235c-.013-.1-.028-.206-.042-.308q-.425-3.057-.849-6.115a.861.861,0,0,1,.146-.691c.144-.18.143-.181-.029-.345a.265.265,0,0,0-.058-.033c-.692,0-1.384,0-2.076-.007-.085,0-.111.032-.108.112a1.209,1.209,0,0,1-.114.5q-.516,1.311-1.03,2.622t-1.033,2.619c-.752-1.768-1.51-3.532-2.247-5.306a1.129,1.129,0,0,0-.422-.536h-2.2c.077.072.142.134.21.194a.653.653,0,0,1,.2.6c-.129,1.009-.269,2.017-.408,3.024q-.219,1.579-.447,3.156a2.342,2.342,0,0,1-.467,1.19c-.047.057-.135.088-.133.182a.66.66,0,0,0,.6.287c.315-.026.635-.006.953-.006h.95c-.114-.1-.2-.178-.282-.249a.876.876,0,0,1-.337-.842c.023-.166.032-.333.054-.5q.2-1.5.4-3c.082-.614.166-1.228.255-1.887.042.088.068.137.089.187q1.072,2.529,2.143,5.057a3.181,3.181,0,0,0,1.2,1.44c.082.054.126.083.177-.05q.858-2.223,1.732-4.44c.292-.745.59-1.487.884-2.231.022.14.048.279.067.42q.114.864.224,1.728c.1,1,.262,1.985.346,2.984a1.016,1.016,0,0,1-.494,1.1.52.52,0,0,0,.489.292c.744-.017,1.489-.006,2.233-.008.046,0,.1.028.142-.028-.069-.056-.134-.113-.2-.166A1.352,1.352,0,0,1,565,1154.235Zm-9.706-5.245h0a.12.12,0,0,0,.048-.01A.12.12,0,0,1,555.3,1148.99Zm.171-1.179c-.038.182-.068.365-.094.549.026-.184.056-.367.094-.549,0-.078,0-.156,0-.234C555.468,1147.655,555.469,1147.733,555.468,1147.811Zm.739.417-.192,1.489.192-1.489c.01-.049.022-.1.027-.148C556.229,1148.13,556.216,1148.179,556.207,1148.228Zm1-1.149.354.833-.354-.833-.066-.206Zm.81,5.071q-.476-1.119-.952-2.239a.3.3,0,0,1-.012-.067c-.137-.266-.253-.541-.362-.819.11.278.226.553.363.819a.3.3,0,0,0,.012.067q.475,1.119.952,2.239c.111.267.221.535.333.8C558.238,1152.684,558.128,1152.417,558.016,1152.15Z" transform="translate(-546.906 -1130.442)" fill="#fff"/>
  <path id="Path_429" data-name="Path 429" d="M699.889,1152.935a2.813,2.813,0,0,1-1.25.184,4.51,4.51,0,0,1-2.541-1.012l.38,1.546a.1.1,0,0,0,.057.08,1.006,1.006,0,0,0,.631.411,6.181,6.181,0,0,0,3.047.072,2.952,2.952,0,0,0,2.111-1.758,1.872,1.872,0,0,0-.687-2.366.233.233,0,0,0-.187-.068,2.624,2.624,0,0,0-.8-.495c-.412-.23-.851-.407-1.275-.612-.288-.139-.563-.3-.841-.458,0-.019-.01-.035-.033-.033-.013-.029-.025-.06-.065-.04.005-.068-.062-.082-.1-.118a.872.872,0,0,1-.223-.364.979.979,0,0,1,.566-1.2,2.287,2.287,0,0,1,1.4-.163,2.593,2.593,0,0,1,1.4.78c.083.082.161.168.272.284,0-.477-.025-.9.008-1.317a.692.692,0,0,0-.337-.691,4.381,4.381,0,0,0-.683-.167,5.8,5.8,0,0,0-1.658-.093,2.086,2.086,0,0,0-.48.042,2.967,2.967,0,0,0-1.746.828,1.891,1.891,0,0,0-.508,1.667l0,.069v.072c.029.064.016.142.065.2l.105.192-.105-.192a1.377,1.377,0,0,0,.221.608,2.379,2.379,0,0,0,1.036.917c.689.347,1.387.675,2.079,1.016a2.467,2.467,0,0,1,.7.477.968.968,0,0,1,.315.758A1.312,1.312,0,0,1,699.889,1152.935Z" transform="translate(-668.544 -1129.223)" fill="#fff"/>
</svg>
