<svg id="regulatorycompliance" xmlns="http://www.w3.org/2000/svg" width="40" height="40.107" viewBox="0 0 40 40.107">
  <g id="Group_3758" data-name="Group 3758" transform="translate(412.222 -180.476)">
    <rect id="Rectangle_2448" data-name="Rectangle 2448" width="40" height="40" transform="translate(-412.222 180.529)" fill="none"/>
    <g id="Group_3757" data-name="Group 3757">
      <g id="Group_3668" data-name="Group 3668">
        <g id="Group_3658" data-name="Group 3658">
          <g id="Path_2473" data-name="Path 2473">
            <g id="Group_3746" data-name="Group 3746">
              <path id="Path_2540" data-name="Path 2540" d="M-401.243,197.021l-1.9-1.9.579-.58,1.375,1.375,4.632-3.86.525.629Z" fill="#3d9155"/>
            </g>
          </g>
        </g>
        <g id="Group_3659" data-name="Group 3659">
          <g id="Path_2474" data-name="Path 2474">
            <g id="Group_3747" data-name="Group 3747">
              <path id="Path_2541" data-name="Path 2541" d="M-401.243,205.221l-1.9-1.9.579-.58,1.375,1.375,4.632-3.86.525.629Z" fill="#3d9155"/>
            </g>
          </g>
        </g>
        <g id="Group_3660" data-name="Group 3660">
          <g id="Path_2475" data-name="Path 2475">
            <g id="Group_3748" data-name="Group 3748">
              <path id="Path_2542" data-name="Path 2542" d="M-401.243,213.421l-1.9-1.9.579-.58,1.375,1.375,4.632-3.86.525.629Z" fill="#3d9155"/>
            </g>
          </g>
        </g>
        <g id="Group_3661" data-name="Group 3661">
          <g id="Rectangle_2426" data-name="Rectangle 2426">
            <g id="Group_3749" data-name="Group 3749">
              <rect id="Rectangle_2449" data-name="Rectangle 2449" width="10.66" height="0.82" transform="translate(-392.197 192.776)" fill="#3d9155"/>
            </g>
          </g>
        </g>
        <g id="Group_3662" data-name="Group 3662">
          <g id="Rectangle_2427" data-name="Rectangle 2427">
            <g id="Group_3750" data-name="Group 3750">
              <rect id="Rectangle_2450" data-name="Rectangle 2450" width="10.66" height="0.82" transform="translate(-392.197 200.976)" fill="#3d9155"/>
            </g>
          </g>
        </g>
        <g id="Group_3663" data-name="Group 3663">
          <g id="Rectangle_2428" data-name="Rectangle 2428">
            <g id="Group_3751" data-name="Group 3751">
              <rect id="Rectangle_2451" data-name="Rectangle 2451" width="10.66" height="0.82" transform="translate(-392.197 209.176)" fill="#3d9155"/>
            </g>
          </g>
        </g>
        <g id="Group_3664" data-name="Group 3664">
          <g id="Rectangle_2429" data-name="Rectangle 2429">
            <g id="Group_3752" data-name="Group 3752">
              <rect id="Rectangle_2452" data-name="Rectangle 2452" width="10.66" height="0.82" transform="translate(-392.197 196.056)" fill="#3d9155"/>
            </g>
          </g>
        </g>
        <g id="Group_3665" data-name="Group 3665">
          <g id="Rectangle_2430" data-name="Rectangle 2430">
            <g id="Group_3753" data-name="Group 3753">
              <rect id="Rectangle_2453" data-name="Rectangle 2453" width="10.66" height="0.82" transform="translate(-392.197 204.256)" fill="#3d9155"/>
            </g>
          </g>
        </g>
        <g id="Group_3666" data-name="Group 3666">
          <g id="Rectangle_2431" data-name="Rectangle 2431">
            <g id="Group_3754" data-name="Group 3754">
              <rect id="Rectangle_2454" data-name="Rectangle 2454" width="10.66" height="0.82" transform="translate(-392.197 212.455)" fill="#3d9155"/>
            </g>
          </g>
        </g>
        <g id="Group_3667" data-name="Group 3667">
          <g id="Path_2476" data-name="Path 2476">
            <g id="Group_3755" data-name="Group 3755">
              <path id="Path_2543" data-name="Path 2543" d="M-385.228,187.856h-13.94v-3.69a2.052,2.052,0,0,1,2.05-2.05h2.327a.892.892,0,0,0,.772-.533,2.052,2.052,0,0,1,2.765-.877,2.051,2.051,0,0,1,.877.877.893.893,0,0,0,.773.533h2.326a2.052,2.052,0,0,1,2.05,2.05Zm-13.119-.82h12.3v-2.868a1.232,1.232,0,0,0-1.23-1.23h-2.328a1.7,1.7,0,0,1-1.5-.974,1.23,1.23,0,0,0-1.659-.527,1.23,1.23,0,0,0-.527.527,1.7,1.7,0,0,1-1.5.974h-2.326a1.231,1.231,0,0,0-1.229,1.23Z" fill="#3d9155"/>
            </g>
          </g>
        </g>
      </g>
      <g id="Group_3756" data-name="Group 3756">
        <path id="Path_2544" data-name="Path 2544" d="M-377.206,220.583h-30.033V185.049h8.422v1.094h-7.329v33.346H-378.3V186.143h-7.086v-1.094h8.18Z" fill="#3d9155"/>
      </g>
    </g>
  </g>
</svg>
