<svg id="settlement" xmlns="http://www.w3.org/2000/svg" width="64" height="64" viewBox="0 0 64 64">
  <g id="Group_3648" data-name="Group 3648" transform="translate(109.069 40.09)">
    <circle id="Ellipse_50" data-name="Ellipse 50" cx="12" cy="12" r="12" transform="translate(-74.177 -35.151)" fill="#fff"/>
    <rect id="Rectangle_2410" data-name="Rectangle 2410" width="64" height="64" transform="translate(-109.069 -40.09)" fill="none"/>
    <path id="Path_2447" data-name="Path 2447" d="M-59.484,6.189H-75.2a9.4,9.4,0,0,0-9.332-8.35H-96.017V-5.293A1.046,1.046,0,0,0-97.06-6.337h-6.263a1.047,1.047,0,0,0-1.044,1.044V17.671a1.047,1.047,0,0,0,1.044,1.044h6.263a1.046,1.046,0,0,0,1.043-1.044V14.539h42.8A1.046,1.046,0,0,0-52.177,13.5,7.315,7.315,0,0,0-59.484,6.189Zm-36.533,6.263V-.074h11.482a7.311,7.311,0,0,1,7.223,6.263h-11.4a1.047,1.047,0,0,0-1.044,1.044A1.047,1.047,0,0,0-88.71,8.277h29.226a5.219,5.219,0,0,1,5.115,4.175Z" fill="#d9b52d"/>
    <g id="Group_3647" data-name="Group 3647">
      <path id="Path_2448" data-name="Path 2448" d="M-62.177-37.151a14,14,0,0,0-14,14,14,14,0,0,0,14,14,14,14,0,0,0,14-14A14,14,0,0,0-62.177-37.151Zm0,26a12,12,0,0,1-12-12,12,12,0,0,1,12-12,12,12,0,0,1,12,12A12,12,0,0,1-62.177-11.151Z" fill="#d9b52d"/>
    </g>
    <path id="Path_2449" data-name="Path 2449" d="M-62.177-33.151v10l5.171,3.266" fill="none" stroke="#d9b52d" stroke-miterlimit="10" stroke-width="1"/>
    <path id="Path_2450" data-name="Path 2450" d="M-96.017,12.452V-.074h11.482a7.311,7.311,0,0,1,7.223,6.263h-11.4a1.047,1.047,0,0,0-1.044,1.044A1.047,1.047,0,0,0-88.71,8.277h29.226a5.219,5.219,0,0,1,5.115,4.175Z" fill="#fff"/>
  </g>
</svg>
