<svg xmlns="http://www.w3.org/2000/svg" width="42" height="42" viewBox="0 0 42 42">
  <g id="Symbol_365_1" data-name="Symbol 365 – 1" transform="translate(-361 -811)">
    <rect id="Rectangle_127" data-name="Rectangle 127" width="42" height="42" transform="translate(361 811)" fill="none"/>
    <g id="XMLID_3_" transform="translate(366.652 820.828)">
      <path id="XMLID_17_" d="M218.686,13.693a1.793,1.793,0,1,1-1.793-1.793,1.817,1.817,0,0,1,1.793,1.793Zm0,0" transform="translate(-205.855 -0.244)" fill="#3D9155"/>
      <path id="XMLID_10_" d="M241.3,16.055a4.456,4.456,0,0,0-4.622-4.184,6.193,6.193,0,0,0-2.4.6,21.351,21.351,0,0,0-7.874-1.943l1.712-4.334,3.595.747v.3a3.628,3.628,0,0,0,7.189,0A3.309,3.309,0,0,0,235.3,4.1a3.735,3.735,0,0,0-3.081,1.494l-5.135-1.046-2.4,5.977a21.351,21.351,0,0,0-7.874,1.943l.171-.149a4.582,4.582,0,0,0-2.568-.6,4.358,4.358,0,0,0-4.622,4.184,4.1,4.1,0,0,0,2.225,3.586c.514,4.334,6.333,7.621,13.523,7.621s13.009-3.437,13.523-7.771a3.375,3.375,0,0,0,2.225-3.288Zm-6.162-10.46a1.967,1.967,0,0,1,2.054,1.793,2.073,2.073,0,0,1-4.108,0,2.084,2.084,0,0,1,2.054-1.793ZM214.25,13.365a2.455,2.455,0,0,1,1.027.149A7.268,7.268,0,0,0,212.025,18a2.59,2.59,0,0,1-.856-1.793,3.138,3.138,0,0,1,3.081-2.839Zm11.3,12.552c-6.676,0-11.982-3.138-11.982-6.874,0-3.885,5.306-6.874,11.982-6.874s11.982,3.138,11.982,6.874-5.306,6.874-11.982,6.874ZM238.9,17.848a7.4,7.4,0,0,0-3.252-4.334,1.736,1.736,0,0,1,.856-.149,2.893,2.893,0,0,1,3.081,2.69,2.4,2.4,0,0,1-.685,1.793Zm0,0" transform="translate(-209.8 -4.1)" fill="#3D9155"/>
      <path id="XMLID_7_" d="M223.986,13.693a1.793,1.793,0,1,1-1.793-1.793,1.817,1.817,0,0,1,1.793,1.793Zm0,0" transform="translate(-201.91 -0.244)" fill="#3D9155"/>
      <path id="XMLID_4_" d="M224.073,15.954a6.071,6.071,0,0,1-7.173,0,.747.747,0,1,0-.9,1.2,7.536,7.536,0,0,0,4.483,1.494,8.076,8.076,0,0,0,4.483-1.345.563.563,0,0,0,.149-.9c-.3-.6-.6-.747-1.046-.448Zm0,0" transform="translate(-204.921 1.679)" fill="#3D9155"/>
    </g>
  </g>
</svg>
