<svg xmlns="http://www.w3.org/2000/svg" width="42" height="42" viewBox="0 0 42 42">
  <g id="Symbol_364_1" data-name="Symbol 364 – 1" transform="translate(-428 -811)">
    <rect id="Rectangle_129" data-name="Rectangle 129" width="42" height="42" transform="translate(428 811)" fill="none"/>
    <g id="flogo-Hex-RGB-MedGrey-58" transform="translate(437.976 820.976)">
      <path id="Subtraction_8" data-name="Subtraction 8" d="M11.653,21.8H1.2A1.2,1.2,0,0,1,0,20.6V1.2A1.2,1.2,0,0,1,1.2,0H20.6a1.2,1.2,0,0,1,1.2,1.2V20.6a1.2,1.2,0,0,1-1.2,1.2H15.036V13.37h2.845l.019,0,.425-3.3h-3.27v-2.1c0-.7.128-1.372,1.053-1.552a3.128,3.128,0,0,1,.562-.046h1.748V3.422L18.151,3.4c-.73-.068-1.469-.1-2.195-.1h-.075a4.238,4.238,0,0,0-3.04,1.1,4.379,4.379,0,0,0-1.188,3.182q0,.033,0,.066v2.428H8.816v3.3h2.838V21.8Z" fill="#3D9155"/>
    </g>
  </g>
</svg>
