<svg xmlns="http://www.w3.org/2000/svg" width="42" height="42" viewBox="0 0 42 42">
  <g id="Symbol_367_1" data-name="Symbol 367 – 1" transform="translate(-228 -811)">
    <rect id="Rectangle_128" data-name="Rectangle 128" width="42" height="42" transform="translate(228 811)" fill="none"/>
    <g id="Symbol_238_1" data-name="Symbol 238 – 1" transform="translate(237.558 822.962)">
      <g id="Group_179" data-name="Group 179">
        <path id="Path_68" data-name="Path 68" d="M17.609,19.572a.829.829,0,0,1-.485-.15l-5.5-3.73L8.672,17.817a.891.891,0,0,1-.8.115.866.866,0,0,1-.543-.589L5.854,11.732.554,9.688A.848.848,0,0,1,0,8.891a.87.87,0,0,1,.543-.808L20.669.069A1.173,1.173,0,0,1,20.958,0h.1a.866.866,0,0,1,.554.242l.046.046A.859.859,0,0,1,21.87.8V.935c0,.035-.012.069-.012.1L18.464,18.868a.86.86,0,0,1-.52.635A.828.828,0,0,1,17.609,19.572Zm-5.5-5.647,4.9,3.326L19.653,3.383,10.1,12.575l1.986,1.339A.036.036,0,0,1,12.113,13.926Zm-4.088-.739.658,2.483,1.409-1.016L8.245,13.395A.939.939,0,0,1,8.025,13.187ZM3.245,8.868l3.637,1.386a.873.873,0,0,1,.531.589l.462,1.744a.869.869,0,0,1,.266-.531L17.24,3.3Z" transform="translate(0)" fill="#3D9155"/>
      </g>
    </g>
  </g>
</svg>
