<svg xmlns="http://www.w3.org/2000/svg" width="42" height="42" viewBox="0 0 42 42">
  <g id="Symbol_366_1" data-name="Symbol 366 – 1" transform="translate(-295 -811)">
    <rect id="Rectangle_125" data-name="Rectangle 125" width="42" height="42" transform="translate(295 811)" fill="none"/>
    <g id="Monogram" transform="translate(303.939 819.94)">
      <g id="Monogram-2" data-name="Monogram">
        <path id="Subtraction_5" data-name="Subtraction 5" d="M23.563,23.561H0V0H23.563V23.56ZM14.739,8.83h0v7.19c0,.194,0,.229-.125.355l-1.28,1.241v.265h6.208v-.265l-1.233-1.212a.368.368,0,0,1-.14-.355v-8.9a.368.368,0,0,1,.14-.355l1.264-1.212V5.317H15.2L12.082,13.1,8.534,5.317H3.946v.265l1.477,1.78a.614.614,0,0,1,.2.518v7a.813.813,0,0,1-.213.694L3.745,17.588v.265H8.459v-.265L6.8,15.571a.842.842,0,0,1-.229-.694V8.825l4.138,9.028h.479Z" fill="#3D9155"/>
      </g>
    </g>
  </g>
</svg>
