<svg xmlns="http://www.w3.org/2000/svg" width="22" height="22" viewBox="0 0 22 22">
  <g id="Symbol_353_1" data-name="Symbol 353 – 1" transform="translate(-247 -613)">
    <g id="Group_431" data-name="Group 431" transform="translate(-3 -2174)">
      <rect id="Rectangle_108" data-name="Rectangle 108" class="cls-1" width="22" height="22" transform="translate(250 2787)"/>
      <path id="XMLID_24_" class="cls-2" d="M1083.385,1030.2a8.593,8.593,0,0,0-2.719,16.741.435.435,0,0,0,.572-.429v-1.431c-2.361.5-2.862-1.145-2.862-1.145a2.265,2.265,0,0,0-.93-1.288c-.787-.5.072-.5.072-.5a1.761,1.761,0,0,1,1.288.858,1.864,1.864,0,0,0,2.5.715,1.593,1.593,0,0,1,.572-1.145c-1.932-.215-3.935-.93-3.935-4.221a7.262,7.262,0,0,0,.93-4.579s.715-.215,2.361.859a8.189,8.189,0,0,1,4.293,0c1.646-1.145,2.361-.859,2.361-.859a3,3,0,0,1,.072,2.289,3.132,3.132,0,0,1,.858,2.289c0,3.291-2,4.006-3.935,4.221a2.152,2.152,0,0,1,.572,1.574v2.361a.435.435,0,0,0,.572.429,8.593,8.593,0,0,0-2.647-16.741Z" transform="translate(-822.8 1759.8)"/>
    </g>
  </g>
</svg>
