<svg xmlns="http://www.w3.org/2000/svg" width="42" height="42" viewBox="0 0 42 42">
  <g id="Symbol_363_1" data-name="Symbol 363 – 1" transform="translate(-494 -811)">
    <rect id="Rectangle_131" data-name="Rectangle 131" class="cls-1" width="42" height="42" transform="translate(494 811)"/>
    <path id="BTC_alt" data-name="BTC alt" class="cls-3" d="M48.021,14.471A5.214,5.214,0,0,0,46.1,13.5a5.456,5.456,0,0,0,1.344-1.286,5.452,5.452,0,0,0,.618-2.156A4.944,4.944,0,0,0,46.72,6.126a6.641,6.641,0,0,0-4.14-1.473V.278H40.26V4.6H38.493V.278H36.174V4.6H31.61V7.4h1.341a1.724,1.724,0,0,1,1.292.407,1.6,1.6,0,0,1,.325,1.247c0,.7,0,10.9,0,11.162a1.208,1.208,0,0,1-.239.807c-.195.214-.39.264-.856.264H32.087l-.477,3.24h4.564v4.311h2.32V24.53H40.26v4.311h2.32V24.459c.6-.041,1.159-.094,1.485-.143a7.009,7.009,0,0,0,3.556-1.437c1.4-1.135,1.712-2.912,1.745-4.7A4.644,4.644,0,0,0,48.021,14.471ZM38.493,7.652a14.13,14.13,0,0,1,1.463-.063,6.421,6.421,0,0,1,2.32.378,2.279,2.279,0,0,1,1.539,2.156,2.192,2.192,0,0,1-1,2.054,5.026,5.026,0,0,1-2.4.68c-.845.038-1.93,0-1.93,0Zm5.192,12.895a6.543,6.543,0,0,1-2.623.731c-1.03.088-2.569.051-2.569.051V15.542a23.276,23.276,0,0,1,2.623,0,6.59,6.59,0,0,1,2.547.681,2.279,2.279,0,0,1,1.193,2.13A2.322,2.322,0,0,1,43.685,20.546Z" transform="translate(474.365 817.722)"/>
  </g>
</svg>
