<svg xmlns="http://www.w3.org/2000/svg" width="42" height="42" viewBox="0 0 42 42">
  <g id="Symbol_368_1" data-name="Symbol 368 – 1" transform="translate(-162 -811)">
    <rect id="Rectangle_124" data-name="Rectangle 124" class="cls-1" width="42" height="42" transform="translate(162 811)"/>
    <g id="Symbol_234_1" data-name="Symbol 234 – 1" transform="translate(170.007 822.097)">
      <path id="XMLID_2_" class="cls-3" d="M192.446,6.833a11.188,11.188,0,0,1-3.1.844,5.518,5.518,0,0,0,2.393-2.956,12.031,12.031,0,0,1-3.379,1.267A5.647,5.647,0,0,0,184.421,4.3a5.347,5.347,0,0,0-5.35,5.348,3.9,3.9,0,0,0,.141,1.267A15.959,15.959,0,0,1,168.23,5.426a5.82,5.82,0,0,0-.7,2.674,5.149,5.149,0,0,0,2.393,4.363,4.747,4.747,0,0,1-2.393-.7h0a5.3,5.3,0,0,0,4.224,5.207,4.791,4.791,0,0,1-1.408.141,2.4,2.4,0,0,1-.986-.141,5.287,5.287,0,0,0,4.928,3.659,10.732,10.732,0,0,1-6.617,2.252,3.9,3.9,0,0,1-1.267-.141,14.987,14.987,0,0,0,8.166,2.393c9.714,0,15.064-8.163,15.064-15.059v-.7A7.05,7.05,0,0,0,192.446,6.833Z" transform="translate(-166.4 -4.3)"/>
    </g>
  </g>
</svg>
