<svg id="tokenlinktobar" xmlns="http://www.w3.org/2000/svg" width="40" height="40" viewBox="0 0 40 40">
  <g id="Group_3762" data-name="Group 3762" transform="translate(352.222 -165.445)">
    <rect id="Rectangle_2455" data-name="Rectangle 2455" width="40" height="40" transform="translate(-352.222 165.445)" fill="none"/>
    <g id="Group_3760" data-name="Group 3760">
      <path id="Path_2545" data-name="Path 2545" d="M-327.35,188.6l3.521,15.842h-27.393l3.512-16.857h6.509" fill="none" stroke="#3d9155" stroke-width="1"/>
    </g>
    <path id="Path_2546" data-name="Path 2546" d="M-330.341,181.338l.353-.353a2.889,2.889,0,0,1,4.081,0,2.889,2.889,0,0,1,0,4.081l-3.441,3.441a2.877,2.877,0,0,1-2.04.844,2.879,2.879,0,0,1-2.041-.844,2.89,2.89,0,0,1,0-4.081l1.206-1.206m-.117,4.567,1.322-1.323a2.888,2.888,0,0,0,0-4.08,2.862,2.862,0,0,0-2.04-.846,2.862,2.862,0,0,0-2.04.846l-3.441,3.44a2.889,2.889,0,0,0,0,4.081,2.873,2.873,0,0,0,2.04.844,2.877,2.877,0,0,0,2.041-.844l.465-.465" fill="none" stroke="#3d9155" stroke-width="1"/>
    <g id="Group_3761" data-name="Group 3761">
      <path id="Path_2547" data-name="Path 2547" d="M-327.68,171.533c.022.023.066.023.111.023h.066c.022,0,.045-.023.067-.046l.355-.274V172.9h-.621v.434h1.819V172.9h-.533v-2.418h-.554l-1,.753.222.251C-327.747,171.51-327.725,171.533-327.68,171.533Z" fill="#3d9155"/>
      <path id="Path_2548" data-name="Path 2548" d="M-323.111,170.826a1.139,1.139,0,0,0-.377-.274,1.117,1.117,0,0,0-.465-.091,1,1,0,0,0-.466.091,1.064,1.064,0,0,0-.377.274,1.244,1.244,0,0,0-.244.456,1.915,1.915,0,0,0-.089.639,1.832,1.832,0,0,0,.089.638,1.244,1.244,0,0,0,.244.456,1.135,1.135,0,0,0,.377.274,1.055,1.055,0,0,0,.466.091,1,1,0,0,0,.465-.091.89.89,0,0,0,.377-.274,1,1,0,0,0,.245-.456,1.857,1.857,0,0,0,.088-.638,1.859,1.859,0,0,0-.088-.639A1.26,1.26,0,0,0-323.111,170.826Zm-.4,1.574a.885.885,0,0,1-.111.3.515.515,0,0,1-.155.16.508.508,0,0,1-.177.045.508.508,0,0,1-.178-.045.271.271,0,0,1-.155-.16.885.885,0,0,1-.111-.3,2.508,2.508,0,0,1-.044-.479,2.52,2.52,0,0,1,.044-.48.73.73,0,0,1,.111-.3.3.3,0,0,1,.155-.137.51.51,0,0,1,.178-.046.51.51,0,0,1,.177.046.3.3,0,0,1,.155.137.729.729,0,0,1,.111.3,2.948,2.948,0,0,1,.045.48A2.494,2.494,0,0,1-323.51,172.4Z" fill="#3d9155"/>
      <path id="Path_2549" data-name="Path 2549" d="M-320.094,170.826a1.149,1.149,0,0,0-.377-.274,1.119,1.119,0,0,0-.466-.091,1,1,0,0,0-.465.091,1.059,1.059,0,0,0-.378.274,1.274,1.274,0,0,0-.244.456,1.941,1.941,0,0,0-.088.639,1.857,1.857,0,0,0,.088.638,1.274,1.274,0,0,0,.244.456,1.139,1.139,0,0,0,.378.274,1.054,1.054,0,0,0,.465.091,1,1,0,0,0,.466-.091.9.9,0,0,0,.377-.274.989.989,0,0,0,.244-.456,1.832,1.832,0,0,0,.089-.638,1.834,1.834,0,0,0-.089-.639A.989.989,0,0,0-320.094,170.826Zm-.4,1.574a.885.885,0,0,1-.111.3.526.526,0,0,1-.155.16.508.508,0,0,1-.178.045.5.5,0,0,1-.177-.045.268.268,0,0,1-.155-.16.885.885,0,0,1-.111-.3,2.706,2.706,0,0,1-.045-.479,2.506,2.506,0,0,1,.045-.48.73.73,0,0,1,.111-.3.3.3,0,0,1,.155-.137.5.5,0,0,1,.177-.046.51.51,0,0,1,.178.046.3.3,0,0,1,.155.137.729.729,0,0,1,.111.3,2.957,2.957,0,0,1,.044.48A2.508,2.508,0,0,1-320.493,172.4Z" fill="#3d9155"/>
      <path id="Path_2550" data-name="Path 2550" d="M-326.15,174.726a1.136,1.136,0,0,0-.377-.273,1.119,1.119,0,0,0-.465-.092,1,1,0,0,0-.466.092,1.053,1.053,0,0,0-.377.273,1.252,1.252,0,0,0-.244.456,1.923,1.923,0,0,0-.089.639,1.838,1.838,0,0,0,.089.639,1.252,1.252,0,0,0,.244.456,1.152,1.152,0,0,0,.377.274,1.069,1.069,0,0,0,.466.091,1.007,1.007,0,0,0,.465-.091.9.9,0,0,0,.377-.274.994.994,0,0,0,.244-.456,1.838,1.838,0,0,0,.089-.639,1.837,1.837,0,0,0-.089-.639A1.125,1.125,0,0,0-326.15,174.726Zm-.4,1.6a.9.9,0,0,1-.111.3.511.511,0,0,1-.155.159.51.51,0,0,1-.177.046.51.51,0,0,1-.178-.046.266.266,0,0,1-.155-.159.9.9,0,0,1-.111-.3,2.707,2.707,0,0,1-.045-.479,2.494,2.494,0,0,1,.045-.479.735.735,0,0,1,.111-.3.294.294,0,0,1,.155-.136.51.51,0,0,1,.178-.046.51.51,0,0,1,.177.046.294.294,0,0,1,.155.136.735.735,0,0,1,.111.3,2.946,2.946,0,0,1,.045.479A2.494,2.494,0,0,1-326.549,176.323Z" fill="#3d9155"/>
      <path id="Path_2551" data-name="Path 2551" d="M-323.953,174.407l-1,.753.222.251c.022.022.045.022.067.045s.066.023.111.023h.066c.022,0,.045-.023.067-.046l.355-.273v1.665h-.621v.433h1.819v-.433h-.533v-2.418Z" fill="#3d9155"/>
      <path id="Path_2552" data-name="Path 2552" d="M-320.094,174.726a1.146,1.146,0,0,0-.377-.273,1.12,1.12,0,0,0-.466-.092,1,1,0,0,0-.465.092,1.056,1.056,0,0,0-.378.273,1.282,1.282,0,0,0-.244.456,1.949,1.949,0,0,0-.088.639,1.863,1.863,0,0,0,.088.639,1.282,1.282,0,0,0,.244.456,1.167,1.167,0,0,0,.378.274,1.068,1.068,0,0,0,.465.091,1.009,1.009,0,0,0,.466-.091.9.9,0,0,0,.377-.274.994.994,0,0,0,.244-.456,1.838,1.838,0,0,0,.089-.639,1.837,1.837,0,0,0-.089-.639A1.125,1.125,0,0,0-320.094,174.726Zm-.4,1.6a.9.9,0,0,1-.111.3.523.523,0,0,1-.155.159.51.51,0,0,1-.178.046.5.5,0,0,1-.177-.046.266.266,0,0,1-.155-.159.9.9,0,0,1-.111-.3,2.707,2.707,0,0,1-.045-.479,2.494,2.494,0,0,1,.045-.479.735.735,0,0,1,.111-.3.294.294,0,0,1,.155-.136.5.5,0,0,1,.177-.046.51.51,0,0,1,.178.046.3.3,0,0,1,.155.136.735.735,0,0,1,.111.3,2.955,2.955,0,0,1,.044.479A2.508,2.508,0,0,1-320.493,176.323Z" fill="#3d9155"/>
      <path id="Path_2553" data-name="Path 2553" d="M-323.111,178.65a1.139,1.139,0,0,0-.377-.274,1.133,1.133,0,0,0-.465-.091,1.009,1.009,0,0,0-.466.091,1.065,1.065,0,0,0-.377.274,1.244,1.244,0,0,0-.244.456,1.919,1.919,0,0,0-.089.639,1.829,1.829,0,0,0,.089.638,1.249,1.249,0,0,0,.244.457,1.146,1.146,0,0,0,.377.273,1.056,1.056,0,0,0,.466.092,1,1,0,0,0,.465-.092.9.9,0,0,0,.377-.273,1,1,0,0,0,.245-.457,1.853,1.853,0,0,0,.088-.638,1.859,1.859,0,0,0-.088-.639A1.486,1.486,0,0,0-323.111,178.65Zm-.4,1.6a.885.885,0,0,1-.111.3.526.526,0,0,1-.155.16.508.508,0,0,1-.177.045.508.508,0,0,1-.178-.045.271.271,0,0,1-.155-.16.885.885,0,0,1-.111-.3,2.957,2.957,0,0,1-.044-.48,2.517,2.517,0,0,1,.044-.479.73.73,0,0,1,.111-.3.3.3,0,0,1,.155-.137.51.51,0,0,1,.178-.046.51.51,0,0,1,.177.046.3.3,0,0,1,.155.137.729.729,0,0,1,.111.3,2.946,2.946,0,0,1,.045.479A2.948,2.948,0,0,1-323.51,180.247Z" fill="#3d9155"/>
      <path id="Path_2554" data-name="Path 2554" d="M-320.36,178.33h-.554l-1,.753.222.251c.022.023.045.023.067.046s.066.023.111.023h.066c.022,0,.045-.023.067-.046l.355-.274v1.665h-.621v.434h1.819v-.434h-.533Z" fill="#3d9155"/>
      <path id="Path_2555" data-name="Path 2555" d="M-323.955,185.1a9.4,9.4,0,0,0,1.51.121,9.388,9.388,0,0,0,9.388-9.387,9.388,9.388,0,0,0-9.388-9.388,9.388,9.388,0,0,0-9.388,9.388,9.366,9.366,0,0,0,.7,3.56" fill="none" stroke="#3d9155" stroke-width="1"/>
      <path id="Path_2556" data-name="Path 2556" d="M-318.607,171.533c.022.023.066.023.111.023h.066c.022,0,.044-.023.067-.046l.355-.274V172.9h-.622v.434h1.819V172.9h-.532v-2.418h-.555l-1,.753.222.251C-318.652,171.51-318.63,171.533-318.607,171.533Z" fill="#3d9155"/>
      <path id="Path_2557" data-name="Path 2557" d="M-317.055,174.726a1.146,1.146,0,0,0-.377-.273,1.12,1.12,0,0,0-.466-.092,1.28,1.28,0,0,0-.488.114,1.077,1.077,0,0,0-.377.274,1.267,1.267,0,0,0-.244.456,1.949,1.949,0,0,0-.088.639,1.863,1.863,0,0,0,.088.639,1.267,1.267,0,0,0,.244.456,1.174,1.174,0,0,0,.377.274,1.075,1.075,0,0,0,.466.091,1.069,1.069,0,0,0,.466-.091.91.91,0,0,0,.377-.274.994.994,0,0,0,.244-.456,1.837,1.837,0,0,0,.089-.639,1.837,1.837,0,0,0-.089-.639A1.054,1.054,0,0,0-317.055,174.726Zm-.4,1.6a.9.9,0,0,1-.111.3.523.523,0,0,1-.155.159.51.51,0,0,1-.178.046.511.511,0,0,1-.177-.046.266.266,0,0,1-.155-.159.9.9,0,0,1-.111-.3,2.707,2.707,0,0,1-.045-.479,2.494,2.494,0,0,1,.045-.479.735.735,0,0,1,.111-.3.294.294,0,0,1,.155-.136.51.51,0,0,1,.177-.046.51.51,0,0,1,.178.046.3.3,0,0,1,.155.136.735.735,0,0,1,.111.3,2.955,2.955,0,0,1,.044.479A2.508,2.508,0,0,1-317.454,176.323Z" fill="#3d9155"/>
      <path id="Path_2558" data-name="Path 2558" d="M-317.055,178.65a1.149,1.149,0,0,0-.377-.274,1.135,1.135,0,0,0-.466-.091,1.068,1.068,0,0,0-.465.091,1.056,1.056,0,0,0-.377.274,1.244,1.244,0,0,0-.244.456,1.919,1.919,0,0,0-.089.639,1.829,1.829,0,0,0,.089.638,1.249,1.249,0,0,0,.244.457,1.136,1.136,0,0,0,.377.273,1.054,1.054,0,0,0,.465.092,1.056,1.056,0,0,0,.466-.092.9.9,0,0,0,.377-.273.992.992,0,0,0,.244-.457,1.828,1.828,0,0,0,.089-.638,1.834,1.834,0,0,0-.089-.639A1.463,1.463,0,0,0-317.055,178.65Zm-.4,1.6a.885.885,0,0,1-.111.3.538.538,0,0,1-.155.16.508.508,0,0,1-.178.045.508.508,0,0,1-.177-.045.268.268,0,0,1-.155-.16.885.885,0,0,1-.111-.3,2.719,2.719,0,0,1-.045-.48,2.5,2.5,0,0,1,.045-.479.73.73,0,0,1,.111-.3.3.3,0,0,1,.155-.137.511.511,0,0,1,.177-.046.51.51,0,0,1,.178.046.3.3,0,0,1,.155.137.729.729,0,0,1,.111.3,2.955,2.955,0,0,1,.044.479A2.957,2.957,0,0,1-317.454,180.247Z" fill="#3d9155"/>
    </g>
    <path id="Path_2559" data-name="Path 2559" d="M-327.48,179.1a2.273,2.273,0,0,1,1.064.263V178.33h-.554l-1,.753.052.059A2.313,2.313,0,0,1-327.48,179.1Z" fill="#3d9155"/>
  </g>
</svg>
