<svg id="tokenburn" xmlns="http://www.w3.org/2000/svg" width="40" height="40" viewBox="0 0 40 40">
  <g id="Group_3714" data-name="Group 3714" transform="translate(523.352 -110.546)">
    <rect id="Rectangle_2437" data-name="Rectangle 2437" width="40" height="40" transform="translate(-523.352 110.546)" fill="none"/>
  </g>
  <g id="Group_3715" data-name="Group 3715" transform="translate(523.352 -110.546)">
    <path id="Path_2522" data-name="Path 2522" d="M-503.352,149.2A18.568,18.568,0,0,1-521.9,130.657a18.568,18.568,0,0,1,18.547-18.547A18.568,18.568,0,0,1-484.8,130.657,18.568,18.568,0,0,1-503.352,149.2Zm0-36A17.472,17.472,0,0,0-520.8,130.657a17.472,17.472,0,0,0,17.453,17.453A17.473,17.473,0,0,0-485.9,130.657,17.473,17.473,0,0,0-503.352,113.2Z" fill="#3d9155"/>
  </g>
  <g id="Path_2462" data-name="Path 2462" transform="translate(523.352 -110.546)">
    <path id="Path_2523" data-name="Path 2523" d="M-503.135,145.168l-1.61-.2a11.216,11.216,0,0,1-7.5-4.245,11.3,11.3,0,0,1,1.933-15.846l1.469-1.149-.7,1.729a6.946,6.946,0,0,0-.149,4.828c.153-6.83,4.167-12.653,9.658-13.936l.765-.179-.162.769a16.732,16.732,0,0,0-.363,3.424,7.473,7.473,0,0,0,2.037,5.255,11.926,11.926,0,0,1,2.506,4.787,5.132,5.132,0,0,0,.864-1.934l.284-1.306.643,1.171a11.37,11.37,0,0,1,.957,2.317,11.3,11.3,0,0,1-7.728,13.964l-1.707.491,1.2-1.309a5.255,5.255,0,0,0,1.387-3.7c0-1.4-.986-2.993-2.031-4.675a27.732,27.732,0,0,1-1.942-3.494c-.359.994-.764,1.936-1.161,2.857a14.459,14.459,0,0,0-1.594,5.3,5.073,5.073,0,0,0,1.722,4.011Zm-7.819-18.339a10.306,10.306,0,0,0-.5,13.278,10.213,10.213,0,0,0,5.431,3.6,6.057,6.057,0,0,1-1.049-3.636,15.346,15.346,0,0,1,1.675-5.676,35.176,35.176,0,0,0,1.573-4.125l.479-1.645.481,1.644a19.529,19.529,0,0,0,2.339,4.63c1.122,1.808,2.181,3.515,2.181,5.19a6.222,6.222,0,0,1-.7,3.03,10.3,10.3,0,0,0,5.584-12.185q-.15-.516-.351-1.016a6.154,6.154,0,0,1-1.377,1.934l-.68.645-.157-.924a10.722,10.722,0,0,0-2.519-5.339,8.394,8.394,0,0,1-2.246-5.868,17.79,17.79,0,0,1,.234-2.829c-4.758,1.551-8.136,6.936-8.136,13.153a16.973,16.973,0,0,0,.106,1.766l.207,1.853-1.107-1.5A7.925,7.925,0,0,1-510.954,126.829Z" fill="#3d9155"/>
  </g>
  <g id="Group_3727" data-name="Group 3727" transform="translate(523.352 -110.546)">
    <g id="Group_3716" data-name="Group 3716">
      <path id="Path_2524" data-name="Path 2524" d="M-494.438,120.987a.378.378,0,0,0,.251.05h.151c.05,0,.1-.05.151-.1l.805-.6V124h-1.408v.956h4.124V124h-1.207v-5.332h-1.258l-2.263,1.66.5.553C-494.539,120.937-494.488,120.987-494.438,120.987Z" fill="#3d9155"/>
    </g>
    <g id="Group_3718" data-name="Group 3718">
      <path id="Path_2526" data-name="Path 2526" d="M-498.742,118.8c-.05.52-.083,1.042-.084,1.563v.031a1.728,1.728,0,0,1,.111.391,6.311,6.311,0,0,1,.1,1.056c0,.136-.011.244-.019.361a6.428,6.428,0,0,0,.845,2.025,2.185,2.185,0,0,0,.532-.977,3.967,3.967,0,0,0,.2-1.409,3.962,3.962,0,0,0-.2-1.408,2.174,2.174,0,0,0-.554-1.006,2.621,2.621,0,0,0-.855-.6C-498.69,118.813-498.716,118.811-498.742,118.8Z" fill="#3d9155"/>
    </g>
    <g id="Group_3719" data-name="Group 3719">
      <path id="Path_2527" data-name="Path 2527" d="M-508.659,129.167c.009-.109.02-.218.031-.326l-.2.144Z" fill="#3d9155"/>
    </g>
    <g id="Group_3720" data-name="Group 3720">
      <path id="Path_2528" data-name="Path 2528" d="M-490.414,131.9a3.967,3.967,0,0,0,.2-1.409,3.962,3.962,0,0,0-.2-1.408,2.294,2.294,0,0,0-.5-1.056,2.621,2.621,0,0,0-.855-.6,2.625,2.625,0,0,0-1.057-.2,2.421,2.421,0,0,0-.258.032l.594,1.08c.027.048.046.1.071.148a.679.679,0,0,1,.348.3,1.613,1.613,0,0,1,.252.654c.03.184.056.393.076.614.07.2.151.4.21.6a11.353,11.353,0,0,1,.412,2.4,1.863,1.863,0,0,0,.157-.144A2.192,2.192,0,0,0-490.414,131.9Z" fill="#3d9155"/>
    </g>
    <g id="Group_3722" data-name="Group 3722">
      <path id="Path_2530" data-name="Path 2530" d="M-512.145,139.422a11.172,11.172,0,0,1-1.295-3.417l-2.226,1.633.5.553c.05.05.1.05.151.1a.378.378,0,0,0,.251.05h.151c.05,0,.1-.05.151-.1l.8-.6v3.672h-1.409v.955h4.125v-.955h-1.207Z" fill="#3d9155"/>
    </g>
    <g id="Group_3723" data-name="Group 3723">
      <path id="Path_2531" data-name="Path 2531" d="M-490.364,137.688a3.226,3.226,0,0,0-.553-1.006,3.14,3.14,0,0,0-.468-.384,11.184,11.184,0,0,1-.5,1.582,1.7,1.7,0,0,1,.059.21,6.321,6.321,0,0,1,.1,1.057,6.319,6.319,0,0,1-.1,1.056,1.976,1.976,0,0,1-.252.654,1.181,1.181,0,0,1-.352.352,1.2,1.2,0,0,1-.4.1,1.2,1.2,0,0,1-.4-.1.6.6,0,0,1-.352-.352l-.009-.018a11.041,11.041,0,0,1-.839.941,2.38,2.38,0,0,0,.546.335,2.487,2.487,0,0,0,1.056.2,2.489,2.489,0,0,0,1.057-.2,2.046,2.046,0,0,0,.855-.6,2.174,2.174,0,0,0,.553-1.006,3.966,3.966,0,0,0,.2-1.409A3.96,3.96,0,0,0-490.364,137.688Z" fill="#3d9155"/>
    </g>
    <g id="Group_3724" data-name="Group 3724">
      <path id="Path_2532" data-name="Path 2532" d="M-514.509,133.462a2.2,2.2,0,0,0,.843.184c0-.338.025-.676.059-1.013-.078-.019-.155-.045-.248-.076a.6.6,0,0,1-.352-.352,1.963,1.963,0,0,1-.252-.654,5.811,5.811,0,0,1-.1-1.057,5.362,5.362,0,0,1,.1-1.056,1.6,1.6,0,0,1,.252-.654.676.676,0,0,1,.352-.3,1.188,1.188,0,0,1,.4-.1,1.182,1.182,0,0,1,.4.1.682.682,0,0,1,.353.3,1.969,1.969,0,0,1,.1.191,11.152,11.152,0,0,1,.693-1.261,2.41,2.41,0,0,0-.494-.288,2.624,2.624,0,0,0-1.056-.2,2.332,2.332,0,0,0-1.056.2,2.418,2.418,0,0,0-.855.6,2.739,2.739,0,0,0-.554,1.006,4.143,4.143,0,0,0-.2,1.408,3.972,3.972,0,0,0,.2,1.409,2.756,2.756,0,0,0,.554,1.006A2.633,2.633,0,0,0-514.509,133.462Z" fill="#3d9155"/>
    </g>
    <g id="Group_3725" data-name="Group 3725">
      <path id="Path_2533" data-name="Path 2533" d="M-515.012,120.987a.378.378,0,0,0,.251.05h.151c.05,0,.1-.05.151-.1l.8-.6V124h-1.409v.956h4.125V124h-1.207v-5.332H-513.4l-2.263,1.66.5.553C-515.163,120.937-515.113,120.987-515.012,120.987Z" fill="#3d9155"/>
    </g>
    <g id="Group_3726" data-name="Group 3726">
      <path id="Path_2534" data-name="Path 2534" d="M-508.5,124.216l.623-.487-.312.774a2.451,2.451,0,0,0,.481.306q.212-.589.464-1.152a.936.936,0,0,1-.071-.1,1.985,1.985,0,0,1-.251-.654,5.287,5.287,0,0,1-.1-1.057,5.275,5.275,0,0,1,.1-1.056,1.615,1.615,0,0,1,.251-.654.676.676,0,0,1,.352-.3,1.2,1.2,0,0,1,.4-.1,1.189,1.189,0,0,1,.4.1.672.672,0,0,1,.352.3,1.6,1.6,0,0,1,.251.652,13.306,13.306,0,0,1,1.012-1.206,1.49,1.49,0,0,0-.106-.15,2.621,2.621,0,0,0-.855-.6,2.623,2.623,0,0,0-1.056-.2,2.334,2.334,0,0,0-1.057.2,2.426,2.426,0,0,0-.855.6,2.753,2.753,0,0,0-.553,1.006,4.141,4.141,0,0,0-.2,1.408,3.967,3.967,0,0,0,.2,1.409A2.846,2.846,0,0,0-508.5,124.216Z" fill="#3d9155"/>
    </g>
  </g>
</svg>
